<?xml version="1.0" encoding="UTF-8"?>
<!DOCTYPE svg PUBLIC "-//W3C//DTD SVG 1.1//EN" "http://www.w3.org/Graphics/SVG/1.1/DTD/svg11.dtd">
<!-- Creator: CorelDRAW 2021 (64-Bit) -->
<svg xmlns="http://www.w3.org/2000/svg" xml:space="preserve" width="360px" height="152px" version="1.1" style="shape-rendering:geometricPrecision; text-rendering:geometricPrecision; image-rendering:optimizeQuality; fill-rule:evenodd; clip-rule:evenodd"
viewBox="0 0 360 152"
 xmlns:xlink="http://www.w3.org/1999/xlink"
 xmlns:xodm="http://www.corel.com/coreldraw/odm/2003">
 <defs>
  <style type="text/css">
   <![CDATA[
    .fil1 {fill:#FEFEFE}
    .fil0 {fill:#FEFEFE;fill-rule:nonzero}
   ]]>
  </style>
 </defs>
 <g id="Слой_x0020_1">
  <metadata id="CorelCorpID_0Corel-Layer"/>
  <g>
   <path class="fil0" d="M179.06 32.56c10.33,0 19.69,4.18 26.46,10.96 6.77,6.77 10.95,16.12 10.95,26.45 0,10.33 -4.18,19.68 -10.95,26.45 -6.77,6.77 -16.13,10.96 -26.46,10.96 -10.33,0 -19.68,-4.19 -26.45,-10.96 -6.77,-6.77 -10.96,-16.12 -10.96,-26.45 0,-10.33 4.19,-19.68 10.96,-26.45 6.77,-6.78 16.12,-10.96 26.45,-10.96zm-17.02 46.26c-0.51,1.17 -0.78,2.17 -0.78,3 0,0.22 0.08,0.58 0.24,1.08 0.18,0.47 0.44,0.8 0.75,1 0.31,0.2 0.76,0.37 1.34,0.51 0.58,0.14 1.03,0.29 1.36,0.44 0.2,0.14 0.3,0.28 0.3,0.44 0,0.11 -0.07,0.22 -0.19,0.31 -0.13,0.1 -0.28,0.15 -0.46,0.15l-0.66 0c-0.49,0 -1.22,-0.04 -2.22,-0.12 -0.98,-0.08 -1.71,-0.12 -2.18,-0.12 -0.23,0 -0.43,0.01 -0.6,0.02 -0.15,0.01 -0.42,0.02 -0.79,0.04 -0.37,0.02 -0.77,0.05 -1.22,0.08 -0.45,0.03 -0.84,0.04 -1.19,0.04 -0.8,0 -1.3,-0.06 -1.52,-0.18 -0.19,-0.13 -0.29,-0.25 -0.29,-0.34 0,-0.21 0.15,-0.39 0.45,-0.53 0.31,-0.13 0.57,-0.2 0.8,-0.2 1.34,-0.16 2.41,-0.76 3.23,-1.83 0.81,-1.07 1.53,-2.41 2.15,-4.02l11.43 -27.28c0.26,-0.63 0.52,-0.94 0.81,-0.94 0.43,0 0.8,0.35 1.08,1.05l11.31 28.54c0.55,1.37 1.11,2.38 1.71,3.01 0.58,0.63 1.1,1.01 1.53,1.13 0.42,0.13 0.94,0.24 1.54,0.32l0.22 0.04c0.75,-0.26 1.39,-0.56 1.92,-0.9 0.92,-0.61 1.59,-1.4 2.01,-2.39 0.41,-0.99 0.65,-2.26 0.71,-3.84l0 -0.86c0,-1.44 -0.36,-2.51 -1.08,-3.23 -0.33,-0.34 -0.89,-0.57 -1.7,-0.68 -0.8,-0.11 -1.32,-0.22 -1.56,-0.34 -0.21,-0.07 -0.31,-0.19 -0.31,-0.35 0,-0.13 0.11,-0.26 0.34,-0.4 0.24,-0.13 0.44,-0.2 0.62,-0.2l0.43 0c0.13,0 0.35,0.01 0.66,0.04 0.3,0.03 0.59,0.06 0.88,0.1 0.29,0.04 0.51,0.06 0.64,0.06 0.39,0 1.01,0.02 1.86,0.06 0.86,0.04 1.48,0.06 1.89,0.06 0.24,-0.02 0.46,-0.03 0.66,-0.04 0.2,-0.01 0.47,-0.02 0.8,-0.02 0.06,0 0.56,-0.04 1.53,-0.13 0.95,-0.09 1.77,-0.13 2.45,-0.13 0.51,0 0.77,0.02 0.81,0.06 0.3,0.13 0.44,0.28 0.44,0.43 0,0.17 -0.47,0.45 -1.41,0.83 -0.94,0.38 -1.51,0.65 -1.7,0.82 -0.54,0.53 -0.81,1.86 -0.81,3.98 0,1.52 0.09,3.03 0.29,4.54 -1.3,0.06 -2.41,0.26 -3.33,0.61 -0.92,0.35 -2.2,0.96 -3.83,1.83 -1.05,0.56 -1.87,1.32 -3.69,1.32l0 0 -0.09 0c-0.71,0 -1.75,-0.02 -3.15,-0.06 -1.39,-0.04 -2.41,-0.06 -3.05,-0.06 -1.32,0 -2.29,0.02 -2.91,0.06 -0.1,0 -0.19,0.01 -0.29,0.02 -0.09,0.01 -0.27,0.02 -0.54,0.04 -0.26,0.02 -0.55,0.05 -0.85,0.08 -0.31,0.03 -0.61,0.04 -0.88,0.04 -1.03,0 -1.64,-0.16 -1.86,-0.47l0 -0.12c0,-0.16 0.17,-0.32 0.49,-0.46 0.33,-0.13 0.59,-0.2 0.76,-0.2 2.03,-0.16 3.06,-0.85 3.06,-2.09 0,-1.75 -7.82,-21.47 -7.85,-21.57l-0.01 0 -1.56 -4.02 -2.15 5.17 0 0.01c-1.33,3.21 -2.62,6.32 -3.88,9.44l8.58 0 0 1.21 -9.07 0c-0.81,2.02 -1.62,4.04 -2.42,6.11zm15 -26.17c1.11,-0.61 2.3,-1.09 3.59,-1.44 1.73,-0.48 3.53,-0.72 5.39,-0.72 2.46,0 4.75,0.4 6.86,1.2 0.11,0.06 0.41,0.22 0.88,0.48 0.45,0.25 0.92,0.47 1.38,0.65 0.45,0.17 0.82,0.25 1.11,0.25 0.04,0 0.13,-0.02 0.27,-0.06 0.13,-0.04 0.21,-0.04 0.23,-0.04 0.07,-0.08 0.19,-0.35 0.36,-0.81 0.16,-0.46 0.36,-0.69 0.6,-0.71l0.12 0c0.31,0 0.45,0.29 0.45,0.9l0 0.62 -0.22 7.55c0,0.43 -0.18,0.63 -0.55,0.63 -0.08,0 -0.16,-0.04 -0.24,-0.12 -0.02,-0.02 -0.16,-0.38 -0.42,-1.11 -0.26,-0.73 -0.53,-1.48 -0.81,-2.24 -0.28,-0.76 -0.48,-1.25 -0.59,-1.47 -0.59,-1.02 -1.35,-1.89 -2.3,-2.6 -0.95,-0.7 -1.99,-1.22 -3.12,-1.55 -1.14,-0.33 -2.33,-0.49 -3.59,-0.49 -0.63,0 -1.4,0.07 -2.29,0.2 -2.58,0.37 -4.63,1.49 -6.13,3.34l-0.98 -2.46zm-52.44 65.95l0 0 -2.01 0 0 0 -0.21 0.55c-0.14,0.34 -0.21,0.56 -0.21,0.64 0,0.11 0.09,0.17 0.27,0.19l0.31 0.02 0 0.2c-0.36,-0.01 -0.63,-0.02 -0.8,-0.02 -0.14,0 -0.4,0.01 -0.78,0.02l0 -0.2 0.25 -0.02c0.15,-0.02 0.28,-0.14 0.38,-0.37l1.84 -4.25 0.23 0 1.72 3.99c0.11,0.24 0.19,0.41 0.26,0.5 0.06,0.08 0.14,0.13 0.23,0.13l0.22 0.02 0 0.2c-0.34,-0.01 -0.62,-0.02 -0.84,-0.02 -0.14,0 -0.47,0.01 -1,0.02l0 -0.2 0.36 -0.03c0.17,-0.01 0.25,-0.06 0.25,-0.14 0,-0.05 -0.04,-0.16 -0.11,-0.35l-0.36 -0.88zm-1.88 -0.26l0 0 1.75 0 0 0 -0.89 -2.05 0 0 -0.86 2.05zm1.07 -3.27l-1.07 3.27 1.07 -3.27zm0.94 5.11l-0.94 -5.11 0.94 5.11zm-3.67 -4.89l3.67 4.89 -3.67 -4.89zm11.62 3.51l0 1.18c-0.81,0.23 -1.42,0.35 -1.85,0.35 -0.82,0 -1.48,-0.22 -1.99,-0.65 -0.51,-0.45 -0.76,-1.08 -0.76,-1.91 0,-0.71 0.26,-1.3 0.79,-1.78 0.53,-0.47 1.25,-0.7 2.16,-0.7 0.49,0 1.05,0.09 1.68,0.28 -0.09,0.36 -0.14,0.72 -0.14,1.06l-0.21 0 0 -0.33c0,-0.24 -0.14,-0.43 -0.42,-0.54 -0.28,-0.12 -0.65,-0.18 -1.11,-0.18 -0.67,0 -1.17,0.19 -1.52,0.59 -0.34,0.39 -0.51,0.88 -0.51,1.48 0,0.72 0.19,1.3 0.58,1.74 0.39,0.43 0.93,0.65 1.62,0.65 0.24,0 0.45,-0.02 0.61,-0.05 0.17,-0.04 0.29,-0.1 0.35,-0.16 0.04,-0.03 0.07,-0.14 0.07,-0.31l0 -0.7c0,-0.16 -0.07,-0.24 -0.19,-0.25 -0.12,-0.01 -0.33,-0.03 -0.62,-0.06l0 -0.2c0.38,0.01 0.69,0.02 0.95,0.02 0.14,0 0.4,-0.01 0.76,-0.02l0 0.17c-0.12,0.05 -0.18,0.08 -0.21,0.1 -0.03,0.02 -0.04,0.09 -0.04,0.22zm-1.71 -3.73l1.71 3.73 -1.71 -3.73zm-0.09 5.11l0.09 -5.11 -0.09 5.11zm5.3 -2.36l0 1.58c0,0.28 0.03,0.45 0.08,0.49 0.06,0.05 0.15,0.08 0.29,0.09l0.32 0.02 0 0.2c-0.36,-0.01 -0.7,-0.02 -1.02,-0.02 -0.31,0 -0.65,0.01 -1.02,0.02l0 -0.2 0.35 -0.03c0.13,-0.01 0.22,-0.05 0.27,-0.11 0.05,-0.06 0.07,-0.21 0.07,-0.44l0 -3.22c0,-0.2 -0.01,-0.34 -0.05,-0.42 -0.04,-0.08 -0.14,-0.12 -0.32,-0.13l-0.32 -0.02 0 -0.21c0.41,0.01 0.75,0.02 1.02,0.02 0.26,0 0.6,-0.01 1.02,-0.02l0 0.21 -0.38 0.02c-0.14,0.01 -0.23,0.05 -0.26,0.13 -0.04,0.08 -0.05,0.23 -0.05,0.44l0 1.29c0.18,0.01 0.38,0.01 0.6,0.01l1.53 0c0.22,0 0.42,0 0.61,-0.01l0 -1.29c0,-0.28 -0.04,-0.44 -0.1,-0.49 -0.06,-0.06 -0.15,-0.08 -0.27,-0.09l-0.32 -0.01 0 -0.21c0.36,0.01 0.7,0.02 1.01,0.02 0.32,0 0.66,-0.01 1.02,-0.02l0 0.21 -0.35 0.01c-0.12,0 -0.21,0.03 -0.26,0.08 -0.05,0.04 -0.08,0.2 -0.08,0.47l0 3.23c0,0.21 0.02,0.36 0.06,0.43 0.04,0.07 0.13,0.11 0.27,0.12l0.36 0.03 0 0.2c-0.36,-0.01 -0.7,-0.02 -1.02,-0.02 -0.32,0 -0.66,0.01 -1.01,0.02l0 -0.2 0.23 -0.02c0.18,-0.01 0.3,-0.04 0.36,-0.09 0.06,-0.05 0.1,-0.21 0.1,-0.49l0 -1.58c-0.17,-0.01 -0.33,-0.01 -0.49,-0.01l-1.62 0c-0.23,0 -0.44,0 -0.63,0.01zm9.27 0.78l0 0 -2 0 0 0 -0.22 0.55c-0.14,0.34 -0.21,0.56 -0.21,0.64 0,0.11 0.09,0.17 0.27,0.19l0.31 0.02 0 0.2c-0.36,-0.01 -0.63,-0.02 -0.8,-0.02 -0.14,0 -0.4,0.01 -0.78,0.02l0 -0.2 0.25 -0.02c0.16,-0.02 0.28,-0.14 0.38,-0.37l1.84 -4.25 0.23 0 1.73 3.99c0.1,0.24 0.18,0.41 0.25,0.5 0.06,0.08 0.14,0.13 0.23,0.13l0.22 0.02 0 0.2c-0.34,-0.01 -0.61,-0.02 -0.84,-0.02 -0.13,0 -0.47,0.01 -1,0.02l0 -0.2 0.37 -0.03c0.16,-0.01 0.24,-0.06 0.24,-0.14 0,-0.05 -0.04,-0.16 -0.11,-0.35l-0.36 -0.88zm-1.88 -0.26l0 0 1.75 0 0 0 -0.88 -2.05 -0.01 0 -0.86 2.05zm1.08 -3.27l-1.08 3.27 1.08 -3.27zm0.93 5.11l-0.93 -5.11 0.93 5.11zm-3.66 -4.89l3.66 4.89 -3.66 -4.89zm9.32 0.48c-0.02,0.2 -0.03,0.43 -0.03,0.69l0 2.94c0,0.28 0.03,0.44 0.08,0.49 0.06,0.05 0.15,0.08 0.26,0.09l0.35 0.02 0 0.2c-0.36,-0.01 -0.7,-0.02 -1.02,-0.02 -0.31,0 -0.65,0.01 -1.01,0.02l0 -0.2 0.34 -0.02c0.13,-0.01 0.22,-0.05 0.27,-0.1 0.05,-0.06 0.07,-0.22 0.07,-0.48l0 -2.95c0,-0.27 -0.01,-0.5 -0.03,-0.68l-1.01 0c-0.14,0 -0.22,0.02 -0.26,0.05 -0.03,0.03 -0.05,0.09 -0.06,0.18l-0.02 0.51 -0.23 0c0,-0.39 -0.01,-0.76 -0.05,-1.09 0.66,0.01 1.14,0.02 1.45,0.02l1.09 0c0.26,0 0.74,-0.01 1.44,-0.02 -0.03,0.33 -0.05,0.7 -0.05,1.09l-0.23 0 -0.02 -0.49c0,-0.11 -0.02,-0.17 -0.07,-0.2 -0.04,-0.03 -0.12,-0.05 -0.24,-0.05l-1.02 0zm-0.36 -0.7l0.36 0.7 -0.36 -0.7zm0.07 5.11l-0.07 -5.11 0.07 5.11zm-2.17 -4.89l2.17 4.89 -2.17 -4.89zm9.25 3.31l0 0 -2 0 0 0 -0.21 0.55c-0.14,0.34 -0.22,0.56 -0.22,0.64 0,0.11 0.09,0.17 0.27,0.19l0.32 0.02 0 0.2c-0.37,-0.01 -0.64,-0.02 -0.81,-0.02 -0.14,0 -0.4,0.01 -0.78,0.02l0 -0.2 0.25 -0.02c0.16,-0.02 0.28,-0.14 0.38,-0.37l1.85 -4.25 0.22 0 1.73 3.99c0.1,0.24 0.18,0.41 0.25,0.5 0.07,0.08 0.14,0.13 0.23,0.13l0.22 0.02 0 0.2c-0.33,-0.01 -0.61,-0.02 -0.83,-0.02 -0.14,0 -0.48,0.01 -1,0.02l0 -0.2 0.36 -0.03c0.16,-0.01 0.24,-0.06 0.24,-0.14 0,-0.05 -0.04,-0.16 -0.11,-0.35l-0.36 -0.88zm-1.88 -0.26l0 0 1.76 0 0 0 -0.89 -2.05 0 0 -0.87 2.05zm1.08 -3.27l-1.08 3.27 1.08 -3.27zm0.93 5.11l-0.93 -5.11 0.93 5.11zm-3.66 -4.89l3.66 4.89 -3.66 -4.89zm15.06 3.51l0 1.18c-0.8,0.23 -1.42,0.35 -1.85,0.35 -0.82,0 -1.48,-0.22 -1.99,-0.65 -0.51,-0.45 -0.76,-1.08 -0.76,-1.91 0,-0.71 0.26,-1.3 0.79,-1.78 0.53,-0.47 1.25,-0.7 2.16,-0.7 0.49,0 1.05,0.09 1.68,0.28 -0.09,0.36 -0.14,0.72 -0.14,1.06l-0.21 0 0 -0.33c0,-0.24 -0.14,-0.43 -0.42,-0.54 -0.28,-0.12 -0.65,-0.18 -1.11,-0.18 -0.67,0 -1.17,0.19 -1.51,0.59 -0.35,0.39 -0.52,0.88 -0.52,1.48 0,0.72 0.19,1.3 0.58,1.74 0.39,0.43 0.93,0.65 1.63,0.65 0.24,0 0.44,-0.02 0.6,-0.05 0.17,-0.04 0.29,-0.1 0.35,-0.16 0.04,-0.03 0.07,-0.14 0.07,-0.31l0 -0.7c0,-0.16 -0.07,-0.24 -0.19,-0.25 -0.12,-0.01 -0.33,-0.03 -0.62,-0.06l0 -0.2c0.38,0.01 0.69,0.02 0.95,0.02 0.14,0 0.4,-0.01 0.76,-0.02l0 0.17c-0.11,0.05 -0.18,0.08 -0.21,0.1 -0.03,0.02 -0.04,0.09 -0.04,0.22zm-1.71 -3.73l1.71 3.73 -1.71 -3.73zm-0.09 5.11l0.09 -5.11 -0.09 5.11zm7.34 -1.58l0 0 -2.01 0 0 0 -0.21 0.55c-0.14,0.34 -0.21,0.56 -0.21,0.64 0,0.11 0.09,0.17 0.27,0.19l0.31 0.02 0 0.2c-0.36,-0.01 -0.63,-0.02 -0.8,-0.02 -0.14,0 -0.4,0.01 -0.78,0.02l0 -0.2 0.25 -0.02c0.15,-0.02 0.28,-0.14 0.38,-0.37l1.84 -4.25 0.23 0 1.73 3.99c0.1,0.24 0.18,0.41 0.24,0.5 0.07,0.08 0.15,0.13 0.24,0.13l0.22 0.02 0 0.2c-0.34,-0.01 -0.62,-0.02 -0.84,-0.02 -0.14,0 -0.47,0.01 -1,0.02l0 -0.2 0.36 -0.03c0.17,-0.01 0.25,-0.06 0.25,-0.14 0,-0.05 -0.04,-0.16 -0.11,-0.35l-0.36 -0.88zm-1.89 -0.26l0 0 1.76 0 0 0 -0.89 -2.05 0 0 -0.87 2.05zm1.08 -3.27l-1.08 3.27 1.08 -3.27zm0.94 5.11l-0.94 -5.11 0.94 5.11zm-3.67 -4.89l3.67 4.89 -3.67 -4.89zm7.02 4.71l0.31 -0.02c0.16,-0.01 0.27,-0.05 0.31,-0.11 0.04,-0.07 0.06,-0.22 0.06,-0.47l0 -3.19c0,-0.16 -0.01,-0.29 -0.03,-0.39 -0.02,-0.11 -0.12,-0.16 -0.3,-0.17l-0.35 -0.02 0 -0.21c0.36,0.01 0.7,0.02 1.01,0.02 0.32,0 0.66,-0.01 1.02,-0.02l0 0.21 -0.35 0.02c-0.18,0.02 -0.28,0.07 -0.3,0.16 -0.03,0.09 -0.04,0.23 -0.04,0.41l0 3.19c0,0.28 0.03,0.44 0.08,0.48 0.06,0.05 0.15,0.08 0.28,0.09l0.33 0.02 0 0.2c-0.44,-0.01 -0.78,-0.02 -1.02,-0.02 -0.27,0 -0.61,0.01 -1.01,0.02l0 -0.2zm1.01 -4.93l-1.01 4.93 1.01 -4.93zm0.03 5.11l-0.03 -5.11 0.03 5.11zm-1.2 -4.89l1.2 4.89 -1.2 -4.89zm11.86 4.31l-0.19 0.35c-0.49,0.25 -0.99,0.38 -1.53,0.38 -0.79,0 -1.44,-0.22 -1.95,-0.66 -0.51,-0.44 -0.77,-1.06 -0.77,-1.84 0,-0.76 0.27,-1.37 0.8,-1.84 0.53,-0.47 1.19,-0.7 1.99,-0.7 0.54,0 1.07,0.09 1.6,0.28 -0.09,0.42 -0.14,0.77 -0.14,1.06l-0.21 0 0 -0.49c0,-0.15 -0.15,-0.28 -0.44,-0.4 -0.29,-0.11 -0.59,-0.16 -0.89,-0.16 -0.62,0 -1.1,0.2 -1.46,0.59 -0.35,0.4 -0.52,0.9 -0.52,1.52 0,0.7 0.21,1.25 0.63,1.66 0.42,0.41 0.97,0.61 1.66,0.61 0.54,0 0.99,-0.14 1.36,-0.43l0.06 0.07zm-1.68 -4.53l1.68 4.53 -1.68 -4.53zm-0.04 5.11l0.04 -5.11 -0.04 5.11zm3.67 -2.35c0,-0.74 0.23,-1.35 0.69,-1.82 0.47,-0.48 1.06,-0.72 1.77,-0.72 0.78,0 1.41,0.19 1.89,0.59 0.49,0.39 0.73,0.98 0.73,1.75 0,0.75 -0.25,1.38 -0.74,1.91 -0.5,0.53 -1.14,0.79 -1.94,0.79 -0.72,0 -1.3,-0.23 -1.74,-0.69 -0.44,-0.45 -0.66,-1.06 -0.66,-1.81zm0.72 -0.3c0,0.77 0.18,1.39 0.54,1.84 0.35,0.45 0.82,0.67 1.38,0.67 0.55,0 0.98,-0.19 1.27,-0.57 0.3,-0.38 0.45,-0.93 0.45,-1.63 0,-0.72 -0.16,-1.28 -0.49,-1.67 -0.32,-0.4 -0.79,-0.59 -1.39,-0.59 -0.54,0 -0.97,0.17 -1.29,0.52 -0.31,0.34 -0.47,0.82 -0.47,1.43zm1.82 -2.46l-1.82 2.46 1.82 -2.46zm4.43 5.01c0.03,-0.21 0.05,-0.47 0.05,-0.78l0 -0.26 0.21 0 0.05 0.41c0.02,0.18 0.15,0.33 0.39,0.44 0.23,0.1 0.47,0.15 0.73,0.15 0.35,0 0.65,-0.09 0.89,-0.29 0.26,-0.2 0.38,-0.45 0.38,-0.77 0,-0.31 -0.1,-0.53 -0.3,-0.67 -0.21,-0.13 -0.52,-0.22 -0.95,-0.27 -0.57,-0.08 -0.96,-0.21 -1.18,-0.4 -0.21,-0.19 -0.31,-0.46 -0.31,-0.81 0,-0.47 0.17,-0.84 0.53,-1.12 0.35,-0.28 0.77,-0.42 1.27,-0.42 0.32,0 0.73,0.09 1.23,0.28 -0.06,0.32 -0.09,0.64 -0.09,0.96l-0.22 0 -0.04 -0.35c-0.02,-0.2 -0.13,-0.35 -0.33,-0.45 -0.21,-0.1 -0.45,-0.15 -0.73,-0.15 -0.29,0 -0.53,0.09 -0.74,0.27 -0.2,0.18 -0.3,0.42 -0.3,0.73 0,0.28 0.09,0.48 0.29,0.61 0.19,0.14 0.49,0.22 0.89,0.26 0.6,0.07 1.01,0.19 1.23,0.37 0.22,0.18 0.33,0.43 0.33,0.74 0,0.54 -0.2,0.98 -0.6,1.3 -0.4,0.31 -0.9,0.47 -1.52,0.47 -0.41,0 -0.8,-0.08 -1.16,-0.25zm1.74 -5.01l-1.74 5.01 1.74 -5.01zm-0.4 5.11l0.4 -5.11 -0.4 5.11zm8.61 -3.97c-0.6,1.19 -1.23,2.54 -1.88,4.05l-0.14 0 -1.94 -4.05 0 0 0 3.19c0,0.24 0.02,0.4 0.07,0.46 0.05,0.07 0.14,0.11 0.27,0.12l0.35 0.02 0 0.2c-0.37,-0.01 -0.65,-0.02 -0.83,-0.02 -0.21,0 -0.49,0.01 -0.87,0.02l0 -0.2 0.37 -0.04c0.11,-0.01 0.19,-0.04 0.24,-0.08 0.06,-0.05 0.08,-0.21 0.08,-0.48l0 -3.18c0,-0.25 -0.02,-0.41 -0.08,-0.47 -0.05,-0.07 -0.15,-0.1 -0.3,-0.11l-0.31 -0.01 0 -0.21c0.35,0.01 0.58,0.02 0.68,0.02 0.12,0 0.35,-0.01 0.67,-0.02l1.83 3.8 0 0 1.79 -3.8c0.32,0.01 0.54,0.02 0.67,0.02 0.15,0 0.37,-0.01 0.67,-0.02l0 0.21 -0.32 0.01c-0.19,0.01 -0.29,0.06 -0.32,0.16 -0.03,0.09 -0.05,0.23 -0.05,0.42l0 3.18c0,0.24 0.03,0.4 0.07,0.46 0.05,0.07 0.14,0.11 0.27,0.12l0.35 0.02 0 0.2c-0.36,-0.01 -0.7,-0.02 -1.01,-0.02 -0.25,0 -0.56,0.01 -0.91,0.02l0 -0.2c0.26,-0.02 0.42,-0.06 0.48,-0.12 0.07,-0.06 0.1,-0.22 0.1,-0.48l0 -3.19zm4.47 1.72l-0.02 1.91c0.15,0.03 0.4,0.05 0.74,0.05 0.43,0 0.84,-0.02 1.22,-0.07 0.11,-0.01 0.2,-0.15 0.25,-0.41l0.06 -0.36 0.23 0c-0.08,0.45 -0.11,0.83 -0.11,1.13 -0.62,0.01 -1.05,0.02 -1.3,0.02 -0.13,0 -0.31,0 -0.54,-0.01 -0.23,0 -0.42,-0.01 -0.56,-0.01 -0.46,0 -0.86,0.01 -1.22,0.02l0 -0.2c0.25,-0.03 0.42,-0.05 0.49,-0.08 0.07,-0.03 0.11,-0.22 0.11,-0.58l0 -3.15c0,-0.31 -0.06,-0.48 -0.17,-0.51 -0.11,-0.04 -0.28,-0.05 -0.51,-0.05l0 -0.21c0.36,0.01 0.72,0.02 1.08,0.02 0.22,0 0.53,0 0.94,-0.01 0.41,-0.01 0.67,-0.01 0.79,-0.01 0.32,0 0.62,0.01 0.89,0.02 -0.08,0.29 -0.12,0.63 -0.12,1.02l-0.23 0 0 -0.42c0,-0.13 -0.12,-0.22 -0.36,-0.25 -0.24,-0.04 -0.6,-0.06 -1.09,-0.06 -0.24,0 -0.44,0.02 -0.59,0.05l0.02 1.82c0.22,0.02 0.49,0.02 0.8,0.02 0.48,0 0.73,-0.03 0.75,-0.1 0.01,-0.07 0.04,-0.25 0.06,-0.54l0.23 0 -0.02 0.8c0,0.02 0.01,0.28 0.02,0.78l-0.23 0c-0.02,-0.26 -0.04,-0.44 -0.05,-0.52 -0.02,-0.08 -0.27,-0.13 -0.74,-0.13 -0.4,0 -0.68,0.01 -0.82,0.02zm0.61 -2.86l-0.61 2.86 0.61 -2.86zm1.12 5.11l-1.12 -5.11 1.12 5.11zm-3.22 -4.89l3.22 4.89 -3.22 -4.89zm8.17 0.48c-0.02,0.2 -0.03,0.43 -0.03,0.69l0 2.94c0,0.28 0.03,0.44 0.08,0.49 0.06,0.05 0.15,0.08 0.26,0.09l0.35 0.02 0 0.2c-0.36,-0.01 -0.7,-0.02 -1.02,-0.02 -0.32,0 -0.65,0.01 -1.02,0.02l0 -0.2 0.35 -0.02c0.13,-0.01 0.22,-0.05 0.27,-0.1 0.05,-0.06 0.07,-0.22 0.07,-0.48l0 -2.95c0,-0.27 -0.01,-0.5 -0.03,-0.68l-1.01 0c-0.14,0 -0.22,0.02 -0.26,0.05 -0.03,0.03 -0.05,0.09 -0.06,0.18l-0.02 0.51 -0.23 0c0,-0.39 -0.02,-0.76 -0.05,-1.09 0.66,0.01 1.14,0.02 1.44,0.02l1.1 0c0.26,0 0.74,-0.01 1.44,-0.02 -0.03,0.33 -0.05,0.7 -0.05,1.09l-0.23 0 -0.02 -0.49c0,-0.11 -0.03,-0.17 -0.07,-0.2 -0.04,-0.03 -0.12,-0.05 -0.25,-0.05l-1.01 0zm-0.36 -0.7l0.36 0.7 -0.36 -0.7zm0.07 5.11l-0.07 -5.11 0.07 5.11zm-2.17 -4.89l2.17 4.89 -2.17 -4.89zm5.87 4.71l0.31 -0.02c0.17,-0.01 0.27,-0.05 0.31,-0.11 0.05,-0.07 0.07,-0.22 0.07,-0.47l0 -3.19c0,-0.16 -0.01,-0.29 -0.04,-0.39 -0.02,-0.11 -0.12,-0.16 -0.3,-0.17l-0.35 -0.02 0 -0.21c0.36,0.01 0.7,0.02 1.02,0.02 0.31,0 0.65,-0.01 1.01,-0.02l0 0.21 -0.35 0.02c-0.17,0.02 -0.27,0.07 -0.3,0.16 -0.02,0.09 -0.04,0.23 -0.04,0.41l0 3.19c0,0.28 0.03,0.44 0.08,0.48 0.06,0.05 0.15,0.08 0.28,0.09l0.33 0.02 0 0.2c-0.43,-0.01 -0.77,-0.02 -1.02,-0.02 -0.27,0 -0.61,0.01 -1.01,0.02l0 -0.2zm1.01 -4.93l-1.01 4.93 1.01 -4.93zm0.04 5.11l-0.04 -5.11 0.04 5.11zm-1.2 -4.89l1.2 4.89 -1.2 -4.89zm8.41 4.31l-0.2 0.35c-0.48,0.25 -0.99,0.38 -1.52,0.38 -0.79,0 -1.44,-0.22 -1.95,-0.66 -0.52,-0.44 -0.77,-1.06 -0.77,-1.84 0,-0.76 0.26,-1.37 0.79,-1.84 0.53,-0.47 1.2,-0.7 2,-0.7 0.53,0 1.07,0.09 1.59,0.28 -0.09,0.42 -0.13,0.77 -0.13,1.06l-0.21 0 0 -0.49c0,-0.15 -0.15,-0.28 -0.44,-0.4 -0.29,-0.11 -0.59,-0.16 -0.9,-0.16 -0.61,0 -1.09,0.2 -1.45,0.59 -0.35,0.4 -0.53,0.9 -0.53,1.52 0,0.7 0.21,1.25 0.63,1.66 0.42,0.41 0.98,0.61 1.66,0.61 0.54,0 1,-0.14 1.37,-0.43l0.06 0.07zm-1.68 -4.53l1.68 4.53 -1.68 -4.53zm-0.04 5.11l0.04 -5.11 -0.04 5.11zm3.72 -0.1c0.03,-0.21 0.05,-0.47 0.05,-0.78l0 -0.26 0.22 0 0.04 0.41c0.02,0.18 0.15,0.33 0.38,0.44 0.24,0.1 0.48,0.15 0.74,0.15 0.35,0 0.65,-0.09 0.89,-0.29 0.26,-0.2 0.38,-0.45 0.38,-0.77 0,-0.31 -0.1,-0.53 -0.3,-0.67 -0.21,-0.13 -0.53,-0.22 -0.95,-0.27 -0.57,-0.08 -0.96,-0.21 -1.18,-0.4 -0.21,-0.19 -0.31,-0.46 -0.31,-0.81 0,-0.47 0.18,-0.84 0.53,-1.12 0.35,-0.28 0.78,-0.42 1.27,-0.42 0.32,0 0.73,0.09 1.23,0.28 -0.06,0.32 -0.09,0.64 -0.09,0.96l-0.23 0 -0.03 -0.35c-0.02,-0.2 -0.13,-0.35 -0.34,-0.45 -0.2,-0.1 -0.44,-0.15 -0.72,-0.15 -0.29,0 -0.53,0.09 -0.74,0.27 -0.2,0.18 -0.3,0.42 -0.3,0.73 0,0.28 0.09,0.48 0.29,0.61 0.19,0.14 0.49,0.22 0.89,0.26 0.6,0.07 1.01,0.19 1.23,0.37 0.22,0.18 0.33,0.43 0.33,0.74 0,0.54 -0.2,0.98 -0.6,1.3 -0.4,0.31 -0.9,0.47 -1.52,0.47 -0.41,0 -0.8,-0.08 -1.16,-0.25zm1.74 -5.01l-1.74 5.01 1.74 -5.01zm-0.4 5.11l0.4 -5.11 -0.4 5.11zm-30.4 -76.06c-6.62,-6.61 -15.76,-10.7 -25.85,-10.7 -10.09,0 -19.23,4.09 -25.85,10.7 -6.61,6.62 -10.7,15.76 -10.7,25.85 0,10.09 4.09,19.23 10.7,25.84 6.62,6.62 15.76,10.71 25.85,10.71 10.09,0 19.23,-4.09 25.85,-10.71 6.61,-6.61 10.7,-15.75 10.7,-25.84 0,-10.09 -4.09,-19.23 -10.7,-25.85z"/>
  </g>
  <g>
   <path class="fil1" d="M0 0l360 0 0 152 -360 0 0 -152zm358.96 1.04l-357.92 0 0 149.91 357.92 0 0 -149.91z"/>
  </g>
 </g>
</svg>
