<?xml version="1.0" encoding="UTF-8"?>
<!DOCTYPE svg PUBLIC "-//W3C//DTD SVG 1.1//EN" "http://www.w3.org/Graphics/SVG/1.1/DTD/svg11.dtd">
<!-- Creator: CorelDRAW 2021 (64-Bit) -->
<svg xmlns="http://www.w3.org/2000/svg" xml:space="preserve" width="360px" height="152px" version="1.1" style="shape-rendering:geometricPrecision; text-rendering:geometricPrecision; image-rendering:optimizeQuality; fill-rule:evenodd; clip-rule:evenodd"
viewBox="0 0 360 152"
 xmlns:xlink="http://www.w3.org/1999/xlink"
 xmlns:xodm="http://www.corel.com/coreldraw/odm/2003">
 <defs>
  <style type="text/css">
   <![CDATA[
    .fil0 {fill:#FEFEFE}
    .fil1 {fill:#FEFEFE;fill-rule:nonzero}
   ]]>
  </style>
 </defs>
 <g id="Слой_x0020_1">
  <metadata id="CorelCorpID_0Corel-Layer"/>
  <g>
   <path class="fil0" d="M0 0l360 0 0 152 -360 0 0 -152zm358.96 1.04l-357.92 0 0 149.91 357.92 0 0 -149.91z"/>
  </g>
  <g id="AILES_x0020_-_x0020_logo.cdr">
   <path class="fil1" d="M131.7 89.29l-5.41 -13.02 -5.37 13.02 10.78 0zm0.7 1.63l-12.14 0 -2.94 7.11 -2.55 0 11.02 -26.71 3.2 0 11.1 26.71 -4.76 0 -2.93 -7.11zm24 7.11l-4.29 0 0 -26.71 4.29 0 0 26.71zm34.32 0l-18.21 0 0 0 0 -26.71 4.29 0 0 25.09 13.92 0 0 1.62zm12.32 -25.09l0 10.13 12.45 0 0 1.62 -12.45 0 0 11.72 13.92 0 0 1.62 -18.21 0 0 0 0 -26.71 0 0 18.21 0 0 1.62 -13.92 0zm41.59 14.85c0.41,0.95 0.61,1.89 0.6,2.82 -0.01,0.93 -0.19,1.88 -0.52,2.86 -0.52,1.49 -1.36,2.65 -2.53,3.48 -1.18,0.82 -2.5,1.38 -3.97,1.66 -2.01,0.36 -3.99,0.26 -5.95,-0.29 -1.96,-0.55 -3.68,-1.44 -5.18,-2.65l1.01 -1.35c0.1,0.05 0.31,0.18 0.63,0.39 0.33,0.2 0.75,0.44 1.28,0.71 0.53,0.27 1.13,0.54 1.82,0.81 0.68,0.27 1.42,0.5 2.22,0.68 0.57,0.13 1.19,0.2 1.87,0.23 0.69,0.03 1.36,-0.03 2.01,-0.15 0.66,-0.13 1.26,-0.35 1.8,-0.66 0.54,-0.31 0.97,-0.76 1.28,-1.35 0.49,-0.88 0.7,-1.71 0.64,-2.5 -0.07,-0.78 -0.24,-1.45 -0.53,-1.99 -0.28,-0.51 -0.65,-0.94 -1.12,-1.29 -0.46,-0.35 -0.95,-0.64 -1.47,-0.87 -0.15,-0.08 -0.57,-0.24 -1.25,-0.49 -0.69,-0.24 -1.43,-0.51 -2.24,-0.81 -0.82,-0.29 -1.58,-0.57 -2.29,-0.83 -0.7,-0.26 -1.16,-0.44 -1.37,-0.54 -0.85,-0.41 -1.64,-0.91 -2.38,-1.49 -0.73,-0.58 -1.29,-1.32 -1.68,-2.22 -0.41,-0.95 -0.61,-1.89 -0.6,-2.82 0.02,-0.93 0.19,-1.88 0.53,-2.86 0.51,-1.5 1.36,-2.66 2.53,-3.5 1.17,-0.84 2.5,-1.39 4,-1.65 1.78,-0.3 3.55,-0.25 5.33,0.16 1.78,0.41 3.43,1.21 4.95,2.4l-1 1.39c-0.16,-0.13 -0.68,-0.45 -1.57,-0.95 -0.89,-0.5 -2.08,-0.93 -3.58,-1.29 -0.56,-0.13 -1.19,-0.22 -1.87,-0.26 -0.68,-0.03 -1.35,0.01 -1.99,0.14 -0.64,0.13 -1.24,0.35 -1.8,0.68 -0.55,0.32 -0.98,0.76 -1.29,1.33 -0.49,0.9 -0.7,1.75 -0.62,2.53 0.08,0.79 0.26,1.45 0.54,1.99 0.26,0.52 0.62,0.95 1.08,1.3 0.47,0.35 0.96,0.64 1.47,0.87 0.16,0.08 0.58,0.24 1.28,0.48 0.69,0.25 1.45,0.52 2.26,0.81 0.81,0.3 1.57,0.58 2.28,0.83 0.71,0.26 1.17,0.44 1.37,0.55 0.83,0.41 1.61,0.9 2.34,1.48 0.73,0.58 1.29,1.32 1.68,2.23z"/>
   <path class="fil1" d="M138.94 61.26c0.36,0 0.69,-0.07 1,-0.2 0.3,-0.13 0.57,-0.32 0.79,-0.57 0.22,-0.24 0.39,-0.54 0.52,-0.89 0.12,-0.35 0.19,-0.74 0.19,-1.19 0,-0.51 -0.08,-0.94 -0.22,-1.3 -0.14,-0.37 -0.33,-0.66 -0.57,-0.89 -0.23,-0.23 -0.5,-0.4 -0.8,-0.51 -0.3,-0.1 -0.61,-0.16 -0.91,-0.16l0 0.01 -1.46 0 0 5.7 1.46 0zm0 -6.1c0.56,0 1.07,0.08 1.51,0.24 0.44,0.16 0.82,0.39 1.12,0.68 0.31,0.28 0.54,0.63 0.7,1.03 0.16,0.39 0.24,0.83 0.24,1.31 0,0.5 -0.09,0.96 -0.27,1.36 -0.17,0.4 -0.42,0.74 -0.73,1.01 -0.31,0.28 -0.68,0.49 -1.12,0.64 -0.43,0.15 -0.9,0.22 -1.42,0.22l-2.53 0 0 -6.49 2.5 0zm8.16 0.39l0 2.46 3.03 0 0 0.4 -3.03 0 0 2.85 3.38 0 0 0.39 -4.42 0 0 0 0 -6.49 0 0 4.42 0 0 0.39 -3.38 0zm0.2 -0.79l1.26 -1.25c0.07,-0.07 0.13,-0.13 0.18,-0.18 0.05,-0.04 0.09,-0.08 0.12,-0.1 0.03,-0.03 0.06,-0.04 0.09,-0.05 0.03,0 0.06,-0.01 0.1,-0.01 0.08,0 0.16,0.04 0.22,0.1 0.07,0.07 0.1,0.14 0.1,0.23 0,0.11 -0.06,0.21 -0.18,0.28l-1.56 0.98 -0.33 0zm9.06 3.52c0.28,0 0.54,-0.02 0.76,-0.06 0.22,-0.04 0.41,-0.11 0.55,-0.2 0.15,-0.1 0.26,-0.23 0.33,-0.41 0.08,-0.17 0.11,-0.39 0.11,-0.66 0,-0.49 -0.14,-0.84 -0.43,-1.07 -0.29,-0.22 -0.74,-0.33 -1.32,-0.33l-1.42 0 0 2.73 1.42 0zm0.45 -3.12c0.3,0 0.6,0.03 0.88,0.1 0.27,0.08 0.52,0.19 0.73,0.33 0.22,0.15 0.39,0.34 0.51,0.56 0.13,0.23 0.19,0.49 0.19,0.8 0,0.31 -0.06,0.58 -0.19,0.81 -0.12,0.22 -0.29,0.41 -0.51,0.55 -0.21,0.15 -0.46,0.25 -0.73,0.33 -0.28,0.07 -0.58,0.11 -0.88,0.11l-1.87 0 0 2.9 -1.05 0 0 -6.49 2.92 0zm9.97 6.49l-4.43 0 0 0 0 -6.49 1.04 0 0 6.1 3.39 0 0 0.39zm9.3 -3.32c0,0.49 -0.09,0.95 -0.26,1.37 -0.17,0.42 -0.41,0.79 -0.72,1.1 -0.31,0.31 -0.69,0.55 -1.14,0.73 -0.45,0.17 -0.95,0.26 -1.51,0.26 -0.51,0 -0.99,-0.08 -1.42,-0.23 -0.43,-0.15 -0.8,-0.37 -1.12,-0.66 -0.31,-0.29 -0.56,-0.64 -0.73,-1.05 -0.18,-0.42 -0.26,-0.88 -0.26,-1.41 0,-0.5 0.08,-0.95 0.24,-1.37 0.16,-0.41 0.4,-0.77 0.71,-1.06 0.31,-0.3 0.69,-0.53 1.14,-0.7 0.44,-0.17 0.96,-0.25 1.53,-0.25 0.49,0 0.95,0.07 1.38,0.21 0.43,0.14 0.8,0.35 1.12,0.63 0.32,0.28 0.58,0.63 0.76,1.03 0.19,0.41 0.28,0.88 0.28,1.4zm-3.61 3.07c0.37,0 0.71,-0.07 1.02,-0.2 0.31,-0.13 0.58,-0.33 0.8,-0.59 0.23,-0.25 0.4,-0.57 0.53,-0.94 0.12,-0.38 0.19,-0.81 0.19,-1.29 0,-0.56 -0.07,-1.03 -0.22,-1.4 -0.14,-0.38 -0.32,-0.67 -0.55,-0.9 -0.24,-0.23 -0.5,-0.39 -0.81,-0.48 -0.3,-0.1 -0.61,-0.14 -0.93,-0.14 -0.32,0 -0.62,0.05 -0.92,0.16 -0.3,0.11 -0.57,0.29 -0.81,0.52 -0.23,0.24 -0.42,0.55 -0.57,0.93 -0.14,0.38 -0.21,0.83 -0.21,1.37 0,0.45 0.06,0.87 0.18,1.24 0.12,0.36 0.29,0.67 0.51,0.93 0.22,0.25 0.48,0.45 0.79,0.58 0.3,0.14 0.64,0.21 1,0.21zm11.75 -6.24l-2.1 3.68 0 2.81 -1.05 0 0 -2.59 -2.38 -3.9 1.15 0 1.95 3.17 1.81 -3.17 0.62 0zm4.57 0.39l0 2.46 3.02 0 0 0.4 -3.02 0 0 2.85 3.38 0 0 0.39 -4.43 0 0 0 0 -6.49 0 0 4.43 0 0 0.39 -3.38 0zm9.51 2.89c0.6,0 1.07,-0.11 1.4,-0.31 0.33,-0.2 0.49,-0.57 0.49,-1.09 0,-0.53 -0.16,-0.91 -0.49,-1.14 -0.33,-0.23 -0.8,-0.35 -1.4,-0.35l-1.3 0 0 2.89 1.3 0zm1.78 3.21l-1.43 -2.74c-0.04,0 -0.13,0 -0.26,0l-1.39 0 0 2.74 -1.04 0 0 -6.49 2.78 0c0.32,0 0.63,0.04 0.92,0.12 0.29,0.08 0.55,0.2 0.78,0.36 0.22,0.16 0.41,0.36 0.54,0.59 0.13,0.24 0.2,0.5 0.2,0.81 0,0.22 -0.03,0.42 -0.11,0.6 -0.07,0.19 -0.17,0.35 -0.3,0.5 -0.13,0.14 -0.29,0.26 -0.46,0.37 -0.18,0.11 -0.37,0.19 -0.57,0.25l1.5 2.89 -1.16 0zm12.81 0l-4.43 0 0 0 0 -6.49 1.05 0 0 6.1 3.38 0 0 0.39zm4.12 -6.1l0 2.46 3.03 0 0 0.4 -3.03 0 0 2.85 3.39 0 0 0.39 -4.43 0 0 0 0 -6.49 0 0 4.43 0 0 0.39 -3.39 0zm10.86 3.61c0.11,0.23 0.15,0.46 0.15,0.69 0,0.22 -0.04,0.45 -0.13,0.69 -0.12,0.36 -0.33,0.65 -0.61,0.85 -0.29,0.2 -0.61,0.33 -0.97,0.4 -0.48,0.09 -0.97,0.07 -1.44,-0.07 -0.48,-0.13 -0.9,-0.35 -1.26,-0.64l0.24 -0.33c0.03,0.01 0.08,0.04 0.16,0.09 0.08,0.05 0.18,0.11 0.31,0.18 0.13,0.06 0.27,0.13 0.44,0.19 0.17,0.07 0.35,0.12 0.54,0.17 0.14,0.03 0.29,0.05 0.45,0.05 0.17,0.01 0.33,0 0.49,-0.03 0.16,-0.04 0.31,-0.09 0.44,-0.16 0.13,-0.08 0.24,-0.19 0.31,-0.33 0.12,-0.22 0.17,-0.42 0.16,-0.61 -0.02,-0.19 -0.06,-0.35 -0.13,-0.48 -0.07,-0.13 -0.16,-0.23 -0.27,-0.32 -0.12,-0.08 -0.23,-0.15 -0.36,-0.21 -0.04,-0.02 -0.14,-0.06 -0.31,-0.12 -0.16,-0.06 -0.34,-0.12 -0.54,-0.19 -0.2,-0.08 -0.38,-0.14 -0.56,-0.21 -0.17,-0.06 -0.28,-0.1 -0.33,-0.13 -0.21,-0.1 -0.4,-0.22 -0.58,-0.36 -0.18,-0.14 -0.31,-0.32 -0.41,-0.54 -0.1,-0.23 -0.14,-0.46 -0.14,-0.69 0,-0.22 0.04,-0.45 0.13,-0.69 0.12,-0.37 0.33,-0.65 0.61,-0.85 0.29,-0.21 0.61,-0.34 0.97,-0.4 0.44,-0.08 0.87,-0.06 1.3,0.04 0.43,0.1 0.83,0.29 1.2,0.58l-0.24 0.34c-0.04,-0.03 -0.17,-0.11 -0.38,-0.23 -0.22,-0.13 -0.51,-0.23 -0.87,-0.32 -0.14,-0.03 -0.29,-0.05 -0.46,-0.06 -0.16,-0.01 -0.32,0 -0.48,0.03 -0.16,0.03 -0.3,0.09 -0.44,0.17 -0.13,0.08 -0.24,0.18 -0.31,0.32 -0.12,0.22 -0.17,0.43 -0.15,0.62 0.02,0.19 0.06,0.35 0.13,0.48 0.06,0.13 0.15,0.23 0.26,0.32 0.11,0.08 0.23,0.15 0.36,0.21 0.04,0.02 0.14,0.06 0.31,0.12 0.17,0.06 0.35,0.12 0.55,0.19 0.2,0.08 0.38,0.14 0.55,0.21 0.18,0.06 0.29,0.1 0.34,0.13 0.2,0.1 0.39,0.22 0.57,0.36 0.17,0.14 0.31,0.32 0.4,0.54z"/>
  </g>
 </g>
</svg>
