<?xml version="1.0" encoding="UTF-8"?>
<!DOCTYPE svg PUBLIC "-//W3C//DTD SVG 1.1//EN" "http://www.w3.org/Graphics/SVG/1.1/DTD/svg11.dtd">
<!-- Creator: CorelDRAW 2021 (64-Bit) -->
<svg xmlns="http://www.w3.org/2000/svg" xml:space="preserve" width="360px" height="152px" version="1.1" style="shape-rendering:geometricPrecision; text-rendering:geometricPrecision; image-rendering:optimizeQuality; fill-rule:evenodd; clip-rule:evenodd"
viewBox="0 0 360 152"
 xmlns:xlink="http://www.w3.org/1999/xlink"
 xmlns:xodm="http://www.corel.com/coreldraw/odm/2003">
 <defs>
  <style type="text/css">
   <![CDATA[
    .fil0 {fill:#FEFEFE}
    .fil1 {fill:#FEFEFE;fill-rule:nonzero}
   ]]>
  </style>
 </defs>
 <g id="Слой_x0020_1">
  <metadata id="CorelCorpID_0Corel-Layer"/>
  <g>
   <path class="fil0" d="M0 0l360 0 0 152 -360 0 0 -152zm358.96 1.04l-357.92 0 0 149.91 357.92 0 0 -149.91z"/>
  </g>
  <g>
   <path class="fil1" d="M123.23 93c0.7,0 1.21,0.25 1.69,0.65 0.06,0.05 0.06,0.14 0.01,0.19l-0.19 0.19c-0.06,0.07 -0.11,0.06 -0.18,-0.01 -0.37,-0.31 -0.86,-0.52 -1.34,-0.52 -1.11,0 -1.95,0.93 -1.95,2 0,1.07 0.84,1.99 1.95,1.99 0.61,0 0.97,-0.24 1.34,-0.52 0.07,-0.05 0.12,-0.05 0.16,-0.02l0.21 0.19c0.06,0.04 0.05,0.14 0,0.19 -0.48,0.45 -1.08,0.67 -1.7,0.67 -1.4,0 -2.53,-1.1 -2.53,-2.49 0,-1.39 1.13,-2.51 2.53,-2.51z"/>
   <path class="fil1" d="M128.81 93.2c0,-0.06 0.05,-0.13 0.13,-0.13l0.27 0c0.07,0 0.14,0.07 0.14,0.13l0 4.26 2.01 0c0.08,0 0.14,0.07 0.14,0.14l0 0.2c0,0.07 -0.06,0.13 -0.14,0.13l-2.42 0c-0.08,0 -0.13,-0.06 -0.13,-0.13l0 -4.6z"/>
   <path class="fil1" d="M137.13 97.51c1.11,0 2.03,-0.9 2.03,-2 0,-1.11 -0.92,-2.02 -2.03,-2.02 -1.11,0 -2.02,0.91 -2.02,2.02 0,1.1 0.91,2 2.02,2zm0 -4.51c1.4,0 2.52,1.12 2.52,2.51 0,1.39 -1.12,2.49 -2.52,2.49 -1.4,0 -2.51,-1.1 -2.51,-2.49 0,-1.39 1.11,-2.51 2.51,-2.51z"/>
   <path class="fil1" d="M144.13 93.54l-1.21 0c-0.08,0 -0.14,-0.06 -0.14,-0.13l0 -0.21c0,-0.06 0.06,-0.13 0.14,-0.13l2.96 0c0.08,0 0.14,0.07 0.14,0.13l0 0.21c0,0.07 -0.06,0.13 -0.14,0.13l-1.21 0 0 4.26c0,0.07 -0.07,0.13 -0.14,0.13l-0.26 0c-0.07,0 -0.14,-0.06 -0.14,-0.13l0 -4.26z"/>
   <path class="fil1" d="M149.59 93.2c0,-0.06 0.06,-0.13 0.13,-0.13l0.27 0c0.08,0 0.14,0.07 0.14,0.13l0 2.03 2.84 0 0 -2.03c0,-0.06 0.06,-0.13 0.13,-0.13l0.28 0c0.07,0 0.13,0.07 0.13,0.13l0 4.6c0,0.07 -0.06,0.13 -0.13,0.13l-0.28 0c-0.07,0 -0.13,-0.06 -0.13,-0.13l0 -2.1 -2.84 0 0 2.1c0,0.07 -0.06,0.13 -0.14,0.13l-0.27 0c-0.07,0 -0.13,-0.06 -0.13,-0.13l0 -4.6z"/>
   <path class="fil1" d="M157.74 93.2c0,-0.06 0.06,-0.13 0.13,-0.13l2.76 0c0.08,0 0.13,0.07 0.13,0.13l0 0.21c0,0.06 -0.05,0.13 -0.13,0.13l-2.35 0 0 1.69 2.01 0c0.07,0 0.13,0.06 0.13,0.13l0 0.2c0,0.08 -0.06,0.14 -0.13,0.14l-2.01 0 0 1.76 2.35 0c0.08,0 0.13,0.07 0.13,0.14l0 0.2c0,0.07 -0.05,0.13 -0.13,0.13l-2.76 0c-0.07,0 -0.13,-0.06 -0.13,-0.13l0 -4.6z"/>
   <path class="fil1" d="M164.37 97.2c0.03,-0.04 0.07,-0.09 0.1,-0.13 0.07,-0.09 0.15,-0.15 0.25,-0.06 0.05,0.04 0.56,0.52 1.18,0.52 0.57,0 0.94,-0.35 0.94,-0.76 0,-0.48 -0.42,-0.76 -1.22,-1.1 -0.77,-0.33 -1.24,-0.64 -1.24,-1.43 0,-0.47 0.38,-1.24 1.5,-1.24 0.68,0 1.19,0.36 1.19,0.36 0.04,0.02 0.13,0.1 0.04,0.23 -0.02,0.05 -0.05,0.09 -0.08,0.13 -0.06,0.1 -0.13,0.13 -0.25,0.07 -0.04,-0.03 -0.49,-0.32 -0.91,-0.32 -0.74,0 -0.97,0.47 -0.97,0.76 0,0.47 0.36,0.74 0.95,0.98 0.94,0.38 1.55,0.73 1.55,1.54 0,0.72 -0.69,1.25 -1.51,1.25 -0.83,0 -1.39,-0.48 -1.48,-0.56 -0.05,-0.05 -0.12,-0.11 -0.04,-0.24z"/>
   <path class="fil1" d="M177.68 94.09c0,-0.34 -0.26,-0.68 -0.74,-0.68 -0.46,0 -0.72,0.33 -0.72,0.73 -0.02,0.3 0.18,0.53 0.44,0.79l0.16 0.15c0.31,-0.18 0.86,-0.49 0.86,-0.99zm-0.88 3.48c0.49,0 0.9,-0.23 1.2,-0.59l-1.29 -1.35c-0.33,0.2 -0.79,0.55 -0.79,1.1 0,0.49 0.39,0.84 0.88,0.84zm-0.4 -2.23l0 -0.02 -0.16 -0.18c-0.27,-0.28 -0.51,-0.6 -0.49,-1.01 0,-0.53 0.39,-1.13 1.24,-1.13 0.75,0 1.18,0.5 1.18,1.07 0,0.62 -0.63,1.08 -1.04,1.33l1.16 1.15c0.18,-0.37 0.28,-0.79 0.28,-1.24 0,-0.15 0.06,-0.16 0.16,-0.16l0.17 0c0.14,0 0.13,0.11 0.13,0.16 0,0.54 -0.15,1.11 -0.41,1.56l0.67 0.67c0.08,0.09 0.14,0.16 -0.01,0.32l-0.08 0.08c-0.09,0.07 -0.19,0.09 -0.3,-0.02l-0.59 -0.61c-0.38,0.42 -0.9,0.69 -1.53,0.69 -0.88,0 -1.35,-0.6 -1.35,-1.28 0,-0.75 0.6,-1.16 0.97,-1.38z"/>
   <path class="fil1" d="M187.39 93.24c0,-0.09 0.07,-0.17 0.17,-0.17l0.2 0c0.09,0 0.17,0.08 0.17,0.17l0 1.96 2.18 -2.06c0.03,-0.03 0.1,-0.07 0.14,-0.07l0.34 0c0.13,0 0.2,0.14 0.08,0.25l-2.21 2.04 2.32 2.35c0.05,0.05 0.04,0.22 -0.12,0.22l-0.36 0c-0.05,0 -0.11,-0.03 -0.12,-0.05l-2.25 -2.32 0 2.2c0,0.09 -0.08,0.17 -0.17,0.17l-0.2 0c-0.1,0 -0.17,-0.08 -0.17,-0.17l0 -4.52z"/>
   <path class="fil1" d="M194.49 93.13c0,-0.07 0.06,-0.13 0.13,-0.13l0.18 0 3.16 3.9 0.01 0 0 -3.7c0,-0.06 0.06,-0.13 0.13,-0.13l0.25 0c0.07,0 0.13,0.07 0.13,0.13l0 4.67c0,0.07 -0.06,0.13 -0.13,0.13l-0.13 0 -3.21 -3.98 -0.01 0 0 3.78c0,0.07 -0.05,0.13 -0.13,0.13l-0.25 0c-0.07,0 -0.13,-0.06 -0.13,-0.13l0 -4.67z"/>
   <path class="fil1" d="M202.71 93.2c0,-0.06 0.06,-0.13 0.13,-0.13l0.28 0c0.07,0 0.14,0.07 0.14,0.13l0 4.6c0,0.07 -0.07,0.13 -0.14,0.13l-0.28 0c-0.07,0 -0.13,-0.06 -0.13,-0.13l0 -4.6z"/>
   <path class="fil1" d="M208.18 93.54l-1.22 0c-0.08,0 -0.13,-0.06 -0.13,-0.13l0 -0.21c0,-0.06 0.05,-0.13 0.13,-0.13l2.97 0c0.08,0 0.13,0.07 0.13,0.13l0 0.21c0,0.07 -0.05,0.13 -0.13,0.13l-1.22 0 0 4.26c0,0.07 -0.06,0.13 -0.13,0.13l-0.27 0c-0.07,0 -0.13,-0.06 -0.13,-0.13l0 -4.26z"/>
   <path class="fil1" d="M213.18 93.24c-0.03,-0.1 0.03,-0.17 0.12,-0.17l0.3 0c0.06,0 0.11,0.05 0.13,0.1l0.97 3.59 0.03 0 1.17 -3.68c0.01,-0.04 0.05,-0.08 0.11,-0.08l0.13 0c0.06,0 0.11,0.04 0.12,0.08l1.19 3.68 0.03 0 0.95 -3.59c0.01,-0.05 0.07,-0.1 0.13,-0.1l0.29 0c0.1,0 0.15,0.07 0.13,0.17l-1.33 4.66c-0.01,0.06 -0.07,0.1 -0.12,0.1l-0.12 0c-0.05,0 -0.09,-0.04 -0.11,-0.08l-1.22 -3.75 -0.03 0 -1.19 3.75c-0.02,0.04 -0.07,0.08 -0.12,0.08l-0.11 0c-0.06,0 -0.11,-0.04 -0.13,-0.1l-1.32 -4.66z"/>
   <path class="fil1" d="M222.73 93.2c0,-0.06 0.06,-0.13 0.13,-0.13l2.76 0c0.08,0 0.13,0.07 0.13,0.13l0 0.21c0,0.06 -0.05,0.13 -0.13,0.13l-2.35 0 0 1.69 2.01 0c0.07,0 0.13,0.06 0.13,0.13l0 0.2c0,0.08 -0.06,0.14 -0.13,0.14l-2.01 0 0 1.76 2.35 0c0.08,0 0.13,0.07 0.13,0.14l0 0.2c0,0.07 -0.05,0.13 -0.13,0.13l-2.76 0c-0.07,0 -0.13,-0.06 -0.13,-0.13l0 -4.6z"/>
   <path class="fil1" d="M232.33 96.28c-0.34,-0.76 -0.68,-1.52 -1.02,-2.28l-0.06 0 -1.02 2.28 2.1 0zm-3.33 1.47l2.13 -4.67c0.02,-0.04 0.06,-0.08 0.12,-0.08l0.07 0c0.06,0 0.1,0.04 0.12,0.08l2.11 4.67c0.04,0.09 -0.01,0.18 -0.12,0.18l-0.28 0c-0.06,0 -0.1,-0.04 -0.11,-0.08l-0.52 -1.14 -2.49 0 -0.51 1.14c-0.01,0.04 -0.05,0.08 -0.12,0.08l-0.28 0c-0.1,0 -0.16,-0.09 -0.12,-0.18z"/>
   <path class="fil1" d="M239.03 95.57c0.54,0 1.01,-0.44 1.01,-1.01 0,-0.53 -0.47,-0.98 -1.01,-0.98l-1.36 0 0 1.99 1.36 0zm-1.91 -2.37c0,-0.07 0.05,-0.13 0.13,-0.13l1.81 0c0.85,0 1.53,0.66 1.53,1.48 0,0.64 -0.43,1.17 -1.04,1.42l0.96 1.76c0.05,0.09 0,0.2 -0.12,0.2l-0.35 0c-0.07,0 -0.1,-0.04 -0.12,-0.06l-0.93 -1.84 -1.33 0 0 1.77c0,0.07 -0.07,0.13 -0.14,0.13l-0.27 0c-0.08,0 -0.13,-0.06 -0.13,-0.13l0 -4.6z"/>
   <path class="fil1" d="M100.13 72.12l10.28 0 -5 -11.82 -5.28 11.82zm18.12 11.13l-3.17 0 -3.9 -9.22 -11.91 0 -4.1 9.22 -2.19 0 12.92 -29.25 12.35 29.25z"/>
   <path class="fil1" d="M127.02 56.64l0 12.64c1.02,0.04 1.47,0.04 1.79,0.04 4.96,0 7.6,-2.93 7.6,-6.63 0,-3.98 -2.48,-6.05 -6.42,-6.05l-2.97 0zm12.92 26.61l-8.73 -12.31c-0.86,0.12 -1.51,0.16 -2.4,0.16 -0.41,0 -0.57,0 -1.79,-0.04l0 12.19 -2.96 0 0 -28.44 6.54 0c5.08,0 9.1,2.23 9.1,7.56 0,3.78 -2.36,6.38 -5.49,7.72l9.39 13.16 -3.66 0z"/>
   <path class="fil1" d="M152.39 61.89c-5.26,6.25 -4.65,13.5 -0.17,17.26 4.45,3.73 10.9,2.88 15.81,-2.97 5.3,-6.32 4.64,-13.56 0.06,-17.4 -4.42,-3.71 -10.82,-2.71 -15.7,3.11zm18.43 16.2c-5.72,6.82 -14.63,6.82 -20.2,2.15 -5.7,-4.78 -6.95,-13.21 -1,-20.3 5.69,-6.79 14.6,-6.79 20.17,-2.12 5.7,4.78 6.98,13.18 1.03,20.27z"/>
   <path class="fil1" d="M180.69 54.81l2.92 0 0 16.74c0,6.54 2.12,9.79 7.93,9.79 4.75,0 7.92,-2.56 7.92,-9.14l0 -17.39 2.23 0 0 17.02c0,8.33 -4.14,11.95 -10.56,11.95 -5.89,0 -10.44,-2.93 -10.44,-10.64l0 -18.33z"/>
   <polygon class="fil1" points="210.83,54 231.92,77.2 231.92,54.81 234.15,54.81 234.15,84.06 213.07,60.82 213.07,83.25 210.83,83.25 "/>
   <path class="fil1" d="M246.71 56.64l0 24.78 5.08 0c6.62,0 11.86,-3.9 11.86,-12.14 0,-7.32 -4.18,-12.64 -12.19,-12.64l-4.75 0zm-2.97 -1.83l8.82 0c7.03,0 14.46,3.78 14.46,14.06 0,9.67 -8.25,14.38 -15.07,14.38l-8.21 0 0 -28.44z"/>
  </g>
 </g>
</svg>
