<?xml version="1.0" encoding="UTF-8"?>
<!DOCTYPE svg PUBLIC "-//W3C//DTD SVG 1.1//EN" "http://www.w3.org/Graphics/SVG/1.1/DTD/svg11.dtd">
<!-- Creator: CorelDRAW 2021 (64-Bit) -->
<svg xmlns="http://www.w3.org/2000/svg" xml:space="preserve" width="360px" height="152px" version="1.1" style="shape-rendering:geometricPrecision; text-rendering:geometricPrecision; image-rendering:optimizeQuality; fill-rule:evenodd; clip-rule:evenodd"
viewBox="0 0 360 152"
 xmlns:xlink="http://www.w3.org/1999/xlink"
 xmlns:xodm="http://www.corel.com/coreldraw/odm/2003">
 <defs>
  <style type="text/css">
   <![CDATA[
    .fil0 {fill:#FEFEFE}
    .fil1 {fill:#FEFEFE;fill-rule:nonzero}
   ]]>
  </style>
 </defs>
 <g id="Слой_x0020_1">
  <metadata id="CorelCorpID_0Corel-Layer"/>
  <g>
   <path class="fil0" d="M0 0l360 0 0 152 -360 0 0 -152zm358.96 1.04l-357.92 0 0 149.91 357.92 0 0 -149.91z"/>
  </g>
  <path class="fil1" d="M102.74 73.13l11.99 0c1.32,0 2.33,-0.3 3.02,-0.9 0.7,-0.6 1.04,-1.46 1.04,-2.58 0,-1.18 -0.33,-2.07 -1,-2.66 -0.68,-0.59 -1.69,-0.89 -3.06,-0.89l-11.99 0 0 7.03zm0 12.28l13.12 0c1.43,0 2.55,-0.42 3.38,-1.26 0.82,-0.84 1.23,-1.99 1.23,-3.44 0,-1.43 -0.41,-2.58 -1.23,-3.43 -0.83,-0.84 -1.95,-1.27 -3.38,-1.27l-13.12 0 0 9.4zm-3.12 2.89l0 -25.08 14.84 0c2.47,0 4.33,0.53 5.6,1.58 1.26,1.05 1.9,2.6 1.9,4.67 0,1 -0.2,1.89 -0.59,2.68 -0.4,0.79 -0.96,1.43 -1.68,1.91 1.33,0.77 2.34,1.72 3.01,2.84 0.69,1.12 1.03,2.4 1.03,3.86 0,2.32 -0.76,4.15 -2.28,5.5 -1.53,1.36 -3.59,2.04 -6.2,2.04l-15.63 0zm28.62 0l0 -25.08 19.73 0 0 2.88 -16.61 0 0 7.35 10.05 0 0 2.89 -10.05 0 0 9.07 17.63 0 0 2.89 -20.75 0zm25.4 0l0 -25.08 19.73 0 0 2.88 -16.61 0 0 7.35 10.05 0 0 2.89 -10.05 0 0 9.07 17.63 0 0 2.89 -20.75 0zm25.4 0l10.22 -12.61 -10.08 -12.47 3.81 0 8.22 10.04 8.21 -10.04 3.77 0 -10.11 12.34 10.39 12.74 -4.01 0 -8.33 -10.34 -8.43 10.34 -3.66 0zm28.89 0l0 -25.22 3.17 0 0 25.22 -3.17 0zm8.61 -2.48l-0.04 -3.99c1.78,1.37 3.62,2.42 5.54,3.15 1.91,0.72 3.81,1.08 5.69,1.08 2.32,0 4.01,-0.49 5.45,-1.47 1.44,-0.98 2.17,-2.05 2.17,-3.6 0,-1.22 -0.52,-1.84 -1.56,-2.63 -1.04,-0.79 -2.28,-1.26 -4.11,-1.42 -0.44,-0.04 -1.08,-0.08 -1.9,-0.13 -4.13,-0.28 -6.95,-0.96 -8.44,-1.66 -1.17,-0.54 -2.06,-1.29 -2.66,-2.17 -0.6,-0.89 -0.91,-1.88 -0.91,-2.99 0,-2.02 0.9,-3.68 2.71,-4.99 1.79,-1.3 4.14,-1.95 7.02,-1.95 2.09,0 4.18,0.27 6.19,1.03 2.02,0.77 1.83,0.65 3.93,1.81l0.07 3.86c-1.56,-1.25 -3.18,-2.19 -4.88,-2.82 -1.7,-0.63 -3.46,-0.95 -5.26,-0.95 -1.89,0 -3.45,0.37 -4.68,1.11 -1.23,0.73 -1.84,1.66 -1.84,2.77 0,0.43 0.1,0.84 0.29,1.2 0.19,0.36 0.5,0.72 0.91,1.03 1.02,0.77 3.26,1.47 6.68,1.67 1.58,0.09 2.81,0.2 3.66,0.29 2.55,0.29 4.37,1.11 5.86,2.45 1.48,1.35 1.83,2.73 1.83,4.59 0,2.34 -0.62,4.07 -2.66,5.58 -2.04,1.52 -4.52,2.28 -7.82,2.28 -2.5,0 -4.83,-0.37 -6.97,-1.09 -2.14,-0.72 -2.27,-0.75 -4.27,-2.04zm31.72 2.48l0 -22.2 -9 0 0 -2.88 21.12 0 0 2.88 -9.01 0 0 22.2 -3.11 0z"/>
 </g>
</svg>
