<?xml version="1.0" encoding="UTF-8"?>
<!DOCTYPE svg PUBLIC "-//W3C//DTD SVG 1.1//EN" "http://www.w3.org/Graphics/SVG/1.1/DTD/svg11.dtd">
<!-- Creator: CorelDRAW 2021 (64-Bit) -->
<svg xmlns="http://www.w3.org/2000/svg" xml:space="preserve" width="360px" height="152px" version="1.1" style="shape-rendering:geometricPrecision; text-rendering:geometricPrecision; image-rendering:optimizeQuality; fill-rule:evenodd; clip-rule:evenodd"
viewBox="0 0 360 152"
 xmlns:xlink="http://www.w3.org/1999/xlink"
 xmlns:xodm="http://www.corel.com/coreldraw/odm/2003">
 <defs>
  <style type="text/css">
   <![CDATA[
    .fil0 {fill:#FEFEFE}
    .fil1 {fill:#FEFEFE;fill-rule:nonzero}
   ]]>
  </style>
 </defs>
 <g id="Слой_x0020_1">
  <metadata id="CorelCorpID_0Corel-Layer"/>
  <g>
   <path class="fil0" d="M0 0l360 0 0 152 -360 0 0 -152zm358.96 1.04l-357.92 0 0 149.91 357.92 0 0 -149.91z"/>
  </g>
  <path class="fil1" d="M259.24 67.43l4.85 12.12 -9.38 0 4.53 -12.12zm15.18 22.38l0 -0.03 -11.05 -27.59 -3.68 0 -11.15 27.62 2.35 0 3.29 -8.79 10.48 0 3.56 8.79 6.2 0zm-86.37 -22.38l4.84 12.12 -9.38 0 4.54 -12.12zm-26.12 -3.78c4.93,0 6.35,2.89 6.35,6.66 0,4.44 -2.49,6.89 -6.53,6.89l-2.26 0 0 -13.55 2.44 0zm73.24 26.16l5.77 0 0 -27.62 -5.77 0 0 27.62zm-7.59 -27.62l-21.95 0 0 1.59 8.09 0 0 26.03 5.77 0 0 -26.03 8.09 0 0 -1.59zm-126.72 25.89l-9.51 0 0 -11.77 8.75 0 0 -1.73 -8.75 0 0 -10.62 9.51 0 0 -1.77 -15.28 0 0 27.62 15.28 0 0 -1.73zm78.84 1.73l3.28 -8.79 10.48 0 3.56 8.79 6.21 0 -11.05 -27.62 -3.69 0 -11.15 27.62 2.36 0zm-25.99 0l5.78 0 0 -11.15 4.08 0c7.55,0 10.75,-4.17 10.75,-8.52 0,-4.67 -3.24,-7.95 -11.15,-7.95l-9.46 0 0 27.62zm-28.87 0l10.53 -23.32 0 23.32 5.51 0 0 -27.62 -5.11 0 -9.46 20.43 -8.97 -20.43 -5.56 0 -0.49 27.62 2.18 0 -0.22 -23.45 10.17 23.45 1.42 0z"/>
 </g>
</svg>
