<?xml version="1.0" encoding="UTF-8"?>
<!DOCTYPE svg PUBLIC "-//W3C//DTD SVG 1.1//EN" "http://www.w3.org/Graphics/SVG/1.1/DTD/svg11.dtd">
<!-- Creator: CorelDRAW 2021 (64-Bit) -->
<svg xmlns="http://www.w3.org/2000/svg" xml:space="preserve" width="360px" height="152px" version="1.1" style="shape-rendering:geometricPrecision; text-rendering:geometricPrecision; image-rendering:optimizeQuality; fill-rule:evenodd; clip-rule:evenodd"
viewBox="0 0 360 152"
 xmlns:xlink="http://www.w3.org/1999/xlink"
 xmlns:xodm="http://www.corel.com/coreldraw/odm/2003">
 <defs>
  <style type="text/css">
   <![CDATA[
    .fil0 {fill:#FEFEFE}
   ]]>
  </style>
 </defs>
 <g id="Слой_x0020_1">
  <metadata id="CorelCorpID_0Corel-Layer"/>
  <g>
   <path class="fil0" d="M0 0l360 0 0 152 -360 0 0 -152zm358.96 1.04l-357.92 0 0 149.91 357.92 0 0 -149.91z"/>
  </g>
  <path class="fil0" d="M163.98 77.46c-0.32,0 -0.17,-0.21 -0.06,-0.46 0.03,-0.07 0.02,-0.12 0.05,-0.19 0.04,-0.08 0.05,-0.04 0.09,-0.16 0.06,-0.23 0.31,-0.78 0.35,-0.92 0.07,-0.23 0.19,-0.48 0.21,-0.53 0.03,-0.09 0.01,-0.1 0.06,-0.2 0.04,-0.07 0.05,-0.06 0.07,-0.17 0.02,-0.14 -0.01,-0.09 0.05,-0.2 0.04,-0.06 0.01,0.04 0.05,-0.09 0.11,-0.34 0.06,-0.1 0.12,-0.27 0.02,-0.08 0.01,-0.13 0.04,-0.21 0.03,-0.09 0.02,-0.05 0.04,-0.09 0.08,-0.18 -0.02,-0.06 0.12,-0.24 0.08,-0.11 0.02,-0.06 0.07,-0.18 0.04,-0.13 0.05,-0.03 0.08,-0.16 0.03,-0.12 -0.01,-0.08 0.05,-0.2 0.12,-0.23 0.15,-0.39 0.21,-0.53 0.04,-0.1 0.05,-0.07 0.08,-0.17l0.31 -0.7c0.06,0.03 0.01,-0.01 0.05,0.05l0.28 0.65c0.03,0.08 0.05,0.07 0.08,0.17 0.08,0.31 0.1,0.28 0.21,0.53 0.04,0.09 0.02,0.13 0.07,0.21 0.08,0.15 0.04,-0.03 0.07,0.17 0.04,0.16 0.01,0.07 0.08,0.17 0.05,0.1 0.02,0.09 0.05,0.2 0.02,0.08 0.05,0.1 0.08,0.17 0.03,0.07 0.02,0.12 0.06,0.19 0.05,0.09 -0.01,-0.02 0.04,0.05 0.07,0.11 0,0.07 0.11,0.29 0.05,0.1 0.02,0.14 0.06,0.23 0.04,0.09 0.05,0.01 0.08,0.15 0.03,0.1 0.02,0.11 0.07,0.19 0.07,0.13 0.09,0.28 0.21,0.53 0.15,0.29 0.03,0.2 0.13,0.37l0.29 0.7c0.09,0.31 0.08,0.01 0.13,0.37 0.03,0.2 0.12,0.28 -0.16,0.28l-3.98 0zm40.77 2.83c-0.02,-0.27 -0.05,-0.14 -0.12,-0.31l-0.09 -0.14c-0.06,-0.09 -0.01,-0.09 -0.14,-0.27 -0.2,-0.26 -0.03,0.01 -0.21,-0.4 -0.07,-0.14 -0.03,-0.05 -0.09,-0.13 -0.05,-0.08 -0.02,-0.05 -0.06,-0.13l-0.94 -1.54c-0.06,-0.09 -0.11,-0.17 -0.16,-0.26 -0.1,-0.15 -0.05,-0.22 0.04,-0.3 0.23,-0.2 0.58,-0.57 0.76,-0.81 0.02,-0.03 0.01,-0.02 0.03,-0.05 0.05,-0.06 0.04,-0.08 0.09,-0.13 0.22,-0.22 0.2,-0.23 0.37,-0.46l0.39 -0.63c0.04,-0.05 0.06,-0.1 0.08,-0.14l0.2 -0.4c0.1,-0.18 0.03,-0.12 0.13,-0.28 0.06,-0.09 0.2,-0.57 0.22,-0.62 0.06,-0.15 0.04,-0.19 0.08,-0.34 0.04,-0.15 0.09,-0.08 0.09,-0.32 0.01,-0.21 0.01,-0.19 0.07,-0.34 0.07,-0.17 0.05,-0.56 0.12,-0.69 0.07,0.04 0.04,-0.05 0.08,0.26 0.01,0.11 0.02,0.16 0.02,0.27 0.01,0.21 0,0.43 0,0.63l0 8.2c0,0.16 0.06,0.73 -0.13,0.58l-0.15 -0.27c-0.04,-0.07 -0.07,-0.1 -0.11,-0.17l-0.42 -0.68c-0.1,-0.12 -0.02,-0.09 -0.15,-0.13zm18.04 -6.43c0.1,0.02 0.2,0.13 0.27,0.2 0.05,0.05 0.08,0.08 0.12,0.13 0.07,0.07 0.08,0.03 0.09,0.14 0.16,0.07 0.08,0.09 0.22,0.41 0.06,0.14 -0.01,0.38 0.05,0.52 0.05,0.12 0.06,0 0.06,0.23l0 1.19c-0.02,0.16 -0.05,0.01 -0.08,0.22 -0.02,0.19 0.04,0.37 -0.06,0.51 -0.1,0.15 -0.04,0.12 -0.09,0.22 -0.04,0.09 -0.02,-0.02 -0.1,0.18 -0.07,0.19 -0.2,0.13 -0.23,0.34 -0.11,0 -0.28,0.11 -0.36,0.16 -0.19,0.13 -0.13,0.02 -0.27,0.11l-0.03 0.03c-0.12,0.07 -0.2,0.03 -0.37,0.05 -0.16,0.02 -0.17,0.06 -0.28,0.08 -0.18,0.04 -0.79,0.04 -0.98,0.04 -0.42,0 -2.5,0.04 -2.71,-0.03 -0.08,-0.19 -0.03,-2.2 -0.03,-2.6 0,-0.39 -0.06,-2.39 0.05,-2.56 0.1,-0.07 0.18,-0.05 0.32,-0.05 0.54,0.01 1.91,-0.03 2.25,0.01 0.19,0.02 0.48,0 0.64,0.03 0.18,0.04 0.34,0.06 0.55,0.07 0.27,0.02 0.31,0.08 0.55,0.12 0.18,0.03 0.14,0.06 0.23,0.11 0.06,0.03 -0.03,-0.02 0.06,0.02l0.06 0.03c0.08,0.05 0.04,0.03 0.07,0.09zm-27.8 -1.49c0,0.19 -0.02,0.1 -0.06,0.17 -0.02,0.04 -0.04,0.1 -0.05,0.13 -0.02,0.06 -0.02,0.05 -0.04,0.08 -0.11,0.2 -0.31,0.45 -0.5,0.56l-0.19 0.11c0,0.01 -0.01,0.01 -0.01,0.02 -0.02,0 -0.05,0.02 -0.06,0.03l-0.57 0.2c-0.11,0.03 -0.17,0.08 -0.29,0.1 -0.36,0.04 -2.87,0.1 -3.08,0.01 -0.05,-0.26 -0.03,-4.25 0.01,-4.35 0.07,-0.08 0.46,-0.05 0.59,-0.05l1.82 0c0.14,0 0.98,0.11 1.07,0.16 0.09,0.04 0.14,0.04 0.23,0.07 0.09,0.03 0.07,0.05 0.2,0.1 0.24,0.1 0.33,0.25 0.33,0.25 0,-0.01 0.01,0.01 0.01,0.02 0.08,0.05 0.1,0.15 0.18,0.2 0.03,0.03 0.06,0.03 0.12,0.11l0.17 0.25c0.1,0.17 0.22,0.55 0.23,0.76 0.04,0.67 -0.01,0.6 -0.11,1.07zm-35.87 -9.87c-0.03,0.13 -0.04,0.07 -0.07,0.23 -0.05,0.21 -0.01,0.05 -0.08,0.19 -0.06,0.1 -0.03,0.14 -0.06,0.23 -0.06,0.14 -0.04,-0.05 -0.09,0.15 -0.04,0.15 0.02,0.09 -0.06,0.21 -0.04,0.05 -0.03,0.03 -0.05,0.1 -0.04,0.12 -0.01,0.09 -0.08,0.19 -0.06,0.09 -0.05,0.16 -0.12,0.27 -0.07,0.11 -0.02,0.1 -0.07,0.2l-0.18 0.36c-0.03,0.06 -0.03,0.13 -0.06,0.2l-0.17 0.37c-0.04,0.1 -0.01,0.11 -0.07,0.22 -0.1,0.19 -0.26,0.57 -0.3,0.78 -0.03,0.14 -0.03,0.06 -0.08,0.16 -0.04,0.09 -0.03,0.17 -0.05,0.24 -0.05,0.12 -0.04,-0.04 -0.11,0.15l-0.08 0.2c-0.04,0.08 -0.02,0.1 -0.07,0.18l-0.17 0.38c-0.03,0.08 -0.02,0.14 -0.06,0.21l-0.17 0.36c-0.02,0.08 -0.01,0.19 -0.04,0.24 -0.09,0.16 -0.03,-0.1 -0.09,0.19 -0.02,0.1 -0.07,0.07 -0.1,0.15 -0.03,0.06 0.06,0.02 -0.09,0.29l-0.03 0.09c-0.04,0.15 -0.07,0.1 -0.11,0.23 -0.02,0.04 -0.01,0.06 -0.02,0.1 -0.03,0.13 -0.02,0.07 -0.07,0.16l-0.04 0.11c-0.05,0.15 -0.06,0.04 -0.12,0.23 -0.05,0.12 -0.04,0.06 -0.08,0.15 -0.03,0.07 -0.02,0.12 -0.05,0.19 -0.04,0.1 -0.05,0.03 -0.08,0.18 -0.03,0.12 -0.07,0.14 -0.11,0.25 -0.05,0.18 0.01,0.11 -0.09,0.27l-0.02 0.04c-0.07,0.18 0.03,-0.1 -0.01,0.04 -0.01,0.03 -0.01,0.05 -0.02,0.09 -0.06,0.21 -0.09,0.12 -0.1,0.39l-0.12 0.01c-0.01,0.27 -0.04,0.15 -0.1,0.3 -0.02,0.06 -0.01,0.11 -0.03,0.17 -0.03,0.13 -0.03,0.03 -0.07,0.11 -0.07,0.13 0.01,0.13 -0.09,0.29l-0.11 0.25c-0.02,0.03 -0.03,0.02 -0.04,0.08 -0.1,0.33 -0.06,0.13 -0.12,0.26 -0.02,0.06 0,0 -0.02,0.08 -0.04,0.19 -0.07,0.1 -0.11,0.27 -0.03,0.12 0.02,0.04 -0.05,0.14 -0.02,0.04 -0.02,0 -0.04,0.06 -0.03,0.07 -0.03,0.16 -0.03,0.24 -0.1,0.07 -0.06,0 -0.11,0.11 -0.1,0.23 -0.06,0.17 -0.12,0.4 -0.03,0.09 -0.06,0.09 -0.09,0.14 -0.05,0.09 -0.01,0.11 -0.06,0.19 -0.07,0.1 -0.04,-0.05 -0.08,0.18 -0.04,0.16 -0.15,0.24 -0.18,0.26 -0.16,-0.06 -0.09,-0.53 -0.09,-0.73l0 -12.78c-2.16,-0.03 -4.34,0 -6.51,0 -0.71,0 -6.25,-0.05 -6.46,0.02l0 7.71c0,0.14 0.05,0.96 -0.07,1.06 -0.08,0.06 -3.68,0.07 -3.75,-0.01 -0.08,-0.14 -0.03,-7.87 -0.03,-8.76 -0.36,-0.07 -1.21,-0.02 -1.63,-0.02 -1.29,0 -11.08,-0.05 -11.27,0.02l0 21.75c0,0.64 -0.04,7.15 0.03,7.22 0.04,0.02 0.01,0.01 0.08,0.02 0.02,0 0.08,0 0.1,0l11.15 0c0.41,0 1.2,0.06 1.54,-0.04l0 -7.64c0,-0.19 -0.09,-0.47 0.14,-0.51 0.19,-0.03 2.51,0 2.81,0 0.29,0 0.7,-0.06 0.91,0.07 0.03,0.58 0,1.23 0,1.82l0 5.9c0,0.12 -0.05,0.35 0.06,0.39l20.77 0c0.05,-0.01 0.15,-0.25 0.17,-0.33 0.04,-0.21 0.08,-0.17 0.12,-0.39 0.03,-0.2 -0.01,0.02 0.08,-0.15 0.04,-0.08 0.01,-0.12 0.06,-0.19 0.05,-0.09 0.04,0.02 0.08,-0.16 0.04,-0.15 0,-0.05 0.07,-0.18l0.35 -0.89c0.04,-0.07 0.04,-0.12 0.06,-0.19 0.03,-0.07 0.11,-0.29 0.17,-0.33 0.01,-0.1 0.15,-0.46 0.21,-0.58 0.14,-0.25 0.05,-0.39 0.45,-0.38 0.5,0 4.82,-0.03 4.9,0 0.05,0.03 0.07,0.1 0.11,0.13 0.03,0.03 0.01,0.01 0.04,0.03 0.01,0.21 0.07,0.33 0.13,0.51 0.04,0.09 0.07,0.08 0.1,0.2l0.08 0.23c0.05,0.1 0.03,0.15 0.07,0.24l0.25 0.6c0.09,0.11 0.04,0.14 0.09,0.27 0.04,0.09 0.05,0.07 0.09,0.21l0.17 0.44c0.06,0.1 0.01,-0.04 0.06,0.11l0.2 0.54c0.04,0.11 0.01,0.13 0.08,0.23 0.24,0.1 2.21,0.04 2.64,0.04l18.63 0c0.09,-1.35 -0.12,-6.94 0.04,-7.46l0.45 0c0.05,0.14 -0.01,0.1 0.14,0.11 0.01,0.26 0.04,0.13 0.1,0.25 0.03,0.06 0,0.07 0.03,0.14 0.04,0.12 0.07,0.07 0.11,0.22 0.03,0.12 0.11,0.21 0.18,0.32 0.05,0.09 0.05,0.13 0.11,0.22 0.16,0.24 0.22,0.38 0.32,0.49 0.06,0.06 0.07,0.16 0.12,0.23l0.21 0.39c0.04,0.07 0.06,0.02 0.09,0.13 0.11,0.4 0.33,0.6 0.44,0.89 0.05,0.13 0.05,0.15 0.14,0.25 0.11,0.11 0.08,0.15 0.15,0.26 0.04,0.06 0.03,0.01 0.06,0.09l0.1 0.25c0.04,0.09 0.07,0.14 0.11,0.22l0.35 0.64c0.08,0.16 0.21,0.3 0.25,0.41l0.06 0.11c0.03,0.05 0.02,0.02 0.06,0.1 0.05,0.1 0.06,0.11 0.12,0.21l0.17 0.33c0.03,0.05 0.03,0.07 0.05,0.12 0.06,0.1 0.17,0.15 0.22,0.27 0.07,0.17 0.12,0.11 0.13,0.35 0.05,0.03 0,0.01 0.1,0.04 0.02,0.32 0.1,0.15 0.15,0.42 1.03,0.03 2.09,0 3.13,0l23.22 0c0.75,0 0.93,-0.1 1.43,-0.11 0.47,-0.01 0.67,-0.1 1.05,-0.11 0.15,-0.01 0.22,-0.05 0.32,-0.08 0.2,-0.06 0.48,-0.01 0.67,-0.1 0.12,-0.06 0.14,-0.06 0.31,-0.06 0.22,-0.01 0.18,-0.03 0.31,-0.08 0.11,-0.04 0.23,-0.02 0.35,-0.04 0.12,-0.02 0.16,-0.09 0.28,-0.1 0.22,-0.03 0.15,0 0.32,-0.08 0.12,-0.06 0.2,-0.02 0.31,-0.08 0.15,-0.08 0.13,-0.05 0.29,-0.08 0.14,-0.04 0.13,-0.07 0.29,-0.11l1 -0.35c0.08,-0.03 0.05,-0.04 0.11,-0.08 0.09,-0.06 0.16,-0.04 0.28,-0.12l1.69 -1.01c0.08,-0.05 0.14,-0.1 0.22,-0.16 0.16,-0.1 0.27,-0.25 0.42,-0.35 0.12,-0.08 0.13,-0.09 0.22,-0.17l0.95 -0.98c0.26,-0.32 0.48,-0.68 0.72,-1.02l0.36 -0.61c0.04,-0.07 0.05,-0.03 0.08,-0.1l0.19 -0.4c0.04,-0.08 0.02,-0.07 0.04,-0.15 0.05,-0.13 0.03,-0.04 0.07,-0.12 0.03,-0.05 0.01,0.01 0.03,-0.09 0.03,-0.09 0.05,-0.1 0.1,-0.17 0.05,-0.09 0.01,-0.05 0.05,-0.15 0.03,-0.08 0.03,-0.04 0.07,-0.12 0.02,-0.05 0.02,-0.08 0.04,-0.15 0.03,-0.09 0.03,-0.06 0.07,-0.13l0.27 -0.89c0.03,-0.15 0.08,-0.14 0.11,-0.27 0.03,-0.2 0.01,-0.14 0.08,-0.3 0.05,-0.11 0.02,-0.22 0.05,-0.34 0.04,-0.11 0.07,-0.14 0.09,-0.3 0.01,-0.13 0.02,-0.24 0.03,-0.35 0.03,-0.2 0.08,-0.13 0.09,-0.33 0.01,-0.26 0.09,-0.44 0.11,-0.66 0.02,-0.24 -0.01,-0.5 0.06,-0.71 0.13,-0.43 0.06,-3.73 0.06,-4.2 0,-0.26 0,-0.52 0,-0.78 -0.01,-0.62 -0.04,-0.37 -0.08,-0.69 -0.03,-0.26 -0.02,-0.48 -0.04,-0.74 -0.02,-0.23 -0.07,-0.1 -0.11,-0.28 -0.03,-0.17 0.03,-0.46 -0.06,-0.63 -0.07,-0.12 -0.05,-0.23 -0.07,-0.39 -0.02,-0.21 -0.09,-0.1 -0.1,-0.28 -0.02,-0.12 0,-0.26 -0.02,-0.38 -0.02,-0.16 -0.07,-0.14 -0.09,-0.31 -0.03,-0.24 -0.03,-0.12 -0.09,-0.29 -0.04,-0.11 -0.03,-0.19 -0.08,-0.3 -0.03,-0.07 -0.04,-0.05 -0.06,-0.13 -0.09,-0.39 -0.04,-0.11 -0.13,-0.45 -0.05,-0.16 -0.18,-0.38 -0.23,-0.55 -0.05,-0.22 -0.18,-0.31 -0.23,-0.53 -0.03,-0.14 -0.07,-0.16 -0.12,-0.29l-1.05 -1.64c-0.34,-0.4 -1.1,-1.25 -1.53,-1.56l-0.77 -0.58 -1.21 -0.72c-0.06,-0.02 -0.08,-0.04 -0.12,-0.07 -0.07,-0.03 -0.06,-0.02 -0.14,-0.05 -0.21,-0.05 -0.52,-0.19 -0.72,-0.28 -0.09,-0.04 -0.19,-0.1 -0.26,-0.12l-1.18 -0.38c-0.21,-0.02 -0.14,-0.01 -0.31,-0.08 -0.12,-0.05 -0.19,-0.03 -0.3,-0.07l-0.6 -0.17c-0.11,-0.03 -0.23,-0.02 -0.33,-0.05 -0.29,-0.09 -0.6,-0.09 -0.74,-0.15 -0.28,-0.12 -0.64,-0.05 -0.97,-0.09 -0.1,-0.01 -0.18,-0.06 -0.3,-0.07l-0.75 -0.03c-0.17,0 -0.19,-0.04 -0.33,-0.05 -0.48,-0.02 -1,-0.04 -1.52,-0.04l-12.35 0c-0.64,0 -2.59,-0.05 -3.07,0.03l0 6.62c0,0.16 0,0.31 0,0.47 0,0.19 0.04,0.31 -0.1,0.35 -0.06,-0.11 -0.03,-0.62 -0.16,-1.02 -0.04,-0.12 -0.01,-0.15 -0.04,-0.26 -0.01,-0.1 -0.05,-0.14 -0.07,-0.23 -0.03,-0.07 -0.02,-0.18 -0.04,-0.27l-0.12 -0.32c-0.04,-0.17 -0.06,-0.12 -0.11,-0.33 -0.04,-0.18 -0.12,-0.25 -0.19,-0.39 -0.03,-0.04 -0.17,-0.46 -0.28,-0.6 -0.06,-0.08 -0.08,-0.04 -0.08,-0.18 -0.16,-0.08 -0.2,-0.25 -0.31,-0.4l-0.87 -1.01c0,-0.01 -0.01,-0.01 -0.01,-0.02l-0.13 -0.12c-0.24,-0.16 0.06,0.11 -0.09,-0.07l-0.05 -0.06c0,0 -0.05,-0.05 -0.06,-0.05l-0.13 -0.14c-0.01,0 -0.01,-0.01 -0.01,-0.02l-0.15 -0.11c-0.23,-0.12 -0.19,-0.13 -0.37,-0.29 -0.1,-0.08 -0.01,-0.02 -0.14,-0.08 -0.13,-0.06 -0.14,-0.14 -0.42,-0.24l-0.45 -0.22c-0.17,-0.05 -0.05,0.02 -0.15,-0.06l-0.29 -0.15c-0.09,-0.02 -0.2,0 -0.27,-0.06l-0.03 -0.03c-0.1,-0.09 -0.19,0.02 -0.33,-0.08 -0.17,-0.11 -0.06,-0.04 -0.27,-0.09 -0.13,-0.03 -0.08,-0.08 -0.26,-0.1 -0.1,-0.01 -0.22,0 -0.3,-0.03 -0.1,-0.04 -0.08,-0.07 -0.28,-0.08 -0.53,-0.04 -0.16,-0.11 -0.94,-0.13 -0.7,-0.01 -0.19,-0.09 -0.6,-0.1 -0.22,-0.01 -1.78,0.01 -1.87,-0.03 -0.16,-0.07 0.04,0.04 -0.05,-0.03 0,-0.01 -0.02,-0.02 -0.03,-0.03 -0.01,-0.05 -8.54,-0.02 -8.81,-0.02 -0.43,0 -8.56,-0.04 -8.76,0.02l0 10.28c0,0.45 0.06,3.22 -0.03,3.4 -0.05,0.01 0,0.01 -0.04,-0.01l-0.08 -0.08c-0.06,-0.06 -0.06,-0.05 -0.1,-0.16 -0.04,-0.13 -0.01,-0.07 -0.07,-0.17 -0.05,-0.08 -0.03,-0.07 -0.05,-0.16 -0.04,-0.11 -0.05,-0.07 -0.09,-0.17 -0.03,-0.07 -0.02,-0.11 -0.06,-0.19 -0.04,-0.09 -0.03,-0.05 -0.07,-0.17 -0.06,-0.15 -0.02,-0.03 -0.08,-0.14 -0.05,-0.07 -0.03,-0.1 -0.05,-0.19 -0.04,-0.15 -0.05,-0.05 -0.09,-0.16 -0.03,-0.07 -0.01,-0.11 -0.05,-0.21l-0.21 -0.5c-0.06,-0.15 -0.08,-0.05 -0.13,-0.38 -0.04,-0.05 -0.04,-0.06 -0.07,-0.14 -0.06,-0.12 0.04,-0.06 -0.12,-0.1 -0.01,-0.07 0,-0.16 -0.01,-0.23l-0.15 -0.44c-0.04,-0.08 -0.01,0.01 -0.04,-0.08l-0.2 -0.48c-0.05,-0.1 -0.06,-0.21 -0.11,-0.31l-0.7 -1.69c-0.12,-0.2 -0.17,-0.41 -0.24,-0.56l-0.17 -0.43c-0.05,-0.16 -0.01,-0.02 -0.07,-0.13 -0.03,-0.06 -0.02,-0.1 -0.04,-0.15 -0.03,-0.12 -0.02,-0.05 -0.07,-0.13l-0.2 -0.49c-0.13,-0.25 -0.02,-0.11 -0.15,-0.36 -0.04,-0.06 -0.03,-0.08 -0.05,-0.15 -0.03,-0.14 0,-0.04 -0.06,-0.14 -0.08,-0.14 0,-0.09 -0.11,-0.31 -0.12,-0.24 -0.28,-0.74 -0.34,-0.84 -0.04,-0.08 -0.03,-0.08 -0.05,-0.17 -0.05,-0.11 -0.04,-0.04 -0.08,-0.11l-0.38 -1.04c-0.04,-0.13 -0.19,-0.38 -0.25,-0.54 -0.09,-0.27 -0.11,-0.28 -0.23,-0.32 0,-0.05 0.01,-0.13 0,-0.17 -0.04,-0.19 -0.01,0.06 -0.12,-0.3l-0.21 -0.48c-0.06,-0.29 -0.07,-0.04 -0.11,-0.29 -0.06,-0.34 -0.04,0.13 -0.14,-0.45l-12.9 0.01 -0.4 1.01zm-41.18 -7.35l124.12 0 0 41.7 -124.12 0 0 -41.7z"/>
 </g>
</svg>
