<?xml version="1.0" encoding="UTF-8"?>
<!DOCTYPE svg PUBLIC "-//W3C//DTD SVG 1.1//EN" "http://www.w3.org/Graphics/SVG/1.1/DTD/svg11.dtd">
<!-- Creator: CorelDRAW 2021 (64-Bit) -->
<svg xmlns="http://www.w3.org/2000/svg" xml:space="preserve" width="360px" height="152px" version="1.1" style="shape-rendering:geometricPrecision; text-rendering:geometricPrecision; image-rendering:optimizeQuality; fill-rule:evenodd; clip-rule:evenodd"
viewBox="0 0 360 152"
 xmlns:xlink="http://www.w3.org/1999/xlink"
 xmlns:xodm="http://www.corel.com/coreldraw/odm/2003">
 <defs>
  <style type="text/css">
   <![CDATA[
    .fil0 {fill:#FEFEFE}
    .fil1 {fill:#FEFEFE;fill-rule:nonzero}
   ]]>
  </style>
 </defs>
 <g id="Слой_x0020_1">
  <metadata id="CorelCorpID_0Corel-Layer"/>
  <g>
   <path class="fil0" d="M0 0l360 0 0 152 -360 0 0 -152zm358.96 1.04l-357.92 0 0 149.91 357.92 0 0 -149.91z"/>
  </g>
  <g>
   <g>
    <path class="fil1" d="M247.16 84.14c1.63,0.48 2.34,0.11 2.71,-0.69 0.08,-0.16 -0.49,-0.65 -0.76,-0.99 -0.57,0.49 -1.13,0.97 -1.95,1.68l0 0zm-8.07 -1.25c0.08,-0.15 -0.48,-0.6 -0.74,-0.91 -0.54,0.43 -1.08,0.87 -1.87,1.5 1.57,0.46 2.26,0.13 2.61,-0.59l0 0zm2.17 -0.37c0.13,2.86 -0.69,4.67 -3.43,5.21 -0.64,0.13 -0.68,-0.69 -1.35,-1.37 -0.79,0.91 -3.59,0.05 -3.51,-0.89 0.06,-0.95 0.7,-1.82 1.3,-2.57 0.8,-0.96 1.71,-1.87 2.72,-2.65 0.93,-0.72 2.22,-0.79 3.29,0 0.65,0.49 0.95,1.45 1.4,2.19 -0.15,0.03 -0.28,0.05 -0.42,0.08l0 0zm13.18 4.51c1.38,1.32 1.69,2.56 0.93,3.26 -0.74,0.68 -1.5,0.15 -1.98,-0.46 -1.26,-1.59 0.5,-1.87 1.05,-2.8l0 0zm-17.73 -21.77c0.41,-0.98 0.73,-1.61 0.94,-2.28 0.24,-0.81 0.82,-1.16 1.57,-0.61 0.45,0.34 0.91,1.27 0.76,1.67 -0.95,2.47 -4.08,9.36 -5.26,11.72 -1.45,2.9 -2.94,5.78 -4.64,8.52 -1.17,1.89 -2.72,3.52 -4.09,5.28 -0.49,0.63 -1.14,1.07 -1.89,0.34 -0.73,-0.69 -0.92,-1.53 -0.25,-2.37 1.83,-2.29 3.71,-4.56 5.27,-7.02 1.73,-2.71 5.24,-10.08 6.73,-12.94l0.86 -2.31zm12.46 14.68c0.92,0.58 1.51,0.95 2.1,1.32 1.86,1.16 2.17,3.1 0.7,4.35 -0.32,0.27 -0.67,0.53 -1.08,0.68 -1.76,0.64 -3.54,1.23 -5.3,1.87 -0.31,0.1 -0.52,0.4 -0.83,0.51 -0.47,0.18 -1.1,0.53 -1.47,0.35 -0.89,-0.45 -1.31,-1.28 -0.88,-2.16 0.91,-1.85 1.78,-3.72 2.82,-5.49 1.71,-2.9 5.63,-10.2 7.43,-13.06 0.67,-1.06 1.28,-2.2 2.15,-3.11 0.35,-0.37 1.29,-0.23 1.96,-0.32 0,0.61 0.23,1.36 -0.03,1.8 -1.73,2.92 -5.67,10.24 -7.57,13.26z" />
   </g>
   <g>
    <path class="fil1" d="M214.46 84.81c0.11,-0.53 -0.03,-1.11 -0.08,-1.66 -0.45,0.09 -1.05,0.04 -1.29,0.31 -0.25,0.27 -0.15,0.84 -0.25,1.62 0.82,-0.13 1.59,-0.13 1.62,-0.27l0 0zm-15.63 1.67c2.14,-0.53 4.25,-1.12 5.53,-3.12 0.19,-0.31 0.35,-0.7 0.65,-0.89 0.41,-0.25 1.05,-0.6 1.37,-0.45 0.33,0.14 0.6,0.86 0.53,1.28 -0.1,0.69 -0.49,1.34 -0.9,2.34 0.62,-0.24 1.04,-0.29 1.28,-0.51 1.05,-0.95 2.46,-1.58 2.65,-3.24 0.09,-0.84 1.07,-1.14 1.76,-0.57 0.78,0.63 1.44,0.52 2.2,0.11 0.21,-0.12 0.46,-0.2 0.71,-0.26 1.07,-0.24 2.49,0.28 2.85,1.13 0.41,0.99 -0.03,1.85 -0.78,2.51 -0.65,0.58 -1.38,1.07 -2.11,1.56 -0.69,0.46 -0.77,0.89 -0.09,1.42 0.43,0.33 0.89,0.65 1.22,1.06 0.22,0.28 0.4,0.8 0.27,1.06 -0.13,0.26 -0.75,0.52 -1.03,0.44 -0.9,-0.29 -1.34,-1.19 -2.13,-1.68 -0.62,-0.39 -2.08,0.58 -2.62,0.06 -1.38,-1.29 -0.79,-2.29 -2.56,-1.41 -1.1,0.56 -2.31,0.98 -3.52,1.31 -0.6,0.16 -1.53,0.2 -1.93,-0.13 -0.95,-0.77 -1.84,-0.49 -2.84,-0.34 -0.77,0.12 -1.62,0.14 -2.36,-0.05 -1.67,-0.45 -2.23,-2.02 -1.17,-3.33 0.83,-1.05 1.79,-2.01 2.77,-2.94 0.34,-0.32 0.88,-0.59 1.34,-0.62 0.65,-0.04 1.7,-0.03 1.91,0.32 0.28,0.48 0.08,1.37 -0.19,1.96 -0.28,0.6 -0.87,1.1 -1.39,1.56 -0.48,0.43 -1.05,0.76 -1.58,1.13 0.05,0.09 0.11,0.19 0.16,0.29l0 0zm-13.1 -0.75c-0.56,-0.05 -1.12,-0.16 -1.68,-0.13 -0.24,0.02 -0.45,0.35 -0.67,0.54 0.23,0.17 0.48,0.51 0.69,0.49 0.58,-0.07 1.15,-0.28 1.72,-0.44 -0.02,-0.15 -0.04,-0.3 -0.06,-0.46l0 0zm1.32 -2.62c-0.15,-0.52 -0.54,-0.97 -0.85,-1.45 -0.35,0.28 -0.91,0.5 -1.01,0.84 -0.09,0.36 0.26,0.82 0.54,1.55 0.67,-0.46 1.36,-0.8 1.32,-0.94l0 0zm-17.87 2.86c-0.02,-0.15 -0.04,-0.31 -0.06,-0.46 -0.56,-0.05 -1.12,-0.17 -1.68,-0.14 -0.23,0.02 -0.45,0.36 -0.67,0.55 0.23,0.17 0.48,0.51 0.69,0.48 0.58,-0.06 1.15,-0.27 1.72,-0.43l0 0zm-0.06 -2.14c0.67,-0.47 1.37,-0.8 1.32,-0.94 -0.15,-0.52 -0.54,-0.97 -0.85,-1.45 -0.35,0.27 -0.91,0.49 -1,0.83 -0.1,0.36 0.26,0.83 0.53,1.56l0 0zm10.88 -2.16c0.39,-0.07 0.67,-0.12 0.95,-0.17 1.98,-0.31 3.19,-1.02 5.17,-1.3 0.41,-0.06 1.67,0.29 2.02,0.47 1.5,0.74 2.66,0.08 4.01,-0.51 2.87,-1.26 4.67,-3.29 6,-5.97 1.86,-3.77 3.95,-7.43 5.95,-11.14 0.35,-0.65 0.83,-1.32 1.63,-0.89 0.38,0.2 0.72,1.09 0.57,1.49 -1.51,3.95 -2.54,8.09 -5.16,11.58 -2.2,2.92 -4.44,5.82 -6.55,8.8 -1.17,1.66 -2.55,3.22 -2.98,5.31 -0.17,0.85 -0.86,1.37 -1.89,1.25 -1.18,-0.15 -1.69,-0.98 -1.08,-2.02 0.65,-1.13 1.46,-2.15 2.22,-3.22 0.7,-1.01 1.42,-2 1.96,-3.13 -1.58,0.34 -2.89,0.76 -3.69,2.27 -1.1,2.07 -3.15,4.12 -5.54,4.35 -2.24,0.22 -2.97,-1.65 -2.5,-3.75 0.11,-0.46 0.19,-0.92 0.33,-1.6 -0.57,0.1 -1,0.04 -1.25,0.23 -1.78,1.33 -4.03,2.08 -5.34,4 -0.12,0.17 -0.24,0.44 -0.4,0.46 -0.61,0.06 -1.42,0.29 -1.82,0.02 -0.76,-0.51 -0.28,-1.25 0.19,-1.8 0.57,-0.64 1.21,-1.24 1.81,-1.85 -0.14,-0.16 -0.28,-0.31 -0.42,-0.47 -0.55,0.38 -1.36,0.64 -1.6,1.15 -1.23,2.58 -3.64,3.14 -6.14,3.4 -1.56,0.17 -2.1,-1.07 -2.33,-2.43 -1.43,0.35 -2.76,0.67 -4.1,1.01 -1.29,0.32 -2.46,0.09 -3.41,-0.79 -0.55,-0.51 -1,-0.41 -1.39,0.05 -0.53,0.63 -0.98,1.31 -1.46,1.97 -0.07,0.11 -0.11,0.23 -0.17,0.33 -0.45,0.75 -0.91,1.61 -2.02,1.19 -0.86,-0.32 -0.91,-1.62 -0.2,-2.58 3.83,-5.21 7.2,-10.68 10.04,-16.45 0.55,-1.14 0.96,-2.34 1.47,-3.49 0.29,-0.67 0.69,-1.31 1.6,-0.99 0.98,0.33 0.89,1.15 0.58,1.84 -1.08,2.37 -2.22,4.72 -3.37,7.07 -0.48,0.97 -1.06,1.89 -1.58,2.84 0.08,0.06 0.16,0.12 0.24,0.19 0.35,-0.31 0.7,-0.61 1.04,-0.93 2.16,-2.04 4.33,-4.09 6.5,-6.12 0.17,-0.18 0.38,-0.33 0.59,-0.46 0.59,-0.37 1.23,-0.69 1.78,0.01 0.53,0.68 0.14,1.21 -0.42,1.68 -1.57,1.34 -3.27,2.57 -4.68,4.06 -2.02,2.11 -3.85,4.38 -5.7,6.64 -0.38,0.46 -0.46,1.14 -0.7,1.75 2.88,0.46 6.16,-1.19 7.46,-3.38 0.49,-0.83 1.28,-1.66 2.15,-2.08 1.53,-0.75 3.2,0.07 3.9,1.88 0.46,1.19 1.02,1.32 2.05,0.73 1.05,-0.6 2.17,-1.09 3.2,-1.71 1.85,-1.11 2.22,-0.97 2.48,1.21z" />
   </g>
   <g>
    <path class="fil1" d="M130.08 81.66c0.05,-0.01 0.11,-0.01 0.13,-0.03 0.87,-0.55 1.52,-0.72 2.01,-0.5 0.49,0.23 0.79,0.83 0.98,1.83 0.02,0.12 0.17,0.28 0.35,0.42 0.18,0.13 0.36,0.23 0.46,0.22 0.23,-0.03 0.47,-0.06 0.71,-0.08 1.2,-0.13 1.89,-0.57 2.69,-1.82 0.38,-0.57 0.93,-1.01 1.58,-1.26 0.64,-0.25 2.01,-0.43 2.75,-0.28 0.46,0.08 0.85,0.36 1.23,0.64 0.16,0.11 0.33,0.23 0.49,0.32 0.11,0.07 0.15,0.22 0.08,0.33l-1.03 1.18c0.13,0.94 0.22,2.51 0.55,2.77 0.35,0.28 0.98,0.34 2.14,0.35l0.2 0c0.23,-0.01 0.46,-0.02 0.67,0.08 0.18,0.08 0.4,0.19 0.56,0.33 0.15,0.12 0.26,0.26 0.29,0.42l0 0.01c0.02,0.16 -0.05,0.35 -0.16,0.51 -0.11,0.18 -0.29,0.34 -0.45,0.45 -0.54,0.38 -1.62,0.48 -2.72,0.4 -1.16,-0.09 -2.57,-0.26 -3.2,-0.68l-0.01 -0.01c-0.31,-0.2 -0.76,-0.28 -1.2,-0.35l-0.42 -0.07c-0.22,-0.05 -0.44,-0.08 -0.66,-0.11 -0.23,-0.02 -0.45,-0.04 -0.68,-0.05 -0.17,-0.01 -0.35,-0.03 -0.52,-0.05 -0.45,-0.05 -0.8,-0.86 -1.16,-0.75 -1.22,0.36 -2.16,0.49 -3.06,0.31 -0.85,-0.16 -1.65,-0.61 -2.57,-1.38l-0.58 0.45c-0.59,0.44 -1.18,0.9 -1.84,1.26 -0.47,0.27 -1.01,0.39 -1.54,0.52l-0.02 0c-0.21,0.05 -0.43,0.1 -0.66,0.17 -0.13,0.03 -0.27,-0.04 -0.3,-0.16l-0.41 -1.94 -0.52 0.2c-0.67,0.26 -1.42,0.55 -2.2,0.76 -0.71,0.19 -1.31,0.08 -1.86,-0.24 -0.45,-0.26 -0.87,-0.66 -1.31,-1.15l-0.53 0.76c-0.53,0.74 -1.03,1.45 -1.44,2.2l-0.13 0.24c-0.35,0.68 -0.66,1.29 -1.71,0.96 -0.09,-0.03 -0.17,-0.06 -0.25,-0.1 -0.43,-0.19 -0.68,-0.48 -0.8,-0.81 -0.11,-0.33 -0.09,-0.69 0.03,-1.06 0.03,-0.09 0.08,-0.19 0.12,-0.29 0.55,-1.12 1.16,-2.19 1.77,-3.26l0.54 -0.95 0.52 -0.92c0.56,-1.02 1.12,-2.04 1.8,-3 0.24,-0.34 0.71,-0.45 1.18,-0.56 0.18,-0.04 0.37,-0.09 0.54,-0.15 0.12,-0.05 0.26,0.02 0.3,0.13 0.01,0.03 0.02,0.06 0.02,0.08 0.01,0.14 0.03,0.28 0.05,0.43 0.06,0.37 0.11,0.74 -0.03,1.07l-0.02 0.05c-0.21,0.51 -0.34,0.85 0.26,1.22 0.23,0.15 0.42,0.41 0.54,0.71l0.01 0.02c0.13,0.31 0.2,0.67 0.19,0.97 -0.01,0.28 0.02,0.5 0.09,0.65 0.04,0.07 0.08,0.12 0.14,0.16 0.05,0.03 0.11,0.05 0.19,0.05 0.16,0.01 0.35,-0.05 0.58,-0.15 0.65,-0.28 1.28,-0.59 1.9,-0.91 0.62,-0.32 1.24,-0.66 1.86,-1.01l0.07 -0.03c1.99,-1.11 2.03,-1.14 3.42,0.48l0 0zm9 1.13c-0.28,0.09 -0.05,0.95 0.41,1.13 0.26,0.11 1.4,-1.07 0.82,-1.22 -0.08,-0.03 -1.15,0.06 -1.23,0.09z" />
   </g>
   <path class="fil1" d="M118.62 63.99c-1.53,5.05 -4.43,9.72 -6.91,14.57 -1.04,2.06 -1.97,4.16 -3.03,6.21 -0.56,1.07 -1.3,2.06 -1.94,3.09 -0.37,0.61 -0.57,1.35 -1.06,1.83 -0.48,0.46 -1.33,1.02 -1.84,0.9 -0.96,-0.24 -0.8,-1.08 -0.36,-1.83 2.86,-4.91 5.12,-10.09 7.79,-15.08 1.92,-3.59 3.41,-7.38 5.12,-11.07 0.31,-0.68 1.07,-1.43 2.16,-1.16 0.24,0.05 0.16,1.38 0.22,2.12 0,0.07 -0.06,0.16 -0.15,0.42z" />
  </g>
 </g>
</svg>
