<?xml version="1.0" encoding="UTF-8"?>
<!DOCTYPE svg PUBLIC "-//W3C//DTD SVG 1.1//EN" "http://www.w3.org/Graphics/SVG/1.1/DTD/svg11.dtd">
<!-- Creator: CorelDRAW 2021 (64-Bit) -->
<svg xmlns="http://www.w3.org/2000/svg" xml:space="preserve" width="360px" height="152px" version="1.1" style="shape-rendering:geometricPrecision; text-rendering:geometricPrecision; image-rendering:optimizeQuality; fill-rule:evenodd; clip-rule:evenodd"
viewBox="0 0 360 152"
 xmlns:xlink="http://www.w3.org/1999/xlink"
 xmlns:xodm="http://www.corel.com/coreldraw/odm/2003">
 <defs>
  <style type="text/css">
   <![CDATA[
    .fil0 {fill:#FEFEFE}
    .fil1 {fill:#FEFEFE;fill-rule:nonzero}
   ]]>
  </style>
 </defs>
 <g id="Слой_x0020_1">
  <metadata id="CorelCorpID_0Corel-Layer"/>
  <g>
   <path class="fil0" d="M0 0l360 0 0 152 -360 0 0 -152zm358.96 1.04l-357.92 0 0 149.91 357.92 0 0 -149.91z"/>
  </g>
  <g>
   <path class="fil1" d="M150.85 80.43l4.8 -10.78 4.54 10.78 -9.34 0zm19.16 9.38l-1.63 -3.76c-0.21,-0.45 -0.42,-0.93 -0.63,-1.44l-9.25 -22.07 -1.86 0 -12.19 27.27 2.15 0 3.39 -7.52 10.99 0 0.95 2.32c0.11,0.27 0.23,0.53 0.35,0.78l1.99 4.42 5.74 0z"/>
   <path class="fil1" d="M222.44 75.39l-11.16 0 0 -7.48c0,-0.17 0,-0.34 -0.01,-0.51l0 -4.86 -3.71 0 -1.61 0 0 27.27 5.32 0 0.01 0 0 -12.57 11.16 0 0 7.2 0 5.37 3.71 0 1.61 0 0 -27.27 -5.32 0 0 12.85z"/>
   <path class="fil1" d="M125.26 72.49l8.16 -10.04 -2.85 0 -11.52 13.78 0 -13.78 -1.53 0 -3.76 0 0 4.41c0,0.27 0,0.58 0,0.96l0 2.99 -0.04 4.08 0.04 1.08 0 4.96 0 0.44 0 8.35 5.29 0 0 -9.59 3.34 -3.99 10.6 13.67 5.66 0 -13.39 -17.32z"/>
   <path class="fil1" d="M245.42 48.91c-1.41,-0.53 -2.93,-0.6 -4.17,-0.78 -0.65,0.07 -1.01,0.2 -1.19,0.59 -0.26,0.55 0.14,0.87 0.46,1.22 0.69,0.78 0.65,2.07 0.44,3.03 -0.26,1.17 -1.09,1.84 -1.6,2.89 -0.11,0.22 -0.32,0.73 -0.26,0.98 0.31,1.32 3.42,-1.4 3.8,-1.77 1.25,-1.22 2.41,-2.66 3.18,-4.23 0.38,-0.77 0.23,-1.6 -0.66,-1.93z"/>
   <path class="fil1" d="M195.13 79.27c-0.73,-1.06 -1.93,-2.09 -3.61,-3.08l0.01 0c-0.22,-0.14 -0.46,-0.29 -0.71,-0.43l-4.85 -2.86c-1.45,-0.84 -2.49,-1.59 -3.14,-2.25 -0.64,-0.67 -0.96,-1.51 -0.96,-2.53 0,-1.18 0.41,-2.1 1.24,-2.78 0.83,-0.68 1.93,-1.1 3.35,-1.1 5.22,0 7.7,2.8 8.03,5.53l1.72 0c0,-1.69 -1.46,-7.22 -10.16,-7.22 -2.71,0 -4.86,0.6 -6.45,1.81 -1.59,1.2 -2.39,2.83 -2.39,4.9 0,1.46 0.38,2.74 1.13,3.84 0.72,1.06 1.92,2.09 3.6,3.07 0,0 0.45,0.29 0.7,0.43l4.85 2.86c1.45,0.84 2.5,1.59 3.14,2.26 0.64,0.66 0.97,1.51 0.97,2.53 0,1.17 -0.42,2.1 -1.25,2.78 -0.83,0.68 -1.93,1.1 -3.35,1.1 -5.21,0 -7.69,-2.81 -8.02,-5.53l-1.73 -0.01c0,1.7 1.46,7.22 10.16,7.22 2.71,0 4.86,-0.6 6.45,-1.8 1.6,-1.2 2.39,-2.84 2.39,-4.9 0,-1.47 -0.37,-2.75 -1.12,-3.84z"/>
   <polygon class="fil1" points="244.37,89.83 239.05,89.83 239.05,62.57 244.37,62.57 "/>
  </g>
 </g>
</svg>
