<?xml version="1.0" encoding="UTF-8"?>
<!DOCTYPE svg PUBLIC "-//W3C//DTD SVG 1.1//EN" "http://www.w3.org/Graphics/SVG/1.1/DTD/svg11.dtd">
<!-- Creator: CorelDRAW 2021 (64-Bit) -->
<svg xmlns="http://www.w3.org/2000/svg" xml:space="preserve" width="360px" height="152px" version="1.1" style="shape-rendering:geometricPrecision; text-rendering:geometricPrecision; image-rendering:optimizeQuality; fill-rule:evenodd; clip-rule:evenodd"
viewBox="0 0 360 152"
 xmlns:xlink="http://www.w3.org/1999/xlink"
 xmlns:xodm="http://www.corel.com/coreldraw/odm/2003">
 <defs>
  <style type="text/css">
   <![CDATA[
    .fil0 {fill:#FEFEFE}
    .fil1 {fill:#FEFEFE;fill-rule:nonzero}
   ]]>
  </style>
 </defs>
 <g id="Слой_x0020_1">
  <metadata id="CorelCorpID_0Corel-Layer"/>
  <g>
   <path class="fil0" d="M0 0l360 0 0 152 -360 0 0 -152zm358.96 1.04l-357.92 0 0 149.91 357.92 0 0 -149.91z"/>
  </g>
  <path class="fil1" d="M103.24 67.19l13.68 -8.1 -2.07 0 -13.21 7.71 0 -7.68 -2.6 0 0 19.32 2.6 0 0 -9.81 11.86 9.81 3.65 0.06 -13.91 -11.31zm9.78 25.3l0 0.69 -4.01 0 0 -5.53 3.9 0 0 0.69 -3.11 0 0 1.69 2.77 0 0 0.68 -2.77 0 0 1.78 3.22 0zm8.93 0.69l-1.65 -2.28 -1.64 2.28 -0.9 0 2.07 -2.84 -1.95 -2.69 0.9 0 1.55 2.12 1.53 -2.12 0.86 0 -1.95 2.67 2.09 2.86 -0.91 0zm8.06 -5.53c0.72,0 1.28,0.17 1.69,0.51 0.41,0.35 0.62,0.82 0.62,1.42 0,0.6 -0.21,1.07 -0.62,1.41 -0.41,0.34 -0.97,0.51 -1.69,0.51l-1.36 0 0 1.68 -0.79 0 0 -5.53 2.15 0zm-0.02 3.17c0.5,0 0.88,-0.11 1.14,-0.32 0.26,-0.22 0.4,-0.52 0.4,-0.92 0,-0.4 -0.14,-0.71 -0.4,-0.92 -0.26,-0.22 -0.64,-0.32 -1.14,-0.32l-1.34 0 0 2.48 1.34 0zm11.42 2.36l-1.19 -1.7c-0.14,0.01 -0.26,0.02 -0.34,0.02l-1.37 0 0 1.68 -0.79 0 0 -5.53 2.16 0c0.71,0 1.27,0.17 1.68,0.51 0.41,0.35 0.62,0.82 0.62,1.42 0,0.42 -0.11,0.79 -0.32,1.09 -0.21,0.3 -0.51,0.51 -0.9,0.65l1.31 1.86 -0.86 0zm-1.56 -2.36c0.5,0 0.88,-0.1 1.15,-0.32 0.26,-0.22 0.39,-0.52 0.39,-0.92 0,-0.4 -0.13,-0.71 -0.39,-0.92 -0.27,-0.22 -0.65,-0.32 -1.15,-0.32l-1.34 0 0 2.48 1.34 0zm11.86 1.67l0 0.69 -4.01 0 0 -5.53 3.9 0 0 0.69 -3.11 0 0 1.69 2.77 0 0 0.68 -2.77 0 0 1.78 3.22 0zm7.14 0.75c-0.42,0 -0.82,-0.07 -1.21,-0.2 -0.38,-0.12 -0.69,-0.29 -0.91,-0.5l0.29 -0.61c0.21,0.19 0.48,0.34 0.81,0.46 0.33,0.12 0.67,0.18 1.02,0.18 0.45,0 0.8,-0.08 1.02,-0.23 0.23,-0.16 0.34,-0.37 0.34,-0.62 0,-0.19 -0.06,-0.35 -0.18,-0.47 -0.13,-0.11 -0.28,-0.2 -0.46,-0.27 -0.18,-0.06 -0.44,-0.13 -0.77,-0.21 -0.42,-0.1 -0.75,-0.2 -1.01,-0.3 -0.25,-0.1 -0.47,-0.26 -0.65,-0.46 -0.18,-0.21 -0.27,-0.49 -0.27,-0.84 0,-0.3 0.07,-0.56 0.23,-0.8 0.15,-0.24 0.39,-0.43 0.7,-0.57 0.32,-0.14 0.71,-0.21 1.18,-0.21 0.33,0 0.65,0.04 0.96,0.12 0.32,0.09 0.59,0.21 0.82,0.37l-0.26 0.63c-0.24,-0.15 -0.48,-0.26 -0.75,-0.34 -0.26,-0.07 -0.52,-0.11 -0.77,-0.11 -0.45,0 -0.78,0.08 -1.01,0.24 -0.22,0.17 -0.33,0.38 -0.33,0.64 0,0.18 0.06,0.34 0.19,0.46 0.12,0.12 0.28,0.21 0.47,0.27 0.19,0.07 0.44,0.14 0.76,0.21 0.41,0.1 0.75,0.2 1,0.3 0.25,0.1 0.47,0.25 0.65,0.46 0.18,0.21 0.28,0.48 0.28,0.83 0,0.29 -0.08,0.55 -0.24,0.79 -0.16,0.24 -0.4,0.43 -0.72,0.57 -0.32,0.14 -0.72,0.21 -1.18,0.21zm9.14 0c-0.41,0 -0.81,-0.07 -1.2,-0.2 -0.39,-0.12 -0.69,-0.29 -0.91,-0.5l0.29 -0.61c0.21,0.19 0.48,0.34 0.81,0.46 0.33,0.12 0.67,0.18 1.01,0.18 0.46,0 0.8,-0.08 1.03,-0.23 0.22,-0.16 0.34,-0.37 0.34,-0.62 0,-0.19 -0.06,-0.35 -0.19,-0.47 -0.12,-0.11 -0.27,-0.2 -0.46,-0.27 -0.18,-0.06 -0.43,-0.13 -0.76,-0.21 -0.42,-0.1 -0.76,-0.2 -1.01,-0.3 -0.26,-0.1 -0.47,-0.26 -0.66,-0.46 -0.18,-0.21 -0.27,-0.49 -0.27,-0.84 0,-0.3 0.08,-0.56 0.23,-0.8 0.16,-0.24 0.4,-0.43 0.71,-0.57 0.32,-0.14 0.71,-0.21 1.18,-0.21 0.32,0 0.64,0.04 0.96,0.12 0.32,0.09 0.59,0.21 0.81,0.37l-0.26 0.63c-0.23,-0.15 -0.48,-0.26 -0.74,-0.34 -0.26,-0.07 -0.52,-0.11 -0.77,-0.11 -0.45,0 -0.79,0.08 -1.01,0.24 -0.22,0.17 -0.33,0.38 -0.33,0.64 0,0.18 0.06,0.34 0.18,0.46 0.13,0.12 0.29,0.21 0.47,0.27 0.19,0.07 0.44,0.14 0.77,0.21 0.41,0.1 0.75,0.2 1,0.3 0.25,0.1 0.47,0.25 0.65,0.46 0.18,0.21 0.27,0.48 0.27,0.83 0,0.29 -0.08,0.55 -0.24,0.79 -0.15,0.24 -0.39,0.43 -0.71,0.57 -0.32,0.14 -0.72,0.21 -1.19,0.21zm7.54 -5.59l0.79 0 0 5.53 -0.79 0 0 -5.53zm11.43 0l-2.42 5.53 -0.78 0 -2.43 -5.53 0.85 0 1.99 4.54 2 -4.54 0.79 0zm8.96 4.84l0 0.69 -4.01 0 0 -5.53 3.9 0 0 0.69 -3.11 0 0 1.69 2.77 0 0 0.68 -2.77 0 0 1.78 3.22 0zm11.89 -4.84l2.33 0c0.59,0 1.1,0.12 1.56,0.35 0.45,0.23 0.8,0.56 1.05,0.97 0.25,0.42 0.37,0.9 0.37,1.44 0,0.55 -0.12,1.03 -0.37,1.44 -0.25,0.42 -0.6,0.75 -1.05,0.98 -0.46,0.23 -0.97,0.35 -1.56,0.35l-2.33 0 0 -5.53zm2.28 4.84c0.45,0 0.84,-0.09 1.18,-0.26 0.34,-0.17 0.6,-0.42 0.79,-0.73 0.18,-0.31 0.28,-0.68 0.28,-1.09 0,-0.41 -0.1,-0.77 -0.28,-1.08 -0.19,-0.32 -0.45,-0.56 -0.79,-0.73 -0.34,-0.18 -0.73,-0.26 -1.18,-0.26l-1.49 0 0 4.15 1.49 0zm12.18 0.69l-1.19 -1.7c-0.15,0.01 -0.26,0.02 -0.35,0.02l-1.36 0 0 1.68 -0.79 0 0 -5.53 2.15 0c0.72,0 1.28,0.17 1.69,0.51 0.41,0.35 0.62,0.82 0.62,1.42 0,0.42 -0.11,0.79 -0.32,1.09 -0.21,0.3 -0.51,0.51 -0.9,0.65l1.31 1.86 -0.86 0zm-1.56 -2.36c0.5,0 0.88,-0.1 1.14,-0.32 0.26,-0.22 0.4,-0.52 0.4,-0.92 0,-0.4 -0.14,-0.71 -0.4,-0.92 -0.26,-0.22 -0.64,-0.32 -1.14,-0.32l-1.34 0 0 2.48 1.34 0zm11.86 1.67l0 0.69 -4.01 0 0 -5.53 3.9 0 0 0.69 -3.11 0 0 1.69 2.77 0 0 0.68 -2.77 0 0 1.78 3.22 0zm7.13 0.75c-0.41,0 -0.81,-0.07 -1.2,-0.2 -0.39,-0.12 -0.69,-0.29 -0.91,-0.5l0.29 -0.61c0.21,0.19 0.48,0.34 0.81,0.46 0.33,0.12 0.67,0.18 1.01,0.18 0.46,0 0.8,-0.08 1.03,-0.23 0.22,-0.16 0.34,-0.37 0.34,-0.62 0,-0.19 -0.06,-0.35 -0.19,-0.47 -0.12,-0.11 -0.27,-0.2 -0.46,-0.27 -0.18,-0.06 -0.43,-0.13 -0.76,-0.21 -0.42,-0.1 -0.76,-0.2 -1.01,-0.3 -0.26,-0.1 -0.47,-0.26 -0.66,-0.46 -0.18,-0.21 -0.27,-0.49 -0.27,-0.84 0,-0.3 0.08,-0.56 0.23,-0.8 0.16,-0.24 0.4,-0.43 0.71,-0.57 0.32,-0.14 0.71,-0.21 1.18,-0.21 0.32,0 0.64,0.04 0.96,0.12 0.31,0.09 0.59,0.21 0.81,0.37l-0.26 0.63c-0.23,-0.15 -0.48,-0.26 -0.74,-0.34 -0.26,-0.07 -0.52,-0.11 -0.77,-0.11 -0.45,0 -0.79,0.08 -1.01,0.24 -0.22,0.17 -0.33,0.38 -0.33,0.64 0,0.18 0.06,0.34 0.18,0.46 0.13,0.12 0.29,0.21 0.47,0.27 0.19,0.07 0.44,0.14 0.76,0.21 0.42,0.1 0.75,0.2 1.01,0.3 0.25,0.1 0.47,0.25 0.65,0.46 0.18,0.21 0.27,0.48 0.27,0.83 0,0.29 -0.08,0.55 -0.24,0.79 -0.15,0.24 -0.39,0.43 -0.71,0.57 -0.32,0.14 -0.72,0.21 -1.19,0.21zm9.15 0c-0.42,0 -0.82,-0.07 -1.2,-0.2 -0.39,-0.12 -0.7,-0.29 -0.92,-0.5l0.3 -0.61c0.21,0.19 0.48,0.34 0.8,0.46 0.33,0.12 0.67,0.18 1.02,0.18 0.46,0 0.8,-0.08 1.02,-0.23 0.23,-0.16 0.34,-0.37 0.34,-0.62 0,-0.19 -0.06,-0.35 -0.18,-0.47 -0.13,-0.11 -0.28,-0.2 -0.46,-0.27 -0.18,-0.06 -0.44,-0.13 -0.77,-0.21 -0.41,-0.1 -0.75,-0.2 -1,-0.3 -0.26,-0.1 -0.48,-0.26 -0.66,-0.46 -0.18,-0.21 -0.27,-0.49 -0.27,-0.84 0,-0.3 0.08,-0.56 0.23,-0.8 0.16,-0.24 0.39,-0.43 0.71,-0.57 0.31,-0.14 0.7,-0.21 1.17,-0.21 0.33,0 0.65,0.04 0.97,0.12 0.31,0.09 0.58,0.21 0.81,0.37l-0.26 0.63c-0.23,-0.15 -0.48,-0.26 -0.74,-0.34 -0.27,-0.07 -0.52,-0.11 -0.78,-0.11 -0.44,0 -0.78,0.08 -1,0.24 -0.23,0.17 -0.34,0.38 -0.34,0.64 0,0.18 0.06,0.34 0.19,0.46 0.13,0.12 0.28,0.21 0.47,0.27 0.19,0.07 0.44,0.14 0.76,0.21 0.42,0.1 0.75,0.2 1,0.3 0.26,0.1 0.47,0.25 0.65,0.46 0.19,0.21 0.28,0.48 0.28,0.83 0,0.29 -0.08,0.55 -0.24,0.79 -0.16,0.24 -0.4,0.43 -0.72,0.57 -0.32,0.14 -0.71,0.21 -1.18,0.21zm-128.53 -34.15l0 19.35 2.35 0 0 -19.35 -2.35 0zm18.45 15.34l-9.46 -15.34 -2.93 0 1.46 1.63 0 17.72 0.95 0 0 -16.31 9.89 16.28 1.58 -2.84 8.46 -13.11 0.03 15.98 2.73 0 0 -19.35 -2.73 0 -9.98 15.34zm34.17 -12.16c-1.72,-2.1 -3.98,-3.27 -6.8,-3.49 -2.85,-0.19 -5.4,0.61 -7.63,2.41 -2.24,1.8 -3.57,4.09 -3.93,6.83 -0.39,2.74 0.28,5.17 2.02,7.24 1.74,2.1 4.01,3.26 6.83,3.46 2.79,0.22 5.33,-0.56 7.57,-2.35 2.24,-1.8 3.57,-4.07 3.95,-6.83 0.36,-2.74 -0.3,-5.17 -2.01,-7.27zm-3.63 12.05c-2.18,1.74 -4.5,2.65 -6.96,2.74 -2.46,0.08 -4.31,-0.64 -5.56,-2.19 -0.86,-1.02 -1.3,-2.26 -1.35,-3.73 -0.06,-1.44 0.33,-2.9 1.13,-4.39 0.8,-1.47 1.96,-2.74 3.48,-3.76 2.35,-1.64 4.73,-2.49 7.14,-2.63 2.4,-0.14 4.25,0.55 5.55,2.07 1.27,1.52 1.58,3.46 0.92,5.78 -0.7,2.32 -2.13,4.37 -4.35,6.11zm27.71 4.12l0 -19.35 -2.24 0 0.13 15.7 -14.01 -15.7 -4.18 0 1.33 1.24 0 18.08 1.05 0 0 -16.86 15.48 16.89 2.44 0zm21.09 -16.17c-1.71,-2.1 -3.98,-3.27 -6.8,-3.49 -2.85,-0.19 -5.39,0.61 -7.63,2.41 -2.24,1.8 -3.57,4.09 -3.93,6.83 -0.38,2.74 0.28,5.17 2.02,7.24 1.74,2.1 4.01,3.26 6.83,3.46 2.79,0.22 5.34,-0.56 7.58,-2.35 2.24,-1.8 3.56,-4.07 3.95,-6.83 0.36,-2.74 -0.31,-5.17 -2.02,-7.27zm-3.62 12.05c-2.18,1.74 -4.51,2.65 -6.97,2.74 -2.46,0.08 -4.31,-0.64 -5.56,-2.19 -0.85,-1.02 -1.29,-2.26 -1.35,-3.73 -0.06,-1.44 0.33,-2.9 1.13,-4.39 0.81,-1.47 1.97,-2.74 3.49,-3.76 2.35,-1.64 4.73,-2.49 7.13,-2.63 2.41,-0.14 4.26,0.55 5.56,2.07 1.27,1.52 1.57,3.46 0.91,5.78 -0.69,2.32 -2.13,4.37 -4.34,6.11zm16.75 4.12l11.26 -19.35 -1.14 0 -9.04 15.54 -9.07 -15.54 -3.29 0 11.28 19.35zm26.38 -0.03l3.34 0 -11.25 -19.32 -3.51 0 1.82 1.6 -10.23 17.75 1.14 0 3.4 -5.92 11.97 0 3.32 5.89zm-9.24 -16.34l5.42 9.57 -10.95 0 5.53 -9.57z"/>
 </g>
</svg>
