<?xml version="1.0" encoding="UTF-8"?>
<!DOCTYPE svg PUBLIC "-//W3C//DTD SVG 1.1//EN" "http://www.w3.org/Graphics/SVG/1.1/DTD/svg11.dtd">
<!-- Creator: CorelDRAW 2021 (64-Bit) -->
<svg xmlns="http://www.w3.org/2000/svg" xml:space="preserve" width="360px" height="152px" version="1.1" style="shape-rendering:geometricPrecision; text-rendering:geometricPrecision; image-rendering:optimizeQuality; fill-rule:evenodd; clip-rule:evenodd"
viewBox="0 0 360 152"
 xmlns:xlink="http://www.w3.org/1999/xlink"
 xmlns:xodm="http://www.corel.com/coreldraw/odm/2003">
 <defs>
  <style type="text/css">
   <![CDATA[
    .fil0 {fill:#FEFEFE}
    .fil1 {fill:white;fill-rule:nonzero}
   ]]>
  </style>
 </defs>
 <g id="Слой_x0020_1">
  <metadata id="CorelCorpID_0Corel-Layer"/>
  <g>
   <path class="fil0" d="M0 0l360 0 0 152 -360 0 0 -152zm358.96 1.04l-357.92 0 0 149.91 357.92 0 0 -149.91z"/>
  </g>
  <g>
   <path class="fil1" d="M169.19 90.12l-5.77 -8.27c-0.24,0.02 -0.6,0.04 -1.09,0.04l-6.37 0 0 8.23 -5.24 0 0 -28.24 11.61 0c2.45,0 4.58,0.4 6.4,1.21 1.81,0.81 3.2,1.96 4.17,3.47 0.97,1.51 1.45,3.29 1.45,5.36 0,2.13 -0.51,3.96 -1.55,5.49 -1.03,1.53 -2.52,2.68 -4.46,3.43l6.5 9.28 -5.65 0zm-0.12 -18.2c0,-1.8 -0.59,-3.18 -1.78,-4.15 -1.18,-0.97 -2.91,-1.45 -5.2,-1.45l-6.13 0 0 11.25 6.13 0c2.29,0 4.02,-0.49 5.2,-1.47 1.19,-0.98 1.78,-2.37 1.78,-4.18z"/>
   <polygon class="fil1" points="222.59,78.3 218.12,82.9 218.12,90.12 212.87,90.12 212.87,61.88 218.12,61.88 218.12,76.36 232.07,61.88 237.96,61.88 226.1,74.51 238.69,90.12 232.56,90.12 "/>
   <polygon class="fil1" points="205.29,61.88 205.29,90.12 200.97,90.12 185.4,71 185.4,90.12 180.2,90.12 180.2,61.88 184.52,61.88 200.09,81 200.09,61.88 "/>
   <polygon class="fil1" points="131.03,78.3 126.56,82.9 126.56,90.12 121.31,90.12 121.31,61.88 126.56,61.88 126.56,76.36 140.51,61.88 146.4,61.88 134.54,74.51 147.13,90.12 141,90.12 "/>
  </g>
 </g>
</svg>
