<?xml version="1.0" encoding="UTF-8"?>
<!DOCTYPE svg PUBLIC "-//W3C//DTD SVG 1.1//EN" "http://www.w3.org/Graphics/SVG/1.1/DTD/svg11.dtd">
<!-- Creator: CorelDRAW 2021 (64-Bit) -->
<svg xmlns="http://www.w3.org/2000/svg" xml:space="preserve" width="360px" height="152px" version="1.1" style="shape-rendering:geometricPrecision; text-rendering:geometricPrecision; image-rendering:optimizeQuality; fill-rule:evenodd; clip-rule:evenodd"
viewBox="0 0 360 152"
 xmlns:xlink="http://www.w3.org/1999/xlink"
 xmlns:xodm="http://www.corel.com/coreldraw/odm/2003">
 <defs>
  <style type="text/css">
   <![CDATA[
    .fil0 {fill:#FEFEFE}
    .fil1 {fill:#FEFEFE;fill-rule:nonzero}
   ]]>
  </style>
 </defs>
 <g id="Слой_x0020_1">
  <metadata id="CorelCorpID_0Corel-Layer"/>
  <g>
   <path class="fil0" d="M0 0l360 0 0 152 -360 0 0 -152zm358.96 1.04l-357.92 0 0 149.91 357.92 0 0 -149.91z"/>
  </g>
  <path class="fil1" d="M184.89 97l3.25 0 0 -30.93 -3.25 0 0 30.93zm28.55 -49.38l-0.4 -0.93 -0.39 0.93 0.79 0zm0.13 0.31l-1.05 0 -0.21 0.48 -0.41 0 0.95 -2.11 0.39 0 0.95 2.11 -0.41 0 -0.21 -0.48zm-1.94 -1.63l-0.92 2.11 -0.38 0 -0.93 -2.11 0.43 0 0.7 1.63 0.71 -1.63 0.39 0zm-3.45 1.7c0.11,-0.06 0.2,-0.15 0.27,-0.26 0.06,-0.11 0.09,-0.24 0.09,-0.38 0,-0.14 -0.03,-0.27 -0.09,-0.39 -0.07,-0.11 -0.16,-0.2 -0.27,-0.26 -0.11,-0.06 -0.24,-0.1 -0.38,-0.1 -0.14,0 -0.27,0.04 -0.38,0.1 -0.11,0.06 -0.2,0.15 -0.27,0.26 -0.06,0.12 -0.09,0.25 -0.09,0.39 0,0.14 0.03,0.27 0.09,0.38 0.07,0.11 0.16,0.2 0.27,0.26 0.11,0.07 0.24,0.1 0.38,0.1 0.14,0 0.27,-0.03 0.38,-0.1zm-0.96 0.3c-0.18,-0.09 -0.31,-0.22 -0.41,-0.39 -0.1,-0.16 -0.15,-0.35 -0.15,-0.55 0,-0.21 0.05,-0.39 0.15,-0.56 0.1,-0.17 0.23,-0.3 0.41,-0.39 0.17,-0.09 0.36,-0.14 0.58,-0.14 0.21,0 0.41,0.05 0.58,0.14 0.18,0.09 0.31,0.22 0.41,0.39 0.1,0.16 0.15,0.35 0.15,0.56 0,0.2 -0.05,0.39 -0.15,0.56 -0.1,0.16 -0.23,0.29 -0.41,0.38 -0.17,0.1 -0.37,0.14 -0.58,0.14 -0.22,0 -0.41,-0.04 -0.58,-0.14zm-1.39 -2l0 2.11 -0.32 0 -1.17 -1.43 0 1.43 -0.38 0 0 -2.11 0.32 0 1.16 1.43 0 -1.43 0.39 0zm-3.31 1.32l-0.4 -0.93 -0.39 0.93 0.79 0zm0.13 0.31l-1.05 0 -0.21 0.48 -0.41 0 0.95 -2.11 0.39 0 0.95 2.11 -0.41 0 -0.21 -0.48zm-3.34 0.15c0.16,0 0.29,-0.03 0.41,-0.09 0.12,-0.06 0.21,-0.14 0.27,-0.25 0.07,-0.11 0.1,-0.24 0.1,-0.38 0,-0.15 -0.03,-0.28 -0.1,-0.39 -0.06,-0.11 -0.15,-0.19 -0.27,-0.25 -0.12,-0.06 -0.25,-0.09 -0.41,-0.09l-0.51 0 0 1.45 0.51 0zm-0.9 -1.78l0.92 0c0.22,0 0.42,0.04 0.6,0.13 0.17,0.09 0.31,0.21 0.41,0.37 0.09,0.16 0.14,0.35 0.14,0.56 0,0.21 -0.05,0.39 -0.14,0.55 -0.1,0.16 -0.24,0.28 -0.41,0.37 -0.18,0.09 -0.38,0.13 -0.6,0.13l-0.92 0 0 -2.11zm-0.99 0l0 2.11 -0.39 0 0 -0.9 -1.09 0 0 0.9 -0.39 0 0 -2.11 0.39 0 0 0.87 1.09 0 0 -0.87 0.39 0zm-2.64 1.78l0 0.33 -1.81 0 0 -0.26 1.25 -1.52 -1.22 0 0 -0.33 1.74 0 0 0.26 -1.25 1.52 1.29 0zm-4.33 -0.46l-0.39 -0.93 -0.4 0.93 0.79 0zm0.13 0.31l-1.05 0 -0.21 0.48 -0.41 0 0.96 -2.11 0.38 0 0.96 2.11 -0.41 0 -0.22 -0.48zm-2.67 -0.6l0.38 0 0 0.84c-0.11,0.09 -0.24,0.16 -0.38,0.2 -0.15,0.05 -0.3,0.07 -0.45,0.07 -0.22,0 -0.41,-0.04 -0.58,-0.14 -0.18,-0.09 -0.31,-0.22 -0.41,-0.38 -0.1,-0.17 -0.15,-0.36 -0.15,-0.56 0,-0.21 0.05,-0.4 0.15,-0.56 0.1,-0.17 0.23,-0.3 0.41,-0.39 0.17,-0.09 0.37,-0.14 0.59,-0.14 0.17,0 0.33,0.03 0.48,0.09 0.14,0.06 0.26,0.14 0.36,0.25l-0.24 0.25c-0.16,-0.16 -0.36,-0.25 -0.59,-0.25 -0.15,0 -0.28,0.04 -0.39,0.1 -0.12,0.06 -0.21,0.15 -0.28,0.26 -0.06,0.11 -0.09,0.24 -0.09,0.39 0,0.14 0.03,0.26 0.09,0.38 0.07,0.11 0.16,0.2 0.28,0.26 0.11,0.07 0.24,0.1 0.39,0.1 0.17,0 0.31,-0.04 0.43,-0.11l0 -0.66zm-3.62 -1.03l0.39 0 0 1.78 1.11 0 0 0.33 -1.5 0 0 -2.11zm-1.59 1.7c0.12,-0.06 0.21,-0.15 0.27,-0.26 0.06,-0.11 0.1,-0.24 0.1,-0.38 0,-0.14 -0.04,-0.27 -0.1,-0.39 -0.06,-0.11 -0.15,-0.2 -0.27,-0.26 -0.11,-0.06 -0.24,-0.1 -0.38,-0.1 -0.14,0 -0.26,0.04 -0.38,0.1 -0.11,0.06 -0.2,0.15 -0.26,0.26 -0.07,0.12 -0.1,0.25 -0.1,0.39 0,0.14 0.03,0.27 0.1,0.38 0.06,0.11 0.15,0.2 0.26,0.26 0.12,0.07 0.24,0.1 0.38,0.1 0.14,0 0.27,-0.03 0.38,-0.1zm-0.96 0.3c-0.17,-0.09 -0.31,-0.22 -0.41,-0.39 -0.09,-0.16 -0.14,-0.35 -0.14,-0.55 0,-0.21 0.05,-0.39 0.14,-0.56 0.1,-0.17 0.24,-0.3 0.41,-0.39 0.17,-0.09 0.37,-0.14 0.58,-0.14 0.22,0 0.41,0.05 0.59,0.14 0.17,0.09 0.3,0.22 0.4,0.39 0.1,0.16 0.15,0.35 0.15,0.56 0,0.2 -0.05,0.39 -0.15,0.56 -0.1,0.16 -0.23,0.29 -0.4,0.38 -0.18,0.1 -0.37,0.14 -0.59,0.14 -0.21,0 -0.41,-0.04 -0.58,-0.14zm-3.15 -0.63l0 0.74 -0.39 0 0 -0.74 -0.83 -1.37 0.42 0 0.62 1.03 0.63 -1.03 0.38 0 -0.83 1.37zm-2.09 0.13c0,-0.2 -0.15,-0.3 -0.46,-0.3l-0.63 0 0 0.61 0.63 0c0.31,0 0.46,-0.11 0.46,-0.31zm-1.09 -1.19l0 0.58 0.56 0c0.13,0 0.24,-0.02 0.31,-0.07 0.07,-0.05 0.11,-0.12 0.11,-0.22 0,-0.09 -0.04,-0.17 -0.11,-0.22 -0.07,-0.05 -0.18,-0.07 -0.31,-0.07l-0.56 0zm1.38 0.9c0.07,0.09 0.1,0.2 0.1,0.33 0,0.18 -0.07,0.32 -0.21,0.42 -0.14,0.1 -0.34,0.15 -0.61,0.15l-1.05 0 0 -2.11 0.99 0c0.25,0 0.44,0.05 0.57,0.15 0.14,0.09 0.21,0.23 0.21,0.4 0,0.1 -0.03,0.2 -0.08,0.28 -0.04,0.08 -0.11,0.14 -0.2,0.18 0.12,0.04 0.21,0.11 0.28,0.2zm-17.96 42.97l3.26 0 0 -24.42 -3.26 0 0 24.42zm1.63 -29.5c-1.01,0 -1.84,0.82 -1.84,1.84 0,1.01 0.83,1.83 1.84,1.83 1.02,0 1.84,-0.82 1.84,-1.83 0,-1.02 -0.82,-1.84 -1.84,-1.84zm26.05 0c-1.01,0 -1.84,0.82 -1.84,1.84 0,1.01 0.83,1.83 1.84,1.83 1.02,0 1.84,-0.82 1.84,-1.83 0,-1.02 -0.82,-1.84 -1.84,-1.84zm-17.91 36.02l0 -1.12 -19.55 0c0,-5.55 0.01,-30.57 0.01,-37.62 0,-8.67 4.6,-9.76 9.77,-9.76 0.37,0 1.01,-0.01 1.67,-0.01 0.88,0 1.59,-0.71 1.59,-1.59 0,-0.91 -0.78,-1.65 -1.69,-1.58 -0.53,0.03 -1.51,0.15 -1.57,0.16 -8.96,1.49 -13.02,10.31 -13.02,16.03 0,0.1 0,35.49 0,35.49l0 0 22.79 0zm42.34 0.01l3.25 0 0 -24.45c0,-1.93 -0.85,-3.67 -2.2,-4.86 -1.11,-0.98 -2.55,-1.58 -4.14,-1.62 -1.95,0.03 -3.77,0.61 -5.3,1.6 -0.56,0.36 -1.07,0.78 -1.54,1.24 -0.82,-5.58 -4.9,-12.69 -12.87,-14.01 -0.06,-0.01 -1.03,-0.13 -1.56,-0.16 -0.92,-0.07 -1.69,0.66 -1.69,1.58 0,0.88 0.7,1.59 1.58,1.59 0.66,0 1.3,0 1.67,0 5.17,0 9.77,1.1 9.77,9.77 0,2.09 0.02,29.31 0.02,29.31l3.24 0c0,0 0,-26.53 0,-26.75 0.81,-0.74 1.61,-1.38 2.82,-1.75 3.24,-0.98 6.52,0.85 6.9,4.21 0.02,0.22 0.03,0.43 0.03,0.65l0.02 23.65zm-39.08 -6.53c0,5.72 4.06,14.54 13.03,16.04 0.05,0 1.03,0.12 1.56,0.16 0.92,0.06 1.69,-0.67 1.69,-1.59 0,-0.87 -0.71,-1.58 -1.58,-1.59 -0.67,0 -1.31,0 -1.67,0 -5.17,0 -9.78,-1.1 -9.78,-9.76 0,-2.66 0,-22.69 0,-22.8 0,-5.72 -4.05,-14.54 -13.02,-16.03 -0.06,-0.01 -1.04,-0.13 -1.57,-0.16 -0.91,-0.07 -1.69,0.66 -1.69,1.58 0,0.88 0.71,1.59 1.59,1.59 0.66,0 1.3,0 1.67,0 5.17,0 9.77,1.1 9.77,9.77 0,2.71 0,22.68 0,22.79z"/>
 </g>
</svg>
