<?xml version="1.0" encoding="UTF-8"?>
<!DOCTYPE svg PUBLIC "-//W3C//DTD SVG 1.1//EN" "http://www.w3.org/Graphics/SVG/1.1/DTD/svg11.dtd">
<!-- Creator: CorelDRAW 2021 (64-Bit) -->
<svg xmlns="http://www.w3.org/2000/svg" xml:space="preserve" width="360px" height="152px" version="1.1" style="shape-rendering:geometricPrecision; text-rendering:geometricPrecision; image-rendering:optimizeQuality; fill-rule:evenodd; clip-rule:evenodd"
viewBox="0 0 360 152"
 xmlns:xlink="http://www.w3.org/1999/xlink"
 xmlns:xodm="http://www.corel.com/coreldraw/odm/2003">
 <defs>
  <style type="text/css">
   <![CDATA[
    .fil0 {fill:#FEFEFE}
    .fil1 {fill:#FEFEFE;fill-rule:nonzero}
   ]]>
  </style>
 </defs>
 <g id="Слой_x0020_1">
  <metadata id="CorelCorpID_0Corel-Layer"/>
  <g>
   <path class="fil0" d="M0 0l360 0 0 152 -360 0 0 -152zm358.96 1.04l-357.92 0 0 149.91 357.92 0 0 -149.91z"/>
  </g>
  <path class="fil1" d="M216.25 95.32c0.78,1.2 1.66,2.14 2.63,2.81 0.97,0.66 2.17,1.17 3.6,1.52l0 1.41c-2.24,-0.13 -5.07,-0.2 -8.48,-0.2 -2.55,0 -4.99,0.07 -7.29,0.2l0 -1.41c1.1,-0.05 1.92,-0.19 2.45,-0.42 0.53,-0.23 0.8,-0.59 0.8,-1.07 0,-0.44 -0.24,-1 -0.73,-1.69l-8 -12.08 7.23 0 7.79 10.93zm-17.91 -20.19c0.39,0 0.46,-0.08 0.46,-0.19 0,-0.08 -0.03,-0.21 -0.1,-0.32 -0.09,0.08 -0.28,0.09 -0.57,0.09l-2.64 0c-0.35,0 -0.72,0.02 -1.04,0.05 0,0.16 0.04,0.33 0.08,0.42 0.41,-0.04 0.7,-0.05 1.07,-0.05l0.66 0c0.02,0.25 0.02,0.45 0.02,0.7l0 3.67c0,0.39 0.14,0.46 0.3,0.46 0.14,0 0.36,-0.03 0.53,-0.11 -0.11,-0.09 -0.13,-0.26 -0.13,-0.56l0 -3.57c0,-0.2 -0.01,-0.4 -0.02,-0.59l1.38 0zm-7.11 4.37c0,0.39 0.13,0.46 0.29,0.46 0.14,0 0.36,-0.03 0.53,-0.11 -0.11,-0.09 -0.12,-0.26 -0.12,-0.56l0 -3.57c0,-0.35 -0.02,-0.72 -0.06,-1.04 -0.29,0 -0.59,0.04 -0.72,0.08 0.06,0.42 0.08,0.7 0.08,1.07l0 3.67zm-6.91 0c0,0.39 0.1,0.46 0.23,0.46 0.12,0 0.29,-0.03 0.44,-0.11 -0.08,-0.09 -0.08,-0.26 -0.08,-0.56l0 -3.41 2.84 3.94c0.05,0.11 0.13,0.14 0.21,0.14 0.12,0 0.31,-0.03 0.46,-0.11 -0.1,-0.09 -0.12,-0.26 -0.12,-0.56l0 -3.57c0,-0.35 -0.01,-0.72 -0.04,-1.03 -0.25,0 -0.49,0.04 -0.6,0.07 0.05,0.42 0.05,0.7 0.05,1.07l0 2.82 -2.85 -3.95 0 -0.01c-0.25,0 -0.51,0.04 -0.62,0.07 0.06,0.42 0.08,0.7 0.08,1.07l0 3.67zm-3.71 -0.01c0.32,0.4 0.55,0.48 0.76,0.48 0.14,0 0.37,-0.03 0.49,-0.11 -0.17,-0.1 -0.34,-0.24 -0.65,-0.59l-1.92 -2.08 1.42 -1.5c0.31,-0.34 0.59,-0.7 0.81,-1.01 -0.29,0 -0.53,0.02 -0.69,0.04 -0.41,0.49 -0.6,0.73 -0.92,1.07l-1.29 1.35 0 -1.61c0,-0.27 -0.03,-0.56 -0.09,-0.85 -0.29,0 -0.55,0.04 -0.69,0.08 0.06,0.42 0.08,0.68 0.08,1.06l0 3.68c0,0.39 0.13,0.46 0.29,0.46 0.15,0 0.32,-0.02 0.47,-0.09 -0.05,-0.09 -0.06,-0.28 -0.06,-0.58l0 -1.96 1.99 2.16zm-13.02 -2.18c0,-1.32 0.65,-2.21 1.62,-2.21 0.98,0 1.66,0.91 1.66,2.24 0,1.31 -0.65,2.2 -1.63,2.2 -0.98,0 -1.65,-0.91 -1.65,-2.23zm-0.76 0.07c0,1.54 0.95,2.59 2.34,2.59 1.47,0 2.46,-1.11 2.46,-2.71 0,-1.53 -0.95,-2.58 -2.35,-2.58 -1.45,0 -2.45,1.1 -2.45,2.7zm-2.62 2.55c0.4,0 0.46,-0.08 0.46,-0.18 0,-0.09 -0.03,-0.22 -0.1,-0.32 -0.09,0.07 -0.27,0.08 -0.57,0.08l-1.76 0c-0.12,0 -0.22,0 -0.33,0.01l0 -3.8c0,-0.35 -0.02,-0.72 -0.05,-1.04 -0.29,0 -0.6,0.04 -0.73,0.08 0.06,0.42 0.08,0.7 0.08,1.07l0 3.73c0,0.16 0.03,0.32 0.07,0.42 0.42,-0.04 0.7,-0.05 1.07,-0.05l1.86 0zm27.25 4.46l0 9.17c0,1.78 0.14,3.07 0.43,3.88 0.29,0.8 0.82,1.35 1.59,1.65 0.78,0.3 2.02,0.49 3.72,0.56l0 1.41c-2.17,-0.13 -5.16,-0.2 -8.99,-0.2 -4.05,0 -7.07,0.07 -9.06,0.2l0 -1.41c1.71,-0.07 2.95,-0.26 3.72,-0.56 0.77,-0.3 1.3,-0.85 1.59,-1.65 0.29,-0.81 0.43,-2.1 0.43,-3.88l0 -9.17 6.57 0zm-6.57 -13.94l0 -12.02c0,-1.77 -0.14,-3.06 -0.43,-3.87 -0.29,-0.81 -0.82,-1.36 -1.59,-1.66 -0.77,-0.3 -2.01,-0.48 -3.72,-0.55l0 -1.42c1.96,0.14 4.98,0.21 9.06,0.21 3.83,0 6.82,-0.07 8.99,-0.21l0 1.42c-1.7,0.07 -2.94,0.25 -3.72,0.55 -0.77,0.3 -1.3,0.85 -1.59,1.66 -0.29,0.81 -0.43,2.1 -0.43,3.87l0 12.02 -6.57 0zm14.56 0c0.04,-0.04 0.07,-0.08 0.1,-0.12l6.78 -8.65c2.42,-3.06 3.63,-5.32 3.63,-6.77 0,-1.64 -1.46,-2.49 -4.39,-2.56l0 -1.42c2.69,0.14 5.4,0.21 8.12,0.21 2.63,0 4.65,-0.07 6.05,-0.21l0 1.42c-1.56,0.23 -3.03,0.73 -4.4,1.52 -1.38,0.78 -2.7,1.99 -3.96,3.63l-10.11 12.95 -1.82 0zm-43.88 -18.1c-1.71,0.07 -2.94,0.25 -3.72,0.55 -0.77,0.3 -1.3,0.85 -1.59,1.66 -0.28,0.81 -0.43,2.1 -0.43,3.87l0 12.02 -6.57 0 0 -12.02c0,-1.77 -0.14,-3.06 -0.43,-3.87 -0.29,-0.81 -0.82,-1.36 -1.59,-1.66 -0.77,-0.3 -2.01,-0.48 -3.72,-0.55l0 -1.42c1.96,0.14 4.98,0.21 9.06,0.21 3.83,0 6.82,-0.07 8.99,-0.21l0 1.42zm-5.74 32.04l0 9.17c0,1.78 0.15,3.06 0.43,3.86 0.29,0.79 0.82,1.33 1.59,1.6 0.78,0.28 2.01,0.42 3.72,0.42l5.19 0c2.95,0 5.19,-0.42 6.72,-1.25 1.53,-0.82 2.64,-2.15 3.32,-3.97 0.68,-1.82 1.21,-4.5 1.58,-8.02l1.62 0c-0.14,1.47 -0.21,3.41 -0.21,5.81 0,2.67 0.16,5.69 0.49,9.05 -3.21,-0.13 -8.61,-0.2 -16.22,-0.2 -9.06,0 -15.9,0.07 -20.54,0.2l0 -1.41c1.71,-0.07 2.95,-0.26 3.72,-0.56 0.77,-0.3 1.3,-0.85 1.59,-1.65 0.29,-0.81 0.43,-2.1 0.43,-3.88l0 -9.17 6.57 0z"/>
 </g>
</svg>
