<?xml version="1.0" encoding="UTF-8"?>
<!DOCTYPE svg PUBLIC "-//W3C//DTD SVG 1.1//EN" "http://www.w3.org/Graphics/SVG/1.1/DTD/svg11.dtd">
<!-- Creator: CorelDRAW 2021 (64-Bit) -->
<svg xmlns="http://www.w3.org/2000/svg" xml:space="preserve" width="360px" height="152px" version="1.1" style="shape-rendering:geometricPrecision; text-rendering:geometricPrecision; image-rendering:optimizeQuality; fill-rule:evenodd; clip-rule:evenodd"
viewBox="0 0 360 152"
 xmlns:xlink="http://www.w3.org/1999/xlink"
 xmlns:xodm="http://www.corel.com/coreldraw/odm/2003">
 <defs>
  <style type="text/css">
   <![CDATA[
    .fil0 {fill:#FEFEFE}
    .fil1 {fill:#FEFEFE;fill-rule:nonzero}
   ]]>
  </style>
 </defs>
 <g id="Слой_x0020_1">
  <metadata id="CorelCorpID_0Corel-Layer"/>
  <g>
   <path class="fil0" d="M0 0l360 0 0 152 -360 0 0 -152zm358.96 1.04l-357.92 0 0 149.91 357.92 0 0 -149.91z"/>
  </g>
  <g>
   <g id="_2386630922832">
    <g>
     <polygon class="fil1" points="203.8,66.9 203.8,85.1 206.52,85.1 206.52,66.9 "/>
     <polygon class="fil1" points="219.75,80.31 213.38,66.9 210.35,66.9 219.17,85.29 220.32,85.29 229.14,66.9 226.11,66.9 "/>
     <polygon class="fil1" points="97.41,66.9 97.41,85.1 106.39,85.1 106.39,82.48 100.14,82.48 100.14,66.9 "/>
     <polygon class="fil1" points="137.33,85.1 137.33,72.45 148.96,85.29 150.05,85.29 150.05,66.9 147.33,66.9 147.33,79.54 135.7,66.71 134.61,66.71 134.61,85.1 "/>
     <path class="fil1" d="M119.68 66.63c-5.22,0 -9.47,4.2 -9.47,9.37 0,5.16 4.25,9.36 9.47,9.36 5.22,0 9.47,-4.2 9.47,-9.36 0,-5.17 -4.25,-9.37 -9.47,-9.37zm0 16.12l0 0c-3.72,0 -6.75,-3.03 -6.75,-6.75 0,-3.72 3.03,-6.75 6.75,-6.75 3.72,0 6.75,3.03 6.75,6.75 0,3.72 -3.03,6.75 -6.75,6.75z"/>
     <path class="fil1" d="M192.79 77.94c2.76,-0.56 4.74,-2.67 4.74,-5.36 0,-3.13 -2.6,-5.68 -5.79,-5.68l-5.92 0 0 18.2 2.73 0 0 -8.37 7.23 8.37 3.27 0 -6.26 -7.16zm-4.24 -2.18l0 0 0 -6.35 3.19 0c1.69,0 3.07,1.42 3.07,3.17 0,1.75 -1.38,3.18 -3.07,3.18l-3.19 0z"/>
     <path class="fil1" d="M256.33 77.94c2.76,-0.56 4.74,-2.67 4.74,-5.36 0,-3.13 -2.6,-5.68 -5.79,-5.68l-5.92 0 0 18.2 2.73 0 0 -8.37 7.23 8.37 3.27 0 -6.26 -7.16zm-4.24 -2.18l0 0 0 -6.35 3.19 0c1.69,0 3.07,1.42 3.07,3.17 0,1.75 -1.38,3.18 -3.07,3.18l-3.19 0z"/>
     <polygon class="fil1" points="243.48,69.52 243.48,66.9 232.97,66.9 232.97,85.1 243.48,85.1 243.48,82.48 235.69,82.48 235.69,76.48 243.1,76.48 243.1,73.86 235.69,73.86 235.69,69.52 "/>
     <path class="fil1" d="M163.94 77.48l7.19 0c-0.42,3.29 -3.22,5.27 -6.24,5.27 -3.75,0 -6.8,-3.03 -6.8,-6.75 0,-3.72 3.05,-6.75 6.8,-6.75 2.37,0 4.21,0.79 5.97,3.05l2.08 -1.41c-1.91,-2.75 -4.75,-4.26 -8.05,-4.26 -5.25,0 -9.52,4.2 -9.52,9.37 0,5.16 4.27,9.36 9.52,9.36 5.15,0 9.04,-3.72 9.04,-9.36l0 -0.93 -9.99 0 0 2.41z"/>
    </g>
   </g>
  </g>
 </g>
</svg>
