<?xml version="1.0" encoding="UTF-8"?>
<!DOCTYPE svg PUBLIC "-//W3C//DTD SVG 1.1//EN" "http://www.w3.org/Graphics/SVG/1.1/DTD/svg11.dtd">
<!-- Creator: CorelDRAW 2021 (64-Bit) -->
<svg xmlns="http://www.w3.org/2000/svg" xml:space="preserve" width="360px" height="152px" version="1.1" style="shape-rendering:geometricPrecision; text-rendering:geometricPrecision; image-rendering:optimizeQuality; fill-rule:evenodd; clip-rule:evenodd"
viewBox="0 0 360 152"
 xmlns:xlink="http://www.w3.org/1999/xlink"
 xmlns:xodm="http://www.corel.com/coreldraw/odm/2003">
 <defs>
  <style type="text/css">
   <![CDATA[
    .fil0 {fill:#FEFEFE}
    .fil1 {fill:#FEFEFE;fill-rule:nonzero}
   ]]>
  </style>
 </defs>
 <g id="Слой_x0020_1">
  <metadata id="CorelCorpID_0Corel-Layer"/>
  <g>
   <path class="fil0" d="M0 0l360 0 0 152 -360 0 0 -152zm358.96 1.04l-357.92 0 0 149.91 357.92 0 0 -149.91z"/>
  </g>
  <g>
   <path class="fil1" d="M123.38 84.89c0,0 -1.2,-1.12 0.23,-2.35 1.23,-1.06 3.58,-2.17 6.01,-2.31 0,0 -2.84,6.72 -6.24,4.66zm18.1 -32.11c0.81,-3.11 2.88,-7.77 3.65,-7.43 0.78,0.36 2.38,1.7 1.25,8.06 -1.13,6.35 -4.75,9.55 -7.51,11.89 0,0 1.79,-9.4 2.61,-12.52zm6.83 28.18c-0.9,0.2 -4.19,1.65 -7.1,1.27 -2.91,-0.38 -7.23,-1.89 -8.25,-2.4 0,0 2.53,-4.11 3.73,-7.47 1.2,-3.36 1.61,-5.1 1.61,-5.1 0,0 4.56,-3.26 6.54,-6.75 1.99,-3.5 3.87,-7.69 2.81,-13.54 0,0 -1.68,-5.96 -5.1,-2.19 -3.43,3.77 -5.07,12.68 -5.93,16.72 -0.85,4.04 -1.57,5.96 -1.57,5.96 0,0 -1.55,1.3 -5.15,0.62 0,0 -0.61,0.06 -1.91,-0.96 -1.3,-1.03 -1.17,0.11 -0.91,0.37 0,0 1.24,1.51 4,1.51 0,0 2.05,0.14 3.62,-0.41 0,0 -1.61,5.21 -2.94,8.09 -1.34,2.88 -1.38,2.43 -1.38,2.43 0,0 -5.2,-0.1 -7.4,2.4 0,0 -2.57,2.71 0,4.52 2.57,1.82 7.82,-2.26 9.32,-5.14 0,0 3.02,1.34 7.13,2.02 4.11,0.69 9.05,-0.96 9.53,-1.23 0.48,-0.27 0.23,-0.93 -0.65,-0.72z"/>
   <path class="fil1" d="M193.09 94.42c-1.02,2.94 -4.29,8.24 -5.12,9.36 -0.84,1.12 -4.72,4.75 -6.8,2.86 -2.08,-1.9 1.1,-8.15 3.96,-10.97 2.85,-2.81 10.3,-8.84 10.3,-8.84 -0.07,0.51 -1.31,4.64 -2.34,7.59zm-20.57 -31.89c0,0.02 1.86,-6.44 3.69,-9.39 1.82,-2.96 4.72,-7.32 6.83,-6.77 2.12,0.54 -2.08,8.83 -4.73,11.86 -2.64,3.04 -5.79,4.71 -5.79,4.71l0 -0.41zm43.02 -9.55c2.37,-3.93 4.85,-6.87 7.39,-6.66 2.54,0.22 3.42,3.9 -0.94,9.27 -4.36,5.37 -8.48,6.73 -10.89,7.86 0,0 2.07,-6.54 4.44,-10.47zm12.94 12.63c0.65,-2.33 1.54,-4.97 1.54,-4.97 0,0 0.01,-0.03 0.04,-0.09 1.58,0.16 3.13,0.26 4.11,0.17 2.18,-0.19 4.51,-1.86 3.89,-2.45 -0.63,-0.58 -0.74,0.66 -3.39,1.33 -1.24,0.32 -2.76,0.29 -4.33,0.13 0.62,-1.82 1.92,-5.8 1.74,-6.69 -0.24,-1.17 -2.19,-1.1 -2.58,0 -0.17,0.51 -1.03,3.2 -1.97,6.3 -0.86,-0.14 -1.7,-0.29 -2.48,-0.41 -3.1,-0.46 -4.11,0.67 -4.11,0.67 -0.62,1.3 2.1,0.19 4.11,0.38 0.55,0.06 1.32,0.15 2.2,0.26 -0.99,3.25 -2,6.77 -2.4,8.59 -0.82,3.77 -1.03,4.87 -1.03,4.87 0,0 -4.9,7.71 -6.79,9.25 -1.88,1.54 -2.15,-0.45 -1.54,-2.36 0.62,-1.92 2.47,-6.2 2.78,-8.19 0.31,-1.99 0.51,-5.07 -2.61,-4.29 -3.11,0.79 -5.34,4.97 -6.06,6.28 -0.72,1.3 -1.2,2.02 -1.2,2.02 0,0 0.65,-4.46 1.34,-7.51 0.68,-3.05 0.92,-4.01 0.92,-4.01 0,0 5.42,-2.33 7.82,-4.21 2.4,-1.89 6.41,-6.2 7.36,-10.14 0.96,-3.94 -1.47,-6.96 -5.86,-4.8 -4.39,2.16 -8.73,9.11 -10.27,14.35 -1.55,5.25 -2.64,9.29 -3.09,11.04 -0.44,1.75 -1.75,3.55 -2.95,5.61 -1.2,2.06 -2.25,3.27 -3.36,4.46 -0.89,0.96 -1.02,1.05 -1.31,1.23 -0.18,0.11 1.42,-5.99 1.59,-8.35 0.17,-2.37 -0.18,-2.12 -0.67,-2.21 -0.56,-0.08 -1.46,-0.3 -1.73,1.31 -0.27,1.61 -0.62,4.42 -1.06,5.11 -0.45,0.68 -2.44,2.16 -4.11,2.78 -1.68,0.61 -3.53,-0.86 -3.29,-3.5 0.24,-2.64 0.61,-4.25 1.76,-6.12 0.85,-1.38 3.27,-4.16 5.67,-4.84 2.4,-0.69 2.68,1.23 2.92,1.77 0.23,0.56 0.68,0.86 0.89,0.32 0.2,-0.56 -0.28,-2.61 -2.37,-3.02 -2.09,-0.41 -5.83,0.89 -7.88,3.26 -2.06,2.36 -2.88,4.62 -3.22,6.16 -0.34,1.55 -0.37,2.09 -0.37,2.09 0,0 -1.96,2.92 -3.19,4.42 -1.24,1.51 -1.91,2.3 -2.57,1.85 -0.65,-0.44 -0.04,-3.18 0.72,-6.4 0.75,-3.22 1.92,-7.06 2.16,-8.02 0.24,-0.96 0.34,-1.89 -0.35,-2.06 -0.68,-0.17 -1.43,-0.27 -1.81,0.83 -0.38,1.09 -1.03,4.21 -1.51,4.9 -0.48,0.68 -5.42,6.71 -6.96,8.01 -1.54,1.31 -3.32,2.2 -4.04,0.24 -0.72,-1.95 0.34,-8.39 0.79,-10.62 0.44,-2.23 1.54,-5.93 1.54,-5.93 0,0 2.54,-1.2 5.62,-4.11 3.08,-2.91 5.55,-6.75 6.65,-10.07 1.09,-3.33 0.28,-6.07 -2.81,-5.21 -3.09,0.86 -6.65,4.35 -9.22,9.93 -2.57,5.59 -4.01,11.21 -4.56,13.78 -0.55,2.57 -0.85,4.49 -0.85,4.49 0,0 -3.05,5.17 -4.15,6.78 -1.1,1.61 -3.15,3.53 -3.87,3.67 -0.72,0.14 -0.58,-2.02 -0.1,-4.04 0.48,-2.03 1.61,-6 2.36,-8.16 0.76,-2.16 1.85,-3.84 1.34,-4.52 -0.52,-0.69 -1.86,-0.79 -2.34,0.2 -0.48,0.99 -2.74,6.93 -4.55,9.05 -1.82,2.12 -3.02,3.66 -3.91,3.66 -0.89,0 -1.02,-2.67 -0.72,-4.3 0.31,-1.62 1.55,-5.83 2.03,-7.03 0.47,-1.2 1.23,-2.03 0.34,-2.3 -0.9,-0.28 -1.89,-0.21 -2.27,0.65 0,0 -2.32,4.9 -2.39,9.21 -0.07,4.32 1.64,5.97 3.42,5.01 1.79,-0.96 5.04,-5.35 5.45,-6.07 0,0 -1.09,4.94 -0.79,8.02 0.31,3.09 2.4,2.4 3.5,1.2 1.1,-1.2 3.63,-4.25 4.9,-6.58 1.27,-2.33 1.78,-3.08 1.78,-3.08 0,0 -0.38,7.13 1.27,8.74 1.64,1.61 3.63,0.41 5.52,-1.44 1.88,-1.85 6.68,-7.75 6.68,-7.75 0,0 -1.55,8.68 -0.86,10.22 0.68,1.53 3.53,0.82 5.14,-1.79 1.61,-2.6 2.67,-4.38 2.67,-4.38 0,0 0.43,3.26 1.95,4.04 1.44,0.74 3.02,0.62 5.32,-0.89 2.29,-1.51 2.63,-1.92 2.63,-1.92l-1.03 5.68 -0.03 0.16c0,0 -8.81,6.5 -12.37,10.74 -3.56,4.25 -5.27,8.6 -3.49,11.48 1.78,2.88 9.56,-0.82 12.95,-7.6 3.39,-6.79 5.53,-15.86 5.53,-15.86 0,0 2.25,-1.93 3.93,-4.12 1.68,-2.19 3.21,-4.87 3.21,-4.87 0,0 -0.3,5.18 -0.16,6.14 0.14,0.96 1.47,0.65 2.02,0.55 0.55,-0.11 0.58,-1 0.61,-1.79 0.04,-0.79 0.28,-2.53 2.23,-5.44 1.95,-2.92 4.8,-6.2 5.69,-4.87 0.89,1.34 -1.54,7.03 -2.05,9.15 -0.52,2.12 -1.03,5.96 0.54,6.24 1.58,0.27 3.87,-1.85 5.52,-4.35 1.64,-2.51 2.6,-3.88 3.25,-4.81 0,0 -0.65,6.52 0.83,7.82 1.47,1.3 3.32,1.06 5.58,-1.95 2.26,-3.02 6,-9.87 6.1,-10.56 0.1,-0.68 -0.51,-0.48 -0.79,0.07 -0.27,0.55 -4.52,8.88 -6.44,10.49 -1.92,1.61 -4.01,2.77 -3.39,-2.47 0.61,-5.24 2.5,-11.31 3.15,-13.64z"/>
   <path class="fil1" d="M186.79 61.99c-0.51,0.8 -2.27,1.76 -2.53,1.84 -0.27,0.08 -0.21,0.13 -0.48,-0.51 -0.28,-0.64 -1.23,-2.66 -0.76,-3.27 0.48,-0.6 1.2,0.29 1.22,1.1 0.03,0.83 0.43,0.99 0.43,0.99 0.22,0.05 0.52,-0.52 0.88,-1.3 0.35,-0.77 1.04,-1.49 1.48,-1.15 0.44,0.35 0.27,1.51 -0.24,2.3zm0.52 -3.23c-1.53,-0.52 -2.24,1.41 -2.24,1.41 -0.14,-0.79 -0.71,-1.36 -2.12,-1.07 -1.42,0.28 -0.46,3.12 0,4.08 0.45,0.96 0.45,1.59 0.45,1.59 0.45,0.39 1.75,-0.63 3.18,-1.59 1.41,-0.96 2.26,-3.91 0.73,-4.42z"/>
  </g>
 </g>
</svg>
