<?xml version="1.0" encoding="UTF-8"?>
<!DOCTYPE svg PUBLIC "-//W3C//DTD SVG 1.1//EN" "http://www.w3.org/Graphics/SVG/1.1/DTD/svg11.dtd">
<!-- Creator: CorelDRAW 2021 (64-Bit) -->
<svg xmlns="http://www.w3.org/2000/svg" xml:space="preserve" width="360px" height="152px" version="1.1" style="shape-rendering:geometricPrecision; text-rendering:geometricPrecision; image-rendering:optimizeQuality; fill-rule:evenodd; clip-rule:evenodd"
viewBox="0 0 360 152"
 xmlns:xlink="http://www.w3.org/1999/xlink"
 xmlns:xodm="http://www.corel.com/coreldraw/odm/2003">
 <defs>
  <style type="text/css">
   <![CDATA[
    .fil0 {fill:#FEFEFE}
    .fil1 {fill:#FEFEFE;fill-rule:nonzero}
    .fil2 {fill:#FEFEFE;fill-rule:nonzero;fill-opacity:0.941176}
   ]]>
  </style>
 </defs>
 <g id="Слой_x0020_1">
  <metadata id="CorelCorpID_0Corel-Layer"/>
  <g>
   <path class="fil0" d="M0 0l360 0 0 152 -360 0 0 -152zm358.96 1.04l-357.92 0 0 149.91 357.92 0 0 -149.91z"/>
  </g>
  <g>
   <circle class="fil0" cx="220.67" cy="75.94" r="7.34"/>
   <circle class="fil0" cx="159.35" cy="75.9" r="8.53"/>
   <path class="fil0" d="M205.05 77.82c-0.94,6.78 -6.75,11.99 -13.78,11.99 -7.69,0 -13.92,-6.23 -13.92,-13.92 0,-6.86 4.98,-12.57 11.52,-13.7 -4.28,1.88 -7.27,6.17 -7.27,11.16 0,6.73 5.44,12.18 12.15,12.18 5.13,0 9.52,-3.19 11.3,-7.71z"/>
   <path class="fil1" d="M240.95 77.23l1.45 0c0.05,0.42 0.1,0.78 0.27,1.07 0.47,0.8 2.01,1.08 2.92,0.68 0.89,-0.39 1.05,-1.74 -0.08,-2.2 -0.23,-0.09 -0.56,-0.21 -1.33,-0.4 -0.77,-0.18 -2.19,-0.56 -2.65,-1.28 -0.44,-0.7 -0.48,-1.66 -0.02,-2.36 0.62,-0.95 1.78,-1.2 2.84,-1.2 1.06,0 2.29,0.28 2.91,1.23 0.26,0.39 0.52,0.82 0.53,1.76l-1.46 0c0.02,-0.57 -0.11,-1.1 -0.56,-1.48 -0.32,-0.28 -0.74,-0.45 -1.39,-0.45 -0.77,0 -1.74,0.25 -1.75,1.18 -0.01,0.94 1,1.16 1.84,1.4 0.95,0.28 2.34,0.52 2.93,1.4 0.51,0.76 0.57,1.7 0.06,2.47 -0.26,0.4 -0.61,0.69 -1.09,0.91 -0.99,0.45 -2.66,0.45 -3.65,0.02 -0.52,-0.22 -1,-0.58 -1.29,-1.03 -0.37,-0.56 -0.5,-1.16 -0.48,-1.72z"/>
   <path class="fil2" d="M89.99 73.27l2.09 0 0.01 0.65c0.33,-0.58 0.78,-0.83 1.49,-0.83 0.73,0 1.14,0.28 1.49,0.87 0.46,-0.61 0.81,-0.87 1.55,-0.87 1.33,-0.01 2.03,0.88 2.03,2.16l0 3.5 -2.19 0 0 -3.15 0 -0.04c0.01,-0.52 -0.23,-0.86 -0.53,-0.86 -0.3,0 -0.55,0.33 -0.54,0.86l0 0.04 -0.01 3.15 -2.16 0 0 -3.15 0 -0.04c-0.02,-0.54 -0.24,-0.86 -0.54,-0.86 -0.3,0 -0.55,0.33 -0.55,0.86l0 0.04 0 3.15 -2.14 0 0 -5.48z"/>
   <path class="fil0" d="M109.39 72.76l1.7 0 0 6.4 -1.7 0 0.01 -0.94c-0.55,0.7 -0.94,1.08 -2.16,1.08 -1.22,0 -2.91,-1.09 -2.85,-3.37 0.05,-2.28 1.27,-3.37 2.85,-3.38 0.86,-0.01 1.63,0.31 2.15,0.98l0 -0.77zm0 3.2l0 -0.13c-0.02,-1.1 -0.73,-1.98 -1.59,-1.98 -0.88,0 -1.6,0.92 -1.6,2.05 0,1.12 0.72,2.04 1.6,2.04 0.86,0 1.57,-0.88 1.59,-1.98z"/>
   <path class="fil0" d="M122.11 71.56c1.93,-0.05 3.31,1.05 3.69,3.22l-1.54 0c-0.29,-1.4 -0.94,-2.04 -2.15,-2.06 -1.21,-0.02 -2.31,1.24 -2.27,3.21 0.03,1.96 0.98,3.11 2.27,3.11 1.29,0 1.9,-0.61 2.18,-2.03l1.54 0c-0.34,2.2 -1.9,3.29 -3.72,3.29 -2.1,0 -3.8,-1.96 -3.8,-4.37 0,-2.42 1.54,-4.32 3.8,-4.37z"/>
   <path class="fil0" d="M135.65 70.63l1.06 0 0 2.25c0.59,-2.09 2.37,-3.04 4.39,-2.25l0 1.01c-1.12,-0.42 -2.45,-0.25 -3.31,0.64 -0.63,0.65 -1,1.78 -1.01,2.67l-0.07 6.49 -1.06 0 0 -10.81z"/>
   <path class="fil1" d="M261.94 78.71l0 -5.44 1.49 0 0 0.77c0.3,-0.6 0.81,-0.93 1.54,-0.93 0.67,-0.01 1.28,0.33 1.5,0.95 0.41,-0.71 0.89,-0.95 1.68,-0.95 1.11,0 1.86,0.66 1.86,1.87l0 3.73 -1.55 0 0 -3.42c0,-0.51 -0.31,-0.94 -0.83,-0.94 -0.51,0 -0.84,0.5 -0.84,0.97 0,1.02 -0.01,2.05 -0.01,3.07l0 0.32 -1.59 0 -0.04 0 0 -3.39c0,-0.53 -0.37,-0.95 -0.83,-0.95 -0.46,0 -0.83,0.42 -0.83,0.95 0,1.08 -0.01,2.25 -0.01,3.39l-1.54 0z"/>
  </g>
 </g>
</svg>
