<?xml version="1.0" encoding="UTF-8"?>
<!DOCTYPE svg PUBLIC "-//W3C//DTD SVG 1.1//EN" "http://www.w3.org/Graphics/SVG/1.1/DTD/svg11.dtd">
<!-- Creator: CorelDRAW 2021 (64-Bit) -->
<svg xmlns="http://www.w3.org/2000/svg" xml:space="preserve" width="360px" height="152px" version="1.1" style="shape-rendering:geometricPrecision; text-rendering:geometricPrecision; image-rendering:optimizeQuality; fill-rule:evenodd; clip-rule:evenodd"
viewBox="0 0 360 152"
 xmlns:xlink="http://www.w3.org/1999/xlink"
 xmlns:xodm="http://www.corel.com/coreldraw/odm/2003">
 <defs>
  <style type="text/css">
   <![CDATA[
    .fil0 {fill:#FEFEFE}
    .fil1 {fill:#FEFEFE;fill-rule:nonzero}
   ]]>
  </style>
 </defs>
 <g id="Слой_x0020_1">
  <metadata id="CorelCorpID_0Corel-Layer"/>
  <g>
   <path class="fil0" d="M0 0l360 0 0 152 -360 0 0 -152zm358.96 1.04l-357.92 0 0 149.91 357.92 0 0 -149.91z"/>
  </g>
  <path class="fil1" d="M241.27 76.43c1.13,-0.76 2.35,-1.71 3.68,-2.85 1.32,-1.14 2.57,-2.37 3.73,-3.67 1.17,-1.31 2.07,-2.56 2.69,-3.74 0.33,-0.65 0.5,-1.19 0.5,-1.61 0,-0.48 -0.21,-0.72 -0.63,-0.72 -0.2,0 -0.42,0.05 -0.68,0.15 -0.25,0.1 -0.55,0.28 -0.88,0.53 -1.89,1.46 -3.48,3.2 -4.78,5.22 -1.29,2.01 -2.5,4.24 -3.63,6.69zm-5.68 -27.61c0.08,-0.03 0.15,-0.06 0.22,-0.09 0.55,-0.22 1.15,-0.35 1.75,-0.32 0.46,0.03 1.12,0.13 1.33,0.62 0.24,0.56 -0.19,1.03 -0.79,1.08 -0.9,0.07 -1.82,-0.7 -2.51,-1.29zm-17.41 22.33c3.11,-2.16 6.24,-4.29 9.39,-6.4 1.23,-0.83 2.45,-1.69 3.8,-2.32 1.3,-0.62 2.63,-0.92 4.02,-1.26 2.45,-0.61 4.82,-1.72 6.8,-3.29 1.16,-0.91 2.23,-1.96 3.16,-3.11 0.7,-0.85 1.12,-1.82 1.76,-2.69 0.45,-0.62 1.09,-1.08 1.78,-1.4 0.48,-0.22 1,-0.3 1.45,-0.59 1.15,-0.74 1.55,-2.13 2.84,-2.7 0.38,-0.17 0.26,-0.7 -0.08,-0.83 -0.69,-0.27 -1.24,-0.57 -1.84,-1.01 -0.52,-0.37 -1.08,-0.64 -1.72,-0.71 -1.5,-0.16 -2.55,0.8 -3.35,1.95 -0.22,0.32 -0.37,0.78 -0.8,0.61 -0.26,-0.1 -0.5,-0.53 -0.63,-0.75 -0.33,-0.6 -0.48,-1.28 -0.86,-1.85 -0.46,-0.71 -1.07,-1.44 -1.77,-1.92 -1.44,-0.99 -3.19,-1.64 -4.79,-2.32 -4.1,-1.75 -8.3,-3.49 -12.59,-4.69 -0.36,-0.11 -0.73,0.29 -0.53,0.63 2.58,4.51 5.82,8.63 9.72,12.07 -0.33,0.15 -0.64,0.31 -0.95,0.45 -4.54,2.1 -9.27,4.05 -13.62,6.52 -0.32,0.18 -0.34,0.75 0.07,0.83 3.38,0.67 6.77,1.25 10.23,1.32 2.28,0.05 4.5,-0.12 6.49,-0.95 -1.85,1.57 -4.13,2.49 -6.59,3.19 -3.22,0.91 -6.51,1.57 -9.78,2.28 -0.57,0.12 -0.37,1 0.2,0.88 3.63,-0.79 7.28,-1.52 10.85,-2.59 3.33,-1 6.23,-2.69 8.19,-5.63 0.28,-0.43 -0.33,-0.91 -0.69,-0.57 -2.62,2.42 -5.99,2.6 -9.39,2.46 -2.72,-0.11 -5.39,-0.51 -8.05,-1.02 1.36,-0.71 2.77,-1.34 4.15,-2 3.18,-1.52 6.37,-3.16 9.63,-4.53 0.13,0.11 0.26,0.23 0.39,0.34 1,0.81 3.24,2.36 4.39,0.93 0.81,-0.99 0.29,-2.35 -0.84,-2.77 -1.26,-0.48 -2.57,-0.09 -3.8,0.45 -0.63,-0.56 -1.26,-1.12 -1.86,-1.71 -2.86,-2.79 -5.3,-5.97 -7.36,-9.38 1.83,0.57 3.63,1.24 5.42,1.92 2.33,0.89 4.63,1.81 6.91,2.8 1.36,0.6 3.14,1.17 4.19,2.27 0.43,0.44 0.89,0.94 1.19,1.49 0.34,0.63 0.47,1.34 0.9,1.92 0.45,0.62 1.29,1.29 2.04,0.72 1.19,-0.92 1.4,-2.88 3.44,-2.41 0.82,0.19 1.34,0.86 2.08,1.2 0.08,0.03 0.16,0.06 0.23,0.1 -0.91,0.78 -1.41,1.97 -2.56,2.45 -1.17,0.48 -2.2,0.9 -3,1.95 -0.74,0.96 -1.21,2.06 -2.01,3 -1,1.17 -2.14,2.25 -3.38,3.14 -2.23,1.61 -4.72,2.33 -7.34,3.01 -2.85,0.74 -5.19,2.39 -7.59,4.01 -2.8,1.89 -5.58,3.79 -8.36,5.71 -0.47,0.33 -0.06,1.13 0.42,0.8zm-20.84 8.26l8.13 0 -3.93 -12.11 -4.2 12.11zm-5.92 9.19l0 -0.39 0.97 -0.35c0.52,-0.21 0.92,-0.46 1.21,-0.76 0.28,-0.3 0.52,-0.72 0.7,-1.26l8.02 -23.02 3.31 0 7.91 23.17c0.2,0.57 0.44,1.01 0.7,1.31 0.26,0.3 0.66,0.55 1.2,0.76l0.47 0.15 0 0.39 -9.89 0 0 -0.39 0.58 -0.19c0.55,-0.21 0.88,-0.5 1,-0.88 0.11,-0.37 0.09,-0.82 -0.06,-1.34l-1.83 -5.61 -8.65 0 -1.87 5.49c-0.18,0.57 -0.24,1.03 -0.17,1.36 0.06,0.34 0.37,0.61 0.91,0.82l0.86 0.35 0 0.39 -5.37 0zm-15.7 0l0 -0.39 1.6 -0.39c1.06,-0.23 1.6,-0.88 1.6,-1.94l0 -22.2 -3.31 0c-0.96,0 -1.65,0.25 -2.07,0.76 -0.41,0.51 -0.85,1.2 -1.32,2.08l-1.4 2.73 -0.39 0 0.19 -6.35 22.47 0 0.16 6.35 -0.39 0 -1.4 -2.73c-0.45,-0.88 -0.87,-1.57 -1.29,-2.08 -0.42,-0.51 -1.1,-0.76 -2.06,-0.76l-3.31 0 0 22.2c0,1.06 0.53,1.71 1.59,1.94l1.6 0.39 0 0.39 -12.27 0zm-20.25 -13.04l1.87 0c1.87,0 3.22,-0.5 4.05,-1.5 0.83,-1 1.25,-2.49 1.25,-4.46 0,-2 -0.39,-3.49 -1.17,-4.46 -0.78,-0.97 -2.09,-1.46 -3.93,-1.46l-2.07 0 0 11.88zm-7.82 13.04l0 -0.39 0.81 -0.27c0.52,-0.18 0.86,-0.42 1.02,-0.72 0.15,-0.3 0.23,-0.72 0.23,-1.27l0 -20.36c0,-0.52 -0.07,-0.93 -0.21,-1.23 -0.15,-0.3 -0.46,-0.54 -0.96,-0.72l-0.89 -0.35 0 -0.39 11.13 0c3.07,0 5.42,0.58 7.05,1.73 1.64,1.16 2.46,2.76 2.46,4.81 0,1.15 -0.43,2.29 -1.29,3.43 -0.86,1.14 -2.21,2.02 -4.05,2.65l5.41 10.75c0.24,0.44 0.5,0.79 0.8,1.07 0.3,0.27 0.7,0.51 1.19,0.72l0.51 0.19 0 0.35 -6.97 0 -5.77 -12.27 -2.65 0 0 9.62c0,0.5 0.08,0.9 0.24,1.21 0.15,0.31 0.48,0.55 0.97,0.7l0.94 0.35 0 0.39 -9.97 0zm-19.79 -9.19l8.14 0 -3.93 -12.11 -4.21 12.11zm-5.91 9.19l0 -0.39 0.97 -0.35c0.52,-0.21 0.92,-0.46 1.21,-0.76 0.28,-0.3 0.52,-0.72 0.7,-1.26l8.02 -23.02 3.31 0 7.9 23.17c0.21,0.57 0.45,1.01 0.71,1.31 0.26,0.3 0.66,0.55 1.2,0.76l0.47 0.15 0 0.39 -9.89 0 0 -0.39 0.58 -0.19c0.55,-0.21 0.88,-0.5 1,-0.88 0.11,-0.37 0.09,-0.82 -0.06,-1.34l-1.83 -5.61 -8.65 0 -1.87 5.49c-0.18,0.57 -0.24,1.03 -0.17,1.36 0.06,0.34 0.37,0.61 0.91,0.82l0.86 0.35 0 0.39 -5.37 0zm-30.34 0l0 -0.39 0.78 -0.27c0.88,-0.29 1.32,-1.03 1.32,-2.22l0 -19.94c0,-0.52 -0.05,-0.93 -0.17,-1.24 -0.12,-0.32 -0.42,-0.58 -0.92,-0.78l-1.01 -0.47 0 -0.39 7.52 0 7.2 18.85 6.78 -18.85 7.67 0 0 0.39 -0.62 0.23c-0.5,0.19 -0.84,0.44 -1.02,0.76 -0.18,0.33 -0.27,0.75 -0.27,1.27l0 20.36c0,0.52 0.06,0.93 0.2,1.21 0.12,0.29 0.44,0.53 0.93,0.74l0.78 0.35 0 0.39 -9.7 0 0 -0.39 0.82 -0.35c0.49,-0.21 0.8,-0.45 0.93,-0.74 0.13,-0.28 0.2,-0.69 0.2,-1.21l0 -8.76 0.08 -11.13 -8.14 22.58 -1.95 0 -8.49 -22.31 0.12 9.7 0 9.81c0,0.57 0.08,1.03 0.25,1.38 0.17,0.35 0.5,0.6 0.99,0.76l0.86 0.27 0 0.39 -5.14 0zm166.01 0.25c-1.27,0 -2.37,-0.3 -3.3,-0.89 -0.93,-0.59 -1.39,-1.49 -1.39,-2.7 0,-0.33 0.05,-0.7 0.15,-1.1 -0.46,0.53 -0.96,1.06 -1.5,1.58 -0.74,0.72 -1.45,1.34 -2.16,1.84 -0.36,0.28 -0.83,0.53 -1.41,0.74 -0.58,0.21 -1.15,0.32 -1.71,0.32 -0.45,0 -0.89,-0.11 -1.31,-0.34 -0.43,-0.23 -0.73,-0.65 -0.93,-1.27 -0.09,-0.25 -0.13,-0.6 -0.13,-1.05 0,-0.14 0,-0.29 0,-0.45 0,-0.15 0.02,-0.31 0.04,-0.48 0.12,-0.9 0.42,-1.85 0.91,-2.85 0.5,-1 0.95,-1.9 1.38,-2.68 0.11,-0.23 0.2,-0.43 0.27,-0.6 0.07,-0.17 0.11,-0.31 0.11,-0.42 0,-0.22 -0.1,-0.34 -0.3,-0.34 -0.2,0 -0.51,0.13 -0.93,0.38 -0.42,0.26 -0.99,0.69 -1.69,1.31 -0.62,0.54 -1.27,1.24 -1.96,2.09 -0.69,0.86 -1.37,1.74 -2.03,2.64 -0.66,0.9 -1.24,1.68 -1.73,2.33 -0.5,0.65 -0.84,1.03 -1.04,1.14 -0.14,0.08 -0.46,0.22 -0.97,0.42 -0.51,0.2 -0.87,0.29 -1.1,0.29 -0.22,0 -0.28,-0.09 -0.17,-0.29 0.06,-0.17 0.21,-0.59 0.45,-1.27 0.24,-0.67 0.52,-1.49 0.86,-2.45 0.34,-0.95 0.69,-1.93 1.06,-2.93 0.36,-1 0.7,-1.9 1.01,-2.68 -0.19,0.25 -0.5,0.61 -0.91,1.09 -0.4,0.48 -0.83,0.99 -1.28,1.52 -0.07,0.09 -0.14,0.17 -0.21,0.25l-0.01 0.01c-1.21,1.63 -2.54,3.06 -4.01,4.28 -1.46,1.23 -3.24,2.02 -5.32,2.39 -0.51,0.08 -1.01,0.13 -1.52,0.13 -1.24,0 -2.27,-0.3 -3.08,-0.89 -0.82,-0.59 -1.23,-1.45 -1.23,-2.58 0,-0.67 0.2,-1.49 0.59,-2.45 0.28,-0.64 0.81,-1.39 1.57,-2.23 0.76,-0.85 1.64,-1.67 2.66,-2.48 1.01,-0.8 2.04,-1.46 3.08,-1.98 1.04,-0.52 1.99,-0.78 2.83,-0.78 0.31,0 0.59,0.04 0.85,0.12 0.3,0.12 0.57,0.27 0.8,0.47 0.22,0.2 0.34,0.49 0.34,0.89 0,0.08 0,0.16 0,0.25 0,0.08 -0.03,0.18 -0.09,0.29 0,0.09 -0.06,0.27 -0.19,0.55 -0.13,0.29 -0.27,0.53 -0.42,0.74 -0.16,0.21 -0.29,0.26 -0.4,0.15 -0.12,-0.08 -0.17,-0.19 -0.17,-0.34 0,-0.14 0.03,-0.3 0.1,-0.48 0.07,-0.19 0.11,-0.35 0.11,-0.49 0,-0.19 -0.05,-0.38 -0.15,-0.57 -0.1,-0.18 -0.26,-0.27 -0.48,-0.27 -0.54,0 -1.23,0.24 -2.07,0.71 -0.85,0.48 -1.71,1.12 -2.6,1.93 -0.89,0.8 -1.68,1.68 -2.39,2.64 -0.7,0.95 -1.19,1.91 -1.48,2.87 -0.08,0.22 -0.14,0.44 -0.16,0.65 -0.03,0.21 -0.05,0.42 -0.05,0.62 0,0.62 0.21,1.06 0.62,1.33 0.4,0.27 0.9,0.4 1.49,0.4 0.65,0 1.31,-0.1 1.99,-0.3 1.91,-0.56 3.47,-1.33 4.67,-2.32 0.96,-0.79 1.92,-1.76 2.89,-2.92 0.04,-0.08 0.08,-0.17 0.13,-0.25 0.62,-0.79 1.22,-1.53 1.79,-2.22 0.58,-0.69 1.11,-1.34 1.59,-1.96 -0.29,-0.17 -0.42,-0.38 -0.42,-0.63 0,-0.4 0.19,-0.6 0.59,-0.6 0.16,0 0.29,0.03 0.37,0.09 0.03,0.03 0.06,0.04 0.09,0.04 0.03,0 0.06,0.03 0.08,0.09 0.15,-0.2 0.26,-0.38 0.36,-0.55 0.1,-0.17 0.19,-0.35 0.28,-0.55 0.11,-0.26 0.34,-0.74 0.7,-1.46 0.35,-0.72 0.79,-1.57 1.33,-2.55 0.53,-0.99 1.14,-2.01 1.83,-3.07 0.69,-1.05 1.44,-2.04 2.24,-2.95 0.8,-0.92 1.63,-1.66 2.49,-2.22 0.86,-0.57 1.74,-0.85 2.64,-0.85 0.12,0 0.23,0.01 0.34,0.02 0.11,0.02 0.23,0.04 0.34,0.07 0.7,0.14 1.2,0.39 1.48,0.74 0.28,0.35 0.42,0.76 0.42,1.24 0,0.34 -0.06,0.7 -0.19,1.08 -0.13,0.38 -0.3,0.75 -0.53,1.12 -0.56,0.99 -1.31,1.98 -2.24,2.98 -0.93,1 -1.96,1.98 -3.1,2.95 -1.14,0.98 -2.28,1.92 -3.42,2.83 -1.14,0.92 -2.21,1.79 -3.19,2.6 -0.68,1.44 -1.2,2.71 -1.56,3.82 -0.37,1.12 -0.65,2.01 -0.85,2.69 0.31,-0.4 0.78,-0.96 1.4,-1.69 0.61,-0.74 1.32,-1.52 2.11,-2.37 0.79,-0.84 1.6,-1.65 2.45,-2.43 0.84,-0.77 1.64,-1.4 2.4,-1.9 0.76,-0.49 1.41,-0.74 1.95,-0.74 0.67,0 1.01,0.36 1.01,1.06 0,0.67 -0.24,1.42 -0.72,2.24 -0.48,0.81 -0.87,1.5 -1.18,2.07 -0.39,0.81 -0.71,1.6 -0.95,2.34 -0.24,0.75 -0.39,1.36 -0.44,1.84 -0.03,0.11 -0.05,0.22 -0.05,0.32 0,0.09 0,0.2 0,0.31 0,1.13 0.4,1.69 1.19,1.69 0.42,0 0.98,-0.25 1.69,-0.76 0.7,-0.51 1.42,-1.11 2.15,-1.81 0.73,-0.71 1.4,-1.39 2.01,-2.05 0.6,-0.66 1.02,-1.16 1.24,-1.5 0.05,-0.05 0.11,-0.09 0.17,-0.11 0.18,-0.22 0.38,-0.46 0.59,-0.69 0.76,-0.85 1.65,-1.67 2.66,-2.48 1.02,-0.8 2.04,-1.46 3.09,-1.98 1.04,-0.52 1.98,-0.78 2.83,-0.78 0.31,0 0.59,0.04 0.84,0.12 0.48,0.17 0.81,0.44 1,0.81 0.18,0.36 0.27,0.74 0.27,1.14 0,0.36 -0.06,0.72 -0.17,1.05 -0.11,0.34 -0.25,0.64 -0.42,0.89 -0.51,0.76 -1.23,1.44 -2.18,2.03 -0.94,0.59 -1.9,1.05 -2.87,1.39 -0.97,0.34 -1.77,0.54 -2.39,0.59l-0.08 0c-0.37,0 -0.55,-0.11 -0.55,-0.34 0,-0.14 0.11,-0.21 0.34,-0.21 0.67,-0.05 1.53,-0.37 2.55,-0.95 1.03,-0.57 1.94,-1.17 2.73,-1.79 0.34,-0.28 0.74,-0.68 1.2,-1.18 0.47,-0.51 0.7,-1 0.7,-1.48 0,-0.51 -0.24,-0.76 -0.72,-0.76 -0.25,0 -0.51,0.05 -0.78,0.17 -0.27,0.11 -0.49,0.19 -0.66,0.25 -0.81,0.39 -1.71,1.01 -2.7,1.84 -0.98,0.83 -1.88,1.76 -2.68,2.78 -0.8,1.03 -1.36,2.07 -1.67,3.11 -0.08,0.22 -0.14,0.44 -0.17,0.65 -0.03,0.21 -0.04,0.42 -0.04,0.62 0,0.67 0.22,1.15 0.65,1.43 0.44,0.28 0.97,0.43 1.59,0.43 0.93,0 1.88,-0.21 2.87,-0.62 0.99,-0.41 1.94,-0.93 2.87,-1.58 0.93,-0.65 1.78,-1.35 2.56,-2.09 0.77,-0.75 1.43,-1.47 1.96,-2.18 0.09,-0.11 0.19,-0.17 0.3,-0.19 0.11,-0.01 0.18,0.01 0.21,0.07 0.11,0.02 0.17,0.1 0.17,0.23 0,0.12 -0.03,0.24 -0.09,0.36 -0.79,1.09 -1.74,2.17 -2.85,3.21 -1.11,1.04 -2.34,1.91 -3.67,2.59 -1.34,0.69 -2.73,1.04 -4.16,1.04z"/>
 </g>
</svg>
