<?xml version="1.0" encoding="UTF-8"?>
<!DOCTYPE svg PUBLIC "-//W3C//DTD SVG 1.1//EN" "http://www.w3.org/Graphics/SVG/1.1/DTD/svg11.dtd">
<!-- Creator: CorelDRAW 2021 (64-Bit) -->
<svg xmlns="http://www.w3.org/2000/svg" xml:space="preserve" width="360px" height="152px" version="1.1" style="shape-rendering:geometricPrecision; text-rendering:geometricPrecision; image-rendering:optimizeQuality; fill-rule:evenodd; clip-rule:evenodd"
viewBox="0 0 360 152"
 xmlns:xlink="http://www.w3.org/1999/xlink"
 xmlns:xodm="http://www.corel.com/coreldraw/odm/2003">
 <defs>
  <style type="text/css">
   <![CDATA[
    .fil0 {fill:#FEFEFE}
    .fil1 {fill:#FEFEFE;fill-rule:nonzero}
   ]]>
  </style>
 </defs>
 <g id="Слой_x0020_1">
  <metadata id="CorelCorpID_0Corel-Layer"/>
  <g>
   <path class="fil0" d="M0 0l360 0 0 152 -360 0 0 -152zm358.96 1.04l-357.92 0 0 149.91 357.92 0 0 -149.91z"/>
  </g>
  <g>
   <path class="fil1" d="M199.63 59.12l-0.05 -0.43c-0.02,-0.1 -0.06,-0.19 -0.13,-0.26l-0.77 -0.74 -3.53 -3.46 4.7 -14.24 0.74 1.69 0.09 14.39 -1.05 3.05zm-1.79 15.49l0.83 -3.26 0.7 -2.68 0.35 2.69 -1.88 3.25zm-0.53 -1.36c-0.03,-0.03 -0.07,-0.07 -0.11,-0.09 -0.05,-0.02 -0.1,-0.04 -0.15,-0.05l0.4 -0.41 -0.14 0.55zm-6.15 4.71c-0.02,0.02 -0.04,0.05 -0.05,0.07l-0.7 0.72 -6.43 -1.2 0.99 -6.34 0.25 -1.57 1.13 0.22c0,0 0,0 0,0l3.56 0.71c0.1,0.02 0.2,0 0.28,-0.04l0.92 -0.47c0.02,0 0.04,-0.01 0.06,-0.02l0.84 -0.41 1.75 -0.85 0.59 -0.3 1.8 -0.88 0.72 -0.35 1.49 -0.74 -1.42 5.5 -5.78 5.95zm3.92 1.31l-4.05 2.68 0.45 -1.87 0.08 -0.34 0.09 -0.09 4.53 -4.68 -1.1 4.3zm-5.89 3.85l-2.88 1.33 -4.77 -3.91c0.66,-0.39 1.37,-0.96 1.84,-1.56l6.5 1.21 -0.69 2.93zm-9.19 4.13l-4.78 -2.11 4.79 -3.93 4.77 3.93 -4.78 2.11zm-6.04 -1.94c0.02,-0.01 0.03,-0.01 0.04,-0.02 0,0.01 0,0.01 0,0.02 0,0 0,0.01 0,0.02l-0.04 -0.02zm-3.15 -2.19l-0.65 -2.75 -0.05 -0.18 6.53 -1.2c0.1,0.13 0.21,0.26 0.32,0.37 0.02,0.02 0.04,0.04 0.06,0.06 0.41,0.42 0.93,0.82 1.45,1.12l-4.78 3.91 -2.88 -1.33zm-1.22 -4.37l-0.7 -0.72c-0.02,-0.02 -0.03,-0.05 -0.05,-0.07l-5.78 -5.95 -1.42 -5.5 1.49 0.74 2.51 1.22 0.61 0.32 1.73 0.83 0.85 0.42c0.02,0.01 0.04,0.02 0.06,0.02l0.92 0.47c0.08,0.04 0.18,0.06 0.27,0.04l2.8 -0.56 1.9 -0.37 0.25 1.57 0.99 6.34 -6.43 1.2zm-4.67 0.52l-1.11 -4.3 4.54 4.68 0.09 0.09 0.53 2.21 -4.05 -2.68zm-0.39 0.25l0.02 0.02 0.03 0.07 -0.05 -0.09zm-4.25 -8.16l0.35 -2.69 1.53 5.94 -1.88 -3.25zm-0.96 -15.29l0.09 -14.39 0.74 -1.69 4.69 14.24 -3.52 3.46 -0.49 0.48 -0.28 0.26c-0.07,0.07 -0.12,0.16 -0.13,0.26l-0.04 0.32 -0.01 0.11 -1.05 -3.05zm11.58 -10.83l0.45 0.28 -3.88 5.86 -0.52 0.79 -0.9 0.87 -4.49 -13.6 9.34 5.8zm-4.61 21.88l-0.67 -0.33 0.47 -0.27 0.2 0.6zm-0.4 -2.23l-1.9 1.1 -2.83 -1.4 0.3 -2.2c0,-0.02 0,-0.03 0.01,-0.04l0.25 -1.91 4.53 4 0.17 0.15 -0.53 0.3zm7.35 2.14l-0.5 1.46 -2.61 0.53 -1.92 -0.96 -0.66 -1.93 0.16 -0.55 0.22 -0.12 0.72 0.12 3.89 0.64 0.7 0.81zm-0.06 -2.23l-1.03 -0.18 -3.32 -0.55c-0.02,0 -0.03,0 -0.04,0l-0.82 -0.14 -0.01 0c0,-0.01 -0.01,-0.02 -0.02,-0.02l-5.69 -5.01 5.4 -5.31 6.38 12.03 -0.6 -0.68c-0.06,-0.08 -0.15,-0.13 -0.25,-0.14zm1.83 -0.57l-6.34 -11.92 1.26 -1.89c0.01,-0.01 0.03,-0.03 0.04,-0.04l2.28 -3.46 2.76 17.31zm3.95 -18.26l-2.86 15.53 -2.44 -15.36 -0.02 -0.17 5.32 0zm4.24 20.11l0 0 0.24 1.29 0.12 0.66 0.05 0.32c0.01,0.01 0.01,0.03 0.01,0.04l0 0.01c0.01,0.02 0.01,0.03 0.01,0.04l0.12 0.63 0.01 0.06 -1.03 6.65c-0.05,-0.03 -0.11,-0.06 -0.16,-0.09 -0.04,-0.02 -0.09,-0.05 -0.15,-0.06 -0.28,-0.09 -0.57,-0.13 -0.87,-0.13 -0.57,0 -1.11,0.16 -1.54,0.45 -0.44,-0.29 -0.99,-0.45 -1.55,-0.45 -0.38,0 -0.74,0.07 -1.05,0.21 -0.04,0.01 -0.08,0.04 -0.13,0.06l-1.04 -6.64 0.1 -0.58 0.03 -0.11c0,-0.01 0,-0.02 0,-0.04l0.01 -0.01c0,-0.01 0,-0.03 0.01,-0.04l0.05 -0.31 0.36 -1.96 3.2 -17.45 3.2 17.45zm3.16 -20.11l-2.47 15.53 -2.85 -15.53 5.32 0zm1.39 0.95l2.28 3.46c0.01,0.01 0.02,0.03 0.04,0.04l1.25 1.89 -6.33 11.92 2.76 -17.31zm6.5 7.36l-0.05 -0.05c0.02,0 0.03,0 0.04,-0.01 0.01,0 0.02,0 0.03,-0.01 -0.01,0.03 -0.01,0.05 -0.02,0.07zm-2.06 -1.81l0 0c0.01,-0.01 0.01,-0.03 0.02,-0.04l0.02 0.04c-0.01,0 -0.03,0 -0.04,0zm0.26 13.66l-0.66 1.93 -1.92 0.96 -2.61 -0.53 -0.51 -1.46 0.7 -0.81 3.9 -0.64 0.72 -0.12 0.21 0.12 0.17 0.55zm0.15 -2.7l-0.55 0.48c0,0 -0.01,0.01 -0.01,0.02l-0.01 0 -0.82 0.14c-0.01,0 -0.02,0 -0.04,0l-3.33 0.55 -1.02 0.18c-0.1,0.01 -0.19,0.06 -0.25,0.14l-0.6 0.68 6.38 -12.03 1.26 1.25 0.53 0.51 3.61 3.55 -5.15 4.53zm1.78 3.36l-0.67 0.33 0.2 -0.6 0.47 0.27zm-0.28 -1.9l-0.52 -0.3 4.7 -4.15 0.25 1.91c0,0.01 0.01,0.02 0.01,0.04l0.3 2.2 -2.83 1.4 -1.91 -1.1zm4.34 -25.45l-4.49 13.6 -0.89 -0.86 -0.01 -0.01 -0.52 -0.79 -3.88 -5.86 9.79 -6.08zm3.74 14.8l-0.07 -11.11 -0.01 -1.67c0,-0.06 -0.01,-0.11 -0.03,-0.17l-1.56 -3.56c-0.01,-0.01 -0.01,-0.02 -0.02,-0.03l-0.25 -0.58c-0.05,-0.11 -0.15,-0.2 -0.26,-0.24 -0.12,-0.03 -0.25,-0.02 -0.35,0.05l-0.56 0.34 -11.59 7.19 -14.96 0 -11.59 -7.19 -0.56 -0.34c-0.1,-0.07 -0.23,-0.08 -0.35,-0.05 -0.12,0.04 -0.21,0.13 -0.26,0.24l-0.25 0.58c-0.01,0.01 -0.01,0.02 -0.02,0.03l-1.56 3.56c-0.02,0.06 -0.03,0.11 -0.03,0.17l-0.02 1.67 -0.06 11.11 -0.02 2.01c0,0.05 0.01,0.1 0.03,0.14l0.65 1.9 0.65 1.87 0.25 0.71 0.55 1.57 -0.07 0.44c0,0.02 0,0.03 0,0.05l-0.2 1.54c0,0.01 0,0.02 0,0.03l-0.02 0.18c-0.01,0.01 -0.01,0.02 -0.01,0.03l-0.77 5.73 -0.13 1.08c-0.01,0.01 -0.01,0.03 -0.01,0.05l0 0.01c0,0.08 0.02,0.15 0.06,0.22l0.55 0.93 3.58 6.18 0.68 1.18 0.01 0.01c0.03,0.1 0.09,0.18 0.18,0.23l1.26 0.83 4.57 3.03 0.13 0.08c0.03,0.03 0.06,0.05 0.1,0.07l2.95 1.36 0.2 0.1c0.01,0 0.03,0.01 0.04,0.01l0.15 0.08c0.01,0.01 0.02,0.01 0.02,0.01l0.27 0.12c0.01,0.01 0.01,0.01 0.02,0.01l0.19 0.08 5.32 2.34 0.83 0.38c0.05,0.02 0.11,0.03 0.17,0.03 0.06,0 0.12,-0.01 0.17,-0.03l0.83 -0.37 5.32 -2.35 0.19 -0.08c0.01,0 0.01,0 0.02,-0.01l0.26 -0.12c0.01,0 0.02,0 0.03,-0.01l0.15 -0.08c0.01,0 0.03,-0.01 0.04,-0.01l2.54 -1.18 0.67 -0.32c0.02,-0.01 0.04,-0.02 0.05,-0.03l4.69 -3.11 1.26 -0.83c0.09,-0.05 0.15,-0.13 0.18,-0.23l0.69 -1.19 3.58 -6.18 0.55 -0.93c0.03,-0.07 0.05,-0.14 0.05,-0.22l0 -0.01c0,-0.02 0,-0.04 0,-0.05l-0.13 -1.09 -0.71 -5.26 -0.06 -0.46c0,-0.01 -0.01,-0.02 -0.01,-0.03l-0.02 -0.18c0,-0.01 0,-0.02 0,-0.03l-0.2 -1.54c0,-0.02 0,-0.03 0,-0.05l-0.07 -0.44 0.55 -1.58 0.24 -0.7 0.66 -1.87 0.65 -1.9c0.02,-0.04 0.03,-0.09 0.03,-0.14l-0.02 -2.01z"/>
   <path class="fil1" d="M131.71 101.35l4.6 0 0 13.78 -4.6 0 0 -13.78zm-12.16 0l4.88 0 3.7 6.13 2.91 -4.99 0 6.94 -3.31 5.7 -8.18 -13.78zm-0.01 13.78l0 -12.5 4.29 7.2 0 5.3 -4.29 0z"/>
   <path class="fil1" d="M144.05 115.13l0 -2.75 2.59 0 0 -1.38 4.59 0 0 4.13 -7.18 0zm0 -11.11l0 -2.67 7.18 0 0 3.99 -4.32 0 0 -1.32 -2.86 0zm-0.72 5.45l0 5.66 -4.59 0 0 -13.78 4.59 0 0 5.46 4.39 0 0 2.66 -4.39 0z"/>
   <path class="fil1" d="M161.92 104.14l-1.76 0 0 -2.79 3.56 0 2.79 2.75 0 8.28 -2.79 2.75 -3.56 0 0 -2.8 1.76 0 0 -8.19zm-4.21 8.19l1.72 0 0 2.8 -3.53 0 -2.79 -2.75 0 -8.28 2.79 -2.75 3.53 0 0 2.79 -1.72 0 0 8.19z"/>
   <path class="fil1" d="M183.52 101.35l4.19 0 -3.74 13.07 -1.87 -7.35 1.42 -5.72zm-0.04 13.78l-4.38 0 -3.78 -13.78 4.63 0 3.53 13.78zm-9.74 -6.21l1.38 -5.78 1.79 6.54 -1.48 5.45 -4.17 0 -4.12 -13.78 4.57 0 2.03 7.57z"/>
   <polygon class="fil1" points="189.13,101.35 194.18,101.35 194.18,104.57 192.35,107.32 189.58,107.32 190.87,104.57 189.13,104.57 "/>
   <path class="fil1" d="M205.59 104.14l-1.76 0 0 -2.79 3.57 0 2.78 2.75 0 8.28 -2.78 2.75 -3.57 0 0 -2.8 1.76 0 0 -8.19zm-4.2 8.19l1.72 0 0 2.8 -3.53 0 -2.8 -2.75 0 -8.28 2.8 -2.75 3.53 0 0 2.79 -1.72 0 0 8.19z"/>
   <path class="fil1" d="M225.53 101.35l0 12.48 -4 -6.59 0 -5.89 4 0zm-13.23 13.78l0 -12.47 4 6.55 0 5.92 -4 0zm13.23 0l-4.88 0 -8.35 -13.78 4.85 0 8.38 13.78z"/>
   <path class="fil1" d="M233.28 115.13l0 -2.75 2.59 0 0 -1.38 4.59 0 0 4.13 -7.18 0zm0 -11.11l0 -2.67 7.18 0 0 3.99 -4.32 0 0 -1.32 -2.86 0zm-0.73 5.45l0 5.66 -4.59 0 0 -13.78 4.59 0 0 5.46 4.4 0 0 2.66 -4.4 0z"/>
  </g>
 </g>
</svg>
