<?xml version="1.0" encoding="UTF-8"?>
<!DOCTYPE svg PUBLIC "-//W3C//DTD SVG 1.1//EN" "http://www.w3.org/Graphics/SVG/1.1/DTD/svg11.dtd">
<!-- Creator: CorelDRAW 2021 (64-Bit) -->
<svg xmlns="http://www.w3.org/2000/svg" xml:space="preserve" width="360px" height="152px" version="1.1" style="shape-rendering:geometricPrecision; text-rendering:geometricPrecision; image-rendering:optimizeQuality; fill-rule:evenodd; clip-rule:evenodd"
viewBox="0 0 360 152"
 xmlns:xlink="http://www.w3.org/1999/xlink"
 xmlns:xodm="http://www.corel.com/coreldraw/odm/2003">
 <defs>
  <style type="text/css">
   <![CDATA[
    .fil0 {fill:#FEFEFE}
    .fil1 {fill:#FEFEFE;fill-rule:nonzero}
   ]]>
  </style>
 </defs>
 <g id="Слой_x0020_1">
  <metadata id="CorelCorpID_0Corel-Layer"/>
  <g>
   <path class="fil0" d="M0 0l360 0 0 152 -360 0 0 -152zm358.96 1.04l-357.92 0 0 149.91 357.92 0 0 -149.91z"/>
  </g>
  <g>
   <path class="fil1" d="M167 76.28c1.65,3.97 4.03,7.08 6.75,8.85 -4.67,-1.15 -8.91,-3.77 -12.02,-7.45 1.73,-0.56 3.5,-1.03 5.27,-1.4zm-10.66 -12.55l8.15 0c0.08,3.83 0.75,7.62 1.92,10.97 -1.92,0.41 -3.85,0.94 -5.75,1.58 -2.67,-3.68 -4.16,-8.01 -4.32,-12.55zm4.32 -14.22c1.89,0.64 3.82,1.17 5.75,1.58 -1.17,3.36 -1.84,7.15 -1.92,10.97l-8.15 0c0.16,-4.53 1.66,-8.87 4.32,-12.55zm13.09 -8.85c-2.73,1.77 -5.1,4.88 -6.75,8.86 -1.77,-0.37 -3.54,-0.85 -5.27,-1.41 3.12,-3.68 7.35,-6.3 12.02,-7.45zm4.62 10.08c-3.29,-0.04 -6.56,-0.35 -9.71,-0.91 2.39,-5.62 6.01,-9.19 9.71,-9.61l0 10.52zm12 0.67c1.24,3.49 1.9,7.46 1.9,11.49 0,4.03 -0.66,7.99 -1.9,11.48 -3.66,-0.67 -7.41,-1.01 -11.16,-1.01 -3.76,0 -7.51,0.34 -11.17,1.01 -1.24,-3.48 -1.89,-7.45 -1.89,-11.48 0,-4.03 0.65,-8 1.89,-11.49 7.31,1.34 15.02,1.34 22.33,0zm-10.33 -11.19c3.7,0.42 7.32,3.99 9.72,9.61 -3.17,0.56 -6.44,0.87 -9.72,0.91l0 -10.52zm16.65 7.89c-1.73,0.56 -3.5,1.03 -5.27,1.41 -1.66,-3.98 -4.03,-7.09 -6.76,-8.86 4.67,1.15 8.91,3.77 12.03,7.45zm1.06 1.4c2.67,3.68 4.16,8.02 4.32,12.55l-8.16 0c-0.08,-3.84 -0.74,-7.63 -1.91,-10.97 1.93,-0.41 3.87,-0.94 5.75,-1.58zm0.01 26.77c-1.87,-0.63 -3.8,-1.16 -5.76,-1.58 1.17,-3.33 1.83,-7.12 1.91,-10.97l8.16 0c-0.16,4.53 -1.65,8.87 -4.31,12.55zm-17.72 9.29l0 -10.52c3.29,0.04 6.56,0.35 9.72,0.91 -2.4,5.62 -6.02,9.19 -9.72,9.61zm4.62 -0.44c2.73,-1.77 5.1,-4.88 6.76,-8.86 1.75,0.37 3.52,0.85 5.27,1.41 -3.12,3.68 -7.36,6.3 -12.03,7.45zm-6.29 0.44c-3.7,-0.42 -7.32,-3.99 -9.71,-9.61 3.16,-0.56 6.43,-0.87 9.71,-0.91l0 10.52zm0.22 1.87c0.07,0 0.14,0 0.21,0.01l0.05 0c0.11,0.01 0.23,0.02 0.36,0.02 0.12,0 0.24,-0.01 0.35,-0.02l0.06 0c0.06,-0.01 0.13,-0.01 0.23,-0.01 6.43,-0.17 12.44,-2.8 16.94,-7.4 4.5,-4.61 6.99,-10.7 6.99,-17.14 0,-6.45 -2.49,-12.54 -6.99,-17.15 -4.45,-4.55 -10.4,-7.17 -16.75,-7.39l0 0 -1.48 0c-13.06,0.34 -23.55,10.83 -23.89,23.9l0 1.28c0.34,13.06 10.83,23.56 23.92,23.9z"/>
   <path class="fil1" d="M171.9 71.41c0.25,0 0.48,-0.07 0.67,-0.21 0.21,-0.15 0.31,-0.35 0.31,-0.59l0 -12.43 5.49 7.65c0.06,0.06 0.15,0.14 0.28,0.24 0.14,0.12 0.33,0.18 0.53,0.15l0.1 0c0.07,0 0.16,-0.02 0.27,-0.07 0.12,-0.04 0.2,-0.09 0.27,-0.15l0.15 -0.18 5.59 -7.65 0 12.44c0,0.24 0.09,0.44 0.26,0.59 0.17,0.14 0.4,0.21 0.67,0.21 0.26,0 0.48,-0.07 0.67,-0.21 0.19,-0.15 0.29,-0.35 0.29,-0.59l0 -15.4c0,-0.23 -0.1,-0.43 -0.29,-0.59l-0.01 -0.02 0 0c-0.19,-0.14 -0.41,-0.22 -0.66,-0.22l-0.01 0c-0.4,0.03 -0.68,0.19 -0.8,0.45l-6.4 8.99 -6.51 -8.98c-0.06,-0.12 -0.18,-0.22 -0.35,-0.32 -0.16,-0.09 -0.34,-0.14 -0.52,-0.14 -0.28,0 -0.51,0.08 -0.68,0.24 -0.17,0.16 -0.26,0.36 -0.26,0.59l0 15.4c0,0.24 0.09,0.44 0.27,0.58 0.17,0.15 0.39,0.22 0.67,0.22z"/>
   <path class="fil1" d="M112.49 103.39c-0.34,0 -0.63,0.17 -0.86,0.5l-3.03 4.32 -3.17 -4.28c-0.24,-0.35 -0.57,-0.54 -0.93,-0.54 -0.53,0 -0.9,0.41 -0.9,0.97l0 8.44c0,0.44 0.36,0.8 0.81,0.8 0.45,0 0.81,-0.36 0.81,-0.8l0 -6.51 2.49 3.41c0.29,0.38 0.59,0.46 0.8,0.46 0.2,0 0.51,-0.08 0.8,-0.46l2.46 -3.47 0 6.57c0,0.44 0.37,0.8 0.82,0.8 0.44,0 0.8,-0.36 0.8,-0.8l0 -8.52c0,-0.51 -0.38,-0.89 -0.9,-0.89z"/>
   <path class="fil1" d="M119.37 113.6c0.45,0 0.81,-0.36 0.81,-0.8l0 -8.62c0,-0.43 -0.36,-0.79 -0.81,-0.79 -0.45,0 -0.81,0.35 -0.81,0.79l0 8.62c0,0.44 0.36,0.8 0.81,0.8z"/>
   <path class="fil1" d="M126.96 105.01l0.16 0c0.41,-0.01 0.73,-0.02 0.95,-0.02 1.81,0 2.02,0.87 2.02,1.53 0,0.48 -0.18,0.85 -0.56,1.14 -0.39,0.31 -0.85,0.46 -1.39,0.46l-1.18 0 0 -3.11zm-0.81 8.59c0.45,0 0.81,-0.36 0.81,-0.8l0 -3.13 1.22 0 2.69 3.52c0.22,0.27 0.48,0.41 0.76,0.41 0.43,0 0.76,-0.34 0.76,-0.76 0,-0.19 -0.06,-0.37 -0.2,-0.54l-2.34 -2.96c0.48,-0.19 0.91,-0.49 1.27,-0.92 0.44,-0.52 0.66,-1.16 0.66,-1.91 0,-2.04 -1.23,-3.07 -3.64,-3.07 -0.24,0 -0.6,0 -1.08,0.01l-0.92 0.01c-0.44,0 -0.8,0.36 -0.8,0.81l0 8.53c0,0.44 0.36,0.8 0.81,0.8z"/>
   <path class="fil1" d="M139.89 105.77l1.39 3.28 -2.77 0 1.38 -3.28zm-3.8 7.83c0.35,0 0.61,-0.19 0.73,-0.52l1.04 -2.48 4.06 0 1.05 2.48c0.15,0.34 0.41,0.52 0.76,0.52 0.45,0 0.79,-0.35 0.79,-0.82 0,-0.09 -0.02,-0.2 -0.06,-0.32l-3.65 -8.46c-0.16,-0.39 -0.46,-0.61 -0.87,-0.61 -0.41,0 -0.71,0.21 -0.88,0.61l-3.68 8.51c-0.04,0.12 -0.07,0.23 -0.07,0.33 0,0.43 0.34,0.76 0.78,0.76z"/>
   <path class="fil1" d="M152.16 113.64c1.08,0 2.03,-0.28 2.81,-0.83 0.23,-0.16 0.36,-0.4 0.36,-0.66 0,-0.18 -0.06,-0.32 -0.15,-0.41 -0.14,-0.18 -0.34,-0.28 -0.59,-0.28 -0.18,0 -0.35,0.05 -0.46,0.13 -0.55,0.33 -1.17,0.5 -1.87,0.5 -1.04,0 -1.89,-0.34 -2.53,-1 -0.65,-0.65 -0.97,-1.53 -0.97,-2.61 0,-1.08 0.3,-1.94 0.93,-2.61 0.63,-0.67 1.42,-0.99 2.4,-0.99 0.71,0 1.33,0.14 1.83,0.41l0.01 0c0.41,0.21 0.86,0.1 1.06,-0.24 0.08,-0.12 0.12,-0.25 0.12,-0.39 0,-0.26 -0.14,-0.49 -0.4,-0.66 -0.74,-0.45 -1.63,-0.67 -2.64,-0.67 -1.51,0 -2.74,0.49 -3.64,1.47 -0.91,0.98 -1.36,2.23 -1.36,3.68 0,1.55 0.48,2.81 1.42,3.74 0.93,0.94 2.16,1.42 3.67,1.42z"/>
   <path class="fil1" d="M159.95 103.39c-0.46,0 -0.82,0.35 -0.82,0.79l0 8.52c0,0.44 0.37,0.8 0.81,0.8l4.78 0c0.41,0 0.76,-0.35 0.76,-0.77 0,-0.42 -0.35,-0.78 -0.76,-0.78l-3.96 0 0 -7.77c0,-0.43 -0.36,-0.79 -0.81,-0.79z"/>
   <path class="fil1" d="M174.1 105.02c0.41,0 0.76,-0.36 0.76,-0.78 0,-0.42 -0.35,-0.78 -0.76,-0.78l-4.3 0c-0.44,0 -0.8,0.36 -0.8,0.81l0 8.43c0,0.44 0.36,0.8 0.8,0.8l4.44 0c0.41,0 0.76,-0.35 0.76,-0.77 0,-0.42 -0.35,-0.78 -0.76,-0.78l-3.62 0 0 -2.75 3.07 0c0.41,0 0.76,-0.35 0.76,-0.77 0,-0.42 -0.35,-0.78 -0.76,-0.78l-3.07 0 0 -2.63 3.48 0z"/>
   <path class="fil1" d="M186.97 109.05l1.38 -3.28 1.38 3.28 -2.76 0zm4.45 4.03c0.15,0.34 0.41,0.52 0.76,0.52 0.45,0 0.79,-0.35 0.79,-0.82 0,-0.09 -0.02,-0.2 -0.06,-0.32l-3.65 -8.46c-0.16,-0.39 -0.46,-0.61 -0.87,-0.61 -0.4,0 -0.71,0.21 -0.88,0.61l-3.67 8.51c-0.05,0.12 -0.07,0.23 -0.07,0.33 0,0.43 0.33,0.76 0.77,0.76 0.35,0 0.61,-0.19 0.73,-0.52l1.04 -2.48 4.06 0 1.05 2.48z"/>
   <path class="fil1" d="M198.22 108.27l0 -3.26 0.05 0c0.47,-0.01 0.87,-0.02 1.18,-0.02 1.31,0 1.97,0.55 1.97,1.63 0,1.08 -0.74,1.7 -2.03,1.7 -0.31,0 -0.67,-0.01 -1.17,-0.05zm3.94 0.66c0.63,-0.63 0.95,-1.41 0.95,-2.29 0,-0.93 -0.3,-1.7 -0.89,-2.3 -0.6,-0.61 -1.55,-0.9 -2.88,-0.9 -0.35,0 -0.8,0 -1.36,0.01l-0.57 0.01c-0.45,0 -0.81,0.36 -0.81,0.81l0 8.53c0,0.44 0.37,0.8 0.82,0.8 0.44,0 0.8,-0.36 0.8,-0.8l0 -2.96c0.34,0.02 0.73,0.04 1.21,0.04 1.19,0 2.08,-0.31 2.73,-0.95z"/>
   <path class="fil1" d="M208.53 105.01l0.04 0c0.48,-0.01 0.87,-0.02 1.18,-0.02 1.31,0 1.97,0.55 1.97,1.63 0,1.08 -0.74,1.7 -2.03,1.7 -0.31,0 -0.67,-0.01 -1.16,-0.05l0 -3.26zm-0.81 8.59c0.44,0 0.81,-0.36 0.81,-0.8l0 -2.96c0.33,0.02 0.72,0.04 1.21,0.04 1.18,0 2.07,-0.31 2.72,-0.95 0.63,-0.63 0.95,-1.41 0.95,-2.29 0,-0.93 -0.29,-1.7 -0.88,-2.3 -0.61,-0.61 -1.56,-0.9 -2.89,-0.9 -0.34,0 -0.8,0 -1.36,0.01l-0.57 0.01c-0.44,0 -0.81,0.36 -0.81,0.81l0 8.53c0,0.44 0.37,0.8 0.82,0.8z"/>
   <path class="fil1" d="M220.13 105.77l1.38 3.28 -2.76 0 1.38 -3.28zm-3.8 7.83c0.34,0 0.6,-0.19 0.73,-0.52l1.03 -2.48 4.07 0 1.05 2.48c0.14,0.34 0.4,0.52 0.76,0.52 0.45,0 0.79,-0.35 0.79,-0.82 0,-0.09 -0.02,-0.2 -0.06,-0.32l-3.66 -8.46c-0.15,-0.39 -0.45,-0.61 -0.87,-0.61 -0.4,0 -0.7,0.21 -0.88,0.61l-3.67 8.51c-0.05,0.12 -0.07,0.23 -0.07,0.33 0,0.43 0.33,0.76 0.78,0.76z"/>
   <path class="fil1" d="M232.72 107.66c-0.4,0.31 -0.85,0.46 -1.4,0.46l-1.18 0 0 -3.11 0.16 0c0.41,-0.01 0.73,-0.02 0.96,-0.02 1.8,0 2.01,0.87 2.01,1.53 0,0.48 -0.18,0.85 -0.55,1.14zm0.32 1.68c0.48,-0.19 0.9,-0.49 1.27,-0.92 0.43,-0.52 0.65,-1.16 0.65,-1.91 0,-2.04 -1.22,-3.07 -3.64,-3.07 -0.23,0 -0.59,0 -1.08,0.01l-0.91 0.01c-0.45,0 -0.81,0.36 -0.81,0.81l0 8.53c0,0.44 0.37,0.8 0.82,0.8 0.44,0 0.8,-0.36 0.8,-0.8l0 -3.13 1.22 0 2.69 3.52c0.22,0.27 0.48,0.41 0.77,0.41 0.42,0 0.76,-0.34 0.76,-0.76 0,-0.19 -0.07,-0.37 -0.2,-0.54l-2.34 -2.96z"/>
   <path class="fil1" d="M245.65 112.73c0,-0.42 -0.35,-0.78 -0.76,-0.78l-3.62 0 0 -2.75 3.07 0c0.41,0 0.76,-0.35 0.76,-0.77 0,-0.42 -0.35,-0.78 -0.76,-0.78l-3.07 0 0 -2.63 3.48 0c0.41,0 0.76,-0.36 0.76,-0.78 0,-0.42 -0.35,-0.78 -0.76,-0.78l-4.3 0c-0.44,0 -0.8,0.36 -0.8,0.81l0 8.43c0,0.44 0.36,0.8 0.8,0.8l4.44 0c0.41,0 0.76,-0.35 0.76,-0.77z"/>
   <path class="fil1" d="M255.64 111.95l-3.96 0 0 -7.77c0,-0.43 -0.36,-0.79 -0.8,-0.79 -0.46,0 -0.82,0.35 -0.82,0.79l0 8.52c0,0.44 0.36,0.8 0.8,0.8l4.78 0c0.41,0 0.76,-0.35 0.76,-0.77 0,-0.42 -0.35,-0.78 -0.76,-0.78z"/>
  </g>
 </g>
</svg>
