<?xml version="1.0" encoding="UTF-8"?>
<!DOCTYPE svg PUBLIC "-//W3C//DTD SVG 1.1//EN" "http://www.w3.org/Graphics/SVG/1.1/DTD/svg11.dtd">
<!-- Creator: CorelDRAW 2021 (64-Bit) -->
<svg xmlns="http://www.w3.org/2000/svg" xml:space="preserve" width="360px" height="152px" version="1.1" style="shape-rendering:geometricPrecision; text-rendering:geometricPrecision; image-rendering:optimizeQuality; fill-rule:evenodd; clip-rule:evenodd"
viewBox="0 0 360 152"
 xmlns:xlink="http://www.w3.org/1999/xlink"
 xmlns:xodm="http://www.corel.com/coreldraw/odm/2003">
 <defs>
  <style type="text/css">
   <![CDATA[
    .fil0 {fill:#FEFEFE}
   ]]>
  </style>
 </defs>
 <g id="Слой_x0020_1">
  <metadata id="CorelCorpID_0Corel-Layer"/>
  <g>
   <path class="fil0" d="M0 0l360 0 0 152 -360 0 0 -152zm358.96 1.04l-357.92 0 0 149.91 357.92 0 0 -149.91z"/>
  </g>
  <path class="fil0" d="M124.54 64.21l9.77 0 -9.47 23.22c-0.09,0.21 -0.33,0.38 -0.54,0.38l-9.14 0c-0.13,0 -0.2,-0.11 -0.15,-0.24l9.53 -23.36zm16.61 13.63l-0.18 9.58c0,0.22 0.2,0.39 0.42,0.39l9.33 0c0.14,0 0.24,-0.11 0.23,-0.25l-0.77 -12.24 0 0c0,-0.04 0,-0.07 0,-0.11 0,-0.19 0.03,-0.37 0.14,-0.51 0.33,-0.43 1.63,-1.75 2.1,-2.25l7.72 -8.27 -9.14 0 -7.97 9.05 3.68 -9.02 -9.76 0 -9.54 23.36c-0.05,0.13 0.02,0.24 0.15,0.24l9.14 0c0.21,0 0.45,-0.17 0.54,-0.38l3.91 -9.59zm38.93 -13.63l3.22 0 6.63 0 -2.81 7.09c-0.08,0.21 -0.31,0.38 -0.52,0.38l-6.34 0 -3.13 0 -6.64 0 3.05 -7.47 6.54 0zm-3.77 9.52l9.84 0 -2.8 7.09c-0.08,0.2 -0.32,0.37 -0.53,0.37l-6.45 0 -2.54 6.24c-0.09,0.21 -0.33,0.38 -0.54,0.38l-9.14 0c-0.13,0 -0.2,-0.11 -0.14,-0.24l5.63 -13.8 6.65 0 0.02 -0.04zm28.49 -9.52l9.77 0 -6.58 16.13 6.57 0c0.12,0 0.17,0.1 0.12,0.21l-2.8 6.84c-0.1,0.23 -0.37,0.42 -0.6,0.42l-6.72 0 -7.66 0 -1.48 0c-0.14,0 -0.2,-0.11 -0.15,-0.24l9.53 -23.36zm17.95 0l9.77 0 -9.48 23.22c-0.08,0.21 -0.32,0.38 -0.53,0.38l-9.14 0c-0.14,0 -0.2,-0.11 -0.15,-0.24l9.53 -23.36zm-30.35 0l9.76 0 -9.47 23.22c-0.09,0.21 -0.33,0.38 -0.54,0.38l-9.14 0c-0.13,0 -0.2,-0.11 -0.14,-0.24l9.53 -23.36zm-31.34 0l9.76 0 -9.47 23.22c-0.08,0.21 -0.33,0.38 -0.54,0.38l-9.14 0c-0.13,0 -0.2,-0.11 -0.14,-0.24l9.53 -23.36zm74.18 0l2.12 0 6.02 0 1.01 10.26 0 0c0.01,0.05 0.05,0.09 0.11,0.09 0.04,0 0.08,-0.02 0.1,-0.06l0 0 4.19 -10.29 8.1 0 -9.48 23.22c-0.08,0.21 -0.32,0.38 -0.53,0.38l-1.39 0 -0.01 0 -6.07 0 -0.01 0 -0.24 0c-0.21,0 -0.42,-0.17 -0.44,-0.38l-0.57 -9.82c-0.01,-0.05 -0.08,-0.4 -0.12,-0.3l-4.13 10.12c-0.08,0.21 -0.33,0.38 -0.53,0.38l-7.52 0c-0.13,0 -0.2,-0.11 -0.14,-0.24l9.53 -23.36zm24.29 0l9.77 0 -9.48 23.22c-0.08,0.21 -0.32,0.38 -0.53,0.38l-9.14 0c-0.14,0 -0.2,-0.11 -0.15,-0.24l9.53 -23.36zm-159.28 0l2.12 0 6.02 0 1.01 10.26 0 0c0.01,0.05 0.06,0.09 0.11,0.09 0.04,0 0.08,-0.02 0.1,-0.06l0 0 4.2 -10.29 8.09 0 -9.47 23.22c-0.09,0.21 -0.33,0.38 -0.54,0.38l-1.39 0 -0.01 0 -6.07 0 -0.01 0 -0.24 0c-0.21,0 -0.42,-0.17 -0.43,-0.38l-0.58 -9.82c0,-0.05 -0.07,-0.4 -0.11,-0.3l-4.14 10.12c-0.08,0.21 -0.32,0.38 -0.53,0.38l-7.51 0c-0.14,0 -0.2,-0.11 -0.15,-0.24l9.53 -23.36z"/>
 </g>
</svg>
