<?xml version="1.0" encoding="UTF-8"?>
<!DOCTYPE svg PUBLIC "-//W3C//DTD SVG 1.1//EN" "http://www.w3.org/Graphics/SVG/1.1/DTD/svg11.dtd">
<!-- Creator: CorelDRAW 2021 (64-Bit) -->
<svg xmlns="http://www.w3.org/2000/svg" xml:space="preserve" width="360px" height="152px" version="1.1" style="shape-rendering:geometricPrecision; text-rendering:geometricPrecision; image-rendering:optimizeQuality; fill-rule:evenodd; clip-rule:evenodd"
viewBox="0 0 360 152"
 xmlns:xlink="http://www.w3.org/1999/xlink"
 xmlns:xodm="http://www.corel.com/coreldraw/odm/2003">
 <defs>
  <style type="text/css">
   <![CDATA[
    .fil0 {fill:#FEFEFE}
    .fil1 {fill:#FEFEFE;fill-rule:nonzero}
   ]]>
  </style>
 </defs>
 <g id="Слой_x0020_1">
  <metadata id="CorelCorpID_0Corel-Layer"/>
  <g>
   <path class="fil0" d="M0 0l360 0 0 152 -360 0 0 -152zm358.96 1.04l-357.92 0 0 149.91 357.92 0 0 -149.91z"/>
  </g>
  <g>
   <path class="fil1" d="M221.63 79.74c0,-4.54 2.51,-8.49 6.21,-10.56 1.28,-0.71 2.71,-1.19 4.22,-1.4 0.55,-0.08 1.1,-0.13 1.67,-0.13 4.84,0 9,2.85 10.94,6.96 0.53,1.14 0.9,2.38 1.06,3.69 0.06,0.47 0.09,0.95 0.09,1.44 0,0.5 -0.03,0.98 -0.09,1.45 -0.28,2.31 -1.2,4.42 -2.59,6.14 -1.1,1.37 -2.51,2.49 -4.11,3.27 -1.6,0.79 -3.4,1.24 -5.3,1.24 -2.83,0 -5.42,-0.98 -7.48,-2.6 -0.93,-0.74 -1.76,-1.61 -2.44,-2.59 -1.34,-1.91 -2.13,-4.23 -2.17,-6.73 0,-0.06 -0.01,-0.12 -0.01,-0.18zm16.54 -20.79l-0.94 0c-1.85,0.12 -3.65,0.98 -4.89,2.58 -0.04,0.05 -0.07,0.1 -0.1,0.15l-2.42 0.09c-0.54,0.02 -0.85,0.57 -0.58,1.04l1.13 1.99 -1.47 2.56c-4.96,1.93 -8.48,6.74 -8.48,12.38l0 0.04c0.01,0.67 0.07,1.32 0.17,1.97 0.31,2.02 1.05,3.89 2.16,5.51 0.44,0.63 0.92,1.22 1.45,1.76 1.17,1.2 2.57,2.18 4.12,2.87 1.65,0.74 3.48,1.16 5.41,1.16 1.93,0 3.76,-0.42 5.41,-1.16 0.68,-0.3 1.34,-0.66 1.95,-1.07l4.29 0.46 0.35 0.03 5.39 0.58c4.24,-0.01 6.88,-4.6 4.76,-8.27l-6.71 -11.61 -5.58 -9.67c-1.22,-2.12 -3.29,-3.25 -5.42,-3.39zm-0.43 3.95c0,0.11 -0.02,0.22 -0.04,0.32 -0.01,0.01 -0.01,0.02 -0.01,0.03l0 0c-0.05,0.18 -0.13,0.34 -0.24,0.48 0,0.01 0,0.01 -0.01,0.01 -0.05,0.08 -0.12,0.15 -0.19,0.21 -0.12,0.1 -0.26,0.18 -0.4,0.23 -0.01,0.01 -0.02,0.01 -0.02,0.01 -0.15,0.05 -0.3,0.09 -0.47,0.09 -0.75,0 -1.35,-0.6 -1.37,-1.35 0,-0.01 0,-0.02 0,-0.03 0,-0.09 0.01,-0.17 0.02,-0.26 0.03,-0.15 0.09,-0.28 0.16,-0.41 0.01,-0.01 0.01,-0.02 0.01,-0.02 0.08,-0.13 0.17,-0.24 0.28,-0.34 0.02,-0.01 0.04,-0.03 0.05,-0.04 0.11,-0.09 0.23,-0.16 0.36,-0.21 0.02,0 0.04,-0.01 0.05,-0.01 0.14,-0.05 0.29,-0.08 0.44,-0.08 0.76,0 1.38,0.61 1.38,1.37z"/>
   <path class="fil1" d="M103.4 67.28l-0.03 0 0.01 0c0.01,0 0.01,0 0.02,0z"/>
   <path class="fil1" d="M140.49 82.3c-0.35,0.77 -0.84,1.44 -1.48,2.01 -0.64,0.56 -1.42,1.01 -2.34,1.33 -0.92,0.32 -1.94,0.48 -3.07,0.48 -0.89,0 -1.71,-0.08 -2.48,-0.25 -0.76,-0.17 -1.42,-0.39 -1.97,-0.68 -0.56,-0.29 -0.99,-0.62 -1.3,-0.98 -0.31,-0.37 -0.46,-0.75 -0.46,-1.15 0,-0.55 0.19,-1.01 0.58,-1.38 0.38,-0.36 0.91,-0.54 1.57,-0.54 0.58,0 1.26,0.15 2.05,0.46 0.78,0.31 1.65,0.47 2.6,0.47 0.62,0 1.14,-0.19 1.57,-0.55 0.42,-0.37 0.63,-0.83 0.63,-1.38 0,-0.78 -0.3,-1.33 -0.9,-1.68 -0.6,-0.34 -1.42,-0.67 -2.46,-0.98 -1.84,-0.55 -3.2,-1.22 -4.08,-2.01 -0.89,-0.78 -1.33,-1.92 -1.33,-3.4 0,-0.87 0.16,-1.67 0.5,-2.41 0.33,-0.74 0.79,-1.38 1.39,-1.93 0.6,-0.54 1.32,-0.97 2.18,-1.28 0.85,-0.31 1.81,-0.46 2.87,-0.46 1.57,0 2.84,0.28 3.8,0.85 0.97,0.56 1.45,1.22 1.45,1.97 0,0.58 -0.17,1.03 -0.52,1.36 -0.34,0.34 -0.83,0.5 -1.48,0.5 -0.53,0 -1.09,-0.11 -1.67,-0.35 -0.59,-0.23 -1.16,-0.35 -1.71,-0.35 -0.69,0 -1.22,0.16 -1.58,0.47 -0.37,0.31 -0.55,0.71 -0.55,1.2 0,0.68 0.3,1.14 0.9,1.37 0.6,0.24 1.44,0.53 2.52,0.88 1.77,0.6 3.1,1.36 3.97,2.28 0.88,0.92 1.31,2.11 1.31,3.57 0,0.93 -0.17,1.78 -0.51,2.56z"/>
   <path class="fil1" d="M148.38 86.12c-1.49,0 -2.23,-1.05 -2.23,-3.16l0 -13.95c0,-0.97 0.16,-1.72 0.48,-2.24 0.33,-0.52 0.85,-0.78 1.58,-0.78 0.51,0 0.94,0.13 1.3,0.38 0.35,0.25 0.7,0.62 1.06,1.08l8.27 10.93 0 -9.2c0,-2.13 0.74,-3.19 2.23,-3.19 1.48,0 2.22,1.06 2.22,3.19l0 14.28c0,0.91 -0.15,1.6 -0.46,2.08 -0.31,0.47 -0.83,0.71 -1.56,0.71 -0.89,0 -1.74,-0.54 -2.56,-1.63l-8.11 -10.69 0 9.03c0,2.11 -0.74,3.16 -2.22,3.16z"/>
   <path class="fil1" d="M180.4 68.35c0,1.37 -1.06,2.06 -3.19,2.06l-3.65 0 0 3.52 3.15 0c2.1,0 3.16,0.68 3.16,2.06 0,1.37 -1.06,2.06 -3.16,2.06l-3.15 0 0 3.68 3.78 0c2.13,0 3.19,0.7 3.19,2.1 0,1.37 -1.06,2.06 -3.19,2.06l-5.21 0c-1.2,0 -2,-0.21 -2.41,-0.62 -0.41,-0.41 -0.62,-1.14 -0.62,-2.21l0 -13.68c0,-1.09 0.2,-1.88 0.6,-2.38 0.4,-0.5 1.23,-0.75 2.49,-0.75l5.02 0c2.13,0 3.19,0.7 3.19,2.1z"/>
   <path class="fil1" d="M202.59 74.79c0.48,0.45 0.73,1.19 0.73,2.23 0,1.32 -0.21,2.55 -0.63,3.67 -0.43,1.12 -1.02,2.08 -1.8,2.89 -0.77,0.81 -1.71,1.43 -2.82,1.87 -1.11,0.45 -2.34,0.67 -3.69,0.67 -1.33,0 -2.55,-0.24 -3.67,-0.72 -1.12,-0.47 -2.09,-1.15 -2.91,-2.04 -0.81,-0.88 -1.45,-1.94 -1.91,-3.17 -0.45,-1.23 -0.68,-2.61 -0.68,-4.14 0,-1.55 0.23,-2.95 0.68,-4.2 0.46,-1.25 1.11,-2.31 1.95,-3.17 0.84,-0.86 1.85,-1.53 3.04,-1.99 1.18,-0.47 2.51,-0.7 3.97,-0.7 1.06,0 2.03,0.12 2.9,0.35 0.88,0.23 1.63,0.54 2.24,0.91 0.62,0.38 1.1,0.8 1.43,1.26 0.34,0.47 0.5,0.93 0.5,1.4 0,0.53 -0.18,1 -0.55,1.41 -0.36,0.41 -0.8,0.62 -1.31,0.62 -0.33,0 -0.67,-0.1 -1.01,-0.29 -0.34,-0.19 -0.73,-0.39 -1.15,-0.61 -0.42,-0.22 -0.89,-0.43 -1.41,-0.62 -0.52,-0.18 -1.11,-0.28 -1.78,-0.28 -1.46,0 -2.63,0.51 -3.5,1.53 -0.88,1.02 -1.31,2.45 -1.31,4.28 0,1.89 0.44,3.36 1.33,4.44 0.88,1.07 2.04,1.61 3.48,1.61 1.13,0 2.06,-0.34 2.78,-1.01 0.72,-0.68 1.08,-1.62 1.08,-2.81l-1.53 0c-1.02,0 -1.78,-0.16 -2.29,-0.47 -0.51,-0.31 -0.77,-0.81 -0.77,-1.52 0,-0.73 0.26,-1.26 0.77,-1.58 0.51,-0.32 1.27,-0.48 2.29,-0.48l3.22 0c1.06,0 1.84,0.22 2.33,0.66z"/>
   <path class="fil1" d="M210.26 86.12c-1.48,0 -2.23,-1.05 -2.23,-3.16l0 -13.78c0,-2.13 0.75,-3.19 2.23,-3.19 1.48,0 2.23,1.06 2.23,3.19l0 13.78c0,2.11 -0.75,3.16 -2.23,3.16z"/>
  </g>
 </g>
</svg>
