<?xml version="1.0" encoding="UTF-8"?>
<!DOCTYPE svg PUBLIC "-//W3C//DTD SVG 1.1//EN" "http://www.w3.org/Graphics/SVG/1.1/DTD/svg11.dtd">
<!-- Creator: CorelDRAW 2021 (64-Bit) -->
<svg xmlns="http://www.w3.org/2000/svg" xml:space="preserve" width="360px" height="152px" version="1.1" style="shape-rendering:geometricPrecision; text-rendering:geometricPrecision; image-rendering:optimizeQuality; fill-rule:evenodd; clip-rule:evenodd"
viewBox="0 0 360 152"
 xmlns:xlink="http://www.w3.org/1999/xlink"
 xmlns:xodm="http://www.corel.com/coreldraw/odm/2003">
 <defs>
  <style type="text/css">
   <![CDATA[
    .fil0 {fill:#FEFEFE}
    .fil1 {fill:#FEFEFE;fill-rule:nonzero}
   ]]>
  </style>
 </defs>
 <g id="Слой_x0020_1">
  <metadata id="CorelCorpID_0Corel-Layer"/>
  <g>
   <path class="fil0" d="M0 0l360 0 0 152 -360 0 0 -152zm358.96 1.04l-357.92 0 0 149.91 357.92 0 0 -149.91z"/>
  </g>
  <g>
   <polygon class="fil1" points="72.36,82.18 69.43,82.18 69.43,72.33 65.91,72.33 65.91,69.81 75.87,69.81 75.87,72.33 72.36,72.33 "/>
   <path class="fil1" d="M90.41 72.15c-2.13,0 -3.54,1.65 -3.54,3.81 0,2.19 1.43,3.86 3.54,3.86 2.13,0 3.58,-1.67 3.58,-3.86 0,-2.16 -1.43,-3.81 -3.58,-3.81zm0 10.36c-3.82,0 -6.69,-2.67 -6.69,-6.55 0,-3.91 2.87,-6.48 6.69,-6.48 3.85,0 6.73,2.57 6.73,6.48 0,3.88 -2.88,6.55 -6.73,6.55z"/>
   <path class="fil1" d="M120.35 79.82l2.06 0c1.05,0 2.08,-0.4 2.08,-1.52 0,-1.06 -0.89,-1.48 -2.09,-1.48l-2.05 0 0 3zm0 -4.96l2.05 0c0.94,0 1.71,-0.45 1.71,-1.4 0,-0.9 -0.75,-1.31 -1.91,-1.31l-1.85 0 0 2.71zm-2.79 -5.05l5.01 0c1.94,0 4.35,0.6 4.35,3.22 0,1.34 -0.8,2.25 -1.99,2.64l0 0.05c1.4,0.22 2.53,1.27 2.53,2.9 0,2.92 -2.76,3.56 -5.45,3.56l-4.45 0 0 -12.37z"/>
   <polygon class="fil1" points="136.55,82.18 136.55,69.81 145.36,69.81 145.36,72.31 139.37,72.31 139.37,74.77 144.43,74.77 144.43,77.06 139.37,77.06 139.37,79.68 145.57,79.68 145.57,82.18 "/>
   <path class="fil1" d="M168.75 79.82l2.06 0c1.05,0 2.08,-0.4 2.08,-1.52 0,-1.06 -0.89,-1.48 -2.1,-1.48l-2.04 0 0 3zm0 -4.96l2.04 0c0.94,0 1.71,-0.45 1.71,-1.4 0,-0.9 -0.75,-1.31 -1.9,-1.31l-1.85 0 0 2.71zm-2.8 -5.05l5.01 0c1.94,0 4.36,0.6 4.36,3.22 0,1.34 -0.81,2.25 -2,2.64l0 0.05c1.4,0.22 2.54,1.27 2.54,2.9 0,2.92 -2.76,3.56 -5.45,3.56l-4.46 0 0 -12.37z"/>
   <polygon class="fil1" points="187.9,79.63 192.72,79.63 192.72,82.18 184.95,82.18 184.95,69.81 187.9,69.81 "/>
   <path class="fil1" d="M207.3 72.15c-2.13,0 -3.55,1.65 -3.55,3.81 0,2.19 1.44,3.86 3.55,3.86 2.13,0 3.58,-1.67 3.58,-3.86 0,-2.16 -1.43,-3.81 -3.58,-3.81zm0 10.36c-3.83,0 -6.69,-2.67 -6.69,-6.55 0,-3.91 2.86,-6.48 6.69,-6.48 3.84,0 6.73,2.57 6.73,6.48 0,3.88 -2.89,6.55 -6.73,6.55z"/>
   <path class="fil1" d="M229.63 73.1c-0.73,-0.77 -1.76,-1.16 -2.51,-1.16 -1.1,0 -1.66,0.55 -1.66,1.14 0,1.85 6.11,1.47 6.11,5.36 0,2.54 -2.32,4.07 -4.78,4.07 -2.22,0 -4,-1.2 -4.72,-1.86l1.78 -1.98c0.74,0.79 1.92,1.36 2.97,1.36 1,0 1.82,-0.54 1.82,-1.31 0,-1.88 -6.12,-1.45 -6.12,-5.41 0,-2.43 2.2,-3.83 4.6,-3.83 1.5,0 3.21,0.61 4.3,1.75l-1.79 1.87z"/>
   <path class="fil1" d="M247.18 73.1c-0.73,-0.77 -1.76,-1.16 -2.51,-1.16 -1.1,0 -1.66,0.55 -1.66,1.14 0,1.85 6.11,1.47 6.11,5.36 0,2.54 -2.32,4.07 -4.79,4.07 -2.21,0 -4,-1.2 -4.71,-1.86l1.78 -1.98c0.73,0.79 1.92,1.36 2.97,1.36 1,0 1.82,-0.54 1.82,-1.31 0,-1.88 -6.12,-1.45 -6.12,-5.41 0,-2.43 2.2,-3.83 4.6,-3.83 1.5,0 3.21,0.61 4.29,1.75l-1.78 1.87z"/>
   <path class="fil1" d="M264.27 72.15c-2.13,0 -3.54,1.65 -3.54,3.81 0,2.19 1.43,3.86 3.54,3.86 2.14,0 3.59,-1.67 3.59,-3.86 0,-2.16 -1.44,-3.81 -3.59,-3.81zm0 10.36c-3.82,0 -6.69,-2.67 -6.69,-6.55 0,-3.91 2.87,-6.48 6.69,-6.48 3.85,0 6.73,2.57 6.73,6.48 0,3.88 -2.88,6.55 -6.73,6.55z"/>
   <polygon class="fil1" points="287.08,77.9 287.15,77.9 289.95,69.81 294.09,69.81 294.09,82.18 291.21,82.18 291.27,73.53 291.21,73.53 287.99,82.18 285.98,82.18 282.8,73.52 282.73,73.52 282.84,82.18 280.06,82.18 280.06,69.81 284.11,69.81 "/>
  </g>
 </g>
</svg>
