<?xml version="1.0" encoding="UTF-8"?>
<!DOCTYPE svg PUBLIC "-//W3C//DTD SVG 1.1//EN" "http://www.w3.org/Graphics/SVG/1.1/DTD/svg11.dtd">
<!-- Creator: CorelDRAW 2021 (64-Bit) -->
<svg xmlns="http://www.w3.org/2000/svg" xml:space="preserve" width="360px" height="152px" version="1.1" style="shape-rendering:geometricPrecision; text-rendering:geometricPrecision; image-rendering:optimizeQuality; fill-rule:evenodd; clip-rule:evenodd"
viewBox="0 0 360 152"
 xmlns:xlink="http://www.w3.org/1999/xlink"
 xmlns:xodm="http://www.corel.com/coreldraw/odm/2003">
 <defs>
  <style type="text/css">
   <![CDATA[
    .fil0 {fill:#FEFEFE}
   ]]>
  </style>
 </defs>
 <g id="Слой_x0020_1">
  <metadata id="CorelCorpID_0Corel-Layer"/>
  <g>
   <path class="fil0" d="M0 0l360 0 0 152 -360 0 0 -152zm358.96 1.04l-357.92 0 0 149.91 357.92 0 0 -149.91z"/>
  </g>
  <path class="fil0" d="M118.7 88.8l6.02 0.04c-0.13,-0.48 -0.45,-0.9 -0.57,-1.3 -0.49,-1.63 -0.13,-3.56 -0.08,-5.19 0.03,-1.09 -0.05,-6.98 0.18,-7.36 0.44,0.91 0.33,1.52 1.4,3.5 1.88,3.5 4.17,5.82 5.23,9.5 0.35,-0.22 0.92,-1.99 1.6,-3.29 1.61,-3.07 4.03,-6.1 5.14,-9.64 0.32,0.5 0.01,2.15 0.03,3.43 0.06,2.77 0.46,4.12 0.48,7.25 0.02,1.87 -0.32,1.83 -0.81,3.08l6.32 0.02c-0.49,-1.12 -1.4,-1.61 -1.56,-4.34 -0.19,-3.06 -1.4,-10.99 -0.52,-13.37 0.3,-0.78 0.95,-1.41 1.04,-1.84l-6.17 -0.01c-0.04,2.28 -1.23,3.69 -2.56,6.05 -0.51,0.91 -1.88,3.23 -2.23,4.25 -0.2,0.61 -0.33,1.03 -0.61,1.61 -0.22,-0.26 -0.81,-2.48 -1.11,-3.13l-3.12 -5.51c-0.67,-1.16 -1.03,-1.61 -1.01,-3.25l-6.15 -0.02c0.32,1.05 1.37,0.7 1.3,4.44 -0.03,1.92 -0.23,3.73 -0.3,5.55 -0.32,9.6 -1.31,7.42 -1.94,9.53z"/>
  <path class="fil0" d="M210.53 71.83c1.77,-0.46 4.02,0.13 5.19,1.32 1.14,1.16 1.93,2.68 2.05,4.56 0.22,3.65 -0.71,7.78 -4.66,8.61 -4.41,0.94 -6.93,-2.23 -7.29,-5.99 -0.38,-3.96 0.78,-7.46 4.71,-8.5zm11.36 8.36c0.94,-5.54 -2.61,-10.87 -8.89,-11.4 -6.22,-0.53 -10.96,3.27 -11.36,9.08 -0.87,12.52 11.81,13.59 16.87,9.21 2.52,-2.18 2.9,-4.04 3.38,-6.89z"/>
  <path class="fil0" d="M262.09 88.86c-0.21,-0.66 -1.01,-1.43 -1.45,-2.2 -1.07,-1.85 -3.88,-9.95 -4.67,-12.27 -1.59,-4.65 -0.65,-3.29 -0.17,-5.09l-7.22 -0.02c0.17,1.1 0.83,1.12 0.45,2.84l-2.55 7.48c-0.55,1.6 -1.16,3.46 -1.77,5 -1.19,3.04 -2.13,3.4 -2.46,4.23 1.68,0.08 4.23,0.17 5.82,-0.07 -0.58,-1.49 -0.25,-2.8 0.37,-4.13l7.11 0.02c0.73,1.34 0.91,2.72 0.4,4.21l6.14 0zm-10.06 -15.62c-0.3,0.63 -0.34,1.5 -0.51,2.26 -0.35,1.56 -1.98,5.41 -1.99,6.37l5.12 -0.02c-0.04,-0.83 -1.06,-3.45 -1.37,-4.32l-1.25 -4.29z"/>
  <path class="fil0" d="M183.37 88.83l6.51 0.01c-0.21,-0.48 -0.58,-0.81 -0.81,-1.33 -0.17,-0.37 -0.43,-1.36 -0.48,-1.79l-0.04 -9.08c0,-0.99 -0.25,-3.83 0.16,-4.44 0.78,-0.49 2.98,-0.13 3.74,0.2 0.99,0.42 1.71,1.27 1.8,2.54 0.25,3.62 -1.85,3.92 -4.9,3.97 0.47,1.32 3.3,5.8 4.34,7.66 0.56,1.01 0.82,1.8 1.25,2.79 0.75,-0.01 5.18,-0.75 5.55,-1.01 -0.23,-0.46 -0.87,-0.35 -1.92,-1.43 -0.82,-0.86 -3.99,-5.29 -3.84,-6.27 1.68,-0.82 3.01,-1.58 3.43,-3.9 0.44,-2.41 -0.21,-4.43 -1.6,-5.7 -1.32,-1.21 -3.4,-1.75 -5.58,-1.77 -2.5,-0.02 -5.07,-0.04 -7.57,0.01 0.1,0.6 0.65,0.93 0.95,1.77 0.65,1.84 0.4,5.64 0.4,7.89 0,2.8 0.4,6.83 -0.76,8.89 -0.27,0.47 -0.43,0.53 -0.63,0.99z"/>
  <path class="fil0" d="M97.91 69.29c0.4,0.8 0.99,1.5 1.19,2.45 0.75,3.67 -1.54,12.29 2.66,15.84 1.42,1.2 3.33,1.83 5.54,1.78 12.25,-0.27 5.7,-14.72 8.6,-19.06 0.28,-0.42 0.51,-0.62 0.63,-1l-6.55 0.02c0.28,0.7 0.71,0.76 1.03,1.92 0.53,1.98 0.32,7.18 0.32,9.56 0,3.23 -0.7,5.64 -4.18,5.57 -3.52,-0.08 -3.99,-2.47 -3.99,-5.72 0,-1.9 -0.23,-7.82 0.31,-9.39 0.29,-0.83 0.89,-1.56 1.02,-1.96l-6.58 -0.01z"/>
  <path class="fil0" d="M162.02 88.8l5.78 0.04c-0.62,-1.49 -0.2,-3.03 0.45,-4.24l7.06 0c0.73,1.12 0.97,2.8 0.41,4.2l6.09 0.05c-0.21,-0.65 -0.99,-1.45 -1.39,-2.11 -1.07,-1.77 -2.18,-5.32 -2.87,-7.32 -0.57,-1.65 -1.25,-3.41 -1.79,-4.99 -1.6,-4.67 -0.91,-2.77 -0.22,-5.12l-7.3 -0.02c0.75,1.87 1.25,1.17 -0.17,5.1 -0.61,1.67 -1.19,3.46 -1.74,5.05 -0.94,2.7 -1.52,4.75 -2.85,7.31 -0.36,0.71 -1.18,1.51 -1.46,2.05zm9.69 -15.55c-0.29,0.64 -0.33,1.5 -0.5,2.27 -0.36,1.56 -1.98,5.4 -1.99,6.37l5.12 -0.03c-0.05,-0.83 -1.07,-3.45 -1.38,-4.32l-1.25 -4.29z"/>
  <path class="fil0" d="M229.59 88.84l6.92 0.01c-0.46,-1.93 -1.05,-1.65 0.38,-5.45 0.58,-1.54 1.22,-3.38 1.77,-4.97 0.59,-1.7 1.16,-3.34 1.76,-5.04 1.3,-3.74 2.26,-3.6 2.52,-4.03l-5.87 -0.08c0.06,1.01 0.37,1.02 0.13,2.22 -0.38,1.92 -2.34,6.84 -2.99,9.41 -0.24,0.96 -0.64,3.27 -1.01,3.88 -0.18,-0.32 -0.79,-3.23 -0.99,-3.92 -0.59,-2.03 -2.96,-8.29 -3.12,-9.52 -0.16,-1.17 0.12,-1.22 0.35,-2.02l-6.47 -0.04c0.23,0.58 1.44,0.97 2.58,4.07 0.61,1.65 1.21,3.4 1.79,4.99 0.72,1.98 2.12,5.6 2.63,7.53 0.32,1.23 -0.1,1.88 -0.38,2.96z"/>
  <path class="fil0" d="M144.08 69.35c2.21,2.42 3.96,5.79 5.69,8.61 1.95,3.18 1.94,2.48 1.95,5.31 0,1.04 -0.06,2.3 -0.32,3.23 -0.45,1.67 -0.88,1.53 -1.27,2.34l6.99 -0.01c-0.26,-0.56 -0.48,-0.49 -0.81,-1.1 -0.82,-1.53 -0.92,-5.07 -0.75,-6.46 0.08,-0.63 5.21,-8.96 5.96,-10.05 0.24,-0.36 1.4,-1.66 1.5,-1.94l-5.55 0.06c-0.08,3.29 -1.99,4.76 -3.69,8.45 -0.47,-0.67 -0.73,-1.4 -1.07,-2.01 -0.37,-0.69 -0.73,-1.33 -1.12,-1.97 -0.95,-1.57 -1.52,-2.31 -1.64,-4.53l-5.87 0.07z"/>
  <path class="fil0" d="M111.76 62.82c-0.82,0.44 -1.18,1.16 -0.69,2.12 0.36,0.7 1.33,1.06 2.18,0.62 1.68,-0.86 0.49,-3.84 -1.49,-2.74z"/>
  <path class="fil0" d="M101.41 62.82c-0.81,0.44 -1.18,1.16 -0.69,2.12 0.36,0.7 1.33,1.06 2.18,0.62 1.68,-0.86 0.5,-3.84 -1.49,-2.74z"/>
 </g>
</svg>
