<?xml version="1.0" encoding="UTF-8"?>
<!DOCTYPE svg PUBLIC "-//W3C//DTD SVG 1.1//EN" "http://www.w3.org/Graphics/SVG/1.1/DTD/svg11.dtd">
<!-- Creator: CorelDRAW 2021 (64-Bit) -->
<svg xmlns="http://www.w3.org/2000/svg" xml:space="preserve" width="360px" height="152px" version="1.1" style="shape-rendering:geometricPrecision; text-rendering:geometricPrecision; image-rendering:optimizeQuality; fill-rule:evenodd; clip-rule:evenodd"
viewBox="0 0 360 152"
 xmlns:xlink="http://www.w3.org/1999/xlink"
 xmlns:xodm="http://www.corel.com/coreldraw/odm/2003">
 <defs>
  <style type="text/css">
   <![CDATA[
    .fil0 {fill:#FEFEFE}
    .fil1 {fill:#FEFEFE;fill-rule:nonzero}
   ]]>
  </style>
 </defs>
 <g id="Слой_x0020_1">
  <metadata id="CorelCorpID_0Corel-Layer"/>
  <g>
   <path class="fil0" d="M0 0l360 0 0 152 -360 0 0 -152zm358.96 1.04l-357.92 0 0 149.91 357.92 0 0 -149.91z"/>
  </g>
  <path class="fil1" d="M125.3 102.04c-0.09,0 -0.15,-0.04 -0.19,-0.12 -0.05,-0.11 -0.1,-0.26 -0.17,-0.43 -0.06,-0.18 -0.11,-0.34 -0.16,-0.46l-2.39 -6.14c-0.08,-0.23 -0.2,-0.42 -0.34,-0.57 -0.14,-0.16 -0.33,-0.27 -0.56,-0.33 -0.12,-0.05 -0.21,-0.09 -0.28,-0.12 -0.07,-0.04 -0.1,-0.1 -0.1,-0.16 0,-0.06 0.03,-0.1 0.09,-0.12 0.06,-0.03 0.15,-0.04 0.24,-0.04 0.15,0 0.32,0.01 0.49,0.01 0.19,0.01 0.39,0.02 0.59,0.03 0.2,0 0.4,0 0.59,0 0.17,0 0.35,0 0.53,-0.01 0.2,-0.01 0.38,-0.02 0.56,-0.02 0.18,0 0.33,-0.01 0.45,-0.01 0.09,0 0.17,0.01 0.24,0.04 0.08,0.03 0.11,0.06 0.11,0.12 0,0.06 -0.03,0.12 -0.11,0.17 -0.07,0.05 -0.16,0.08 -0.28,0.09 -0.25,0.04 -0.44,0.09 -0.59,0.17 -0.14,0.07 -0.21,0.19 -0.21,0.33 0,0.11 0.01,0.21 0.04,0.31 0.03,0.09 0.05,0.16 0.07,0.22l1.77 4.75c0.02,0.04 0.04,0.07 0.07,0.08 0.02,0.01 0.05,-0.02 0.07,-0.09l1.64 -4.34c0.17,-0.44 0.19,-0.78 0.06,-1.01 -0.13,-0.23 -0.35,-0.37 -0.65,-0.4 -0.12,-0.02 -0.22,-0.05 -0.3,-0.09 -0.07,-0.06 -0.11,-0.11 -0.11,-0.18 0,-0.05 0.03,-0.09 0.1,-0.12 0.08,-0.02 0.17,-0.04 0.27,-0.04 0.13,0 0.26,0.01 0.39,0.02 0.13,0 0.26,0 0.4,0.01 0.13,0 0.29,0 0.46,0 0.24,0 0.49,-0.01 0.75,-0.03 0.26,-0.01 0.48,-0.02 0.67,-0.02 0.11,0 0.2,0.01 0.27,0.04 0.08,0.01 0.11,0.06 0.11,0.13 0,0.06 -0.03,0.1 -0.11,0.15 -0.07,0.03 -0.16,0.07 -0.28,0.1 -0.3,0.07 -0.55,0.21 -0.75,0.42 -0.2,0.2 -0.35,0.45 -0.46,0.73l-2.23 5.39c-0.06,0.14 -0.12,0.29 -0.19,0.46 -0.07,0.17 -0.14,0.34 -0.2,0.51 -0.06,0.16 -0.13,0.31 -0.2,0.45 -0.01,0.04 -0.04,0.07 -0.07,0.09 -0.03,0.02 -0.06,0.03 -0.1,0.03z"/>
  <path class="fil1" d="M130.69 101.92c-0.08,0 -0.14,-0.02 -0.19,-0.04 -0.05,-0.02 -0.08,-0.05 -0.08,-0.1 0,-0.05 0.03,-0.09 0.08,-0.12 0.05,-0.03 0.12,-0.07 0.21,-0.1 0.17,-0.05 0.32,-0.12 0.47,-0.23 0.13,-0.1 0.25,-0.25 0.34,-0.47 0.17,-0.38 0.33,-0.75 0.48,-1.1 0.14,-0.36 0.28,-0.71 0.42,-1.05 0.13,-0.35 0.27,-0.7 0.41,-1.06 0.14,-0.37 0.28,-0.76 0.43,-1.18 0.05,-0.15 0.09,-0.27 0.12,-0.36 0.03,-0.1 0.04,-0.19 0.05,-0.27 0.08,-0.02 0.16,-0.04 0.23,-0.05 0.07,-0.03 0.14,-0.07 0.23,-0.11 0.07,-0.04 0.13,-0.09 0.17,-0.16 0.04,-0.08 0.08,-0.13 0.1,-0.17 0.02,0 0.03,0 0.04,0 0.02,-0.01 0.04,0 0.05,0.02 0.02,0.03 0.03,0.07 0.04,0.11 0.01,0.04 0.02,0.08 0.04,0.12 0.14,0.47 0.29,0.94 0.44,1.43 0.16,0.47 0.32,0.94 0.47,1.4 0.16,0.46 0.3,0.88 0.43,1.28 0.14,0.39 0.25,0.73 0.35,1.02 0.07,0.21 0.15,0.37 0.24,0.49 0.1,0.11 0.2,0.19 0.31,0.25 0.11,0.05 0.23,0.09 0.35,0.11 0.1,0.02 0.17,0.05 0.21,0.09 0.06,0.03 0.08,0.08 0.08,0.13 0,0.04 -0.02,0.06 -0.08,0.08 -0.04,0.02 -0.1,0.03 -0.17,0.03 -0.1,0 -0.23,-0.01 -0.4,-0.02 -0.16,-0.01 -0.34,-0.02 -0.52,-0.02 -0.17,-0.01 -0.33,-0.01 -0.48,-0.01 -0.12,0 -0.26,0 -0.4,0 -0.15,0 -0.29,0 -0.42,0.01 -0.13,0 -0.24,0.01 -0.34,0.01 -0.07,0 -0.14,-0.01 -0.19,-0.03 -0.04,-0.03 -0.07,-0.06 -0.07,-0.1 0,-0.05 0.03,-0.09 0.09,-0.12 0.06,-0.03 0.13,-0.06 0.2,-0.07 0.22,-0.04 0.38,-0.09 0.47,-0.17 0.1,-0.08 0.14,-0.18 0.12,-0.31 0,-0.1 -0.02,-0.24 -0.06,-0.4 -0.04,-0.16 -0.09,-0.33 -0.14,-0.51 -0.05,-0.19 -0.1,-0.36 -0.14,-0.51 -0.01,-0.05 -0.03,-0.08 -0.07,-0.09 -0.03,-0.02 -0.08,-0.02 -0.16,-0.02l-1.77 0c-0.03,0 -0.06,0.01 -0.08,0.03 -0.03,0.02 -0.05,0.07 -0.08,0.13 -0.02,0.08 -0.05,0.17 -0.09,0.3 -0.04,0.11 -0.08,0.23 -0.12,0.37 -0.04,0.12 -0.07,0.25 -0.1,0.36 -0.03,0.11 -0.04,0.19 -0.05,0.24 -0.02,0.16 0.02,0.29 0.11,0.38 0.11,0.09 0.25,0.16 0.45,0.21 0.19,0.05 0.29,0.11 0.29,0.19 0,0.05 -0.03,0.08 -0.08,0.1 -0.04,0.01 -0.1,0.02 -0.18,0.02 -0.12,0 -0.26,-0.01 -0.42,-0.01 -0.16,-0.01 -0.33,-0.01 -0.51,-0.01 -0.2,0 -0.4,0.01 -0.59,0.03 -0.19,0.02 -0.37,0.03 -0.54,0.03zm2.26 -2.77l1.4 0c0.08,0 0.13,-0.01 0.13,-0.04 0,-0.02 0,-0.04 -0.01,-0.05 0,-0.01 0,-0.03 -0.01,-0.06l-0.71 -2.26c-0.03,-0.1 -0.06,-0.15 -0.07,-0.15 -0.02,0 -0.04,0.04 -0.07,0.14l-0.83 2.27c-0.01,0.04 -0.02,0.07 -0.02,0.08 0,0.03 0.02,0.05 0.05,0.07 0.04,0 0.08,0 0.14,0z"/>
  <path class="fil1" d="M139.63 102.01c-0.27,0 -0.52,-0.04 -0.76,-0.11 -0.23,-0.07 -0.45,-0.18 -0.65,-0.33 -0.02,-0.02 -0.05,-0.05 -0.08,-0.08 -0.03,-0.04 -0.05,-0.08 -0.06,-0.12 -0.04,-0.15 -0.08,-0.33 -0.1,-0.54 -0.01,-0.23 -0.02,-0.42 -0.02,-0.6 0,-0.04 0.02,-0.07 0.05,-0.09 0.04,-0.03 0.09,-0.04 0.14,-0.04 0.04,0 0.08,0.01 0.1,0.03 0.03,0.01 0.06,0.04 0.07,0.09 0.13,0.48 0.33,0.84 0.59,1.08 0.26,0.24 0.55,0.36 0.85,0.36 0.22,0 0.4,-0.05 0.56,-0.15 0.15,-0.09 0.28,-0.22 0.37,-0.38 0.09,-0.16 0.13,-0.35 0.13,-0.55 0,-0.24 -0.04,-0.44 -0.12,-0.59 -0.09,-0.16 -0.21,-0.29 -0.37,-0.41 -0.16,-0.13 -0.35,-0.26 -0.59,-0.4 -0.25,-0.15 -0.5,-0.31 -0.75,-0.47 -0.24,-0.17 -0.45,-0.36 -0.6,-0.59 -0.16,-0.22 -0.24,-0.49 -0.24,-0.82 0,-0.34 0.08,-0.64 0.24,-0.91 0.16,-0.26 0.4,-0.47 0.71,-0.63 0.32,-0.15 0.69,-0.23 1.13,-0.23 0.23,0 0.44,0.02 0.62,0.07 0.19,0.05 0.34,0.1 0.46,0.15 0.05,0.01 0.1,0.05 0.13,0.09 0.04,0.05 0.07,0.1 0.09,0.16 0.03,0.14 0.07,0.29 0.1,0.47 0.04,0.18 0.06,0.36 0.06,0.55 0,0.07 -0.05,0.1 -0.15,0.1 -0.06,0 -0.11,-0.01 -0.16,-0.04 -0.05,-0.02 -0.09,-0.05 -0.1,-0.09 -0.13,-0.36 -0.29,-0.63 -0.48,-0.81 -0.18,-0.19 -0.42,-0.28 -0.7,-0.28 -0.19,0 -0.37,0.03 -0.53,0.1 -0.15,0.07 -0.28,0.18 -0.37,0.33 -0.09,0.14 -0.14,0.34 -0.14,0.58 0,0.17 0.06,0.33 0.18,0.49 0.12,0.14 0.28,0.29 0.47,0.43 0.21,0.13 0.43,0.27 0.68,0.42 0.26,0.16 0.5,0.32 0.71,0.49 0.21,0.18 0.37,0.37 0.5,0.6 0.12,0.21 0.18,0.47 0.18,0.78 0,0.4 -0.09,0.74 -0.27,1.03 -0.18,0.28 -0.43,0.49 -0.75,0.64 -0.32,0.15 -0.7,0.22 -1.13,0.22z"/>
  <path class="fil1" d="M143.06 101.91c-0.07,0 -0.13,-0.01 -0.18,-0.03 -0.04,-0.02 -0.07,-0.04 -0.07,-0.09 0,-0.08 0.1,-0.14 0.28,-0.18 0.24,-0.05 0.42,-0.12 0.54,-0.21 0.11,-0.1 0.17,-0.25 0.17,-0.47l0 -4.31c0,-0.22 -0.05,-0.37 -0.14,-0.46 -0.08,-0.1 -0.25,-0.17 -0.49,-0.22 -0.19,-0.04 -0.28,-0.11 -0.28,-0.19 0,-0.05 0.02,-0.08 0.07,-0.1 0.04,-0.02 0.1,-0.03 0.17,-0.03 0.16,0 0.31,0.01 0.44,0.01 0.13,0.01 0.26,0.01 0.38,0.02 0.12,0.01 0.25,0.01 0.39,0.01 0.14,0 0.26,0 0.37,0 0.13,-0.01 0.25,-0.01 0.37,-0.02 0.12,-0.01 0.27,-0.01 0.43,-0.01 0.07,0 0.14,0.01 0.18,0.03 0.04,0.01 0.07,0.04 0.07,0.09 0,0.05 -0.03,0.09 -0.08,0.12 -0.05,0.03 -0.11,0.05 -0.2,0.07 -0.25,0.05 -0.43,0.13 -0.53,0.22 -0.09,0.09 -0.14,0.24 -0.14,0.46l0 4.31c0,0.21 0.06,0.36 0.18,0.46 0.12,0.1 0.3,0.17 0.54,0.22 0.09,0.02 0.16,0.04 0.21,0.07 0.04,0.02 0.06,0.06 0.06,0.11 0,0.04 -0.02,0.07 -0.06,0.09 -0.04,0.02 -0.1,0.03 -0.18,0.03 -0.15,0 -0.3,-0.01 -0.43,-0.02 -0.14,-0.01 -0.27,-0.02 -0.4,-0.02 -0.12,-0.01 -0.25,-0.01 -0.39,-0.01 -0.15,0 -0.29,0 -0.43,0.01 -0.13,0 -0.26,0.01 -0.4,0.02 -0.14,0.01 -0.29,0.02 -0.45,0.02z"/>
  <path class="fil1" d="M146.92 101.92c-0.07,0 -0.13,-0.02 -0.18,-0.04 -0.04,-0.03 -0.06,-0.06 -0.06,-0.09 0,-0.05 0.02,-0.09 0.08,-0.11 0.05,-0.04 0.09,-0.05 0.12,-0.06 0.24,-0.06 0.42,-0.13 0.53,-0.22 0.13,-0.09 0.19,-0.24 0.19,-0.45l0 -4.4c0,-0.16 -0.02,-0.27 -0.05,-0.34 -0.03,-0.07 -0.1,-0.13 -0.19,-0.17 -0.08,-0.04 -0.2,-0.07 -0.36,-0.1 -0.18,-0.04 -0.28,-0.11 -0.28,-0.19 0,-0.05 0.03,-0.08 0.07,-0.1 0.05,-0.02 0.11,-0.03 0.18,-0.03 0.16,0 0.31,0.01 0.43,0.01 0.13,0.01 0.25,0.01 0.37,0.02 0.11,0.01 0.24,0.01 0.38,0.01 0.15,0 0.29,0 0.42,0 0.13,-0.01 0.27,-0.01 0.41,-0.02 0.14,-0.01 0.29,-0.01 0.45,-0.01 0.08,0 0.13,0.01 0.17,0.03 0.05,0.01 0.07,0.04 0.07,0.09 0,0.05 -0.02,0.09 -0.07,0.12 -0.04,0.03 -0.11,0.05 -0.21,0.07 -0.24,0.05 -0.43,0.12 -0.57,0.19 -0.14,0.06 -0.21,0.19 -0.21,0.37l0 4.42c0,0.2 0.04,0.34 0.12,0.43 0.09,0.09 0.27,0.13 0.54,0.13l1.1 0c0.17,0 0.31,-0.03 0.43,-0.08 0.13,-0.05 0.23,-0.11 0.3,-0.17 0.12,-0.11 0.21,-0.21 0.28,-0.31 0.07,-0.1 0.14,-0.23 0.22,-0.4 0.03,-0.07 0.06,-0.14 0.1,-0.2 0.04,-0.06 0.08,-0.1 0.13,-0.1 0.04,0 0.07,0.03 0.09,0.07 0.02,0.04 0.03,0.08 0.03,0.12 0,0.01 0,0.03 -0.01,0.04 -0.01,0.02 -0.01,0.04 -0.01,0.06 -0.04,0.17 -0.08,0.33 -0.12,0.46 -0.04,0.13 -0.07,0.26 -0.1,0.38 -0.02,0.12 -0.03,0.25 -0.05,0.39 0,0.05 -0.01,0.09 -0.03,0.13 -0.02,0.03 -0.06,0.05 -0.11,0.05 -0.25,0 -0.51,-0.01 -0.79,-0.01 -0.28,-0.01 -0.57,-0.02 -0.85,-0.02 -0.29,0 -0.57,-0.01 -0.85,-0.01 -0.28,-0.01 -0.54,-0.01 -0.8,-0.01 -0.15,0 -0.32,0 -0.51,0.01 -0.18,0 -0.36,0.01 -0.52,0.02 -0.15,0.01 -0.24,0.02 -0.28,0.02z"/>
  <path class="fil1" d="M152.92 101.91c-0.07,0 -0.13,-0.01 -0.18,-0.03 -0.04,-0.02 -0.06,-0.04 -0.06,-0.09 0,-0.08 0.09,-0.14 0.27,-0.18 0.24,-0.05 0.42,-0.12 0.54,-0.21 0.11,-0.1 0.17,-0.25 0.17,-0.47l0 -4.31c0,-0.22 -0.05,-0.37 -0.13,-0.46 -0.09,-0.1 -0.26,-0.17 -0.5,-0.22 -0.19,-0.04 -0.28,-0.11 -0.28,-0.19 0,-0.05 0.02,-0.08 0.07,-0.1 0.04,-0.02 0.1,-0.03 0.17,-0.03 0.17,0 0.31,0.01 0.44,0.01 0.13,0.01 0.26,0.01 0.38,0.02 0.12,0.01 0.25,0.01 0.39,0.01 0.14,0 0.26,0 0.38,0 0.12,-0.01 0.24,-0.01 0.36,-0.02 0.13,-0.01 0.27,-0.01 0.43,-0.01 0.07,0 0.14,0.01 0.18,0.03 0.04,0.01 0.07,0.04 0.07,0.09 0,0.05 -0.03,0.09 -0.08,0.12 -0.04,0.03 -0.11,0.05 -0.2,0.07 -0.25,0.05 -0.42,0.13 -0.52,0.22 -0.1,0.09 -0.15,0.24 -0.15,0.46l0 4.31c0,0.21 0.06,0.36 0.18,0.46 0.12,0.1 0.3,0.17 0.54,0.22 0.09,0.02 0.16,0.04 0.21,0.07 0.04,0.02 0.07,0.06 0.07,0.11 0,0.04 -0.03,0.07 -0.07,0.09 -0.04,0.02 -0.1,0.03 -0.17,0.03 -0.16,0 -0.31,-0.01 -0.44,-0.02 -0.14,-0.01 -0.27,-0.02 -0.4,-0.02 -0.12,-0.01 -0.25,-0.01 -0.39,-0.01 -0.15,0 -0.29,0 -0.43,0.01 -0.12,0 -0.26,0.01 -0.4,0.02 -0.14,0.01 -0.29,0.02 -0.45,0.02z"/>
  <path class="fil1" d="M158.3 102.01c-0.27,0 -0.52,-0.04 -0.76,-0.11 -0.23,-0.07 -0.45,-0.18 -0.65,-0.33 -0.02,-0.02 -0.05,-0.05 -0.08,-0.08 -0.03,-0.04 -0.05,-0.08 -0.06,-0.12 -0.04,-0.15 -0.08,-0.33 -0.09,-0.54 -0.02,-0.23 -0.03,-0.42 -0.03,-0.6 0,-0.04 0.02,-0.07 0.05,-0.09 0.04,-0.03 0.09,-0.04 0.14,-0.04 0.04,0 0.08,0.01 0.1,0.03 0.03,0.01 0.06,0.04 0.07,0.09 0.13,0.48 0.33,0.84 0.59,1.08 0.26,0.24 0.55,0.36 0.85,0.36 0.22,0 0.4,-0.05 0.55,-0.15 0.16,-0.09 0.29,-0.22 0.38,-0.38 0.09,-0.16 0.13,-0.35 0.13,-0.55 0,-0.24 -0.04,-0.44 -0.12,-0.59 -0.09,-0.16 -0.21,-0.29 -0.37,-0.41 -0.15,-0.13 -0.35,-0.26 -0.59,-0.4 -0.25,-0.15 -0.5,-0.31 -0.75,-0.47 -0.24,-0.17 -0.44,-0.36 -0.6,-0.59 -0.16,-0.22 -0.24,-0.49 -0.24,-0.82 0,-0.34 0.08,-0.64 0.24,-0.91 0.16,-0.26 0.4,-0.47 0.71,-0.63 0.31,-0.15 0.69,-0.23 1.13,-0.23 0.23,0 0.43,0.02 0.62,0.07 0.19,0.05 0.34,0.1 0.46,0.15 0.06,0.01 0.1,0.05 0.13,0.09 0.04,0.05 0.07,0.1 0.09,0.16 0.03,0.14 0.06,0.29 0.1,0.47 0.04,0.18 0.06,0.36 0.06,0.55 0,0.07 -0.05,0.1 -0.15,0.1 -0.06,0 -0.11,-0.01 -0.17,-0.04 -0.05,-0.02 -0.08,-0.05 -0.09,-0.09 -0.13,-0.36 -0.29,-0.63 -0.48,-0.81 -0.18,-0.19 -0.42,-0.28 -0.7,-0.28 -0.2,0 -0.37,0.03 -0.53,0.1 -0.15,0.07 -0.28,0.18 -0.37,0.33 -0.09,0.14 -0.13,0.34 -0.13,0.58 0,0.17 0.05,0.33 0.17,0.49 0.12,0.14 0.28,0.29 0.47,0.43 0.21,0.13 0.43,0.27 0.68,0.42 0.26,0.16 0.5,0.32 0.71,0.49 0.21,0.18 0.37,0.37 0.49,0.6 0.13,0.21 0.19,0.47 0.19,0.78 0,0.4 -0.09,0.74 -0.27,1.03 -0.18,0.28 -0.43,0.49 -0.76,0.64 -0.31,0.15 -0.69,0.22 -1.12,0.22z"/>
  <path class="fil1" d="M161.55 101.92c-0.08,0 -0.14,-0.02 -0.19,-0.04 -0.05,-0.02 -0.08,-0.05 -0.08,-0.1 0,-0.05 0.03,-0.09 0.08,-0.12 0.05,-0.03 0.12,-0.07 0.21,-0.1 0.17,-0.05 0.33,-0.12 0.47,-0.23 0.14,-0.1 0.25,-0.25 0.34,-0.47 0.17,-0.38 0.33,-0.75 0.48,-1.1 0.15,-0.36 0.28,-0.71 0.42,-1.05 0.13,-0.35 0.27,-0.7 0.41,-1.06 0.14,-0.37 0.28,-0.76 0.43,-1.18 0.06,-0.15 0.1,-0.27 0.12,-0.36 0.03,-0.1 0.05,-0.19 0.05,-0.27 0.08,-0.02 0.16,-0.04 0.23,-0.05 0.07,-0.03 0.15,-0.07 0.23,-0.11 0.08,-0.04 0.13,-0.09 0.17,-0.16 0.05,-0.08 0.08,-0.13 0.11,-0.17 0.01,0 0.02,0 0.03,0 0.02,-0.01 0.04,0 0.05,0.02 0.02,0.03 0.03,0.07 0.04,0.11 0.01,0.04 0.03,0.08 0.04,0.12 0.15,0.47 0.29,0.94 0.45,1.43 0.16,0.47 0.31,0.94 0.47,1.4 0.15,0.46 0.29,0.88 0.43,1.28 0.13,0.39 0.24,0.73 0.34,1.02 0.07,0.21 0.15,0.37 0.25,0.49 0.09,0.11 0.19,0.19 0.3,0.25 0.11,0.05 0.23,0.09 0.36,0.11 0.09,0.02 0.16,0.05 0.21,0.09 0.05,0.03 0.07,0.08 0.07,0.13 0,0.04 -0.02,0.06 -0.07,0.08 -0.05,0.02 -0.11,0.03 -0.17,0.03 -0.11,0 -0.24,-0.01 -0.41,-0.02 -0.16,-0.01 -0.33,-0.02 -0.51,-0.02 -0.18,-0.01 -0.34,-0.01 -0.49,-0.01 -0.12,0 -0.25,0 -0.4,0 -0.15,0 -0.29,0 -0.42,0.01 -0.13,0 -0.24,0.01 -0.33,0.01 -0.08,0 -0.15,-0.01 -0.2,-0.03 -0.04,-0.03 -0.06,-0.06 -0.06,-0.1 0,-0.05 0.03,-0.09 0.08,-0.12 0.06,-0.03 0.13,-0.06 0.2,-0.07 0.22,-0.04 0.38,-0.09 0.47,-0.17 0.1,-0.08 0.15,-0.18 0.13,-0.31 -0.01,-0.1 -0.03,-0.24 -0.07,-0.4 -0.04,-0.16 -0.08,-0.33 -0.13,-0.51 -0.05,-0.19 -0.1,-0.36 -0.15,-0.51 -0.01,-0.05 -0.03,-0.08 -0.06,-0.09 -0.04,-0.02 -0.09,-0.02 -0.17,-0.02l-1.76 0c-0.04,0 -0.06,0.01 -0.09,0.03 -0.02,0.02 -0.05,0.07 -0.08,0.13 -0.01,0.08 -0.05,0.17 -0.09,0.3 -0.04,0.11 -0.08,0.23 -0.12,0.37 -0.03,0.12 -0.07,0.25 -0.1,0.36 -0.03,0.11 -0.04,0.19 -0.05,0.24 -0.02,0.16 0.02,0.29 0.12,0.38 0.1,0.09 0.25,0.16 0.44,0.21 0.2,0.05 0.29,0.11 0.29,0.19 0,0.05 -0.02,0.08 -0.08,0.1 -0.04,0.01 -0.1,0.02 -0.18,0.02 -0.12,0 -0.26,-0.01 -0.42,-0.01 -0.16,-0.01 -0.33,-0.01 -0.5,-0.01 -0.21,0 -0.4,0.01 -0.6,0.03 -0.19,0.02 -0.37,0.03 -0.54,0.03zm2.26 -2.77l1.4 0c0.09,0 0.13,-0.01 0.13,-0.04 0,-0.02 0,-0.04 -0.01,-0.05 0,-0.01 0,-0.03 -0.01,-0.06l-0.71 -2.26c-0.03,-0.1 -0.05,-0.15 -0.07,-0.15 -0.01,0 -0.04,0.04 -0.07,0.14l-0.83 2.27c-0.01,0.04 -0.02,0.07 -0.02,0.08 0,0.03 0.02,0.05 0.05,0.07 0.04,0 0.09,0 0.14,0z"/>
  <path class="fil1" d="M172.68 102.04c-0.08,0 -0.14,-0.04 -0.19,-0.12 -0.04,-0.11 -0.1,-0.26 -0.16,-0.43 -0.06,-0.18 -0.12,-0.34 -0.17,-0.46l-2.38 -6.14c-0.08,-0.23 -0.2,-0.42 -0.34,-0.57 -0.15,-0.16 -0.33,-0.27 -0.56,-0.33 -0.12,-0.05 -0.22,-0.09 -0.28,-0.12 -0.07,-0.04 -0.11,-0.1 -0.11,-0.16 0,-0.06 0.04,-0.1 0.09,-0.12 0.07,-0.03 0.15,-0.04 0.25,-0.04 0.15,0 0.31,0.01 0.49,0.01 0.19,0.01 0.38,0.02 0.59,0.03 0.2,0 0.4,0 0.58,0 0.17,0 0.35,0 0.54,-0.01 0.19,-0.01 0.38,-0.02 0.56,-0.02 0.18,0 0.33,-0.01 0.44,-0.01 0.1,0 0.18,0.01 0.25,0.04 0.07,0.03 0.11,0.06 0.11,0.12 0,0.06 -0.04,0.12 -0.11,0.17 -0.07,0.05 -0.17,0.08 -0.28,0.09 -0.25,0.04 -0.45,0.09 -0.59,0.17 -0.14,0.07 -0.22,0.19 -0.22,0.33 0,0.11 0.02,0.21 0.04,0.31 0.04,0.09 0.06,0.16 0.08,0.22l1.77 4.75c0.02,0.04 0.04,0.07 0.06,0.08 0.03,0.01 0.05,-0.02 0.08,-0.09l1.64 -4.34c0.17,-0.44 0.19,-0.78 0.05,-1.01 -0.13,-0.23 -0.34,-0.37 -0.65,-0.4 -0.12,-0.02 -0.21,-0.05 -0.29,-0.09 -0.08,-0.06 -0.11,-0.11 -0.11,-0.18 0,-0.05 0.03,-0.09 0.1,-0.12 0.07,-0.02 0.16,-0.04 0.27,-0.04 0.13,0 0.26,0.01 0.39,0.02 0.13,0 0.26,0 0.39,0.01 0.14,0 0.29,0 0.46,0 0.25,0 0.5,-0.01 0.75,-0.03 0.27,-0.01 0.49,-0.02 0.68,-0.02 0.11,0 0.2,0.01 0.27,0.04 0.07,0.01 0.11,0.06 0.11,0.13 0,0.06 -0.04,0.1 -0.11,0.15 -0.07,0.03 -0.17,0.07 -0.28,0.1 -0.3,0.07 -0.55,0.21 -0.75,0.42 -0.2,0.2 -0.35,0.45 -0.46,0.73l-2.23 5.39c-0.06,0.14 -0.13,0.29 -0.19,0.46 -0.07,0.17 -0.14,0.34 -0.21,0.51 -0.06,0.16 -0.12,0.31 -0.19,0.45 -0.01,0.04 -0.04,0.07 -0.07,0.09 -0.03,0.02 -0.06,0.03 -0.11,0.03z"/>
  <path class="fil1" d="M187.57 102.01c-0.46,0 -0.9,-0.08 -1.33,-0.23 -0.42,-0.15 -0.79,-0.37 -1.11,-0.65 -0.33,-0.28 -0.59,-0.61 -0.78,-1.01 -0.18,-0.39 -0.27,-0.83 -0.27,-1.32 0,-0.45 0.09,-0.87 0.28,-1.27 0.19,-0.4 0.46,-0.75 0.8,-1.04 0.34,-0.3 0.74,-0.53 1.19,-0.7 0.45,-0.17 0.94,-0.25 1.47,-0.25 0.24,0 0.45,0.01 0.63,0.03 0.19,0.02 0.36,0.05 0.53,0.09 0.18,0.04 0.36,0.09 0.56,0.15 0.08,0.03 0.14,0.06 0.18,0.11 0.04,0.04 0.07,0.11 0.08,0.2 0.01,0.16 0.03,0.34 0.04,0.51 0.02,0.18 0.04,0.38 0.04,0.6 0,0.05 -0.02,0.1 -0.07,0.12 -0.05,0.03 -0.1,0.03 -0.16,0.02 -0.05,-0.02 -0.09,-0.06 -0.11,-0.13 -0.06,-0.21 -0.13,-0.4 -0.2,-0.57 -0.08,-0.16 -0.19,-0.3 -0.34,-0.41 -0.14,-0.11 -0.33,-0.2 -0.56,-0.27 -0.22,-0.06 -0.47,-0.09 -0.75,-0.09 -0.36,0 -0.69,0.07 -0.99,0.22 -0.3,0.15 -0.55,0.34 -0.76,0.6 -0.21,0.25 -0.38,0.53 -0.5,0.85 -0.11,0.32 -0.17,0.65 -0.17,0.99 0,0.4 0.05,0.79 0.16,1.16 0.12,0.37 0.28,0.69 0.49,0.98 0.22,0.29 0.48,0.52 0.78,0.69 0.31,0.17 0.65,0.25 1.03,0.25 0.46,0 0.84,-0.1 1.14,-0.31 0.3,-0.21 0.55,-0.51 0.75,-0.89 0.05,-0.09 0.12,-0.14 0.21,-0.14 0.09,0 0.13,0.05 0.13,0.15 0,0.07 -0.01,0.16 -0.04,0.27 -0.02,0.11 -0.05,0.23 -0.08,0.36 -0.04,0.13 -0.08,0.25 -0.12,0.36 -0.04,0.08 -0.07,0.14 -0.11,0.17 -0.03,0.03 -0.09,0.06 -0.18,0.09 -0.24,0.11 -0.52,0.18 -0.86,0.23 -0.32,0.06 -0.66,0.08 -1,0.08z"/>
  <path class="fil1" d="M191.16 101.92c-0.07,0 -0.14,-0.02 -0.19,-0.04 -0.05,-0.02 -0.08,-0.05 -0.08,-0.1 0,-0.05 0.03,-0.09 0.08,-0.12 0.05,-0.03 0.12,-0.07 0.21,-0.1 0.17,-0.05 0.33,-0.12 0.47,-0.23 0.14,-0.1 0.25,-0.25 0.34,-0.47 0.17,-0.38 0.33,-0.75 0.48,-1.1 0.15,-0.36 0.29,-0.71 0.42,-1.05 0.13,-0.35 0.27,-0.7 0.41,-1.06 0.14,-0.37 0.28,-0.76 0.43,-1.18 0.06,-0.15 0.1,-0.27 0.13,-0.36 0.02,-0.1 0.04,-0.19 0.04,-0.27 0.09,-0.02 0.16,-0.04 0.23,-0.05 0.07,-0.03 0.15,-0.07 0.23,-0.11 0.08,-0.04 0.14,-0.09 0.17,-0.16 0.05,-0.08 0.08,-0.13 0.11,-0.17 0.01,0 0.02,0 0.04,0 0.02,-0.01 0.03,0 0.04,0.02 0.02,0.03 0.04,0.07 0.04,0.11 0.01,0.04 0.03,0.08 0.04,0.12 0.15,0.47 0.3,0.94 0.45,1.43 0.16,0.47 0.32,0.94 0.47,1.4 0.15,0.46 0.29,0.88 0.43,1.28 0.13,0.39 0.25,0.73 0.34,1.02 0.07,0.21 0.16,0.37 0.25,0.49 0.1,0.11 0.2,0.19 0.3,0.25 0.11,0.05 0.23,0.09 0.36,0.11 0.09,0.02 0.16,0.05 0.21,0.09 0.05,0.03 0.07,0.08 0.07,0.13 0,0.04 -0.02,0.06 -0.07,0.08 -0.05,0.02 -0.1,0.03 -0.17,0.03 -0.1,0 -0.24,-0.01 -0.4,-0.02 -0.17,-0.01 -0.34,-0.02 -0.52,-0.02 -0.18,-0.01 -0.34,-0.01 -0.49,-0.01 -0.12,0 -0.25,0 -0.4,0 -0.14,0 -0.29,0 -0.42,0.01 -0.12,0 -0.24,0.01 -0.33,0.01 -0.08,0 -0.14,-0.01 -0.19,-0.03 -0.05,-0.03 -0.07,-0.06 -0.07,-0.1 0,-0.05 0.03,-0.09 0.08,-0.12 0.06,-0.03 0.13,-0.06 0.21,-0.07 0.21,-0.04 0.37,-0.09 0.46,-0.17 0.11,-0.08 0.15,-0.18 0.13,-0.31 -0.01,-0.1 -0.03,-0.24 -0.07,-0.4 -0.04,-0.16 -0.08,-0.33 -0.13,-0.51 -0.05,-0.19 -0.1,-0.36 -0.15,-0.51 -0.01,-0.05 -0.03,-0.08 -0.06,-0.09 -0.04,-0.02 -0.09,-0.02 -0.16,-0.02l-1.77 0c-0.03,0 -0.06,0.01 -0.09,0.03 -0.02,0.02 -0.05,0.07 -0.07,0.13 -0.02,0.08 -0.06,0.17 -0.1,0.3 -0.04,0.11 -0.08,0.23 -0.12,0.37 -0.03,0.12 -0.07,0.25 -0.1,0.36 -0.02,0.11 -0.04,0.19 -0.05,0.24 -0.02,0.16 0.02,0.29 0.12,0.38 0.1,0.09 0.25,0.16 0.45,0.21 0.19,0.05 0.28,0.11 0.28,0.19 0,0.05 -0.02,0.08 -0.07,0.1 -0.05,0.01 -0.11,0.02 -0.19,0.02 -0.12,0 -0.26,-0.01 -0.42,-0.01 -0.15,-0.01 -0.32,-0.01 -0.5,-0.01 -0.2,0 -0.4,0.01 -0.59,0.03 -0.2,0.02 -0.38,0.03 -0.55,0.03zm2.26 -2.77l1.4 0c0.09,0 0.13,-0.01 0.13,-0.04 0,-0.02 0,-0.04 -0.01,-0.05 0,-0.01 0,-0.03 -0.01,-0.06l-0.7 -2.26c-0.03,-0.1 -0.06,-0.15 -0.08,-0.15 -0.01,0 -0.03,0.04 -0.07,0.14l-0.83 2.27c-0.01,0.04 -0.02,0.07 -0.02,0.08 0,0.03 0.02,0.05 0.05,0.07 0.04,0 0.09,0 0.14,0z"/>
  <path class="fil1" d="M200.1 102.01c-0.27,0 -0.51,-0.04 -0.75,-0.11 -0.24,-0.07 -0.45,-0.18 -0.65,-0.33 -0.03,-0.02 -0.06,-0.05 -0.09,-0.08 -0.02,-0.04 -0.04,-0.08 -0.05,-0.12 -0.05,-0.15 -0.08,-0.33 -0.1,-0.54 -0.01,-0.23 -0.02,-0.42 -0.03,-0.6 0,-0.04 0.02,-0.07 0.06,-0.09 0.04,-0.03 0.08,-0.04 0.13,-0.04 0.05,0 0.08,0.01 0.11,0.03 0.03,0.01 0.05,0.04 0.06,0.09 0.14,0.48 0.34,0.84 0.6,1.08 0.26,0.24 0.54,0.36 0.85,0.36 0.21,0 0.4,-0.05 0.55,-0.15 0.16,-0.09 0.28,-0.22 0.37,-0.38 0.09,-0.16 0.14,-0.35 0.14,-0.55 0,-0.24 -0.04,-0.44 -0.13,-0.59 -0.08,-0.16 -0.2,-0.29 -0.36,-0.41 -0.16,-0.13 -0.36,-0.26 -0.59,-0.4 -0.26,-0.15 -0.51,-0.31 -0.76,-0.47 -0.24,-0.17 -0.44,-0.36 -0.6,-0.59 -0.16,-0.22 -0.24,-0.49 -0.24,-0.82 0,-0.34 0.08,-0.64 0.24,-0.91 0.17,-0.26 0.41,-0.47 0.72,-0.63 0.31,-0.15 0.69,-0.23 1.12,-0.23 0.23,0 0.44,0.02 0.62,0.07 0.2,0.05 0.35,0.1 0.46,0.15 0.06,0.01 0.11,0.05 0.14,0.09 0.04,0.05 0.06,0.1 0.08,0.16 0.03,0.14 0.07,0.29 0.11,0.47 0.04,0.18 0.06,0.36 0.06,0.55 0,0.07 -0.06,0.1 -0.16,0.1 -0.05,0 -0.11,-0.01 -0.16,-0.04 -0.05,-0.02 -0.08,-0.05 -0.1,-0.09 -0.12,-0.36 -0.28,-0.63 -0.47,-0.81 -0.19,-0.19 -0.42,-0.28 -0.71,-0.28 -0.19,0 -0.36,0.03 -0.52,0.1 -0.16,0.07 -0.28,0.18 -0.38,0.33 -0.08,0.14 -0.13,0.34 -0.13,0.58 0,0.17 0.06,0.33 0.17,0.49 0.12,0.14 0.28,0.29 0.48,0.43 0.2,0.13 0.43,0.27 0.68,0.42 0.26,0.16 0.49,0.32 0.7,0.49 0.21,0.18 0.38,0.37 0.5,0.6 0.12,0.21 0.18,0.47 0.18,0.78 0,0.4 -0.09,0.74 -0.27,1.03 -0.17,0.28 -0.43,0.49 -0.75,0.64 -0.32,0.15 -0.69,0.22 -1.13,0.22z"/>
  <path class="fil1" d="M203.65 101.91c-0.07,0 -0.13,-0.02 -0.17,-0.04 -0.05,-0.02 -0.07,-0.05 -0.07,-0.09 0,-0.08 0.09,-0.13 0.27,-0.17 0.23,-0.05 0.39,-0.12 0.47,-0.21 0.08,-0.1 0.11,-0.25 0.11,-0.47l0 -4.32c0,-0.22 -0.03,-0.37 -0.08,-0.46 -0.06,-0.09 -0.21,-0.16 -0.44,-0.21 -0.19,-0.04 -0.28,-0.1 -0.28,-0.19 0,-0.03 0.02,-0.06 0.06,-0.09 0.04,-0.03 0.1,-0.04 0.18,-0.04 0.17,0 0.3,0.01 0.42,0.01 0.11,0.01 0.22,0.01 0.32,0.02 0.11,0.01 0.23,0.01 0.36,0.01 0.13,0 0.25,0 0.36,0 0.11,-0.01 0.23,-0.01 0.35,-0.02 0.13,-0.01 0.27,-0.01 0.43,-0.01 0.17,0 0.25,0.04 0.25,0.12 0,0.06 -0.02,0.09 -0.07,0.12 -0.05,0.03 -0.12,0.05 -0.21,0.07 -0.24,0.05 -0.41,0.13 -0.5,0.24 -0.09,0.1 -0.14,0.24 -0.14,0.43l0 1.82c0,0.04 0.02,0.07 0.04,0.09 0.03,0.01 0.07,0.01 0.1,0.01l3.19 0c0.06,0 0.09,-0.04 0.09,-0.12l0 -1.8c0,-0.18 -0.05,-0.32 -0.14,-0.42 -0.08,-0.11 -0.25,-0.2 -0.5,-0.25 -0.09,-0.02 -0.16,-0.04 -0.21,-0.07 -0.04,-0.03 -0.06,-0.06 -0.06,-0.12 0,-0.08 0.08,-0.12 0.24,-0.12 0.15,0 0.3,0 0.44,0.01 0.13,0.01 0.26,0.01 0.38,0.02 0.13,0 0.26,0 0.39,0 0.12,0 0.22,0 0.31,-0.01 0.1,-0.01 0.2,-0.01 0.3,-0.02 0.11,0 0.25,-0.01 0.41,-0.01 0.08,0 0.14,0.01 0.18,0.04 0.05,0.03 0.07,0.06 0.07,0.09 0,0.09 -0.09,0.15 -0.28,0.19 -0.23,0.05 -0.38,0.12 -0.44,0.23 -0.06,0.09 -0.08,0.24 -0.08,0.43l0 4.32c0,0.22 0.03,0.38 0.09,0.48 0.07,0.09 0.22,0.16 0.45,0.21 0.18,0.04 0.27,0.09 0.27,0.17 0,0.04 -0.03,0.07 -0.08,0.09 -0.04,0.02 -0.1,0.04 -0.17,0.04 -0.15,0 -0.29,-0.01 -0.41,-0.02 -0.12,-0.01 -0.23,-0.02 -0.33,-0.02 -0.11,-0.01 -0.23,-0.01 -0.36,-0.01 -0.13,0 -0.26,0 -0.37,0.01 -0.11,0 -0.23,0.01 -0.35,0.02 -0.13,0.01 -0.27,0.02 -0.43,0.02 -0.08,0 -0.14,-0.02 -0.19,-0.04 -0.03,-0.02 -0.05,-0.05 -0.05,-0.09 0,-0.05 0.02,-0.08 0.05,-0.1 0.05,-0.03 0.12,-0.05 0.21,-0.07 0.22,-0.05 0.38,-0.12 0.49,-0.22 0.11,-0.1 0.17,-0.25 0.17,-0.45l0 -1.84c0,-0.04 -0.01,-0.07 -0.02,-0.1 0,-0.03 -0.02,-0.04 -0.06,-0.04l-3.26 0c-0.05,0 -0.08,0.03 -0.08,0.11l0 1.8c0,0.19 0.07,0.35 0.2,0.48 0.12,0.13 0.3,0.21 0.52,0.26 0.1,0.02 0.17,0.04 0.21,0.07 0.05,0.02 0.07,0.05 0.07,0.1 0,0.04 -0.02,0.07 -0.07,0.09 -0.04,0.02 -0.1,0.04 -0.18,0.04 -0.16,0 -0.31,-0.01 -0.44,-0.02 -0.13,-0.01 -0.26,-0.02 -0.39,-0.02 -0.12,-0.01 -0.25,-0.01 -0.39,-0.01 -0.13,0 -0.25,0 -0.37,0.01 -0.11,0 -0.23,0.01 -0.36,0.02 -0.12,0.01 -0.26,0.02 -0.42,0.02z"/>
  <path class="fil1" d="M211.75 101.91c-0.09,0 -0.15,-0.01 -0.21,-0.03 -0.04,-0.02 -0.06,-0.04 -0.06,-0.09 0,-0.04 0.02,-0.07 0.08,-0.09 0.05,-0.03 0.13,-0.06 0.22,-0.08 0.16,-0.04 0.28,-0.12 0.39,-0.24 0.1,-0.12 0.17,-0.29 0.21,-0.51 0.06,-0.47 0.12,-0.95 0.17,-1.44 0.05,-0.49 0.09,-0.95 0.13,-1.39 0.04,-0.45 0.06,-0.84 0.08,-1.19 0,-0.04 0,-0.09 0,-0.15 0,-0.06 0,-0.11 -0.01,-0.16 0,-0.07 -0.01,-0.13 -0.04,-0.19 -0.02,-0.07 -0.06,-0.12 -0.13,-0.16 -0.1,-0.09 -0.21,-0.15 -0.31,-0.18 -0.1,-0.03 -0.21,-0.07 -0.34,-0.09 -0.07,-0.01 -0.13,-0.04 -0.17,-0.07 -0.04,-0.04 -0.06,-0.08 -0.06,-0.12 0,-0.06 0.03,-0.1 0.08,-0.11 0.06,-0.01 0.13,-0.02 0.22,-0.02 0.08,0 0.19,0.01 0.32,0.01 0.13,0.01 0.28,0.02 0.44,0.03 0.16,0.01 0.31,0.01 0.45,0.02 0.14,0.01 0.26,0.01 0.36,0.01 0.04,0 0.09,0.02 0.12,0.05 0.04,0.02 0.07,0.06 0.08,0.11 0.03,0.12 0.07,0.23 0.1,0.36 0.03,0.12 0.08,0.24 0.12,0.37l1.47 3.66c0.02,0.03 0.05,0.06 0.09,0.06 0.04,0.01 0.07,-0.01 0.09,-0.05l1.7 -3.65c0.04,-0.15 0.07,-0.29 0.1,-0.42 0.03,-0.14 0.06,-0.26 0.08,-0.36 0.02,-0.08 0.06,-0.12 0.12,-0.12l0.36 0c0.22,0 0.45,-0.01 0.69,-0.04 0.24,-0.03 0.43,-0.05 0.55,-0.05 0.05,0 0.1,0.01 0.15,0.03 0.05,0.01 0.07,0.04 0.07,0.09 0,0.05 -0.02,0.09 -0.05,0.11 -0.04,0.03 -0.1,0.06 -0.19,0.09 -0.07,0.02 -0.14,0.05 -0.23,0.08 -0.08,0.04 -0.15,0.07 -0.22,0.1 -0.11,0.04 -0.18,0.1 -0.24,0.18 -0.06,0.07 -0.09,0.17 -0.08,0.29 0,0.45 0.01,0.86 0.03,1.24 0.02,0.37 0.03,0.72 0.05,1.06 0.02,0.34 0.04,0.67 0.06,1.01 0.03,0.34 0.05,0.7 0.07,1.08 0.01,0.19 0.08,0.33 0.2,0.44 0.12,0.1 0.29,0.17 0.52,0.22 0.09,0.02 0.15,0.04 0.2,0.07 0.05,0.02 0.07,0.06 0.07,0.11 0,0.04 -0.02,0.07 -0.06,0.09 -0.05,0.02 -0.11,0.03 -0.18,0.03 -0.16,0 -0.31,-0.01 -0.44,-0.02 -0.14,-0.01 -0.27,-0.02 -0.4,-0.02 -0.13,-0.01 -0.27,-0.01 -0.41,-0.01 -0.12,0 -0.24,0 -0.35,0.01 -0.11,0 -0.22,0.01 -0.34,0.02 -0.12,0.01 -0.27,0.02 -0.43,0.02 -0.07,0 -0.13,-0.01 -0.18,-0.03 -0.05,-0.02 -0.07,-0.04 -0.07,-0.09 0,-0.04 0.02,-0.08 0.07,-0.11 0.05,-0.04 0.12,-0.06 0.21,-0.07 0.2,-0.03 0.34,-0.1 0.42,-0.19 0.07,-0.1 0.11,-0.26 0.11,-0.47 -0.01,-0.44 -0.01,-0.85 -0.03,-1.22 -0.01,-0.38 -0.02,-0.75 -0.04,-1.11 -0.02,-0.37 -0.03,-0.76 -0.05,-1.16 0,-0.06 -0.02,-0.09 -0.05,-0.08 -0.03,0 -0.06,0.03 -0.09,0.08l-2.06 4.44c-0.02,0.05 -0.05,0.07 -0.11,0.06 -0.05,0 -0.08,-0.02 -0.09,-0.06 -0.27,-0.75 -0.56,-1.48 -0.87,-2.2 -0.3,-0.73 -0.61,-1.48 -0.95,-2.27 -0.01,-0.04 -0.04,-0.06 -0.08,-0.05 -0.03,0 -0.05,0.03 -0.06,0.08 -0.04,0.4 -0.08,0.79 -0.12,1.16 -0.03,0.38 -0.06,0.75 -0.08,1.12 -0.01,0.37 -0.02,0.75 -0.02,1.14 0,0.18 0.06,0.34 0.16,0.47 0.12,0.13 0.28,0.21 0.49,0.26 0.1,0.02 0.17,0.04 0.22,0.07 0.06,0.02 0.09,0.06 0.09,0.11 0,0.04 -0.03,0.07 -0.08,0.09 -0.05,0.02 -0.12,0.03 -0.19,0.03 -0.17,0 -0.3,-0.01 -0.39,-0.02 -0.09,-0.01 -0.17,-0.02 -0.24,-0.02 -0.07,0 -0.17,0 -0.3,0 -0.12,0 -0.23,0 -0.32,0.01 -0.09,0 -0.18,0.01 -0.28,0.02 -0.09,0 -0.19,0.01 -0.31,0.01z"/>
  <path class="fil1" d="M220.98 101.92c-0.07,0 -0.13,-0.01 -0.18,-0.03 -0.04,-0.02 -0.06,-0.05 -0.06,-0.09 0,-0.08 0.09,-0.14 0.27,-0.18 0.24,-0.05 0.41,-0.12 0.51,-0.21 0.11,-0.1 0.16,-0.26 0.16,-0.48l0 -4.31c0,-0.22 -0.04,-0.38 -0.13,-0.47 -0.09,-0.1 -0.25,-0.17 -0.49,-0.21 -0.1,-0.02 -0.17,-0.05 -0.21,-0.08 -0.05,-0.03 -0.07,-0.07 -0.07,-0.11 0,-0.04 0.02,-0.07 0.07,-0.09 0.04,-0.03 0.1,-0.04 0.18,-0.04 0.21,0 0.4,0.01 0.56,0.01 0.18,0.01 0.34,0.01 0.5,0.02 0.17,0.01 0.34,0.01 0.54,0.01 0.25,0 0.52,0 0.8,0 0.28,-0.01 0.54,-0.01 0.77,-0.02 0.22,0 0.4,0 0.54,-0.01 0.14,-0.01 0.23,-0.02 0.26,-0.02 0.03,0 0.07,0.01 0.11,0.03 0.04,0.01 0.07,0.04 0.08,0.09 0.03,0.19 0.06,0.39 0.09,0.58 0.04,0.18 0.06,0.35 0.06,0.49 0,0.06 -0.02,0.1 -0.05,0.13 -0.02,0.02 -0.05,0.03 -0.08,0.03 -0.04,0 -0.06,-0.01 -0.08,-0.03 -0.02,-0.02 -0.04,-0.05 -0.06,-0.09 -0.04,-0.12 -0.09,-0.24 -0.12,-0.34 -0.04,-0.11 -0.09,-0.19 -0.14,-0.24 -0.08,-0.09 -0.17,-0.15 -0.28,-0.2 -0.11,-0.04 -0.23,-0.07 -0.37,-0.07l-1.07 0c-0.08,0 -0.17,0.04 -0.26,0.1 -0.09,0.06 -0.14,0.14 -0.14,0.25l0 1.95c0,0.06 0.02,0.11 0.06,0.15 0.04,0.04 0.08,0.06 0.13,0.06l0.91 0c0.18,0 0.31,-0.05 0.38,-0.13 0.07,-0.08 0.13,-0.21 0.18,-0.38 0.04,-0.13 0.1,-0.19 0.18,-0.19 0.03,0 0.06,0.02 0.08,0.05 0.03,0.02 0.04,0.06 0.04,0.12 0,0.04 0,0.1 -0.01,0.19 0,0.09 -0.01,0.18 -0.02,0.28 -0.01,0.09 -0.01,0.17 -0.01,0.23 0,0.07 0,0.15 0,0.26 0.01,0.09 0.02,0.19 0.02,0.28 0.01,0.1 0.01,0.17 0.01,0.21 0.01,0.06 0,0.11 -0.02,0.15 -0.01,0.03 -0.03,0.04 -0.06,0.04 -0.11,0 -0.18,-0.09 -0.23,-0.27 -0.04,-0.17 -0.1,-0.29 -0.17,-0.38 -0.06,-0.08 -0.15,-0.12 -0.28,-0.12l-0.89 0c-0.1,0 -0.18,0.01 -0.23,0.05 -0.04,0.03 -0.07,0.1 -0.07,0.2l0 1.82c0,0.23 0.05,0.38 0.15,0.47 0.09,0.08 0.24,0.13 0.44,0.13l0.75 0c0.18,0 0.33,-0.02 0.47,-0.04 0.13,-0.03 0.25,-0.08 0.34,-0.15 0.11,-0.07 0.21,-0.17 0.29,-0.29 0.08,-0.12 0.17,-0.27 0.26,-0.45 0.02,-0.04 0.05,-0.07 0.07,-0.09 0.03,-0.02 0.06,-0.03 0.09,-0.03 0.04,0 0.06,0.02 0.07,0.05 0.02,0.03 0.03,0.06 0.03,0.11 0,0.07 -0.01,0.17 -0.05,0.31 -0.03,0.14 -0.07,0.29 -0.12,0.44 -0.04,0.15 -0.08,0.28 -0.12,0.39 -0.02,0.05 -0.04,0.08 -0.07,0.11 -0.02,0.03 -0.06,0.05 -0.1,0.05 -0.22,0 -0.46,-0.01 -0.71,-0.01 -0.25,-0.01 -0.51,-0.02 -0.77,-0.02 -0.25,-0.01 -0.52,-0.02 -0.78,-0.02 -0.26,-0.01 -0.52,-0.01 -0.77,-0.01 -0.14,0 -0.26,0 -0.38,0.01 -0.12,0.01 -0.25,0.02 -0.38,0.03 -0.12,0.01 -0.26,0.02 -0.42,0.02z"/>
  <path class="fil1" d="M232.46 102.07c-0.23,0 -0.44,-0.03 -0.62,-0.08 -0.18,-0.04 -0.34,-0.11 -0.49,-0.21 -0.14,-0.1 -0.27,-0.21 -0.38,-0.35 -0.15,-0.19 -0.29,-0.38 -0.43,-0.56 -0.14,-0.18 -0.28,-0.37 -0.42,-0.6 -0.15,-0.23 -0.32,-0.5 -0.52,-0.83 -0.08,-0.16 -0.2,-0.27 -0.35,-0.35 -0.11,-0.06 -0.22,-0.1 -0.34,-0.12 -0.11,-0.02 -0.19,-0.04 -0.26,-0.04 -0.05,0 -0.08,0.01 -0.11,0.05 -0.02,0.03 -0.03,0.08 -0.03,0.14l0 1.72c0,0.21 0.05,0.38 0.16,0.51 0.1,0.13 0.27,0.21 0.52,0.26 0.09,0.02 0.16,0.04 0.2,0.07 0.05,0.02 0.08,0.06 0.08,0.11 0,0.04 -0.03,0.07 -0.07,0.09 -0.04,0.02 -0.1,0.03 -0.18,0.03 -0.16,0 -0.3,-0.01 -0.43,-0.02 -0.12,-0.01 -0.24,-0.02 -0.35,-0.02 -0.11,-0.02 -0.23,-0.02 -0.35,-0.02 -0.15,0 -0.3,0 -0.44,0.02 -0.13,0 -0.27,0.01 -0.41,0.02 -0.13,0.01 -0.28,0.02 -0.45,0.02 -0.07,0 -0.13,-0.01 -0.18,-0.03 -0.04,-0.02 -0.07,-0.04 -0.07,-0.09 0,-0.08 0.1,-0.14 0.28,-0.18 0.24,-0.05 0.42,-0.12 0.52,-0.21 0.1,-0.1 0.16,-0.26 0.16,-0.48l0 -4.14c0,-0.22 -0.01,-0.38 -0.04,-0.49 -0.02,-0.11 -0.08,-0.19 -0.16,-0.24 -0.08,-0.05 -0.2,-0.09 -0.37,-0.11 -0.11,-0.02 -0.18,-0.04 -0.22,-0.07 -0.05,-0.04 -0.07,-0.08 -0.07,-0.12 0,-0.04 0.02,-0.07 0.07,-0.09 0.05,-0.03 0.11,-0.04 0.18,-0.04 0.18,0 0.33,0.01 0.43,0.01 0.1,0.01 0.2,0.01 0.28,0.02 0.1,0 0.22,0 0.36,0 0.13,0 0.24,0 0.34,-0.01 0.1,-0.01 0.22,-0.02 0.35,-0.03 0.12,-0.01 0.29,-0.02 0.48,-0.02 0.72,0 1.26,0.13 1.64,0.4 0.38,0.25 0.57,0.64 0.57,1.16 0,0.29 -0.06,0.53 -0.18,0.74 -0.12,0.2 -0.26,0.37 -0.44,0.5 -0.18,0.14 -0.36,0.24 -0.54,0.32 -0.02,0 -0.03,0.02 -0.03,0.04 0,0.02 0.01,0.05 0.02,0.08 0.2,0.29 0.39,0.57 0.57,0.84 0.18,0.26 0.38,0.52 0.58,0.77 0.21,0.24 0.45,0.48 0.72,0.73 0.18,0.17 0.36,0.27 0.55,0.3 0.2,0.03 0.41,0.04 0.63,0.04 0.1,0 0.14,0.05 0.14,0.14 0,0.11 -0.05,0.19 -0.15,0.25 -0.09,0.06 -0.21,0.1 -0.35,0.13 -0.14,0.02 -0.28,0.04 -0.4,0.04zm-3.49 -3.39c0.27,0 0.51,-0.06 0.7,-0.18 0.2,-0.13 0.34,-0.3 0.45,-0.5 0.11,-0.21 0.16,-0.44 0.16,-0.68 0,-0.27 -0.04,-0.51 -0.11,-0.72 -0.07,-0.21 -0.19,-0.38 -0.38,-0.49 -0.18,-0.12 -0.45,-0.18 -0.79,-0.18 -0.18,0 -0.3,0.06 -0.36,0.19 -0.07,0.12 -0.1,0.35 -0.11,0.7 -0.01,0.15 -0.01,0.35 -0.02,0.61 0,0.25 0,0.55 0,0.91 0,0.15 0.05,0.24 0.13,0.28 0.08,0.04 0.19,0.06 0.33,0.06z"/>
  <path class="fil1" d="M234.34 101.92c-0.07,0 -0.13,-0.01 -0.18,-0.03 -0.04,-0.02 -0.07,-0.05 -0.07,-0.09 0,-0.08 0.1,-0.14 0.28,-0.18 0.24,-0.05 0.41,-0.12 0.51,-0.21 0.11,-0.1 0.16,-0.26 0.16,-0.48l0 -4.31c0,-0.22 -0.04,-0.38 -0.13,-0.47 -0.09,-0.1 -0.26,-0.17 -0.49,-0.21 -0.1,-0.02 -0.17,-0.05 -0.21,-0.08 -0.05,-0.03 -0.07,-0.07 -0.07,-0.11 0,-0.04 0.02,-0.07 0.07,-0.09 0.04,-0.03 0.1,-0.04 0.18,-0.04 0.21,0 0.4,0.01 0.56,0.01 0.18,0.01 0.34,0.01 0.5,0.02 0.17,0.01 0.34,0.01 0.54,0.01 0.25,0 0.52,0 0.8,0 0.28,-0.01 0.54,-0.01 0.77,-0.02 0.22,0 0.4,0 0.54,-0.01 0.14,-0.01 0.23,-0.02 0.25,-0.02 0.04,0 0.08,0.01 0.12,0.03 0.04,0.01 0.07,0.04 0.07,0.09 0.04,0.19 0.07,0.39 0.1,0.58 0.04,0.18 0.06,0.35 0.06,0.49 0,0.06 -0.02,0.1 -0.05,0.13 -0.03,0.02 -0.05,0.03 -0.09,0.03 -0.03,0 -0.05,-0.01 -0.07,-0.03 -0.02,-0.02 -0.04,-0.05 -0.06,-0.09 -0.04,-0.12 -0.09,-0.24 -0.12,-0.34 -0.04,-0.11 -0.09,-0.19 -0.14,-0.24 -0.08,-0.09 -0.18,-0.15 -0.28,-0.2 -0.11,-0.04 -0.23,-0.07 -0.37,-0.07l-1.07 0c-0.08,0 -0.17,0.04 -0.26,0.1 -0.09,0.06 -0.14,0.14 -0.14,0.25l0 1.95c0,0.06 0.02,0.11 0.06,0.15 0.04,0.04 0.08,0.06 0.13,0.06l0.91 0c0.19,0 0.31,-0.05 0.38,-0.13 0.07,-0.08 0.13,-0.21 0.17,-0.38 0.05,-0.13 0.11,-0.19 0.19,-0.19 0.03,0 0.06,0.02 0.08,0.05 0.03,0.02 0.04,0.06 0.04,0.12 0,0.04 0,0.1 -0.01,0.19 -0.01,0.09 -0.01,0.18 -0.02,0.28 0,0.09 -0.01,0.17 -0.01,0.23 0,0.07 0,0.15 0,0.26 0.01,0.09 0.01,0.19 0.02,0.28 0.01,0.1 0.01,0.17 0.01,0.21 0.01,0.06 0,0.11 -0.02,0.15 -0.01,0.03 -0.03,0.04 -0.07,0.04 -0.1,0 -0.17,-0.09 -0.22,-0.27 -0.04,-0.17 -0.1,-0.29 -0.17,-0.38 -0.06,-0.08 -0.16,-0.12 -0.28,-0.12l-0.89 0c-0.1,0 -0.18,0.01 -0.23,0.05 -0.05,0.03 -0.07,0.1 -0.07,0.2l0 1.82c0,0.23 0.05,0.38 0.14,0.47 0.1,0.08 0.25,0.13 0.44,0.13l0.76 0c0.18,0 0.33,-0.02 0.47,-0.04 0.13,-0.03 0.24,-0.08 0.34,-0.15 0.11,-0.07 0.21,-0.17 0.29,-0.29 0.08,-0.12 0.17,-0.27 0.25,-0.45 0.03,-0.04 0.06,-0.07 0.08,-0.09 0.03,-0.02 0.06,-0.03 0.09,-0.03 0.04,0 0.06,0.02 0.07,0.05 0.02,0.03 0.03,0.06 0.03,0.11 0,0.07 -0.01,0.17 -0.04,0.31 -0.04,0.14 -0.08,0.29 -0.13,0.44 -0.04,0.15 -0.08,0.28 -0.12,0.39 -0.02,0.05 -0.05,0.08 -0.07,0.11 -0.03,0.03 -0.06,0.05 -0.1,0.05 -0.22,0 -0.46,-0.01 -0.71,-0.01 -0.25,-0.01 -0.5,-0.02 -0.77,-0.02 -0.26,-0.01 -0.52,-0.02 -0.78,-0.02 -0.26,-0.01 -0.52,-0.01 -0.77,-0.01 -0.14,0 -0.26,0 -0.38,0.01 -0.13,0.01 -0.25,0.02 -0.38,0.03 -0.12,0.01 -0.26,0.02 -0.42,0.02z"/>
  <path class="fil1" d="M156.59 85.58c-0.28,0 -0.48,-0.12 -0.59,-0.37 -0.14,-0.4 -0.32,-0.92 -0.53,-1.56 -0.22,-0.68 -0.41,-1.25 -0.59,-1.71l-9.8 -26.33c-0.35,-1 -0.83,-1.84 -1.44,-2.52 -0.61,-0.68 -1.37,-1.14 -2.3,-1.39 -0.57,-0.18 -1.02,-0.36 -1.34,-0.54 -0.29,-0.18 -0.43,-0.39 -0.43,-0.64 0,-0.22 0.14,-0.36 0.43,-0.43 0.28,-0.11 0.66,-0.16 1.12,-0.16 0.58,0 1.2,0.02 1.88,0.05 0.71,0.04 1.46,0.07 2.24,0.11 0.79,0 1.59,0 2.41,0 0.72,0 1.41,0 2.09,0 0.71,-0.04 1.36,-0.05 1.93,-0.05 0.6,-0.04 1.09,-0.06 1.44,-0.06 0.47,0 0.84,0.06 1.13,0.16 0.28,0.07 0.43,0.22 0.43,0.43 0,0.25 -0.15,0.48 -0.43,0.7 -0.29,0.18 -0.73,0.3 -1.34,0.37 -1,0.11 -1.84,0.34 -2.52,0.7 -0.64,0.32 -0.96,0.79 -0.96,1.39 0,0.61 0.07,1.15 0.21,1.61 0.18,0.43 0.31,0.77 0.38,1.02l7.71 20.38c0.07,0.14 0.16,0.23 0.26,0.26 0.11,0.04 0.22,-0.07 0.33,-0.32l7.33 -19.3c0.71,-1.9 0.75,-3.27 0.1,-4.13 -0.6,-0.89 -1.48,-1.41 -2.62,-1.55 -0.53,-0.08 -0.96,-0.2 -1.28,-0.38 -0.32,-0.21 -0.48,-0.45 -0.48,-0.7 0,-0.21 0.14,-0.35 0.43,-0.42 0.28,-0.11 0.66,-0.16 1.12,-0.16 0.46,0 0.98,0 1.55,0 0.57,0 1.16,0.01 1.77,0.05 0.64,0 1.3,0 1.98,0 1.03,0 2.14,-0.02 3.32,-0.05 1.17,-0.08 2.1,-0.11 2.78,-0.11 0.46,0 0.84,0.05 1.12,0.16 0.29,0.07 0.43,0.21 0.43,0.43 0,0.25 -0.14,0.46 -0.43,0.64 -0.28,0.14 -0.73,0.29 -1.33,0.43 -1.32,0.29 -2.43,0.89 -3.32,1.82 -0.89,0.93 -1.54,1.88 -1.93,2.84l-10.06 24.45c-0.07,0.18 -0.22,0.56 -0.43,1.13 -0.18,0.53 -0.38,1.12 -0.59,1.77 -0.21,0.64 -0.43,1.18 -0.64,1.61 -0.04,0.1 -0.11,0.19 -0.22,0.26 -0.1,0.07 -0.21,0.11 -0.32,0.11z"/>
  <path class="fil1" d="M197.47 85.58c-2.47,0 -4.84,-0.42 -7.13,-1.26 -2.29,-0.84 -4.33,-2.03 -6.12,-3.58 -1.8,-1.57 -3.23,-3.45 -4.28,-5.62 -1.02,-2.21 -1.53,-4.65 -1.53,-7.31 0,-2.56 0.54,-4.93 1.63,-7.1 1.1,-2.18 2.59,-4.07 4.49,-5.68 1.9,-1.61 4.07,-2.86 6.5,-3.73 2.46,-0.92 5.05,-1.37 7.76,-1.37 1.37,0 2.53,0.05 3.48,0.15 0.95,0.11 1.87,0.27 2.75,0.48 0.91,0.17 1.97,0.42 3.16,0.74 0.53,0.13 0.9,0.34 1.11,0.63 0.25,0.28 0.39,0.66 0.43,1.15 0.07,0.81 0.15,1.69 0.26,2.63 0.11,0.91 0.18,2.05 0.21,3.42 0.04,0.25 -0.09,0.46 -0.37,0.63 -0.24,0.14 -0.53,0.18 -0.84,0.11 -0.29,-0.07 -0.48,-0.3 -0.59,-0.69 -0.35,-1.33 -0.75,-2.47 -1.21,-3.41 -0.46,-0.99 -1.14,-1.79 -2.06,-2.42 -0.88,-0.6 -1.95,-1.04 -3.22,-1.32 -1.23,-0.32 -2.57,-0.47 -4.01,-0.47 -2.04,0 -3.94,0.42 -5.7,1.26 -1.73,0.81 -3.22,1.93 -4.49,3.37 -1.23,1.4 -2.2,2.99 -2.9,4.78 -0.71,1.79 -1.06,3.65 -1.06,5.58 0,2.13 0.34,4.24 1,6.31 0.71,2.06 1.69,3.94 2.96,5.62 1.3,1.65 2.83,2.98 4.59,4 1.8,0.98 3.79,1.47 5.97,1.47 2.53,0 4.63,-0.58 6.28,-1.73 1.66,-1.16 3.06,-2.77 4.22,-4.84 0.25,-0.46 0.6,-0.69 1.06,-0.69 0.49,0 0.74,0.28 0.74,0.84 0,0.29 -0.07,0.74 -0.21,1.37 -0.14,0.6 -0.33,1.25 -0.58,1.95 -0.21,0.66 -0.42,1.26 -0.64,1.79 -0.24,0.49 -0.45,0.8 -0.63,0.94 -0.14,0.14 -0.49,0.3 -1.05,0.48 -1.31,0.52 -2.87,0.91 -4.7,1.15 -1.8,0.25 -3.56,0.37 -5.28,0.37z"/>
  <polygon class="fil1" points="215.34,77.15 239.21,77.31 239.21,78.26 215.33,78.1 "/>
  <polygon class="fil1" points="120.79,77.15 144.67,77.31 144.66,78.26 120.79,78.1 "/>
 </g>
</svg>
