<?xml version="1.0" encoding="UTF-8"?>
<!DOCTYPE svg PUBLIC "-//W3C//DTD SVG 1.1//EN" "http://www.w3.org/Graphics/SVG/1.1/DTD/svg11.dtd">
<!-- Creator: CorelDRAW 2021 (64-Bit) -->
<svg xmlns="http://www.w3.org/2000/svg" xml:space="preserve" width="360px" height="152px" version="1.1" style="shape-rendering:geometricPrecision; text-rendering:geometricPrecision; image-rendering:optimizeQuality; fill-rule:evenodd; clip-rule:evenodd"
viewBox="0 0 360 152"
 xmlns:xlink="http://www.w3.org/1999/xlink"
 xmlns:xodm="http://www.corel.com/coreldraw/odm/2003">
 <defs>
  <style type="text/css">
   <![CDATA[
    .str0 {stroke:#FEFEFE;stroke-width:2.08;stroke-miterlimit:22.9256}
    .str1 {stroke:#FEFEFE;stroke-width:2.08;stroke-linecap:round;stroke-linejoin:round;stroke-miterlimit:22.9256}
    .fil2 {fill:none;fill-rule:nonzero}
    .fil0 {fill:#FEFEFE}
    .fil1 {fill:black;fill-rule:nonzero;fill-opacity:0.000000}
   ]]>
  </style>
 </defs>
 <g id="Слой_x0020_1">
  <metadata id="CorelCorpID_0Corel-Layer"/>
  <g>
   <path class="fil0" d="M0 0l360 0 0 152 -360 0 0 -152zm358.96 1.04l-357.92 0 0 149.91 357.92 0 0 -149.91z"/>
  </g>
  <g id="layer1_x0020_1">
   <g id="Path_x0020_1">
    <g>
     <path class="fil1" d="M146.81 46.48c5.44,17.84 11.12,35.6 16.1,53.57 1.64,5.91 3.27,11.83 5,17.72 0.56,1.91 1.15,3.82 1.74,5.73 0.16,0.52 0.32,1.05 0.48,1.58 0.13,0.4 0.38,1.62 0.37,1.2 -0.03,-0.69 -0.28,-1.35 -0.4,-2.03 -0.34,-1.98 -0.69,-3.96 -0.98,-5.95 -0.63,-4.35 -0.97,-7.98 -1.27,-12.38 -0.47,-7.02 -0.57,-14.06 -0.66,-21.09 -0.2,-16.06 0.42,-31.9 3.14,-47.74m-23.52 9.39l0 0 0 0z"/>
     <path id="_1" class="fil2 str0" d="M146.81 46.48c5.44,17.84 11.12,35.6 16.1,53.57 1.64,5.91 3.27,11.83 5,17.72 0.56,1.91 1.15,3.82 1.74,5.73 0.16,0.52 0.32,1.05 0.48,1.58 0.13,0.4 0.38,1.62 0.37,1.2 -0.03,-0.69 -0.28,-1.35 -0.4,-2.03 -0.34,-1.98 -0.69,-3.96 -0.98,-5.95 -0.63,-4.35 -0.97,-7.98 -1.27,-12.38 -0.47,-7.02 -0.57,-14.06 -0.66,-21.09 -0.2,-16.06 0.42,-31.9 3.14,-47.74m-23.52 9.39l0 0 0 0z"/>
    </g>
    <path class="fil2 str1" d="M146.81 46.48c5.44,17.84 11.12,35.6 16.1,53.57 1.64,5.91 3.27,11.83 5,17.72 0.56,1.91 1.15,3.82 1.74,5.73 0.16,0.52 0.32,1.05 0.48,1.58 0.13,0.4 0.38,1.62 0.37,1.2 -0.03,-0.69 -0.28,-1.35 -0.4,-2.03 -0.34,-1.98 -0.69,-3.96 -0.98,-5.95 -0.63,-4.35 -0.97,-7.98 -1.27,-12.38 -0.47,-7.02 -0.57,-14.06 -0.66,-21.09 -0.2,-16.06 0.42,-31.9 3.14,-47.74m-23.52 9.39l0 0 0 0z"/>
   </g>
   <g id="Path_x0020_1_0">
    <g>
     <path class="fil1" d="M183.87 41.74c-0.6,15.37 -1.13,30.72 -1.22,46.11 -0.04,5.31 -0.06,10.63 -0.06,15.94 0.01,2.21 0.02,3.13 0.06,5.2 0.01,0.43 0.43,1.43 0.03,1.29 -0.6,-0.21 -0.74,-1.04 -0.98,-1.62 -2.62,-6.46 -3.78,-10.29 -5.19,-17.23 -1.19,-5.87 -1.99,-12.74 -2.55,-18.72 -0.57,-6.08 -1.22,-12.49 -0.72,-18.6 0.46,-5.82 2.04,-11.39 4.45,-16.7 0.68,-1.51 1.48,-2.96 2.3,-4.4 0.58,-1.03 1.24,-2.01 1.89,-3 1.03,-1.54 2.57,-4.07 4.63,-4.34 5.27,-0.7 6.86,8.51 7.18,11.55 1.07,10.31 -1.92,21.02 -4.91,30.75 -1.3,4.25 -1.96,6.15 -3.42,10 -0.3,0.78 -0.62,1.55 -0.93,2.32 -0.18,0.43 -0.71,1.72 -0.55,1.28 0.66,-1.69 1.17,-3.46 2.02,-5.07 2.18,-4.09 4.4,-6.76 7.75,-9.87 1.09,-1.01 2.28,-1.91 3.5,-2.76 1.08,-0.75 2.24,-1.38 3.39,-2.01 3.33,-1.84 8.5,-3.68 10.96,0.74 0.82,1.46 1.37,3.1 1.57,4.77 0.24,1.95 0.08,3.95 -0.25,5.89 -0.72,4.16 -2.61,8.15 -4.74,11.74 -4.85,8.19 -12.46,14.41 -20.33,19.55m-3.88 -62.81l0 0 0 0z"/>
     <path id="_1_1" class="fil2 str0" d="M183.87 41.74c-0.6,15.37 -1.13,30.72 -1.22,46.11 -0.04,5.31 -0.06,10.63 -0.06,15.94 0.01,2.21 0.02,3.13 0.06,5.2 0.01,0.43 0.43,1.43 0.03,1.29 -0.6,-0.21 -0.74,-1.04 -0.98,-1.62 -2.62,-6.46 -3.78,-10.29 -5.19,-17.23 -1.19,-5.87 -1.99,-12.74 -2.55,-18.72 -0.57,-6.08 -1.22,-12.49 -0.72,-18.6 0.46,-5.82 2.04,-11.39 4.45,-16.7 0.68,-1.51 1.48,-2.96 2.3,-4.4 0.58,-1.03 1.24,-2.01 1.89,-3 1.03,-1.54 2.57,-4.07 4.63,-4.34 5.27,-0.7 6.86,8.51 7.18,11.55 1.07,10.31 -1.92,21.02 -4.91,30.75 -1.3,4.25 -1.96,6.15 -3.42,10 -0.3,0.78 -0.62,1.55 -0.93,2.32 -0.18,0.43 -0.71,1.72 -0.55,1.28 0.66,-1.69 1.17,-3.46 2.02,-5.07 2.18,-4.09 4.4,-6.76 7.75,-9.87 1.09,-1.01 2.28,-1.91 3.5,-2.76 1.08,-0.75 2.24,-1.38 3.39,-2.01 3.33,-1.84 8.5,-3.68 10.96,0.74 0.82,1.46 1.37,3.1 1.57,4.77 0.24,1.95 0.08,3.95 -0.25,5.89 -0.72,4.16 -2.61,8.15 -4.74,11.74 -4.85,8.19 -12.46,14.41 -20.33,19.55m-3.88 -62.81l0 0 0 0z"/>
    </g>
    <path class="fil2 str1" d="M183.87 41.74c-0.6,15.37 -1.13,30.72 -1.22,46.11 -0.04,5.31 -0.06,10.63 -0.06,15.94 0.01,2.21 0.02,3.13 0.06,5.2 0.01,0.43 0.43,1.43 0.03,1.29 -0.6,-0.21 -0.74,-1.04 -0.98,-1.62 -2.62,-6.46 -3.78,-10.29 -5.19,-17.23 -1.19,-5.87 -1.99,-12.74 -2.55,-18.72 -0.57,-6.08 -1.22,-12.49 -0.72,-18.6 0.46,-5.82 2.04,-11.39 4.45,-16.7 0.68,-1.51 1.48,-2.96 2.3,-4.4 0.58,-1.03 1.24,-2.01 1.89,-3 1.03,-1.54 2.57,-4.07 4.63,-4.34 5.27,-0.7 6.86,8.51 7.18,11.55 1.07,10.31 -1.92,21.02 -4.91,30.75 -1.3,4.25 -1.96,6.15 -3.42,10 -0.3,0.78 -0.62,1.55 -0.93,2.32 -0.18,0.43 -0.71,1.72 -0.55,1.28 0.66,-1.69 1.17,-3.46 2.02,-5.07 2.18,-4.09 4.4,-6.76 7.75,-9.87 1.09,-1.01 2.28,-1.91 3.5,-2.76 1.08,-0.75 2.24,-1.38 3.39,-2.01 3.33,-1.84 8.5,-3.68 10.96,0.74 0.82,1.46 1.37,3.1 1.57,4.77 0.24,1.95 0.08,3.95 -0.25,5.89 -0.72,4.16 -2.61,8.15 -4.74,11.74 -4.85,8.19 -12.46,14.41 -20.33,19.55m-3.88 -62.81l0 0 0 0z"/>
   </g>
   <g id="Path_x0020_1_2">
    <g>
     <path class="fil1" d="M173.26 90.48c0.47,6.68 1.45,13.29 2.63,19.88m-2.63 -19.88l0 0 0 0z"/>
     <path id="_1_3" class="fil2 str0" d="M173.26 90.48c0.47,6.68 1.45,13.29 2.63,19.88m-2.63 -19.88l0 0 0 0z"/>
    </g>
    <path class="fil2 str1" d="M173.26 90.48c0.47,6.68 1.45,13.29 2.63,19.88m-2.63 -19.88l0 0 0 0z"/>
   </g>
  </g>
 </g>
</svg>
