<?xml version="1.0" encoding="UTF-8"?>
<!DOCTYPE svg PUBLIC "-//W3C//DTD SVG 1.1//EN" "http://www.w3.org/Graphics/SVG/1.1/DTD/svg11.dtd">
<!-- Creator: CorelDRAW 2021 (64-Bit) -->
<svg xmlns="http://www.w3.org/2000/svg" xml:space="preserve" width="360px" height="152px" version="1.1" style="shape-rendering:geometricPrecision; text-rendering:geometricPrecision; image-rendering:optimizeQuality; fill-rule:evenodd; clip-rule:evenodd"
viewBox="0 0 360 152"
 xmlns:xlink="http://www.w3.org/1999/xlink"
 xmlns:xodm="http://www.corel.com/coreldraw/odm/2003">
 <defs>
  <style type="text/css">
   <![CDATA[
    .fil0 {fill:#FEFEFE}
   ]]>
  </style>
 </defs>
 <g id="Слой_x0020_1">
  <metadata id="CorelCorpID_0Corel-Layer"/>
  <g>
   <path class="fil0" d="M0 0l360 0 0 152 -360 0 0 -152zm358.96 1.04l-357.92 0 0 149.91 357.92 0 0 -149.91z"/>
  </g>
  <g>
   <g id="_2422562168288">
    <path class="fil0" d="M166.5 50.69c-0.3,-0.74 0.05,-1.59 0.79,-1.89 0.73,-0.3 1.57,0.06 1.87,0.8 0.93,2.32 2.54,4.29 4.57,5.68 1.98,1.34 4.35,2.12 6.9,2.12 2.55,0 4.93,-0.78 6.9,-2.12 2.04,-1.39 3.65,-3.36 4.58,-5.68 0.3,-0.74 1.13,-1.1 1.87,-0.8 0.73,0.3 1.08,1.15 0.79,1.89 -1.15,2.85 -3.13,5.28 -5.64,6.99 -2.05,1.4 -4.47,2.3 -7.06,2.55l0 3.03 11.37 0c0.79,0 1.43,0.65 1.43,1.45 0,0.8 -0.64,1.45 -1.43,1.45l-12.81 0 -10.37 0c-0.44,0 -0.84,0.18 -1.13,0.47 -0.29,0.3 -0.48,0.7 -0.48,1.14 0,0.44 0.18,0.84 0.47,1.13 0.3,0.3 0.7,0.48 1.14,0.48l20.74 0c1.23,0 2.35,0.51 3.16,1.33 0.82,0.82 1.32,1.95 1.32,3.18 0,1.23 -0.51,2.36 -1.32,3.18 -0.82,0.82 -1.94,1.33 -3.16,1.33l-23.17 0c-0.8,0 -1.44,-0.65 -1.44,-1.45 0,-0.8 0.64,-1.45 1.44,-1.45l23.17 0c0.44,0 0.85,-0.18 1.14,-0.48 0.29,-0.29 0.47,-0.69 0.47,-1.13 0,-0.44 -0.18,-0.84 -0.47,-1.14 -0.29,-0.29 -0.7,-0.47 -1.14,-0.47l-20.74 0c-1.22,0 -2.34,-0.51 -3.16,-1.33 -0.81,-0.82 -1.32,-1.95 -1.32,-3.18 0,-1.24 0.51,-2.37 1.33,-3.18 0.81,-0.82 1.93,-1.33 3.15,-1.33l8.94 0 0 -3.03c-2.6,-0.25 -5.01,-1.15 -7.07,-2.55 -2.5,-1.71 -4.49,-4.14 -5.63,-6.99z"/>
    <path class="fil0" d="M111.75 89.79l-5.62 9.85 0 3.39 -2.45 0 0 -3.38 -5.64 -9.86 2.77 0 4.09 7.29 4.1 -7.29 2.75 0zm129.6 8.45l0 0 3.58 4.79 -2.92 0 -3.32 -4.39 -2.19 0.02 -1.26 0 0 4.37 -2.48 0 0 -13.24 5.5 0c4.05,0 6.08,1.42 6.08,4.28 0,1.41 -0.45,2.5 -1.35,3.28 -0.44,0.37 -0.99,0.67 -1.64,0.89zm15.53 4.79l0 0 -2.07 0 0 -11.02 -4.74 0 0 -2.22 11.89 0 0 2.22 -4.71 0 0 11.02 -0.37 0zm-18.62 -11.02l0 0 -3.02 0 0 4.42 3.02 0c1.31,0 2.24,-0.19 2.81,-0.57 0.25,-0.18 0.45,-0.41 0.58,-0.7 0.13,-0.3 0.2,-0.66 0.2,-1.09 0,-0.71 -0.26,-1.22 -0.78,-1.53 -0.29,-0.17 -0.66,-0.3 -1.11,-0.39 -0.48,-0.09 -1.05,-0.14 -1.7,-0.14zm-19.38 11.29l0 0c-2.62,0 -4.58,-0.57 -5.88,-1.7 -0.65,-0.57 -1.15,-1.3 -1.48,-2.19 -0.32,-0.86 -0.48,-1.88 -0.48,-3.03 0,-1.14 0.16,-2.15 0.48,-3.01 0.33,-0.87 0.83,-1.59 1.49,-2.17 0.65,-0.57 1.47,-0.99 2.46,-1.27 0.98,-0.28 2.11,-0.41 3.41,-0.41 1.3,0 2.44,0.13 3.41,0.41 1,0.28 1.82,0.7 2.48,1.26 0.66,0.57 1.15,1.3 1.48,2.17 0.32,0.87 0.49,1.87 0.49,3.02 0,1.15 -0.17,2.17 -0.49,3.03 -0.33,0.89 -0.82,1.62 -1.48,2.19 -0.66,0.57 -1.48,1 -2.47,1.28 -0.98,0.28 -2.12,0.42 -3.42,0.42zm0 -2.22l0 0c1.92,0 3.31,-0.38 4.16,-1.12 0.41,-0.37 0.72,-0.84 0.93,-1.42 0.22,-0.6 0.32,-1.32 0.32,-2.16 0,-0.84 -0.1,-1.56 -0.32,-2.15 -0.2,-0.58 -0.51,-1.04 -0.92,-1.4 -0.42,-0.35 -0.97,-0.62 -1.65,-0.81 -0.7,-0.19 -1.54,-0.28 -2.52,-0.28 -0.98,0 -1.83,0.09 -2.53,0.28 -0.67,0.18 -1.22,0.45 -1.63,0.81 -0.41,0.34 -0.72,0.81 -0.92,1.39 -0.22,0.59 -0.32,1.32 -0.32,2.16 0,1.66 0.42,2.86 1.25,3.58 0.42,0.37 0.97,0.64 1.65,0.83 0.69,0.19 1.53,0.29 2.5,0.29zm-22.51 1.95l0 0 -2.09 0 0 -13.24 5.04 0c2.07,0 3.64,0.37 4.7,1.13 1.11,0.77 1.66,1.94 1.66,3.47 0,1.56 -0.55,2.73 -1.65,3.52 -1.07,0.76 -2.64,1.15 -4.71,1.15l-2.58 0 0 3.97 -0.37 0zm0.37 -11.02l0 0 0 4.8 2.58 0c0.72,0 1.35,-0.05 1.86,-0.16 0.5,-0.1 0.9,-0.25 1.2,-0.45 0.28,-0.18 0.5,-0.42 0.64,-0.71 0.14,-0.3 0.22,-0.67 0.22,-1.1 0,-0.83 -0.29,-1.43 -0.85,-1.79 -0.3,-0.19 -0.7,-0.33 -1.2,-0.43 -0.52,-0.11 -1.14,-0.16 -1.87,-0.16l-2.58 0zm-15.59 11.29l0 0c-1,0 -1.88,-0.09 -2.62,-0.27 -0.77,-0.18 -1.4,-0.46 -1.89,-0.83 -0.48,-0.37 -0.86,-0.83 -1.12,-1.4 -0.26,-0.56 -0.42,-1.21 -0.47,-1.95l-0.02 -0.39 2.38 0 0.03 0.33c0.03,0.41 0.13,0.75 0.27,1.04 0.14,0.27 0.34,0.49 0.58,0.66 0.28,0.19 0.65,0.33 1.11,0.43 0.49,0.1 1.08,0.16 1.76,0.16 2.22,0 3.33,-0.64 3.33,-1.9 0,-0.91 -0.67,-1.48 -2.01,-1.68l-3.4 -0.55c-0.6,-0.09 -1.12,-0.23 -1.57,-0.42 -0.46,-0.19 -0.84,-0.43 -1.14,-0.72 -0.31,-0.3 -0.54,-0.65 -0.69,-1.06 -0.15,-0.4 -0.22,-0.85 -0.22,-1.35 0,-0.62 0.12,-1.18 0.37,-1.66 0.25,-0.49 0.62,-0.91 1.11,-1.25 0.48,-0.33 1.06,-0.57 1.74,-0.73 0.66,-0.16 1.42,-0.24 2.27,-0.24 0.88,0 1.67,0.08 2.34,0.24 0.7,0.17 1.28,0.43 1.75,0.78 0.45,0.33 0.81,0.75 1.09,1.27 0.26,0.5 0.44,1.09 0.53,1.77l0.06 0.41 -2.42 0 -0.05 -0.3c-0.06,-0.34 -0.16,-0.63 -0.3,-0.87 -0.14,-0.23 -0.32,-0.42 -0.54,-0.56 -0.25,-0.17 -0.58,-0.3 -0.98,-0.38 -0.42,-0.09 -0.92,-0.14 -1.5,-0.14 -1.08,0 -1.88,0.15 -2.39,0.45 -0.45,0.26 -0.68,0.65 -0.68,1.17 0,0.75 0.62,1.22 1.86,1.42l3.34 0.52c1.25,0.18 2.21,0.59 2.85,1.22 0.67,0.66 1,1.53 1,2.62 0,0.67 -0.13,1.26 -0.39,1.78 -0.25,0.52 -0.64,0.96 -1.16,1.33 -0.5,0.35 -1.11,0.62 -1.82,0.79 -0.69,0.17 -1.49,0.26 -2.39,0.26zm-11.68 -0.27l0 0 -2.03 0 -1.24 -3.52 -7.04 0 -1.25 3.52 -2.52 0c1.58,-4.42 3.16,-8.83 4.72,-13.24l5.17 0c1.58,4.41 3.14,8.82 4.7,13.24l-0.51 0zm-7.64 -11.02l0 0 -1.87 5.27 5.44 0 -1.87 -5.27 -1.7 0zm-14.96 8.79l0 0 0 -11.01 2.44 0 0 13.24 -3.8 0 -7.84 -11.02 -0.1 0 0 11.02 -2.46 0 0 -13.24 3.82 0 7.85 11.01 0.09 0zm-18.34 2.23l0 0 -2.03 0 -1.24 -3.52 -7.04 0 -1.25 3.52 -2.52 0c1.57,-4.42 3.15,-8.83 4.72,-13.24l5.17 0c1.57,4.41 3.13,8.82 4.7,13.24l-0.51 0zm-7.64 -11.02l0 0 -1.87 5.27 5.44 0 -1.88 -5.27 -1.69 0z"/>
   </g>
  </g>
 </g>
</svg>
