<?xml version="1.0" encoding="UTF-8"?>
<!DOCTYPE svg PUBLIC "-//W3C//DTD SVG 1.1//EN" "http://www.w3.org/Graphics/SVG/1.1/DTD/svg11.dtd">
<!-- Creator: CorelDRAW 2021 (64-Bit) -->
<svg xmlns="http://www.w3.org/2000/svg" xml:space="preserve" width="360px" height="152px" version="1.1" style="shape-rendering:geometricPrecision; text-rendering:geometricPrecision; image-rendering:optimizeQuality; fill-rule:evenodd; clip-rule:evenodd"
viewBox="0 0 360 152"
 xmlns:xlink="http://www.w3.org/1999/xlink"
 xmlns:xodm="http://www.corel.com/coreldraw/odm/2003">
 <defs>
  <style type="text/css">
   <![CDATA[
    .fil0 {fill:#FEFEFE}
    .fil1 {fill:#FEFEFE;fill-rule:nonzero}
   ]]>
  </style>
 </defs>
 <g id="Слой_x0020_1">
  <metadata id="CorelCorpID_0Corel-Layer"/>
  <g>
   <path class="fil0" d="M0 0l360 0 0 152 -360 0 0 -152zm358.96 1.04l-357.92 0 0 149.91 357.92 0 0 -149.91z"/>
  </g>
  <g>
   <path class="fil1" d="M127.63 79.8c-3.48,0.09 -5.93,-1.45 -7.33,-4.62 -1.39,-3.17 -1.59,-7.35 -0.58,-12.53 1.02,-5.21 2.96,-9.63 5.83,-13.26 2.88,-3.64 6.02,-5.45 9.45,-5.45 0.89,0 1.64,0.12 2.25,0.38 0.62,0.25 1.07,0.5 1.37,0.76 0.29,0.25 0.53,0.67 0.69,1.27 0.16,0.6 0.25,1 0.27,1.21 0.01,0.2 0.03,0.64 0.06,1.29 0,0.42 -0.14,0.61 -0.44,0.58 -0.3,-0.09 -0.43,-0.33 -0.41,-0.71 0,-0.18 0.01,-0.42 0.03,-0.72 0.01,-0.3 -0.07,-0.63 -0.25,-1 -0.18,-0.37 -0.38,-0.72 -0.62,-1.03 -0.24,-0.31 -0.63,-0.58 -1.16,-0.8 -0.54,-0.23 -1.17,-0.34 -1.88,-0.34 -1.19,0 -2.35,0.54 -3.48,1.61 -1.14,1.07 -2.11,2.35 -2.93,3.84 -0.82,1.49 -1.58,3.13 -2.28,4.91 -0.7,1.79 -1.23,3.32 -1.58,4.58 -0.36,1.27 -0.61,2.3 -0.76,3.1 -2.06,10.34 -0.91,15.49 3.44,15.46 1.55,0 2.91,-0.25 4.08,-0.76 1.18,-0.51 2.01,-1.03 2.51,-1.56 0.49,-0.54 0.96,-1.17 1.42,-1.88 0.47,-0.72 0.71,-1.09 0.74,-1.12 0.42,-0.44 0.73,-0.49 0.94,-0.13 0.15,0.24 0.1,0.48 -0.13,0.71 -0.06,0.06 -0.22,0.34 -0.47,0.83 -0.26,0.49 -0.59,1.01 -1.01,1.56 -0.42,0.55 -0.94,1.12 -1.58,1.7 -0.64,0.58 -1.51,1.07 -2.59,1.48 -1.09,0.4 -2.29,0.61 -3.6,0.64z"/>
   <path class="fil1" d="M152.64 68.37c0.21,0 0.31,0.12 0.31,0.36 0,0.12 -0.13,0.56 -0.4,1.34 -0.18,0.47 -0.67,1.55 -1.47,3.23 -0.81,1.69 -1.46,2.9 -1.97,3.64 -0.71,1.08 -1.43,1.86 -2.16,2.35 -0.73,0.49 -1.63,0.72 -2.71,0.69 -0.74,-0.03 -1.48,-0.25 -2.23,-0.67 -0.74,-0.42 -1.22,-1.01 -1.43,-1.79 -0.09,-0.56 -0.14,-1.02 -0.15,-1.38 -0.02,-0.36 0.05,-0.83 0.2,-1.43 0.15,-0.59 0.28,-1.07 0.4,-1.43 0.12,-0.36 0.29,-0.83 0.51,-1.41 0.23,-0.58 0.38,-1.02 0.47,-1.31l0.85 -2.64c0.12,-0.33 0.12,-0.59 0,-0.8 -0.12,-0.21 -0.31,-0.33 -0.58,-0.36 -1.13,-0.12 -2.14,-0.42 -3.04,-0.89 -0.3,1.19 -1.01,3.08 -2.14,5.67 -0.24,0.48 -0.49,0.65 -0.76,0.54 -0.18,-0.12 -0.19,-0.39 -0.05,-0.81 0.42,-1.01 0.87,-2.19 1.34,-3.55 0.48,-1.35 0.76,-2.15 0.85,-2.39 -0.56,-0.42 -1.1,-1.06 -1.6,-1.92 -0.54,-0.92 -0.64,-1.99 -0.29,-3.19 0.34,-1.21 0.96,-2 1.85,-2.39 0.83,-0.36 1.55,-0.33 2.14,0.09 0.6,0.41 0.79,1.16 0.58,2.23 -0.21,1.19 -0.44,2.04 -0.71,2.55 -0.33,0.65 -0.33,1.14 0,1.47 1.07,0.98 2.59,1.47 4.55,1.47 0.63,0 1,0.3 1.12,0.9 0.15,0.68 0,1.87 -0.45,3.57 -0.44,1.7 -0.85,2.93 -1.2,3.71 -0.9,2.56 -0.81,3.99 0.27,4.29 1.19,0.35 2.32,-0.2 3.39,-1.66 1.07,-1.46 2.31,-3.82 3.71,-7.1 0.24,-0.53 0.41,-0.86 0.53,-0.98 0.06,-0.03 0.15,-0.03 0.27,0zm-13.4 -5.54c0.36,0 0.7,-0.85 1.03,-2.55 0.18,-1.19 0.01,-1.78 -0.49,-1.78 -0.45,0 -0.78,0.21 -1.01,0.65 -0.22,0.43 -0.33,0.91 -0.33,1.45 0,0.32 0.08,0.76 0.24,1.29 0.17,0.54 0.35,0.85 0.56,0.94z"/>
   <path class="fil1" d="M154.83 79.94c-0.69,0.12 -1.38,0 -2.08,-0.36 -0.7,-0.36 -1.23,-0.86 -1.58,-1.52 -0.69,-1.58 -0.8,-3.64 -0.34,-6.19 0.46,-2.54 1.47,-4.86 3.02,-6.94 0.8,-1.1 1.84,-2.01 3.1,-2.72 1.27,-0.72 2.48,-0.99 3.64,-0.81 0.45,0.03 0.8,0.22 1.05,0.58 0.25,0.36 0.38,0.78 0.38,1.25 0,0.81 -0.18,1.51 -0.54,2.1 -0.17,0.18 -0.37,0.27 -0.58,0.27 -0.38,0 -0.47,-0.48 -0.26,-1.43 0.2,-0.95 0.16,-1.47 -0.14,-1.56 -1.46,-0.48 -2.86,0.25 -4.2,2.19 -1.1,1.6 -1.84,3.64 -2.21,6.09 -0.37,2.46 -0.35,4.43 0.07,5.92 0.09,0.45 0.35,0.72 0.78,0.83 0.43,0.1 0.8,0.03 1.1,-0.2 0.41,-0.33 0.82,-0.76 1.22,-1.3 0.41,-0.54 0.72,-1 0.94,-1.38 0.22,-0.39 0.58,-1.07 1.07,-2.04 0.49,-0.96 0.84,-1.63 1.05,-1.98 0.48,-0.81 1.02,-1.81 1.61,-3 0.06,-0.12 0.15,-0.29 0.27,-0.53 0.12,-0.24 0.19,-0.4 0.22,-0.49 0.03,-0.21 0.06,-0.46 0.09,-0.74 0.03,-0.28 0.06,-0.49 0.09,-0.63 0.03,-0.13 0.07,-0.29 0.11,-0.46 0.05,-0.18 0.11,-0.34 0.2,-0.47 0.09,-0.14 0.2,-0.26 0.32,-0.38 0.44,-0.45 0.85,-0.45 1.2,0 0.24,0.47 0.36,0.83 0.36,1.07 0.09,1.19 0.13,2.98 0.13,5.36 -0.03,1.31 -0.04,3.29 -0.04,5.94 0,0.65 0.27,1.05 0.8,1.2 1.08,0.3 2.3,-0.64 3.69,-2.83 1.38,-2.19 2.36,-4.28 2.92,-6.28 0.09,-0.38 0.27,-0.71 0.54,-0.98 0.06,-0.03 0.15,-0.03 0.27,0 0.21,0 0.31,0.12 0.31,0.36 0,0.12 -0.14,0.56 -0.4,1.34 -1.37,3.69 -2.49,6.18 -3.35,7.46 -0.93,1.4 -1.99,2.33 -3.2,2.79 -1.2,0.46 -2.28,0.45 -3.23,-0.02 -0.54,-0.24 -0.96,-0.68 -1.25,-1.3 -0.3,-0.63 -0.48,-1.28 -0.54,-1.97 -0.06,-0.77 -0.09,-1.34 -0.09,-1.69l0 -2.28c0,-0.24 -0.09,-0.36 -0.27,-0.36 -0.27,0 -0.47,0.17 -0.62,0.49 -0.09,0.18 -0.29,0.61 -0.58,1.3 -0.3,0.68 -0.52,1.17 -0.65,1.45 -0.14,0.28 -0.35,0.72 -0.65,1.3 -0.3,0.58 -0.56,1.02 -0.78,1.31 -0.22,0.3 -0.5,0.64 -0.83,1.01 -0.32,0.37 -0.67,0.65 -1.02,0.85 -0.36,0.19 -0.73,0.32 -1.12,0.38z"/>
   <path class="fil1" d="M177.61 80.03c-1.46,0.11 -2.83,-0.21 -4.11,-0.99 -0.98,-0.59 -1.68,-1.63 -2.1,-3.12 -0.74,-2.65 -0.58,-5.1 0.49,-7.33 0.45,-0.92 0.86,-1.69 1.23,-2.3 0.37,-0.61 0.94,-1.33 1.7,-2.16 0.76,-0.84 1.6,-1.51 2.52,-2.01 0.8,-0.42 1.53,-0.6 2.19,-0.54 0.59,0.06 1.12,0.32 1.58,0.78 0.47,0.46 0.68,0.99 0.65,1.59 -0.06,0.53 -0.19,0.94 -0.4,1.2 -0.21,0.21 -0.39,0.29 -0.54,0.23 -0.18,-0.09 -0.24,-0.33 -0.18,-0.72 0.21,-0.74 0.21,-1.19 0,-1.34 -0.44,-0.33 -1.08,-0.28 -1.92,0.14 -0.92,0.5 -1.71,1.58 -2.36,3.23 -0.66,1.66 -1.09,3.35 -1.3,5.07 -0.33,2.8 0.02,4.65 1.03,5.54 1.43,1.28 3.1,1.18 5,-0.31 0.92,-0.69 1.91,-1.91 2.97,-3.66 1.06,-1.76 1.66,-2.97 1.81,-3.62 0.39,-0.84 0.71,-1.12 0.98,-0.85 0.09,0.09 0.08,0.48 -0.04,1.16 -0.3,1.01 -0.96,2.43 -1.97,4.27 -1.01,1.83 -1.99,3.04 -2.94,3.64 -0.06,0.03 -0.2,0.15 -0.41,0.35 -0.2,0.21 -0.34,0.34 -0.4,0.38 -0.06,0.05 -0.19,0.15 -0.38,0.32 -0.19,0.16 -0.35,0.27 -0.47,0.33 -0.12,0.06 -0.28,0.14 -0.49,0.25 -0.21,0.1 -0.41,0.18 -0.6,0.22 -0.2,0.04 -0.43,0.09 -0.69,0.13 -0.27,0.05 -0.55,0.09 -0.85,0.12z"/>
   <path class="fil1" d="M186.36 79.89c-0.36,0.03 -0.71,-0.07 -1.07,-0.31 -0.3,-0.21 -0.48,-0.52 -0.54,-0.94 -0.12,-0.65 -0.16,-1.44 -0.13,-2.34 0.03,-0.91 0.07,-1.56 0.11,-1.95 0.05,-0.38 0.13,-0.99 0.25,-1.83 0.12,-0.83 0.21,-1.5 0.27,-2.01 0.41,-3.75 0.78,-6.15 1.11,-7.19 0.21,-0.74 0.72,-1.32 1.52,-1.74 0.27,-0.12 0.57,-0.06 0.89,0.18 0.12,0.09 0.22,0.27 0.29,0.56 0.08,0.28 0.12,0.62 0.14,1.02 0.01,0.41 0.02,0.78 0.02,1.12 0,0.34 -0.01,0.72 -0.02,1.12 -0.02,0.4 -0.03,0.64 -0.03,0.73 0,0.18 0.01,0.36 0.03,0.54 0.01,0.18 0.04,0.39 0.06,0.63 0.03,0.23 0.05,0.41 0.05,0.53 0.06,0.18 0.12,0.3 0.18,0.36 0.06,0.06 0.14,0.08 0.24,0.07 0.11,-0.02 0.23,-0.1 0.38,-0.25 0.15,-0.15 0.35,-0.36 0.58,-0.63 1.28,-1.87 2.43,-3.23 3.44,-4.06 0.54,-0.45 1.09,-0.76 1.66,-0.94 0.56,-0.18 0.99,-0.19 1.29,-0.04 1.4,0.53 1.92,1.78 1.56,3.75 -0.23,1.13 -0.29,1.8 -0.17,2.01 0.14,0.27 0.52,0.1 1.11,-0.49 0.18,-0.18 0.41,-0.48 0.69,-0.89 0.29,-0.42 0.46,-0.68 0.52,-0.77 1.01,-1.42 2.1,-2.44 3.26,-3.03 0.62,-0.3 1.26,-0.29 1.92,0.02 0.65,0.31 1.1,0.9 1.34,1.77 0.12,0.53 0.07,1.89 -0.14,4.06 -0.2,2.17 -0.31,3.3 -0.31,3.39 -0.03,0.39 -0.05,0.81 -0.07,1.25 -0.01,0.45 -0.03,0.94 -0.04,1.46 -0.01,0.52 -0.02,0.93 -0.02,1.22 0,0.93 0.18,1.49 0.56,1.7 0.37,0.21 0.84,-0.01 1.4,-0.67 0.66,-0.83 1.58,-2.51 2.77,-5.05 0.09,-0.17 0.37,-0.83 0.85,-1.96 0.48,-1.13 0.79,-1.85 0.94,-2.15 0.18,-0.26 0.37,-0.26 0.58,0 0.06,0.03 0.09,0.11 0.09,0.23l0 0.45c-0.75,1.81 -1.45,3.45 -2.1,4.91 -0.8,1.78 -1.55,3.18 -2.23,4.17 -0.69,1 -1.42,1.55 -2.19,1.63 -0.42,0.06 -0.78,0.09 -1.07,0.09 -0.72,0 -1.4,-0.23 -2.06,-0.71 -0.65,-0.48 -1.06,-0.98 -1.2,-1.52 -0.24,-0.95 -0.15,-2.75 0.26,-5.4 0.42,-2.65 0.72,-4.22 0.9,-4.69 0.5,-1.58 0.58,-2.48 0.22,-2.68 -0.21,-0.12 -0.48,-0.09 -0.8,0.11 -0.33,0.19 -0.71,0.53 -1.14,1 -0.44,0.48 -0.8,0.9 -1.1,1.28 -0.29,0.37 -0.67,0.86 -1.11,1.47 -0.45,0.61 -0.7,0.96 -0.76,1.05 -0.15,0.21 -0.45,0.79 -0.9,1.74 -0.2,0.54 -0.38,1.12 -0.51,1.74 -0.13,0.63 -0.28,1.52 -0.42,2.66 -0.15,1.15 -0.24,1.79 -0.27,1.94 -0.03,0.42 -0.24,0.88 -0.63,1.39 -0.12,0.24 -0.44,0.39 -0.96,0.47 -0.52,0.07 -0.87,0.06 -1.05,-0.02 -0.62,-0.18 -0.94,-0.6 -0.94,-1.26 -0.02,-0.74 0,-1.65 0.09,-2.72 0.09,-1.07 0.21,-2.02 0.34,-2.86 0.13,-0.83 0.31,-1.9 0.54,-3.21 0.22,-1.31 0.37,-2.24 0.46,-2.77 0.03,-0.21 0.09,-0.5 0.18,-0.85 0.09,-0.36 0.15,-0.63 0.18,-0.81 0.15,-0.29 0.06,-0.44 -0.27,-0.44l-0.62 0.13c-1.07,0.51 -2.62,2.4 -4.65,5.67 -0.56,0.93 -0.87,1.6 -0.94,2.01l-1.29 6.03c-0.09,0.3 -0.34,0.69 -0.76,1.16 -0.24,0.21 -0.49,0.33 -0.76,0.36z"/>
   <path class="fil1" d="M217.58 79.8c-0.65,0.24 -1.38,0.21 -2.19,-0.09 -0.8,-0.3 -1.5,-0.79 -2.1,-1.47 -0.35,-0.39 -0.75,-1.25 -1.18,-2.59 -0.43,-1.34 -0.59,-2.77 -0.47,-4.29 0.3,-3.96 0.89,-6.95 1.79,-8.98 0.21,-0.53 0.4,-0.83 0.58,-0.89 0.56,-0.27 1.09,-0.27 1.58,0 0.5,0.27 0.68,0.69 0.56,1.25 -0.15,0.69 -0.32,1.7 -0.51,3.04 -0.2,1.34 -0.34,2.28 -0.43,2.81 -0.23,1.4 -0.38,2.41 -0.44,3.04 -0.03,0.3 -0.08,0.77 -0.16,1.41 -0.07,0.64 -0.12,1.12 -0.13,1.45 -0.02,0.32 0.02,0.75 0.11,1.27 0.09,0.52 0.25,1.03 0.49,1.54 0.09,0.15 0.19,0.28 0.29,0.4 0.1,0.12 0.24,0.21 0.4,0.27 0.17,0.06 0.29,0.11 0.38,0.14 0.09,0.02 0.26,0.05 0.49,0.08l0.32 0.05c0.47,0.09 0.94,-0.05 1.4,-0.43 0.46,-0.37 0.84,-0.82 1.14,-1.36 0.63,-1.16 0.94,-2.31 0.94,-3.44 0,-0.06 -0.24,-0.19 -0.71,-0.4 -0.45,-0.18 -0.94,-0.43 -1.48,-0.76 -0.74,-0.5 -1.12,-1.22 -1.12,-2.14 0,-1.01 0.33,-1.76 0.99,-2.23 0.56,-0.42 1.23,-0.45 2.01,-0.09 0.23,0.11 0.44,0.26 0.6,0.42 0.16,0.16 0.3,0.4 0.4,0.69 0.11,0.3 0.18,0.52 0.23,0.67 0.04,0.15 0.1,0.43 0.17,0.85 0.08,0.42 0.12,0.66 0.12,0.72l0.13 0.98c0.21,0.12 0.73,0.1 1.56,-0.05 1.67,-0.29 2.89,-1.16 3.66,-2.59 0.54,-0.95 0.82,-1.43 0.85,-1.43 0.21,-0.2 0.41,-0.2 0.58,0 0.12,0.03 0.18,0.15 0.18,0.36 0.03,0.06 -0.01,0.2 -0.13,0.4 -0.54,0.96 -1.02,1.7 -1.45,2.24 -0.43,0.53 -0.96,0.94 -1.57,1.22 -0.61,0.29 -1.05,0.46 -1.34,0.52 -0.28,0.06 -0.91,0.16 -1.89,0.31 -0.09,0 -0.17,0.02 -0.23,0.07 -0.06,0.04 -0.09,0.09 -0.09,0.15l-0.04 0.05c-0.51,1.9 -0.9,3.11 -1.16,3.62 -0.51,1.04 -0.96,1.77 -1.34,2.18 -0.39,0.42 -0.99,0.76 -1.79,1.03zm3.35 -8.22c0.21,-0.2 0.03,-0.96 -0.54,-2.27 -0.26,-0.69 -0.62,-0.88 -1.07,-0.58 -0.23,0.17 -0.36,0.45 -0.38,0.82 -0.01,0.37 0.1,0.69 0.34,0.96 0.18,0.24 0.39,0.45 0.65,0.63 0.25,0.18 0.46,0.3 0.64,0.38 0.18,0.07 0.3,0.09 0.36,0.06z"/>
   <path class="fil1" d="M232.27 79.85c-0.38,0.15 -1.02,0.18 -1.92,0.09 -0.89,-0.09 -1.6,-0.32 -2.14,-0.67 -0.57,-0.36 -1.04,-1.05 -1.43,-2.06 -0.86,-2.44 -0.58,-5.43 0.85,-8.98 0.39,-0.95 0.93,-1.92 1.63,-2.9 0.7,-0.98 1.38,-1.73 2.03,-2.23 2.09,-1.46 3.68,-1.62 4.78,-0.49 0.6,0.53 0.8,1.18 0.6,1.94 -0.19,0.76 -0.51,1.44 -0.96,2.05 -0.44,0.61 -1.01,1.22 -1.69,1.81 -1.31,1.16 -2.52,2.1 -3.62,2.82 -0.36,0.3 -0.57,0.7 -0.63,1.2 0,1.52 0.02,2.47 0.05,2.86 0,0.57 0.13,1.14 0.38,1.72 0.25,0.58 0.59,0.96 1,1.14 1.16,0.45 2.51,-0.07 4.04,-1.56 1.54,-1.49 2.83,-3.28 3.87,-5.36 0.18,-0.36 0.35,-0.75 0.51,-1.19 0.17,-0.43 0.3,-0.78 0.4,-1.05 0.11,-0.26 0.2,-0.44 0.29,-0.53 0.3,-0.3 0.54,-0.34 0.72,-0.14 0.09,0.12 0.1,0.32 0.04,0.58 -0.09,0.27 -0.26,0.67 -0.51,1.21 -0.25,0.54 -0.44,0.95 -0.56,1.25 -0.62,1.49 -1.11,2.53 -1.47,3.13 -1.02,1.58 -1.98,2.78 -2.88,3.62 -0.91,0.83 -2.04,1.41 -3.38,1.74zm-2.36 -10.14c0.41,0.27 1.34,-0.21 2.77,-1.43 0.09,-0.09 0.3,-0.29 0.64,-0.6 0.35,-0.32 0.59,-0.55 0.72,-0.7 0.13,-0.14 0.31,-0.35 0.54,-0.62 0.22,-0.27 0.4,-0.54 0.55,-0.81 0.27,-0.47 0.36,-0.94 0.27,-1.4 -0.09,-0.46 -0.33,-0.8 -0.71,-1.01 -0.54,-0.27 -1.08,-0.24 -1.63,0.09 -0.55,0.33 -1.01,0.78 -1.37,1.34 -0.68,0.96 -1.26,2.25 -1.74,3.89 -0.27,0.68 -0.28,1.1 -0.04,1.25z"/>
   <path class="fil1" d="M122.2 107.97c-0.37,0.13 -0.77,0.12 -1.21,-0.05 -0.45,-0.16 -0.84,-0.43 -1.16,-0.81 -0.2,-0.22 -0.42,-0.69 -0.66,-1.42 -0.24,-0.73 -0.32,-1.53 -0.26,-2.38 0.02,-0.65 0.17,-1.82 0.46,-3.54 0.29,-1.71 0.68,-3.33 1.17,-4.86 0.92,-2.94 1.92,-4.95 2.99,-6.02 0.36,-0.46 0.81,-0.82 1.34,-1.06 0.54,-0.25 0.95,-0.27 1.25,-0.08 0.44,0.27 0.61,0.86 0.51,1.79 -0.11,0.93 -0.38,1.99 -0.82,3.19 -0.43,1.19 -0.99,2.42 -1.65,3.68 -0.67,1.25 -1.34,2.34 -2.01,3.24 -0.45,0.45 -0.73,1 -0.84,1.66 -0.13,0.77 -0.22,1.33 -0.25,1.67 -0.08,1.25 -0.03,2.34 0.17,3.26 0.02,0.17 0.09,0.35 0.21,0.55 0.13,0.19 0.26,0.3 0.41,0.32 0.26,0.05 0.52,-0.03 0.78,-0.24 0.25,-0.2 0.46,-0.46 0.63,-0.75 0.29,-0.53 0.5,-1.01 0.63,-1.45 0.12,-0.43 0.25,-1.08 0.38,-1.93 0,-0.04 -0.13,-0.11 -0.4,-0.23 -0.24,-0.09 -0.51,-0.23 -0.81,-0.41 -0.41,-0.28 -0.62,-0.68 -0.62,-1.19 0,-0.56 0.18,-0.97 0.55,-1.23 0.31,-0.23 0.68,-0.25 1.11,-0.05 0.13,0.06 0.24,0.14 0.33,0.23 0.09,0.09 0.16,0.22 0.22,0.38 0.06,0.17 0.1,0.29 0.13,0.37 0.02,0.09 0.05,0.24 0.09,0.47 0.04,0.23 0.07,0.36 0.07,0.4l0.07 0.44 0.49 0c0.12,-0.01 0.33,-0.07 0.65,-0.17 0.39,-0.13 0.81,-0.45 1.25,-0.96 0.25,-0.28 0.41,-0.46 0.47,-0.52 0.12,-0.12 0.23,-0.12 0.32,0 0.07,0.02 0.1,0.08 0.1,0.2 0.02,0.03 -0.01,0.1 -0.07,0.22 -0.87,1.08 -1.67,1.68 -2.4,1.8 -0.06,0.02 -0.15,0.03 -0.26,0.05 -0.1,0.02 -0.16,0.02 -0.18,0.02l-0.32 0.15c-0.33,1.45 -0.71,2.61 -1.14,3.48 -0.28,0.58 -0.52,0.98 -0.74,1.21 -0.21,0.23 -0.54,0.42 -0.98,0.57zm-0.47 -9.18c0.08,0.05 0.21,-0.03 0.38,-0.22 0.17,-0.2 0.33,-0.44 0.48,-0.72 0.15,-0.26 0.36,-0.63 0.63,-1.09 0.27,-0.46 0.47,-0.79 0.58,-1.01 0.12,-0.21 0.27,-0.51 0.46,-0.9 0.19,-0.39 0.36,-0.79 0.53,-1.22 0.28,-0.66 0.59,-1.61 0.93,-2.84 0.35,-1.23 0.46,-1.97 0.33,-2.2 -0.2,-0.21 -0.41,-0.3 -0.65,-0.27 -0.23,0.03 -0.44,0.12 -0.64,0.27 -0.47,0.38 -0.98,1.26 -1.5,2.64 -0.61,1.83 -1.02,3.3 -1.21,4.4 -0.02,0.13 -0.06,0.34 -0.13,0.64 -0.06,0.3 -0.12,0.56 -0.16,0.8 -0.04,0.24 -0.08,0.49 -0.12,0.75 -0.04,0.27 -0.05,0.48 -0.04,0.65 0.02,0.16 0.06,0.27 0.13,0.32zm2.81 3.16c0.12,-0.12 0.02,-0.54 -0.3,-1.26 -0.14,-0.38 -0.34,-0.49 -0.59,-0.32 -0.13,0.1 -0.2,0.25 -0.21,0.45 -0.01,0.21 0.05,0.39 0.19,0.54 0.1,0.13 0.21,0.24 0.36,0.34 0.13,0.1 0.25,0.17 0.35,0.21 0.1,0.04 0.17,0.05 0.2,0.04z"/>
   <path class="fil1" d="M150.63 101.72c0.08,-0.19 0.19,-0.27 0.32,-0.22 0.13,0.05 0.17,0.17 0.1,0.35 -0.03,0.08 -0.07,0.22 -0.12,0.41 -0.05,0.19 -0.1,0.34 -0.15,0.45 -1.14,2.91 -2.43,4.5 -3.88,4.77 -0.88,0.16 -1.53,0 -1.93,-0.5 -0.41,-0.49 -0.51,-1.27 -0.31,-2.34 0.2,-1.09 0.34,-1.81 0.42,-2.17l0.32 -1.44c-0.76,1.81 -1.28,2.94 -1.56,3.39 -0.7,1.11 -1.29,1.81 -1.76,2.08 -0.47,0.27 -1.12,0.29 -1.94,0.06 -0.28,-0.08 -0.48,-0.41 -0.59,-1 -0.12,-0.58 -0.15,-1.29 -0.09,-2.13 0.06,-0.84 0.13,-1.59 0.21,-2.26 0.08,-0.67 0.17,-1.26 0.27,-1.79 -0.29,0.67 -0.54,1.35 -0.74,2.02 -0.44,1.42 -0.85,2.55 -1.22,3.4 -0.37,0.85 -0.71,1.45 -1.01,1.83 -0.31,0.36 -0.62,0.59 -0.94,0.67 -0.32,0.09 -0.65,0.08 -1,-0.02 -0.44,-0.1 -0.78,-0.32 -1.01,-0.67 -0.23,-0.34 -0.33,-0.7 -0.31,-1.07 0.03,-0.37 0.09,-0.71 0.19,-1.03 0.09,-0.23 0.28,-0.32 0.54,-0.29 0.26,0.03 0.36,0.21 0.3,0.54 -0.14,0.46 -0.18,0.89 -0.13,1.27 0.05,0.39 0.26,0.63 0.62,0.73 0.51,0.15 0.99,-0.14 1.46,-0.86 0.21,-0.35 0.42,-0.77 0.64,-1.26 0.21,-0.5 0.38,-0.92 0.5,-1.27 0.13,-0.36 0.27,-0.79 0.45,-1.29 0.17,-0.5 0.27,-0.8 0.31,-0.9 0.47,-1.38 0.97,-2.69 1.5,-3.92 0.12,-0.27 0.31,-0.46 0.59,-0.57 0.28,-0.12 0.54,-0.14 0.78,-0.09 0.24,0.06 0.36,0.18 0.36,0.36 0,0.46 -0.09,1.32 -0.27,2.57 -0.18,1.25 -0.28,2.06 -0.3,2.44 -0.15,2.34 -0.05,3.61 0.3,3.83 0.36,0.23 0.87,-0.18 1.54,-1.24 0.67,-1.05 1.26,-2.19 1.78,-3.42 0.52,-1.22 0.87,-2.19 1.07,-2.9 0.05,-0.16 0.12,-0.31 0.22,-0.44 0.05,-0.08 0.1,-0.14 0.15,-0.17 0.3,-0.13 0.57,-0.13 0.82,0.01 0.24,0.14 0.37,0.37 0.37,0.68 0,0.64 -0.18,1.91 -0.52,3.8 -0.38,1.99 -0.58,3.18 -0.59,3.55 -0.02,0.33 0.05,0.57 0.21,0.71 0.15,0.14 0.32,0.21 0.5,0.21 0.48,0 1.02,-0.38 1.63,-1.14 0.22,-0.26 0.52,-0.79 0.93,-1.58 0.4,-0.79 0.73,-1.5 0.97,-2.15z"/>
   <path class="fil1" d="M153.37 107.5c-0.21,0.08 -0.57,0.1 -1.06,0.05 -0.49,-0.05 -0.89,-0.17 -1.18,-0.37 -0.32,-0.2 -0.58,-0.58 -0.79,-1.13 -0.48,-1.35 -0.33,-3.01 0.46,-4.97 0.22,-0.52 0.52,-1.06 0.91,-1.6 0.38,-0.54 0.76,-0.96 1.12,-1.24 1.15,-0.8 2.03,-0.89 2.64,-0.27 0.33,0.3 0.44,0.66 0.33,1.08 -0.1,0.42 -0.28,0.79 -0.53,1.13 -0.24,0.34 -0.56,0.67 -0.94,1 -0.72,0.64 -1.39,1.16 -1.99,1.56 -0.2,0.16 -0.32,0.38 -0.35,0.66 0,0.84 0.01,1.37 0.02,1.58 0,0.32 0.07,0.63 0.21,0.95 0.14,0.32 0.33,0.53 0.56,0.63 0.64,0.25 1.39,-0.04 2.23,-0.86 0.85,-0.82 1.56,-1.81 2.14,-2.96 0.1,-0.2 0.19,-0.42 0.28,-0.66 0.09,-0.24 0.17,-0.43 0.22,-0.58 0.06,-0.14 0.12,-0.24 0.16,-0.29 0.17,-0.17 0.3,-0.19 0.4,-0.08 0.05,0.07 0.06,0.18 0.02,0.32 -0.04,0.15 -0.14,0.37 -0.28,0.67 -0.14,0.3 -0.24,0.53 -0.31,0.69 -0.34,0.82 -0.61,1.4 -0.81,1.73 -0.56,0.87 -1.09,1.54 -1.6,2 -0.5,0.46 -1.12,0.78 -1.86,0.96zm-1.31 -5.6c0.23,0.15 0.74,-0.12 1.53,-0.79 0.05,-0.05 0.17,-0.16 0.36,-0.34 0.19,-0.17 0.32,-0.3 0.4,-0.38 0.07,-0.08 0.17,-0.19 0.29,-0.34 0.13,-0.15 0.23,-0.3 0.31,-0.45 0.15,-0.26 0.2,-0.52 0.15,-0.77 -0.05,-0.26 -0.18,-0.45 -0.4,-0.56 -0.29,-0.15 -0.59,-0.13 -0.9,0.05 -0.3,0.18 -0.55,0.43 -0.75,0.74 -0.38,0.53 -0.7,1.24 -0.96,2.15 -0.15,0.38 -0.16,0.61 -0.03,0.69z"/>
   <path class="fil1" d="M165.57 107.48c-0.89,0.16 -1.54,0 -1.94,-0.5 -0.41,-0.49 -0.51,-1.27 -0.31,-2.34 0.2,-1.09 0.34,-1.81 0.42,-2.17 0.26,-1.16 0.48,-2.16 0.64,-3.02 0.1,-0.59 -0.01,-1.03 -0.32,-1.3 -0.23,-0.18 -0.45,-0.14 -0.67,0.12 -0.47,0.62 -0.95,1.67 -1.43,3.13 -0.59,1.78 -1.12,3.12 -1.58,4.02 -0.46,0.89 -0.88,1.46 -1.26,1.69 -0.38,0.23 -0.82,0.28 -1.33,0.17 -0.44,-0.1 -0.78,-0.32 -1.01,-0.67 -0.23,-0.34 -0.33,-0.7 -0.31,-1.07 0.02,-0.37 0.09,-0.71 0.18,-1.03 0.1,-0.23 0.28,-0.32 0.55,-0.29 0.26,0.03 0.36,0.21 0.29,0.54 -0.13,0.46 -0.17,0.89 -0.12,1.27 0.05,0.39 0.26,0.63 0.62,0.73 0.51,0.15 0.99,-0.14 1.45,-0.86 0.22,-0.35 0.43,-0.78 0.65,-1.29 0.21,-0.51 0.37,-0.92 0.49,-1.22 0.11,-0.3 0.27,-0.74 0.47,-1.32 0.2,-0.58 0.29,-0.87 0.29,-0.89 0.75,-1.84 1.26,-2.98 1.56,-3.4 0.33,-0.43 0.74,-0.67 1.22,-0.72 0.49,-0.05 0.93,0.16 1.32,0.64 0.12,0.17 0.21,0.34 0.29,0.52 0.07,0.18 0.13,0.35 0.18,0.51 0.05,0.15 0.08,0.35 0.08,0.59 0,0.24 0,0.42 0.01,0.54 0.01,0.13 -0.01,0.32 -0.05,0.59 -0.04,0.28 -0.07,0.46 -0.09,0.56 -0.01,0.1 -0.05,0.29 -0.11,0.58 -0.06,0.29 -0.09,0.46 -0.11,0.53 -0.38,1.99 -0.58,3.18 -0.59,3.55 -0.02,0.33 0.05,0.57 0.21,0.71 0.15,0.14 0.32,0.21 0.5,0.21 0.41,0 0.92,-0.38 1.53,-1.14 0.22,-0.26 0.54,-0.79 0.97,-1.59 0.42,-0.8 0.75,-1.51 0.98,-2.14 0.09,-0.19 0.19,-0.27 0.32,-0.22 0.14,0.05 0.17,0.18 0.1,0.37 -0.03,0.1 -0.08,0.23 -0.16,0.39 -0.07,0.15 -0.13,0.28 -0.16,0.38 -1.17,2.98 -2.43,4.59 -3.77,4.84z"/>
   <path class="fil1" d="M171.74 107.3c-0.55,0.27 -1.1,0.26 -1.67,-0.01 -0.57,-0.27 -0.94,-0.7 -1.12,-1.29 -0.28,-0.89 -0.32,-1.98 -0.13,-3.26 0.2,-0.89 0.44,-1.66 0.71,-2.32 0.27,-0.66 0.71,-1.3 1.32,-1.93 0.49,-0.51 1.09,-0.8 1.8,-0.89 0.33,-0.03 0.58,-0.02 0.74,0.03 0.31,0.1 0.56,0.29 0.74,0.59 0.18,0.25 0.32,0.39 0.42,0.44 0.1,0.05 0.2,0.17 0.3,0.35 0.19,0.33 0.29,0.73 0.29,1.21 0,0.18 -0.01,0.38 -0.03,0.59 -0.03,0.22 -0.05,0.38 -0.07,0.51 -0.01,0.12 -0.01,0.19 0,0.21 0.58,-0.05 1.21,-0.37 1.91,-0.97 0.09,-0.08 0.19,-0.17 0.28,-0.27 0.09,-0.09 0.15,-0.15 0.18,-0.17 0.12,-0.11 0.23,-0.11 0.32,0 0.04,0 0.05,0.06 0.05,0.17 0.02,0.04 0,0.11 -0.07,0.23 -0.9,1 -1.87,1.61 -2.89,1.82 -0.08,0.05 -0.18,0.19 -0.29,0.42 -0.12,0.23 -0.24,0.5 -0.36,0.8 -0.13,0.31 -0.2,0.49 -0.24,0.56 -0.03,0.08 -0.12,0.28 -0.28,0.59 -0.16,0.31 -0.26,0.52 -0.31,0.61 -0.05,0.09 -0.14,0.26 -0.27,0.5 -0.13,0.25 -0.24,0.42 -0.32,0.52 -0.08,0.1 -0.18,0.23 -0.3,0.38 -0.11,0.16 -0.23,0.28 -0.34,0.36 -0.12,0.08 -0.24,0.16 -0.37,0.22zm-0.32 -0.69c0.42,-0.06 0.83,-0.43 1.21,-1.11 0.52,-0.9 0.96,-1.8 1.3,-2.69 0.15,-0.34 0.13,-0.55 -0.05,-0.62 -0.34,-0.13 -0.62,-0.35 -0.83,-0.65 -0.22,-0.3 -0.34,-0.62 -0.38,-0.95 -0.11,-0.95 0.18,-1.61 0.87,-1.95 -0.02,-0.03 -0.03,-0.08 -0.05,-0.15 -0.02,-0.07 -0.07,-0.14 -0.16,-0.23 -0.09,-0.09 -0.19,-0.13 -0.28,-0.11 -1.07,0.16 -1.81,1.24 -2.23,3.23 -0.24,1.23 -0.32,2.48 -0.22,3.75 0.02,0.28 0.1,0.61 0.26,0.98 0.16,0.37 0.34,0.54 0.56,0.5zm2.96 -5.23c0.06,-0.02 0.12,-0.17 0.16,-0.45 0.04,-0.27 0.06,-0.49 0.06,-0.64 0,-0.24 -0.02,-0.47 -0.07,-0.69 -0.02,-0.16 -0.09,-0.29 -0.2,-0.39 -0.12,-0.1 -0.24,-0.13 -0.37,-0.1 -0.26,0.05 -0.42,0.2 -0.47,0.44 -0.1,0.55 -0.01,1.02 0.27,1.43 0.07,0.09 0.17,0.18 0.3,0.28 0.13,0.1 0.24,0.14 0.32,0.12z"/>
   <path class="fil1" d="M185.29 101.16c0.11,0 0.17,0.06 0.17,0.2 0,0.06 -0.07,0.31 -0.22,0.74 -0.1,0.26 -0.37,0.86 -0.82,1.79 -0.44,0.92 -0.8,1.6 -1.08,2.01 -0.4,0.59 -0.8,1.02 -1.2,1.29 -0.4,0.27 -0.9,0.4 -1.49,0.38 -0.41,-0.01 -0.82,-0.13 -1.24,-0.36 -0.41,-0.24 -0.67,-0.56 -0.79,-0.99 -0.05,-0.32 -0.08,-0.57 -0.08,-0.77 -0.01,-0.19 0.03,-0.46 0.11,-0.79 0.08,-0.33 0.15,-0.59 0.22,-0.79 0.07,-0.2 0.16,-0.45 0.28,-0.78 0.13,-0.32 0.21,-0.56 0.26,-0.72l0.47 -1.46c0.07,-0.18 0.07,-0.33 0,-0.44 -0.06,-0.12 -0.17,-0.18 -0.32,-0.2 -0.62,-0.07 -1.18,-0.23 -1.68,-0.5 -0.16,0.66 -0.56,1.71 -1.18,3.14 -0.13,0.26 -0.27,0.36 -0.42,0.3 -0.1,-0.07 -0.11,-0.22 -0.03,-0.45 0.23,-0.56 0.48,-1.21 0.74,-1.96 0.27,-0.75 0.42,-1.19 0.47,-1.32 -0.31,-0.23 -0.61,-0.59 -0.89,-1.06 -0.29,-0.51 -0.34,-1.1 -0.16,-1.77 0.19,-0.66 0.54,-1.1 1.03,-1.32 0.46,-0.2 0.85,-0.18 1.18,0.05 0.33,0.23 0.44,0.64 0.32,1.24 -0.11,0.65 -0.24,1.12 -0.39,1.4 -0.18,0.36 -0.18,0.64 0,0.82 0.59,0.54 1.43,0.81 2.52,0.81 0.34,0 0.55,0.17 0.61,0.5 0.09,0.37 0,1.03 -0.24,1.97 -0.25,0.94 -0.47,1.62 -0.67,2.05 -0.49,1.41 -0.44,2.2 0.15,2.37 0.66,0.2 1.28,-0.11 1.88,-0.92 0.59,-0.8 1.27,-2.11 2.04,-3.92 0.14,-0.3 0.23,-0.48 0.3,-0.54 0.03,-0.02 0.08,-0.02 0.15,0zm-7.41 -3.06c0.2,0 0.39,-0.47 0.57,-1.41 0.1,-0.66 0.01,-0.99 -0.27,-0.99 -0.25,0 -0.43,0.12 -0.56,0.36 -0.12,0.24 -0.18,0.51 -0.18,0.8 0,0.18 0.04,0.42 0.13,0.72 0.09,0.29 0.2,0.47 0.31,0.52z"/>
   <path class="fil1" d="M186.5 107.55c-0.38,0.07 -0.76,0 -1.15,-0.2 -0.39,-0.19 -0.68,-0.47 -0.88,-0.84 -0.38,-0.87 -0.44,-2.01 -0.18,-3.42 0.25,-1.4 0.81,-2.68 1.67,-3.83 0.44,-0.61 1.01,-1.11 1.71,-1.51 0.7,-0.39 1.37,-0.54 2.01,-0.44 0.25,0.01 0.44,0.12 0.58,0.32 0.14,0.19 0.21,0.43 0.21,0.69 0,0.44 -0.1,0.83 -0.29,1.16 -0.1,0.1 -0.21,0.15 -0.32,0.15 -0.22,0 -0.27,-0.27 -0.15,-0.79 0.11,-0.53 0.09,-0.82 -0.08,-0.87 -0.8,-0.26 -1.58,0.14 -2.32,1.21 -0.61,0.89 -1.01,2.01 -1.22,3.37 -0.2,1.36 -0.19,2.45 0.04,3.27 0.05,0.25 0.19,0.4 0.43,0.46 0.24,0.06 0.44,0.02 0.6,-0.11 0.23,-0.18 0.46,-0.42 0.68,-0.72 0.23,-0.29 0.4,-0.55 0.52,-0.76 0.13,-0.22 0.32,-0.59 0.59,-1.13 0.28,-0.53 0.47,-0.9 0.58,-1.09 0.27,-0.45 0.56,-1 0.89,-1.66 0.04,-0.06 0.08,-0.16 0.15,-0.29 0.07,-0.14 0.11,-0.23 0.12,-0.28 0.02,-0.11 0.04,-0.25 0.05,-0.4 0.02,-0.16 0.04,-0.28 0.05,-0.35 0.02,-0.07 0.04,-0.16 0.06,-0.26 0.03,-0.1 0.07,-0.18 0.12,-0.26 0.04,-0.07 0.1,-0.14 0.17,-0.21 0.25,-0.24 0.47,-0.24 0.67,0 0.13,0.27 0.19,0.46 0.19,0.6 0.05,0.65 0.08,1.64 0.08,2.96 -0.02,0.72 -0.03,1.82 -0.03,3.28 0,0.36 0.15,0.58 0.45,0.67 0.59,0.16 1.27,-0.36 2.03,-1.57 0.77,-1.21 1.31,-2.37 1.62,-3.47 0.05,-0.21 0.15,-0.39 0.3,-0.54 0.03,-0.02 0.08,-0.02 0.14,0 0.12,0 0.18,0.06 0.18,0.2 0,0.06 -0.08,0.31 -0.23,0.74 -0.75,2.04 -1.37,3.41 -1.85,4.12 -0.51,0.77 -1.1,1.29 -1.76,1.54 -0.67,0.26 -1.26,0.25 -1.79,-0.01 -0.3,-0.13 -0.53,-0.37 -0.69,-0.72 -0.17,-0.34 -0.27,-0.7 -0.3,-1.08 -0.03,-0.43 -0.05,-0.74 -0.05,-0.94l0 -1.26c0,-0.13 -0.05,-0.2 -0.15,-0.2 -0.14,0 -0.26,0.09 -0.34,0.27 -0.05,0.1 -0.16,0.34 -0.32,0.72 -0.17,0.38 -0.29,0.65 -0.36,0.8 -0.07,0.16 -0.19,0.4 -0.36,0.72 -0.16,0.32 -0.31,0.56 -0.43,0.73 -0.12,0.16 -0.28,0.35 -0.46,0.55 -0.18,0.21 -0.37,0.36 -0.57,0.47 -0.19,0.11 -0.4,0.18 -0.61,0.21z"/>
   <path class="fil1" d="M200.59 107.28c-0.28,-0.17 -0.49,-0.41 -0.63,-0.74 -0.14,-0.33 -0.25,-0.75 -0.33,-1.25 -0.08,-0.5 -0.13,-0.78 -0.15,-0.85 -0.05,-0.16 -0.13,-0.27 -0.23,-0.32 -0.11,-0.05 -0.25,0 -0.44,0.15 -0.65,0.66 -1.19,1.54 -1.6,2.66 -0.05,0.13 -0.14,0.2 -0.28,0.2 -0.14,0 -0.25,-0.06 -0.34,-0.17 -0.14,-0.15 -0.19,-0.29 -0.12,-0.42 0.41,-0.92 0.96,-1.73 1.65,-2.42 0.25,-0.23 0.48,-0.58 0.69,-1.04 0.15,-0.41 0.2,-0.82 0.15,-1.23 -0.01,-0.1 -0.05,-0.4 -0.11,-0.9 -0.06,-0.5 -0.13,-0.96 -0.22,-1.37 -0.09,-0.41 -0.2,-0.71 -0.33,-0.89 -0.1,-0.12 -0.23,-0.1 -0.37,0.05 -0.1,0.08 -0.32,0.58 -0.67,1.49 -0.35,0.91 -0.54,1.41 -0.59,1.49 -0.02,0.05 -0.06,0.1 -0.14,0.14 -0.07,0.04 -0.14,0.04 -0.21,-0.01 -0.05,-0.02 -0.08,-0.05 -0.08,-0.1 -0.01,-0.05 0,-0.13 0.03,-0.25 0.04,-0.11 0.07,-0.23 0.11,-0.34 0.05,-0.12 0.1,-0.29 0.18,-0.51 0.07,-0.22 0.14,-0.43 0.21,-0.63 0.21,-0.69 0.42,-1.21 0.61,-1.57 0.2,-0.35 0.46,-0.58 0.79,-0.67 0.32,-0.1 0.7,0.01 1.16,0.34 0.28,0.26 0.48,0.56 0.6,0.89 0.06,0.21 0.13,0.46 0.19,0.75 0.07,0.29 0.13,0.53 0.18,0.73 0.05,0.2 0.07,0.31 0.07,0.32 0.05,0.13 0.09,0.22 0.12,0.25 0.04,0.03 0.07,0.03 0.11,0 0.05,-0.03 0.1,-0.12 0.16,-0.25 0.14,-0.21 0.34,-0.57 0.62,-1.07 0.28,-0.5 0.52,-0.92 0.73,-1.25 0.21,-0.33 0.38,-0.57 0.53,-0.71 0.13,-0.14 0.24,-0.18 0.32,-0.13 0.13,0.08 0.14,0.26 0.03,0.52 -0.28,0.71 -0.51,1.19 -0.69,1.46l-0.47 0.81c-0.23,0.35 -0.55,0.88 -0.94,1.61 -0.1,0.19 -0.13,0.5 -0.1,0.91 0,0.03 0.02,0.27 0.06,0.71 0.04,0.45 0.09,0.81 0.14,1.09 0.05,0.28 0.15,0.58 0.32,0.9 0.16,0.32 0.38,0.52 0.64,0.61 0.4,0.16 0.95,-0.38 1.67,-1.62 0.71,-1.24 1.22,-2.38 1.52,-3.42 0.04,-0.21 0.14,-0.39 0.29,-0.54 0.03,-0.02 0.08,-0.02 0.15,0 0.11,0 0.17,0.06 0.17,0.2 0,0.06 -0.07,0.31 -0.22,0.74 -0.76,2.04 -1.37,3.41 -1.85,4.12 -0.53,0.81 -1.04,1.32 -1.53,1.55 -0.5,0.23 -1.01,0.23 -1.56,-0.02z"/>
  </g>
 </g>
</svg>
